G04 #@! TF.GenerationSoftware,KiCad,Pcbnew,8.0.4*
G04 #@! TF.CreationDate,2024-09-09T13:58:12+01:00*
G04 #@! TF.ProjectId,Amiga_internal_floppy_adapter,416d6967-615f-4696-9e74-65726e616c5f,1.0*
G04 #@! TF.SameCoordinates,Original*
G04 #@! TF.FileFunction,Legend,Top*
G04 #@! TF.FilePolarity,Positive*
%FSLAX46Y46*%
G04 Gerber Fmt 4.6, Leading zero omitted, Abs format (unit mm)*
G04 Created by KiCad (PCBNEW 8.0.4) date 2024-09-09 13:58:12*
%MOMM*%
%LPD*%
G01*
G04 APERTURE LIST*
G04 Aperture macros list*
%AMRoundRect*
0 Rectangle with rounded corners*
0 $1 Rounding radius*
0 $2 $3 $4 $5 $6 $7 $8 $9 X,Y pos of 4 corners*
0 Add a 4 corners polygon primitive as box body*
4,1,4,$2,$3,$4,$5,$6,$7,$8,$9,$2,$3,0*
0 Add four circle primitives for the rounded corners*
1,1,$1+$1,$2,$3*
1,1,$1+$1,$4,$5*
1,1,$1+$1,$6,$7*
1,1,$1+$1,$8,$9*
0 Add four rect primitives between the rounded corners*
20,1,$1+$1,$2,$3,$4,$5,0*
20,1,$1+$1,$4,$5,$6,$7,0*
20,1,$1+$1,$6,$7,$8,$9,0*
20,1,$1+$1,$8,$9,$2,$3,0*%
G04 Aperture macros list end*
%ADD10C,0.100000*%
%ADD11C,0.150000*%
%ADD12C,0.120000*%
%ADD13C,0.000000*%
%ADD14C,1.400000*%
%ADD15O,1.400000X1.400000*%
%ADD16C,1.600000*%
%ADD17R,1.600000X1.600000*%
%ADD18O,1.600000X1.600000*%
%ADD19RoundRect,0.250000X-0.600000X-0.600000X0.600000X-0.600000X0.600000X0.600000X-0.600000X0.600000X0*%
%ADD20C,1.700000*%
%ADD21R,1.700000X1.700000*%
%ADD22O,1.700000X1.700000*%
G04 APERTURE END LIST*
D10*
X106256265Y-126824800D02*
X106399122Y-126872419D01*
X106399122Y-126872419D02*
X106637217Y-126872419D01*
X106637217Y-126872419D02*
X106732455Y-126824800D01*
X106732455Y-126824800D02*
X106780074Y-126777180D01*
X106780074Y-126777180D02*
X106827693Y-126681942D01*
X106827693Y-126681942D02*
X106827693Y-126586704D01*
X106827693Y-126586704D02*
X106780074Y-126491466D01*
X106780074Y-126491466D02*
X106732455Y-126443847D01*
X106732455Y-126443847D02*
X106637217Y-126396228D01*
X106637217Y-126396228D02*
X106446741Y-126348609D01*
X106446741Y-126348609D02*
X106351503Y-126300990D01*
X106351503Y-126300990D02*
X106303884Y-126253371D01*
X106303884Y-126253371D02*
X106256265Y-126158133D01*
X106256265Y-126158133D02*
X106256265Y-126062895D01*
X106256265Y-126062895D02*
X106303884Y-125967657D01*
X106303884Y-125967657D02*
X106351503Y-125920038D01*
X106351503Y-125920038D02*
X106446741Y-125872419D01*
X106446741Y-125872419D02*
X106684836Y-125872419D01*
X106684836Y-125872419D02*
X106827693Y-125920038D01*
X107161027Y-125872419D02*
X107399122Y-126872419D01*
X107399122Y-126872419D02*
X107589598Y-126158133D01*
X107589598Y-126158133D02*
X107780074Y-126872419D01*
X107780074Y-126872419D02*
X108018170Y-125872419D01*
X108970550Y-126777180D02*
X108922931Y-126824800D01*
X108922931Y-126824800D02*
X108780074Y-126872419D01*
X108780074Y-126872419D02*
X108684836Y-126872419D01*
X108684836Y-126872419D02*
X108541979Y-126824800D01*
X108541979Y-126824800D02*
X108446741Y-126729561D01*
X108446741Y-126729561D02*
X108399122Y-126634323D01*
X108399122Y-126634323D02*
X108351503Y-126443847D01*
X108351503Y-126443847D02*
X108351503Y-126300990D01*
X108351503Y-126300990D02*
X108399122Y-126110514D01*
X108399122Y-126110514D02*
X108446741Y-126015276D01*
X108446741Y-126015276D02*
X108541979Y-125920038D01*
X108541979Y-125920038D02*
X108684836Y-125872419D01*
X108684836Y-125872419D02*
X108780074Y-125872419D01*
X108780074Y-125872419D02*
X108922931Y-125920038D01*
X108922931Y-125920038D02*
X108970550Y-125967657D01*
X109399122Y-126872419D02*
X109399122Y-125872419D01*
X109399122Y-126348609D02*
X109970550Y-126348609D01*
X109970550Y-126872419D02*
X109970550Y-125872419D01*
X56652531Y-119124687D02*
X56176340Y-119458020D01*
X56652531Y-119696115D02*
X55652531Y-119696115D01*
X55652531Y-119696115D02*
X55652531Y-119315163D01*
X55652531Y-119315163D02*
X55700150Y-119219925D01*
X55700150Y-119219925D02*
X55747769Y-119172306D01*
X55747769Y-119172306D02*
X55843007Y-119124687D01*
X55843007Y-119124687D02*
X55985864Y-119124687D01*
X55985864Y-119124687D02*
X56081102Y-119172306D01*
X56081102Y-119172306D02*
X56128721Y-119219925D01*
X56128721Y-119219925D02*
X56176340Y-119315163D01*
X56176340Y-119315163D02*
X56176340Y-119696115D01*
X56652531Y-118553258D02*
X56604912Y-118648496D01*
X56604912Y-118648496D02*
X56557292Y-118696115D01*
X56557292Y-118696115D02*
X56462054Y-118743734D01*
X56462054Y-118743734D02*
X56176340Y-118743734D01*
X56176340Y-118743734D02*
X56081102Y-118696115D01*
X56081102Y-118696115D02*
X56033483Y-118648496D01*
X56033483Y-118648496D02*
X55985864Y-118553258D01*
X55985864Y-118553258D02*
X55985864Y-118410401D01*
X55985864Y-118410401D02*
X56033483Y-118315163D01*
X56033483Y-118315163D02*
X56081102Y-118267544D01*
X56081102Y-118267544D02*
X56176340Y-118219925D01*
X56176340Y-118219925D02*
X56462054Y-118219925D01*
X56462054Y-118219925D02*
X56557292Y-118267544D01*
X56557292Y-118267544D02*
X56604912Y-118315163D01*
X56604912Y-118315163D02*
X56652531Y-118410401D01*
X56652531Y-118410401D02*
X56652531Y-118553258D01*
X56652531Y-117362782D02*
X55652531Y-117362782D01*
X56604912Y-117362782D02*
X56652531Y-117458020D01*
X56652531Y-117458020D02*
X56652531Y-117648496D01*
X56652531Y-117648496D02*
X56604912Y-117743734D01*
X56604912Y-117743734D02*
X56557292Y-117791353D01*
X56557292Y-117791353D02*
X56462054Y-117838972D01*
X56462054Y-117838972D02*
X56176340Y-117838972D01*
X56176340Y-117838972D02*
X56081102Y-117791353D01*
X56081102Y-117791353D02*
X56033483Y-117743734D01*
X56033483Y-117743734D02*
X55985864Y-117648496D01*
X55985864Y-117648496D02*
X55985864Y-117458020D01*
X55985864Y-117458020D02*
X56033483Y-117362782D01*
X55652531Y-116267543D02*
X55652531Y-115696115D01*
X56652531Y-115981829D02*
X55652531Y-115981829D01*
X56652531Y-115362781D02*
X55652531Y-115362781D01*
X56652531Y-114934210D02*
X56128721Y-114934210D01*
X56128721Y-114934210D02*
X56033483Y-114981829D01*
X56033483Y-114981829D02*
X55985864Y-115077067D01*
X55985864Y-115077067D02*
X55985864Y-115219924D01*
X55985864Y-115219924D02*
X56033483Y-115315162D01*
X56033483Y-115315162D02*
X56081102Y-115362781D01*
X56652531Y-114315162D02*
X56604912Y-114410400D01*
X56604912Y-114410400D02*
X56557292Y-114458019D01*
X56557292Y-114458019D02*
X56462054Y-114505638D01*
X56462054Y-114505638D02*
X56176340Y-114505638D01*
X56176340Y-114505638D02*
X56081102Y-114458019D01*
X56081102Y-114458019D02*
X56033483Y-114410400D01*
X56033483Y-114410400D02*
X55985864Y-114315162D01*
X55985864Y-114315162D02*
X55985864Y-114172305D01*
X55985864Y-114172305D02*
X56033483Y-114077067D01*
X56033483Y-114077067D02*
X56081102Y-114029448D01*
X56081102Y-114029448D02*
X56176340Y-113981829D01*
X56176340Y-113981829D02*
X56462054Y-113981829D01*
X56462054Y-113981829D02*
X56557292Y-114029448D01*
X56557292Y-114029448D02*
X56604912Y-114077067D01*
X56604912Y-114077067D02*
X56652531Y-114172305D01*
X56652531Y-114172305D02*
X56652531Y-114315162D01*
X56652531Y-113553257D02*
X55985864Y-113553257D01*
X56081102Y-113553257D02*
X56033483Y-113505638D01*
X56033483Y-113505638D02*
X55985864Y-113410400D01*
X55985864Y-113410400D02*
X55985864Y-113267543D01*
X55985864Y-113267543D02*
X56033483Y-113172305D01*
X56033483Y-113172305D02*
X56128721Y-113124686D01*
X56128721Y-113124686D02*
X56652531Y-113124686D01*
X56128721Y-113124686D02*
X56033483Y-113077067D01*
X56033483Y-113077067D02*
X55985864Y-112981829D01*
X55985864Y-112981829D02*
X55985864Y-112838972D01*
X55985864Y-112838972D02*
X56033483Y-112743733D01*
X56033483Y-112743733D02*
X56128721Y-112696114D01*
X56128721Y-112696114D02*
X56652531Y-112696114D01*
X56652531Y-111791353D02*
X56128721Y-111791353D01*
X56128721Y-111791353D02*
X56033483Y-111838972D01*
X56033483Y-111838972D02*
X55985864Y-111934210D01*
X55985864Y-111934210D02*
X55985864Y-112124686D01*
X55985864Y-112124686D02*
X56033483Y-112219924D01*
X56604912Y-111791353D02*
X56652531Y-111886591D01*
X56652531Y-111886591D02*
X56652531Y-112124686D01*
X56652531Y-112124686D02*
X56604912Y-112219924D01*
X56604912Y-112219924D02*
X56509673Y-112267543D01*
X56509673Y-112267543D02*
X56414435Y-112267543D01*
X56414435Y-112267543D02*
X56319197Y-112219924D01*
X56319197Y-112219924D02*
X56271578Y-112124686D01*
X56271578Y-112124686D02*
X56271578Y-111886591D01*
X56271578Y-111886591D02*
X56223959Y-111791353D01*
X56604912Y-111362781D02*
X56652531Y-111267543D01*
X56652531Y-111267543D02*
X56652531Y-111077067D01*
X56652531Y-111077067D02*
X56604912Y-110981829D01*
X56604912Y-110981829D02*
X56509673Y-110934210D01*
X56509673Y-110934210D02*
X56462054Y-110934210D01*
X56462054Y-110934210D02*
X56366816Y-110981829D01*
X56366816Y-110981829D02*
X56319197Y-111077067D01*
X56319197Y-111077067D02*
X56319197Y-111219924D01*
X56319197Y-111219924D02*
X56271578Y-111315162D01*
X56271578Y-111315162D02*
X56176340Y-111362781D01*
X56176340Y-111362781D02*
X56128721Y-111362781D01*
X56128721Y-111362781D02*
X56033483Y-111315162D01*
X56033483Y-111315162D02*
X55985864Y-111219924D01*
X55985864Y-111219924D02*
X55985864Y-111077067D01*
X55985864Y-111077067D02*
X56033483Y-110981829D01*
X56271578Y-109743733D02*
X56271578Y-108981829D01*
X56652531Y-107743733D02*
X55652531Y-107743733D01*
X55652531Y-107743733D02*
X55652531Y-107362781D01*
X55652531Y-107362781D02*
X55700150Y-107267543D01*
X55700150Y-107267543D02*
X55747769Y-107219924D01*
X55747769Y-107219924D02*
X55843007Y-107172305D01*
X55843007Y-107172305D02*
X55985864Y-107172305D01*
X55985864Y-107172305D02*
X56081102Y-107219924D01*
X56081102Y-107219924D02*
X56128721Y-107267543D01*
X56128721Y-107267543D02*
X56176340Y-107362781D01*
X56176340Y-107362781D02*
X56176340Y-107743733D01*
X56652531Y-106315162D02*
X56128721Y-106315162D01*
X56128721Y-106315162D02*
X56033483Y-106362781D01*
X56033483Y-106362781D02*
X55985864Y-106458019D01*
X55985864Y-106458019D02*
X55985864Y-106648495D01*
X55985864Y-106648495D02*
X56033483Y-106743733D01*
X56604912Y-106315162D02*
X56652531Y-106410400D01*
X56652531Y-106410400D02*
X56652531Y-106648495D01*
X56652531Y-106648495D02*
X56604912Y-106743733D01*
X56604912Y-106743733D02*
X56509673Y-106791352D01*
X56509673Y-106791352D02*
X56414435Y-106791352D01*
X56414435Y-106791352D02*
X56319197Y-106743733D01*
X56319197Y-106743733D02*
X56271578Y-106648495D01*
X56271578Y-106648495D02*
X56271578Y-106410400D01*
X56271578Y-106410400D02*
X56223959Y-106315162D01*
X56652531Y-105838971D02*
X55985864Y-105838971D01*
X56176340Y-105838971D02*
X56081102Y-105791352D01*
X56081102Y-105791352D02*
X56033483Y-105743733D01*
X56033483Y-105743733D02*
X55985864Y-105648495D01*
X55985864Y-105648495D02*
X55985864Y-105553257D01*
X56652531Y-105219923D02*
X55652531Y-105219923D01*
X56271578Y-105124685D02*
X56652531Y-104838971D01*
X55985864Y-104838971D02*
X56366816Y-105219923D01*
X56604912Y-104458018D02*
X56652531Y-104362780D01*
X56652531Y-104362780D02*
X56652531Y-104172304D01*
X56652531Y-104172304D02*
X56604912Y-104077066D01*
X56604912Y-104077066D02*
X56509673Y-104029447D01*
X56509673Y-104029447D02*
X56462054Y-104029447D01*
X56462054Y-104029447D02*
X56366816Y-104077066D01*
X56366816Y-104077066D02*
X56319197Y-104172304D01*
X56319197Y-104172304D02*
X56319197Y-104315161D01*
X56319197Y-104315161D02*
X56271578Y-104410399D01*
X56271578Y-104410399D02*
X56176340Y-104458018D01*
X56176340Y-104458018D02*
X56128721Y-104458018D01*
X56128721Y-104458018D02*
X56033483Y-104410399D01*
X56033483Y-104410399D02*
X55985864Y-104315161D01*
X55985864Y-104315161D02*
X55985864Y-104172304D01*
X55985864Y-104172304D02*
X56033483Y-104077066D01*
X55985864Y-103696113D02*
X56652531Y-103458018D01*
X55985864Y-103219923D02*
X56652531Y-103458018D01*
X56652531Y-103458018D02*
X56890626Y-103553256D01*
X56890626Y-103553256D02*
X56938245Y-103600875D01*
X56938245Y-103600875D02*
X56985864Y-103696113D01*
X56652531Y-102410399D02*
X55652531Y-102410399D01*
X56604912Y-102410399D02*
X56652531Y-102505637D01*
X56652531Y-102505637D02*
X56652531Y-102696113D01*
X56652531Y-102696113D02*
X56604912Y-102791351D01*
X56604912Y-102791351D02*
X56557292Y-102838970D01*
X56557292Y-102838970D02*
X56462054Y-102886589D01*
X56462054Y-102886589D02*
X56176340Y-102886589D01*
X56176340Y-102886589D02*
X56081102Y-102838970D01*
X56081102Y-102838970D02*
X56033483Y-102791351D01*
X56033483Y-102791351D02*
X55985864Y-102696113D01*
X55985864Y-102696113D02*
X55985864Y-102505637D01*
X55985864Y-102505637D02*
X56033483Y-102410399D01*
X56604912Y-101553256D02*
X56652531Y-101648494D01*
X56652531Y-101648494D02*
X56652531Y-101838970D01*
X56652531Y-101838970D02*
X56604912Y-101934208D01*
X56604912Y-101934208D02*
X56509673Y-101981827D01*
X56509673Y-101981827D02*
X56128721Y-101981827D01*
X56128721Y-101981827D02*
X56033483Y-101934208D01*
X56033483Y-101934208D02*
X55985864Y-101838970D01*
X55985864Y-101838970D02*
X55985864Y-101648494D01*
X55985864Y-101648494D02*
X56033483Y-101553256D01*
X56033483Y-101553256D02*
X56128721Y-101505637D01*
X56128721Y-101505637D02*
X56223959Y-101505637D01*
X56223959Y-101505637D02*
X56319197Y-101981827D01*
X56652531Y-99743732D02*
X56176340Y-100077065D01*
X56652531Y-100315160D02*
X55652531Y-100315160D01*
X55652531Y-100315160D02*
X55652531Y-99934208D01*
X55652531Y-99934208D02*
X55700150Y-99838970D01*
X55700150Y-99838970D02*
X55747769Y-99791351D01*
X55747769Y-99791351D02*
X55843007Y-99743732D01*
X55843007Y-99743732D02*
X55985864Y-99743732D01*
X55985864Y-99743732D02*
X56081102Y-99791351D01*
X56081102Y-99791351D02*
X56128721Y-99838970D01*
X56128721Y-99838970D02*
X56176340Y-99934208D01*
X56176340Y-99934208D02*
X56176340Y-100315160D01*
X56604912Y-98934208D02*
X56652531Y-99029446D01*
X56652531Y-99029446D02*
X56652531Y-99219922D01*
X56652531Y-99219922D02*
X56604912Y-99315160D01*
X56604912Y-99315160D02*
X56509673Y-99362779D01*
X56509673Y-99362779D02*
X56128721Y-99362779D01*
X56128721Y-99362779D02*
X56033483Y-99315160D01*
X56033483Y-99315160D02*
X55985864Y-99219922D01*
X55985864Y-99219922D02*
X55985864Y-99029446D01*
X55985864Y-99029446D02*
X56033483Y-98934208D01*
X56033483Y-98934208D02*
X56128721Y-98886589D01*
X56128721Y-98886589D02*
X56223959Y-98886589D01*
X56223959Y-98886589D02*
X56319197Y-99362779D01*
X55985864Y-98600874D02*
X55985864Y-98219922D01*
X55652531Y-98458017D02*
X56509673Y-98458017D01*
X56509673Y-98458017D02*
X56604912Y-98410398D01*
X56604912Y-98410398D02*
X56652531Y-98315160D01*
X56652531Y-98315160D02*
X56652531Y-98219922D01*
X56652531Y-97886588D02*
X55985864Y-97886588D01*
X56176340Y-97886588D02*
X56081102Y-97838969D01*
X56081102Y-97838969D02*
X56033483Y-97791350D01*
X56033483Y-97791350D02*
X55985864Y-97696112D01*
X55985864Y-97696112D02*
X55985864Y-97600874D01*
X56652531Y-97124683D02*
X56604912Y-97219921D01*
X56604912Y-97219921D02*
X56557292Y-97267540D01*
X56557292Y-97267540D02*
X56462054Y-97315159D01*
X56462054Y-97315159D02*
X56176340Y-97315159D01*
X56176340Y-97315159D02*
X56081102Y-97267540D01*
X56081102Y-97267540D02*
X56033483Y-97219921D01*
X56033483Y-97219921D02*
X55985864Y-97124683D01*
X55985864Y-97124683D02*
X55985864Y-96981826D01*
X55985864Y-96981826D02*
X56033483Y-96886588D01*
X56033483Y-96886588D02*
X56081102Y-96838969D01*
X56081102Y-96838969D02*
X56176340Y-96791350D01*
X56176340Y-96791350D02*
X56462054Y-96791350D01*
X56462054Y-96791350D02*
X56557292Y-96838969D01*
X56557292Y-96838969D02*
X56604912Y-96886588D01*
X56604912Y-96886588D02*
X56652531Y-96981826D01*
X56652531Y-96981826D02*
X56652531Y-97124683D01*
X57976760Y-119743734D02*
X57976760Y-119267544D01*
X58262475Y-119838972D02*
X57262475Y-119505639D01*
X57262475Y-119505639D02*
X58262475Y-119172306D01*
X58262475Y-118838972D02*
X57595808Y-118838972D01*
X57691046Y-118838972D02*
X57643427Y-118791353D01*
X57643427Y-118791353D02*
X57595808Y-118696115D01*
X57595808Y-118696115D02*
X57595808Y-118553258D01*
X57595808Y-118553258D02*
X57643427Y-118458020D01*
X57643427Y-118458020D02*
X57738665Y-118410401D01*
X57738665Y-118410401D02*
X58262475Y-118410401D01*
X57738665Y-118410401D02*
X57643427Y-118362782D01*
X57643427Y-118362782D02*
X57595808Y-118267544D01*
X57595808Y-118267544D02*
X57595808Y-118124687D01*
X57595808Y-118124687D02*
X57643427Y-118029448D01*
X57643427Y-118029448D02*
X57738665Y-117981829D01*
X57738665Y-117981829D02*
X58262475Y-117981829D01*
X58262475Y-117505639D02*
X57595808Y-117505639D01*
X57262475Y-117505639D02*
X57310094Y-117553258D01*
X57310094Y-117553258D02*
X57357713Y-117505639D01*
X57357713Y-117505639D02*
X57310094Y-117458020D01*
X57310094Y-117458020D02*
X57262475Y-117505639D01*
X57262475Y-117505639D02*
X57357713Y-117505639D01*
X57595808Y-116600878D02*
X58405332Y-116600878D01*
X58405332Y-116600878D02*
X58500570Y-116648497D01*
X58500570Y-116648497D02*
X58548189Y-116696116D01*
X58548189Y-116696116D02*
X58595808Y-116791354D01*
X58595808Y-116791354D02*
X58595808Y-116934211D01*
X58595808Y-116934211D02*
X58548189Y-117029449D01*
X58214856Y-116600878D02*
X58262475Y-116696116D01*
X58262475Y-116696116D02*
X58262475Y-116886592D01*
X58262475Y-116886592D02*
X58214856Y-116981830D01*
X58214856Y-116981830D02*
X58167236Y-117029449D01*
X58167236Y-117029449D02*
X58071998Y-117077068D01*
X58071998Y-117077068D02*
X57786284Y-117077068D01*
X57786284Y-117077068D02*
X57691046Y-117029449D01*
X57691046Y-117029449D02*
X57643427Y-116981830D01*
X57643427Y-116981830D02*
X57595808Y-116886592D01*
X57595808Y-116886592D02*
X57595808Y-116696116D01*
X57595808Y-116696116D02*
X57643427Y-116600878D01*
X58262475Y-115696116D02*
X57738665Y-115696116D01*
X57738665Y-115696116D02*
X57643427Y-115743735D01*
X57643427Y-115743735D02*
X57595808Y-115838973D01*
X57595808Y-115838973D02*
X57595808Y-116029449D01*
X57595808Y-116029449D02*
X57643427Y-116124687D01*
X58214856Y-115696116D02*
X58262475Y-115791354D01*
X58262475Y-115791354D02*
X58262475Y-116029449D01*
X58262475Y-116029449D02*
X58214856Y-116124687D01*
X58214856Y-116124687D02*
X58119617Y-116172306D01*
X58119617Y-116172306D02*
X58024379Y-116172306D01*
X58024379Y-116172306D02*
X57929141Y-116124687D01*
X57929141Y-116124687D02*
X57881522Y-116029449D01*
X57881522Y-116029449D02*
X57881522Y-115791354D01*
X57881522Y-115791354D02*
X57833903Y-115696116D01*
X57262475Y-113981830D02*
X57262475Y-114458020D01*
X57262475Y-114458020D02*
X57738665Y-114505639D01*
X57738665Y-114505639D02*
X57691046Y-114458020D01*
X57691046Y-114458020D02*
X57643427Y-114362782D01*
X57643427Y-114362782D02*
X57643427Y-114124687D01*
X57643427Y-114124687D02*
X57691046Y-114029449D01*
X57691046Y-114029449D02*
X57738665Y-113981830D01*
X57738665Y-113981830D02*
X57833903Y-113934211D01*
X57833903Y-113934211D02*
X58071998Y-113934211D01*
X58071998Y-113934211D02*
X58167236Y-113981830D01*
X58167236Y-113981830D02*
X58214856Y-114029449D01*
X58214856Y-114029449D02*
X58262475Y-114124687D01*
X58262475Y-114124687D02*
X58262475Y-114362782D01*
X58262475Y-114362782D02*
X58214856Y-114458020D01*
X58214856Y-114458020D02*
X58167236Y-114505639D01*
X57262475Y-113315163D02*
X57262475Y-113219925D01*
X57262475Y-113219925D02*
X57310094Y-113124687D01*
X57310094Y-113124687D02*
X57357713Y-113077068D01*
X57357713Y-113077068D02*
X57452951Y-113029449D01*
X57452951Y-113029449D02*
X57643427Y-112981830D01*
X57643427Y-112981830D02*
X57881522Y-112981830D01*
X57881522Y-112981830D02*
X58071998Y-113029449D01*
X58071998Y-113029449D02*
X58167236Y-113077068D01*
X58167236Y-113077068D02*
X58214856Y-113124687D01*
X58214856Y-113124687D02*
X58262475Y-113219925D01*
X58262475Y-113219925D02*
X58262475Y-113315163D01*
X58262475Y-113315163D02*
X58214856Y-113410401D01*
X58214856Y-113410401D02*
X58167236Y-113458020D01*
X58167236Y-113458020D02*
X58071998Y-113505639D01*
X58071998Y-113505639D02*
X57881522Y-113553258D01*
X57881522Y-113553258D02*
X57643427Y-113553258D01*
X57643427Y-113553258D02*
X57452951Y-113505639D01*
X57452951Y-113505639D02*
X57357713Y-113458020D01*
X57357713Y-113458020D02*
X57310094Y-113410401D01*
X57310094Y-113410401D02*
X57262475Y-113315163D01*
X57262475Y-112362782D02*
X57262475Y-112267544D01*
X57262475Y-112267544D02*
X57310094Y-112172306D01*
X57310094Y-112172306D02*
X57357713Y-112124687D01*
X57357713Y-112124687D02*
X57452951Y-112077068D01*
X57452951Y-112077068D02*
X57643427Y-112029449D01*
X57643427Y-112029449D02*
X57881522Y-112029449D01*
X57881522Y-112029449D02*
X58071998Y-112077068D01*
X58071998Y-112077068D02*
X58167236Y-112124687D01*
X58167236Y-112124687D02*
X58214856Y-112172306D01*
X58214856Y-112172306D02*
X58262475Y-112267544D01*
X58262475Y-112267544D02*
X58262475Y-112362782D01*
X58262475Y-112362782D02*
X58214856Y-112458020D01*
X58214856Y-112458020D02*
X58167236Y-112505639D01*
X58167236Y-112505639D02*
X58071998Y-112553258D01*
X58071998Y-112553258D02*
X57881522Y-112600877D01*
X57881522Y-112600877D02*
X57643427Y-112600877D01*
X57643427Y-112600877D02*
X57452951Y-112553258D01*
X57452951Y-112553258D02*
X57357713Y-112505639D01*
X57357713Y-112505639D02*
X57310094Y-112458020D01*
X57310094Y-112458020D02*
X57262475Y-112362782D01*
X57262475Y-110410401D02*
X57262475Y-110600877D01*
X57262475Y-110600877D02*
X57310094Y-110696115D01*
X57310094Y-110696115D02*
X57357713Y-110743734D01*
X57357713Y-110743734D02*
X57500570Y-110838972D01*
X57500570Y-110838972D02*
X57691046Y-110886591D01*
X57691046Y-110886591D02*
X58071998Y-110886591D01*
X58071998Y-110886591D02*
X58167236Y-110838972D01*
X58167236Y-110838972D02*
X58214856Y-110791353D01*
X58214856Y-110791353D02*
X58262475Y-110696115D01*
X58262475Y-110696115D02*
X58262475Y-110505639D01*
X58262475Y-110505639D02*
X58214856Y-110410401D01*
X58214856Y-110410401D02*
X58167236Y-110362782D01*
X58167236Y-110362782D02*
X58071998Y-110315163D01*
X58071998Y-110315163D02*
X57833903Y-110315163D01*
X57833903Y-110315163D02*
X57738665Y-110362782D01*
X57738665Y-110362782D02*
X57691046Y-110410401D01*
X57691046Y-110410401D02*
X57643427Y-110505639D01*
X57643427Y-110505639D02*
X57643427Y-110696115D01*
X57643427Y-110696115D02*
X57691046Y-110791353D01*
X57691046Y-110791353D02*
X57738665Y-110838972D01*
X57738665Y-110838972D02*
X57833903Y-110886591D01*
X57976760Y-109934210D02*
X57976760Y-109458020D01*
X58262475Y-110029448D02*
X57262475Y-109696115D01*
X57262475Y-109696115D02*
X58262475Y-109362782D01*
X58262475Y-108267543D02*
X57262475Y-108267543D01*
X57262475Y-108267543D02*
X57262475Y-108029448D01*
X57262475Y-108029448D02*
X57310094Y-107886591D01*
X57310094Y-107886591D02*
X57405332Y-107791353D01*
X57405332Y-107791353D02*
X57500570Y-107743734D01*
X57500570Y-107743734D02*
X57691046Y-107696115D01*
X57691046Y-107696115D02*
X57833903Y-107696115D01*
X57833903Y-107696115D02*
X58024379Y-107743734D01*
X58024379Y-107743734D02*
X58119617Y-107791353D01*
X58119617Y-107791353D02*
X58214856Y-107886591D01*
X58214856Y-107886591D02*
X58262475Y-108029448D01*
X58262475Y-108029448D02*
X58262475Y-108267543D01*
X57595808Y-106838972D02*
X58262475Y-106838972D01*
X57595808Y-107267543D02*
X58119617Y-107267543D01*
X58119617Y-107267543D02*
X58214856Y-107219924D01*
X58214856Y-107219924D02*
X58262475Y-107124686D01*
X58262475Y-107124686D02*
X58262475Y-106981829D01*
X58262475Y-106981829D02*
X58214856Y-106886591D01*
X58214856Y-106886591D02*
X58167236Y-106838972D01*
X58262475Y-105934210D02*
X57738665Y-105934210D01*
X57738665Y-105934210D02*
X57643427Y-105981829D01*
X57643427Y-105981829D02*
X57595808Y-106077067D01*
X57595808Y-106077067D02*
X57595808Y-106267543D01*
X57595808Y-106267543D02*
X57643427Y-106362781D01*
X58214856Y-105934210D02*
X58262475Y-106029448D01*
X58262475Y-106029448D02*
X58262475Y-106267543D01*
X58262475Y-106267543D02*
X58214856Y-106362781D01*
X58214856Y-106362781D02*
X58119617Y-106410400D01*
X58119617Y-106410400D02*
X58024379Y-106410400D01*
X58024379Y-106410400D02*
X57929141Y-106362781D01*
X57929141Y-106362781D02*
X57881522Y-106267543D01*
X57881522Y-106267543D02*
X57881522Y-106029448D01*
X57881522Y-106029448D02*
X57833903Y-105934210D01*
X58262475Y-105315162D02*
X58214856Y-105410400D01*
X58214856Y-105410400D02*
X58119617Y-105458019D01*
X58119617Y-105458019D02*
X57262475Y-105458019D01*
X58262475Y-104172304D02*
X57262475Y-104172304D01*
X57595808Y-103696114D02*
X58262475Y-103696114D01*
X57691046Y-103696114D02*
X57643427Y-103648495D01*
X57643427Y-103648495D02*
X57595808Y-103553257D01*
X57595808Y-103553257D02*
X57595808Y-103410400D01*
X57595808Y-103410400D02*
X57643427Y-103315162D01*
X57643427Y-103315162D02*
X57738665Y-103267543D01*
X57738665Y-103267543D02*
X58262475Y-103267543D01*
X57595808Y-102934209D02*
X57595808Y-102553257D01*
X57262475Y-102791352D02*
X58119617Y-102791352D01*
X58119617Y-102791352D02*
X58214856Y-102743733D01*
X58214856Y-102743733D02*
X58262475Y-102648495D01*
X58262475Y-102648495D02*
X58262475Y-102553257D01*
X58214856Y-101838971D02*
X58262475Y-101934209D01*
X58262475Y-101934209D02*
X58262475Y-102124685D01*
X58262475Y-102124685D02*
X58214856Y-102219923D01*
X58214856Y-102219923D02*
X58119617Y-102267542D01*
X58119617Y-102267542D02*
X57738665Y-102267542D01*
X57738665Y-102267542D02*
X57643427Y-102219923D01*
X57643427Y-102219923D02*
X57595808Y-102124685D01*
X57595808Y-102124685D02*
X57595808Y-101934209D01*
X57595808Y-101934209D02*
X57643427Y-101838971D01*
X57643427Y-101838971D02*
X57738665Y-101791352D01*
X57738665Y-101791352D02*
X57833903Y-101791352D01*
X57833903Y-101791352D02*
X57929141Y-102267542D01*
X58262475Y-101362780D02*
X57595808Y-101362780D01*
X57786284Y-101362780D02*
X57691046Y-101315161D01*
X57691046Y-101315161D02*
X57643427Y-101267542D01*
X57643427Y-101267542D02*
X57595808Y-101172304D01*
X57595808Y-101172304D02*
X57595808Y-101077066D01*
X57595808Y-100743732D02*
X58262475Y-100743732D01*
X57691046Y-100743732D02*
X57643427Y-100696113D01*
X57643427Y-100696113D02*
X57595808Y-100600875D01*
X57595808Y-100600875D02*
X57595808Y-100458018D01*
X57595808Y-100458018D02*
X57643427Y-100362780D01*
X57643427Y-100362780D02*
X57738665Y-100315161D01*
X57738665Y-100315161D02*
X58262475Y-100315161D01*
X58262475Y-99410399D02*
X57738665Y-99410399D01*
X57738665Y-99410399D02*
X57643427Y-99458018D01*
X57643427Y-99458018D02*
X57595808Y-99553256D01*
X57595808Y-99553256D02*
X57595808Y-99743732D01*
X57595808Y-99743732D02*
X57643427Y-99838970D01*
X58214856Y-99410399D02*
X58262475Y-99505637D01*
X58262475Y-99505637D02*
X58262475Y-99743732D01*
X58262475Y-99743732D02*
X58214856Y-99838970D01*
X58214856Y-99838970D02*
X58119617Y-99886589D01*
X58119617Y-99886589D02*
X58024379Y-99886589D01*
X58024379Y-99886589D02*
X57929141Y-99838970D01*
X57929141Y-99838970D02*
X57881522Y-99743732D01*
X57881522Y-99743732D02*
X57881522Y-99505637D01*
X57881522Y-99505637D02*
X57833903Y-99410399D01*
X58262475Y-98791351D02*
X58214856Y-98886589D01*
X58214856Y-98886589D02*
X58119617Y-98934208D01*
X58119617Y-98934208D02*
X57262475Y-98934208D01*
X57738665Y-97315160D02*
X57738665Y-97648493D01*
X58262475Y-97648493D02*
X57262475Y-97648493D01*
X57262475Y-97648493D02*
X57262475Y-97172303D01*
X58262475Y-96648493D02*
X58214856Y-96743731D01*
X58214856Y-96743731D02*
X58119617Y-96791350D01*
X58119617Y-96791350D02*
X57262475Y-96791350D01*
X58262475Y-96124683D02*
X58214856Y-96219921D01*
X58214856Y-96219921D02*
X58167236Y-96267540D01*
X58167236Y-96267540D02*
X58071998Y-96315159D01*
X58071998Y-96315159D02*
X57786284Y-96315159D01*
X57786284Y-96315159D02*
X57691046Y-96267540D01*
X57691046Y-96267540D02*
X57643427Y-96219921D01*
X57643427Y-96219921D02*
X57595808Y-96124683D01*
X57595808Y-96124683D02*
X57595808Y-95981826D01*
X57595808Y-95981826D02*
X57643427Y-95886588D01*
X57643427Y-95886588D02*
X57691046Y-95838969D01*
X57691046Y-95838969D02*
X57786284Y-95791350D01*
X57786284Y-95791350D02*
X58071998Y-95791350D01*
X58071998Y-95791350D02*
X58167236Y-95838969D01*
X58167236Y-95838969D02*
X58214856Y-95886588D01*
X58214856Y-95886588D02*
X58262475Y-95981826D01*
X58262475Y-95981826D02*
X58262475Y-96124683D01*
X57595808Y-95362778D02*
X58595808Y-95362778D01*
X57643427Y-95362778D02*
X57595808Y-95267540D01*
X57595808Y-95267540D02*
X57595808Y-95077064D01*
X57595808Y-95077064D02*
X57643427Y-94981826D01*
X57643427Y-94981826D02*
X57691046Y-94934207D01*
X57691046Y-94934207D02*
X57786284Y-94886588D01*
X57786284Y-94886588D02*
X58071998Y-94886588D01*
X58071998Y-94886588D02*
X58167236Y-94934207D01*
X58167236Y-94934207D02*
X58214856Y-94981826D01*
X58214856Y-94981826D02*
X58262475Y-95077064D01*
X58262475Y-95077064D02*
X58262475Y-95267540D01*
X58262475Y-95267540D02*
X58214856Y-95362778D01*
X57595808Y-94458016D02*
X58595808Y-94458016D01*
X57643427Y-94458016D02*
X57595808Y-94362778D01*
X57595808Y-94362778D02*
X57595808Y-94172302D01*
X57595808Y-94172302D02*
X57643427Y-94077064D01*
X57643427Y-94077064D02*
X57691046Y-94029445D01*
X57691046Y-94029445D02*
X57786284Y-93981826D01*
X57786284Y-93981826D02*
X58071998Y-93981826D01*
X58071998Y-93981826D02*
X58167236Y-94029445D01*
X58167236Y-94029445D02*
X58214856Y-94077064D01*
X58214856Y-94077064D02*
X58262475Y-94172302D01*
X58262475Y-94172302D02*
X58262475Y-94362778D01*
X58262475Y-94362778D02*
X58214856Y-94458016D01*
X57595808Y-93648492D02*
X58262475Y-93410397D01*
X57595808Y-93172302D02*
X58262475Y-93410397D01*
X58262475Y-93410397D02*
X58500570Y-93505635D01*
X58500570Y-93505635D02*
X58548189Y-93553254D01*
X58548189Y-93553254D02*
X58595808Y-93648492D01*
X58262475Y-92029444D02*
X57262475Y-92029444D01*
X57262475Y-92029444D02*
X57262475Y-91791349D01*
X57262475Y-91791349D02*
X57310094Y-91648492D01*
X57310094Y-91648492D02*
X57405332Y-91553254D01*
X57405332Y-91553254D02*
X57500570Y-91505635D01*
X57500570Y-91505635D02*
X57691046Y-91458016D01*
X57691046Y-91458016D02*
X57833903Y-91458016D01*
X57833903Y-91458016D02*
X58024379Y-91505635D01*
X58024379Y-91505635D02*
X58119617Y-91553254D01*
X58119617Y-91553254D02*
X58214856Y-91648492D01*
X58214856Y-91648492D02*
X58262475Y-91791349D01*
X58262475Y-91791349D02*
X58262475Y-92029444D01*
X58262475Y-91029444D02*
X57595808Y-91029444D01*
X57786284Y-91029444D02*
X57691046Y-90981825D01*
X57691046Y-90981825D02*
X57643427Y-90934206D01*
X57643427Y-90934206D02*
X57595808Y-90838968D01*
X57595808Y-90838968D02*
X57595808Y-90743730D01*
X58262475Y-90410396D02*
X57595808Y-90410396D01*
X57262475Y-90410396D02*
X57310094Y-90458015D01*
X57310094Y-90458015D02*
X57357713Y-90410396D01*
X57357713Y-90410396D02*
X57310094Y-90362777D01*
X57310094Y-90362777D02*
X57262475Y-90410396D01*
X57262475Y-90410396D02*
X57357713Y-90410396D01*
X57595808Y-90029444D02*
X58262475Y-89791349D01*
X58262475Y-89791349D02*
X57595808Y-89553254D01*
X58214856Y-88791349D02*
X58262475Y-88886587D01*
X58262475Y-88886587D02*
X58262475Y-89077063D01*
X58262475Y-89077063D02*
X58214856Y-89172301D01*
X58214856Y-89172301D02*
X58119617Y-89219920D01*
X58119617Y-89219920D02*
X57738665Y-89219920D01*
X57738665Y-89219920D02*
X57643427Y-89172301D01*
X57643427Y-89172301D02*
X57595808Y-89077063D01*
X57595808Y-89077063D02*
X57595808Y-88886587D01*
X57595808Y-88886587D02*
X57643427Y-88791349D01*
X57643427Y-88791349D02*
X57738665Y-88743730D01*
X57738665Y-88743730D02*
X57833903Y-88743730D01*
X57833903Y-88743730D02*
X57929141Y-89219920D01*
X58262475Y-87553253D02*
X57262475Y-87553253D01*
X57595808Y-87077063D02*
X58262475Y-87077063D01*
X57691046Y-87077063D02*
X57643427Y-87029444D01*
X57643427Y-87029444D02*
X57595808Y-86934206D01*
X57595808Y-86934206D02*
X57595808Y-86791349D01*
X57595808Y-86791349D02*
X57643427Y-86696111D01*
X57643427Y-86696111D02*
X57738665Y-86648492D01*
X57738665Y-86648492D02*
X58262475Y-86648492D01*
X57595808Y-86315158D02*
X57595808Y-85934206D01*
X57262475Y-86172301D02*
X58119617Y-86172301D01*
X58119617Y-86172301D02*
X58214856Y-86124682D01*
X58214856Y-86124682D02*
X58262475Y-86029444D01*
X58262475Y-86029444D02*
X58262475Y-85934206D01*
X58214856Y-85219920D02*
X58262475Y-85315158D01*
X58262475Y-85315158D02*
X58262475Y-85505634D01*
X58262475Y-85505634D02*
X58214856Y-85600872D01*
X58214856Y-85600872D02*
X58119617Y-85648491D01*
X58119617Y-85648491D02*
X57738665Y-85648491D01*
X57738665Y-85648491D02*
X57643427Y-85600872D01*
X57643427Y-85600872D02*
X57595808Y-85505634D01*
X57595808Y-85505634D02*
X57595808Y-85315158D01*
X57595808Y-85315158D02*
X57643427Y-85219920D01*
X57643427Y-85219920D02*
X57738665Y-85172301D01*
X57738665Y-85172301D02*
X57833903Y-85172301D01*
X57833903Y-85172301D02*
X57929141Y-85648491D01*
X58262475Y-84743729D02*
X57595808Y-84743729D01*
X57786284Y-84743729D02*
X57691046Y-84696110D01*
X57691046Y-84696110D02*
X57643427Y-84648491D01*
X57643427Y-84648491D02*
X57595808Y-84553253D01*
X57595808Y-84553253D02*
X57595808Y-84458015D01*
X57595808Y-84267538D02*
X57595808Y-83886586D01*
X58262475Y-84124681D02*
X57405332Y-84124681D01*
X57405332Y-84124681D02*
X57310094Y-84077062D01*
X57310094Y-84077062D02*
X57262475Y-83981824D01*
X57262475Y-83981824D02*
X57262475Y-83886586D01*
X58262475Y-83124681D02*
X57738665Y-83124681D01*
X57738665Y-83124681D02*
X57643427Y-83172300D01*
X57643427Y-83172300D02*
X57595808Y-83267538D01*
X57595808Y-83267538D02*
X57595808Y-83458014D01*
X57595808Y-83458014D02*
X57643427Y-83553252D01*
X58214856Y-83124681D02*
X58262475Y-83219919D01*
X58262475Y-83219919D02*
X58262475Y-83458014D01*
X58262475Y-83458014D02*
X58214856Y-83553252D01*
X58214856Y-83553252D02*
X58119617Y-83600871D01*
X58119617Y-83600871D02*
X58024379Y-83600871D01*
X58024379Y-83600871D02*
X57929141Y-83553252D01*
X57929141Y-83553252D02*
X57881522Y-83458014D01*
X57881522Y-83458014D02*
X57881522Y-83219919D01*
X57881522Y-83219919D02*
X57833903Y-83124681D01*
X58214856Y-82219919D02*
X58262475Y-82315157D01*
X58262475Y-82315157D02*
X58262475Y-82505633D01*
X58262475Y-82505633D02*
X58214856Y-82600871D01*
X58214856Y-82600871D02*
X58167236Y-82648490D01*
X58167236Y-82648490D02*
X58071998Y-82696109D01*
X58071998Y-82696109D02*
X57786284Y-82696109D01*
X57786284Y-82696109D02*
X57691046Y-82648490D01*
X57691046Y-82648490D02*
X57643427Y-82600871D01*
X57643427Y-82600871D02*
X57595808Y-82505633D01*
X57595808Y-82505633D02*
X57595808Y-82315157D01*
X57595808Y-82315157D02*
X57643427Y-82219919D01*
X58214856Y-81410395D02*
X58262475Y-81505633D01*
X58262475Y-81505633D02*
X58262475Y-81696109D01*
X58262475Y-81696109D02*
X58214856Y-81791347D01*
X58214856Y-81791347D02*
X58119617Y-81838966D01*
X58119617Y-81838966D02*
X57738665Y-81838966D01*
X57738665Y-81838966D02*
X57643427Y-81791347D01*
X57643427Y-81791347D02*
X57595808Y-81696109D01*
X57595808Y-81696109D02*
X57595808Y-81505633D01*
X57595808Y-81505633D02*
X57643427Y-81410395D01*
X57643427Y-81410395D02*
X57738665Y-81362776D01*
X57738665Y-81362776D02*
X57833903Y-81362776D01*
X57833903Y-81362776D02*
X57929141Y-81838966D01*
X58262475Y-79600871D02*
X57786284Y-79934204D01*
X58262475Y-80172299D02*
X57262475Y-80172299D01*
X57262475Y-80172299D02*
X57262475Y-79791347D01*
X57262475Y-79791347D02*
X57310094Y-79696109D01*
X57310094Y-79696109D02*
X57357713Y-79648490D01*
X57357713Y-79648490D02*
X57452951Y-79600871D01*
X57452951Y-79600871D02*
X57595808Y-79600871D01*
X57595808Y-79600871D02*
X57691046Y-79648490D01*
X57691046Y-79648490D02*
X57738665Y-79696109D01*
X57738665Y-79696109D02*
X57786284Y-79791347D01*
X57786284Y-79791347D02*
X57786284Y-80172299D01*
X58214856Y-78791347D02*
X58262475Y-78886585D01*
X58262475Y-78886585D02*
X58262475Y-79077061D01*
X58262475Y-79077061D02*
X58214856Y-79172299D01*
X58214856Y-79172299D02*
X58119617Y-79219918D01*
X58119617Y-79219918D02*
X57738665Y-79219918D01*
X57738665Y-79219918D02*
X57643427Y-79172299D01*
X57643427Y-79172299D02*
X57595808Y-79077061D01*
X57595808Y-79077061D02*
X57595808Y-78886585D01*
X57595808Y-78886585D02*
X57643427Y-78791347D01*
X57643427Y-78791347D02*
X57738665Y-78743728D01*
X57738665Y-78743728D02*
X57833903Y-78743728D01*
X57833903Y-78743728D02*
X57929141Y-79219918D01*
X57595808Y-78410394D02*
X58262475Y-78172299D01*
X58262475Y-78172299D02*
X57595808Y-77934204D01*
X58167236Y-77553251D02*
X58214856Y-77505632D01*
X58214856Y-77505632D02*
X58262475Y-77553251D01*
X58262475Y-77553251D02*
X58214856Y-77600870D01*
X58214856Y-77600870D02*
X58167236Y-77553251D01*
X58167236Y-77553251D02*
X58262475Y-77553251D01*
X58262475Y-75791347D02*
X58262475Y-76362775D01*
X58262475Y-76077061D02*
X57262475Y-76077061D01*
X57262475Y-76077061D02*
X57405332Y-76172299D01*
X57405332Y-76172299D02*
X57500570Y-76267537D01*
X57500570Y-76267537D02*
X57548189Y-76362775D01*
X58167236Y-75362775D02*
X58214856Y-75315156D01*
X58214856Y-75315156D02*
X58262475Y-75362775D01*
X58262475Y-75362775D02*
X58214856Y-75410394D01*
X58214856Y-75410394D02*
X58167236Y-75362775D01*
X58167236Y-75362775D02*
X58262475Y-75362775D01*
X57262475Y-74696109D02*
X57262475Y-74600871D01*
X57262475Y-74600871D02*
X57310094Y-74505633D01*
X57310094Y-74505633D02*
X57357713Y-74458014D01*
X57357713Y-74458014D02*
X57452951Y-74410395D01*
X57452951Y-74410395D02*
X57643427Y-74362776D01*
X57643427Y-74362776D02*
X57881522Y-74362776D01*
X57881522Y-74362776D02*
X58071998Y-74410395D01*
X58071998Y-74410395D02*
X58167236Y-74458014D01*
X58167236Y-74458014D02*
X58214856Y-74505633D01*
X58214856Y-74505633D02*
X58262475Y-74600871D01*
X58262475Y-74600871D02*
X58262475Y-74696109D01*
X58262475Y-74696109D02*
X58214856Y-74791347D01*
X58214856Y-74791347D02*
X58167236Y-74838966D01*
X58167236Y-74838966D02*
X58071998Y-74886585D01*
X58071998Y-74886585D02*
X57881522Y-74934204D01*
X57881522Y-74934204D02*
X57643427Y-74934204D01*
X57643427Y-74934204D02*
X57452951Y-74886585D01*
X57452951Y-74886585D02*
X57357713Y-74838966D01*
X57357713Y-74838966D02*
X57310094Y-74791347D01*
X57310094Y-74791347D02*
X57262475Y-74696109D01*
X59872419Y-119696115D02*
X58872419Y-119696115D01*
X59872419Y-119267544D02*
X59348609Y-119267544D01*
X59348609Y-119267544D02*
X59253371Y-119315163D01*
X59253371Y-119315163D02*
X59205752Y-119410401D01*
X59205752Y-119410401D02*
X59205752Y-119553258D01*
X59205752Y-119553258D02*
X59253371Y-119648496D01*
X59253371Y-119648496D02*
X59300990Y-119696115D01*
X59205752Y-118934210D02*
X59205752Y-118553258D01*
X58872419Y-118791353D02*
X59729561Y-118791353D01*
X59729561Y-118791353D02*
X59824800Y-118743734D01*
X59824800Y-118743734D02*
X59872419Y-118648496D01*
X59872419Y-118648496D02*
X59872419Y-118553258D01*
X59205752Y-118362781D02*
X59205752Y-117981829D01*
X58872419Y-118219924D02*
X59729561Y-118219924D01*
X59729561Y-118219924D02*
X59824800Y-118172305D01*
X59824800Y-118172305D02*
X59872419Y-118077067D01*
X59872419Y-118077067D02*
X59872419Y-117981829D01*
X59205752Y-117648495D02*
X60205752Y-117648495D01*
X59253371Y-117648495D02*
X59205752Y-117553257D01*
X59205752Y-117553257D02*
X59205752Y-117362781D01*
X59205752Y-117362781D02*
X59253371Y-117267543D01*
X59253371Y-117267543D02*
X59300990Y-117219924D01*
X59300990Y-117219924D02*
X59396228Y-117172305D01*
X59396228Y-117172305D02*
X59681942Y-117172305D01*
X59681942Y-117172305D02*
X59777180Y-117219924D01*
X59777180Y-117219924D02*
X59824800Y-117267543D01*
X59824800Y-117267543D02*
X59872419Y-117362781D01*
X59872419Y-117362781D02*
X59872419Y-117553257D01*
X59872419Y-117553257D02*
X59824800Y-117648495D01*
X59824800Y-116791352D02*
X59872419Y-116696114D01*
X59872419Y-116696114D02*
X59872419Y-116505638D01*
X59872419Y-116505638D02*
X59824800Y-116410400D01*
X59824800Y-116410400D02*
X59729561Y-116362781D01*
X59729561Y-116362781D02*
X59681942Y-116362781D01*
X59681942Y-116362781D02*
X59586704Y-116410400D01*
X59586704Y-116410400D02*
X59539085Y-116505638D01*
X59539085Y-116505638D02*
X59539085Y-116648495D01*
X59539085Y-116648495D02*
X59491466Y-116743733D01*
X59491466Y-116743733D02*
X59396228Y-116791352D01*
X59396228Y-116791352D02*
X59348609Y-116791352D01*
X59348609Y-116791352D02*
X59253371Y-116743733D01*
X59253371Y-116743733D02*
X59205752Y-116648495D01*
X59205752Y-116648495D02*
X59205752Y-116505638D01*
X59205752Y-116505638D02*
X59253371Y-116410400D01*
X59777180Y-115934209D02*
X59824800Y-115886590D01*
X59824800Y-115886590D02*
X59872419Y-115934209D01*
X59872419Y-115934209D02*
X59824800Y-115981828D01*
X59824800Y-115981828D02*
X59777180Y-115934209D01*
X59777180Y-115934209D02*
X59872419Y-115934209D01*
X59253371Y-115934209D02*
X59300990Y-115886590D01*
X59300990Y-115886590D02*
X59348609Y-115934209D01*
X59348609Y-115934209D02*
X59300990Y-115981828D01*
X59300990Y-115981828D02*
X59253371Y-115934209D01*
X59253371Y-115934209D02*
X59348609Y-115934209D01*
X58824800Y-114743734D02*
X60110514Y-115600876D01*
X58824800Y-113696115D02*
X60110514Y-114553257D01*
X59205752Y-112934210D02*
X60015276Y-112934210D01*
X60015276Y-112934210D02*
X60110514Y-112981829D01*
X60110514Y-112981829D02*
X60158133Y-113029448D01*
X60158133Y-113029448D02*
X60205752Y-113124686D01*
X60205752Y-113124686D02*
X60205752Y-113267543D01*
X60205752Y-113267543D02*
X60158133Y-113362781D01*
X59824800Y-112934210D02*
X59872419Y-113029448D01*
X59872419Y-113029448D02*
X59872419Y-113219924D01*
X59872419Y-113219924D02*
X59824800Y-113315162D01*
X59824800Y-113315162D02*
X59777180Y-113362781D01*
X59777180Y-113362781D02*
X59681942Y-113410400D01*
X59681942Y-113410400D02*
X59396228Y-113410400D01*
X59396228Y-113410400D02*
X59300990Y-113362781D01*
X59300990Y-113362781D02*
X59253371Y-113315162D01*
X59253371Y-113315162D02*
X59205752Y-113219924D01*
X59205752Y-113219924D02*
X59205752Y-113029448D01*
X59205752Y-113029448D02*
X59253371Y-112934210D01*
X59872419Y-112458019D02*
X59205752Y-112458019D01*
X58872419Y-112458019D02*
X58920038Y-112505638D01*
X58920038Y-112505638D02*
X58967657Y-112458019D01*
X58967657Y-112458019D02*
X58920038Y-112410400D01*
X58920038Y-112410400D02*
X58872419Y-112458019D01*
X58872419Y-112458019D02*
X58967657Y-112458019D01*
X59205752Y-112124686D02*
X59205752Y-111743734D01*
X58872419Y-111981829D02*
X59729561Y-111981829D01*
X59729561Y-111981829D02*
X59824800Y-111934210D01*
X59824800Y-111934210D02*
X59872419Y-111838972D01*
X59872419Y-111838972D02*
X59872419Y-111743734D01*
X59872419Y-111410400D02*
X58872419Y-111410400D01*
X59872419Y-110981829D02*
X59348609Y-110981829D01*
X59348609Y-110981829D02*
X59253371Y-111029448D01*
X59253371Y-111029448D02*
X59205752Y-111124686D01*
X59205752Y-111124686D02*
X59205752Y-111267543D01*
X59205752Y-111267543D02*
X59253371Y-111362781D01*
X59253371Y-111362781D02*
X59300990Y-111410400D01*
X59205752Y-110077067D02*
X59872419Y-110077067D01*
X59205752Y-110505638D02*
X59729561Y-110505638D01*
X59729561Y-110505638D02*
X59824800Y-110458019D01*
X59824800Y-110458019D02*
X59872419Y-110362781D01*
X59872419Y-110362781D02*
X59872419Y-110219924D01*
X59872419Y-110219924D02*
X59824800Y-110124686D01*
X59824800Y-110124686D02*
X59777180Y-110077067D01*
X59872419Y-109600876D02*
X58872419Y-109600876D01*
X59253371Y-109600876D02*
X59205752Y-109505638D01*
X59205752Y-109505638D02*
X59205752Y-109315162D01*
X59205752Y-109315162D02*
X59253371Y-109219924D01*
X59253371Y-109219924D02*
X59300990Y-109172305D01*
X59300990Y-109172305D02*
X59396228Y-109124686D01*
X59396228Y-109124686D02*
X59681942Y-109124686D01*
X59681942Y-109124686D02*
X59777180Y-109172305D01*
X59777180Y-109172305D02*
X59824800Y-109219924D01*
X59824800Y-109219924D02*
X59872419Y-109315162D01*
X59872419Y-109315162D02*
X59872419Y-109505638D01*
X59872419Y-109505638D02*
X59824800Y-109600876D01*
X59777180Y-108696114D02*
X59824800Y-108648495D01*
X59824800Y-108648495D02*
X59872419Y-108696114D01*
X59872419Y-108696114D02*
X59824800Y-108743733D01*
X59824800Y-108743733D02*
X59777180Y-108696114D01*
X59777180Y-108696114D02*
X59872419Y-108696114D01*
X59824800Y-107791353D02*
X59872419Y-107886591D01*
X59872419Y-107886591D02*
X59872419Y-108077067D01*
X59872419Y-108077067D02*
X59824800Y-108172305D01*
X59824800Y-108172305D02*
X59777180Y-108219924D01*
X59777180Y-108219924D02*
X59681942Y-108267543D01*
X59681942Y-108267543D02*
X59396228Y-108267543D01*
X59396228Y-108267543D02*
X59300990Y-108219924D01*
X59300990Y-108219924D02*
X59253371Y-108172305D01*
X59253371Y-108172305D02*
X59205752Y-108077067D01*
X59205752Y-108077067D02*
X59205752Y-107886591D01*
X59205752Y-107886591D02*
X59253371Y-107791353D01*
X59872419Y-107219924D02*
X59824800Y-107315162D01*
X59824800Y-107315162D02*
X59777180Y-107362781D01*
X59777180Y-107362781D02*
X59681942Y-107410400D01*
X59681942Y-107410400D02*
X59396228Y-107410400D01*
X59396228Y-107410400D02*
X59300990Y-107362781D01*
X59300990Y-107362781D02*
X59253371Y-107315162D01*
X59253371Y-107315162D02*
X59205752Y-107219924D01*
X59205752Y-107219924D02*
X59205752Y-107077067D01*
X59205752Y-107077067D02*
X59253371Y-106981829D01*
X59253371Y-106981829D02*
X59300990Y-106934210D01*
X59300990Y-106934210D02*
X59396228Y-106886591D01*
X59396228Y-106886591D02*
X59681942Y-106886591D01*
X59681942Y-106886591D02*
X59777180Y-106934210D01*
X59777180Y-106934210D02*
X59824800Y-106981829D01*
X59824800Y-106981829D02*
X59872419Y-107077067D01*
X59872419Y-107077067D02*
X59872419Y-107219924D01*
X59872419Y-106458019D02*
X59205752Y-106458019D01*
X59300990Y-106458019D02*
X59253371Y-106410400D01*
X59253371Y-106410400D02*
X59205752Y-106315162D01*
X59205752Y-106315162D02*
X59205752Y-106172305D01*
X59205752Y-106172305D02*
X59253371Y-106077067D01*
X59253371Y-106077067D02*
X59348609Y-106029448D01*
X59348609Y-106029448D02*
X59872419Y-106029448D01*
X59348609Y-106029448D02*
X59253371Y-105981829D01*
X59253371Y-105981829D02*
X59205752Y-105886591D01*
X59205752Y-105886591D02*
X59205752Y-105743734D01*
X59205752Y-105743734D02*
X59253371Y-105648495D01*
X59253371Y-105648495D02*
X59348609Y-105600876D01*
X59348609Y-105600876D02*
X59872419Y-105600876D01*
X58824800Y-104410401D02*
X60110514Y-105267543D01*
X59872419Y-104077067D02*
X59205752Y-104077067D01*
X59396228Y-104077067D02*
X59300990Y-104029448D01*
X59300990Y-104029448D02*
X59253371Y-103981829D01*
X59253371Y-103981829D02*
X59205752Y-103886591D01*
X59205752Y-103886591D02*
X59205752Y-103791353D01*
X59872419Y-103315162D02*
X59824800Y-103410400D01*
X59824800Y-103410400D02*
X59777180Y-103458019D01*
X59777180Y-103458019D02*
X59681942Y-103505638D01*
X59681942Y-103505638D02*
X59396228Y-103505638D01*
X59396228Y-103505638D02*
X59300990Y-103458019D01*
X59300990Y-103458019D02*
X59253371Y-103410400D01*
X59253371Y-103410400D02*
X59205752Y-103315162D01*
X59205752Y-103315162D02*
X59205752Y-103172305D01*
X59205752Y-103172305D02*
X59253371Y-103077067D01*
X59253371Y-103077067D02*
X59300990Y-103029448D01*
X59300990Y-103029448D02*
X59396228Y-102981829D01*
X59396228Y-102981829D02*
X59681942Y-102981829D01*
X59681942Y-102981829D02*
X59777180Y-103029448D01*
X59777180Y-103029448D02*
X59824800Y-103077067D01*
X59824800Y-103077067D02*
X59872419Y-103172305D01*
X59872419Y-103172305D02*
X59872419Y-103315162D01*
X59872419Y-102124686D02*
X58872419Y-102124686D01*
X59824800Y-102124686D02*
X59872419Y-102219924D01*
X59872419Y-102219924D02*
X59872419Y-102410400D01*
X59872419Y-102410400D02*
X59824800Y-102505638D01*
X59824800Y-102505638D02*
X59777180Y-102553257D01*
X59777180Y-102553257D02*
X59681942Y-102600876D01*
X59681942Y-102600876D02*
X59396228Y-102600876D01*
X59396228Y-102600876D02*
X59300990Y-102553257D01*
X59300990Y-102553257D02*
X59253371Y-102505638D01*
X59253371Y-102505638D02*
X59205752Y-102410400D01*
X59205752Y-102410400D02*
X59205752Y-102219924D01*
X59205752Y-102219924D02*
X59253371Y-102124686D01*
X59872419Y-101219924D02*
X58872419Y-101219924D01*
X59824800Y-101219924D02*
X59872419Y-101315162D01*
X59872419Y-101315162D02*
X59872419Y-101505638D01*
X59872419Y-101505638D02*
X59824800Y-101600876D01*
X59824800Y-101600876D02*
X59777180Y-101648495D01*
X59777180Y-101648495D02*
X59681942Y-101696114D01*
X59681942Y-101696114D02*
X59396228Y-101696114D01*
X59396228Y-101696114D02*
X59300990Y-101648495D01*
X59300990Y-101648495D02*
X59253371Y-101600876D01*
X59253371Y-101600876D02*
X59205752Y-101505638D01*
X59205752Y-101505638D02*
X59205752Y-101315162D01*
X59205752Y-101315162D02*
X59253371Y-101219924D01*
X59824800Y-100362781D02*
X59872419Y-100458019D01*
X59872419Y-100458019D02*
X59872419Y-100648495D01*
X59872419Y-100648495D02*
X59824800Y-100743733D01*
X59824800Y-100743733D02*
X59729561Y-100791352D01*
X59729561Y-100791352D02*
X59348609Y-100791352D01*
X59348609Y-100791352D02*
X59253371Y-100743733D01*
X59253371Y-100743733D02*
X59205752Y-100648495D01*
X59205752Y-100648495D02*
X59205752Y-100458019D01*
X59205752Y-100458019D02*
X59253371Y-100362781D01*
X59253371Y-100362781D02*
X59348609Y-100315162D01*
X59348609Y-100315162D02*
X59443847Y-100315162D01*
X59443847Y-100315162D02*
X59539085Y-100791352D01*
X59872419Y-99886590D02*
X59205752Y-99886590D01*
X59396228Y-99886590D02*
X59300990Y-99838971D01*
X59300990Y-99838971D02*
X59253371Y-99791352D01*
X59253371Y-99791352D02*
X59205752Y-99696114D01*
X59205752Y-99696114D02*
X59205752Y-99600876D01*
X59824800Y-99315161D02*
X59872419Y-99219923D01*
X59872419Y-99219923D02*
X59872419Y-99029447D01*
X59872419Y-99029447D02*
X59824800Y-98934209D01*
X59824800Y-98934209D02*
X59729561Y-98886590D01*
X59729561Y-98886590D02*
X59681942Y-98886590D01*
X59681942Y-98886590D02*
X59586704Y-98934209D01*
X59586704Y-98934209D02*
X59539085Y-99029447D01*
X59539085Y-99029447D02*
X59539085Y-99172304D01*
X59539085Y-99172304D02*
X59491466Y-99267542D01*
X59491466Y-99267542D02*
X59396228Y-99315161D01*
X59396228Y-99315161D02*
X59348609Y-99315161D01*
X59348609Y-99315161D02*
X59253371Y-99267542D01*
X59253371Y-99267542D02*
X59205752Y-99172304D01*
X59205752Y-99172304D02*
X59205752Y-99029447D01*
X59205752Y-99029447D02*
X59253371Y-98934209D01*
X59205752Y-98029447D02*
X59872419Y-98029447D01*
X59205752Y-98458018D02*
X59729561Y-98458018D01*
X59729561Y-98458018D02*
X59824800Y-98410399D01*
X59824800Y-98410399D02*
X59872419Y-98315161D01*
X59872419Y-98315161D02*
X59872419Y-98172304D01*
X59872419Y-98172304D02*
X59824800Y-98077066D01*
X59824800Y-98077066D02*
X59777180Y-98029447D01*
X59872419Y-97553256D02*
X58872419Y-97553256D01*
X59491466Y-97458018D02*
X59872419Y-97172304D01*
X59205752Y-97172304D02*
X59586704Y-97553256D01*
X58824800Y-96029447D02*
X60110514Y-96886589D01*
X59586704Y-95743732D02*
X59586704Y-95267542D01*
X59872419Y-95838970D02*
X58872419Y-95505637D01*
X58872419Y-95505637D02*
X59872419Y-95172304D01*
X59872419Y-94838970D02*
X59205752Y-94838970D01*
X59300990Y-94838970D02*
X59253371Y-94791351D01*
X59253371Y-94791351D02*
X59205752Y-94696113D01*
X59205752Y-94696113D02*
X59205752Y-94553256D01*
X59205752Y-94553256D02*
X59253371Y-94458018D01*
X59253371Y-94458018D02*
X59348609Y-94410399D01*
X59348609Y-94410399D02*
X59872419Y-94410399D01*
X59348609Y-94410399D02*
X59253371Y-94362780D01*
X59253371Y-94362780D02*
X59205752Y-94267542D01*
X59205752Y-94267542D02*
X59205752Y-94124685D01*
X59205752Y-94124685D02*
X59253371Y-94029446D01*
X59253371Y-94029446D02*
X59348609Y-93981827D01*
X59348609Y-93981827D02*
X59872419Y-93981827D01*
X59872419Y-93505637D02*
X59205752Y-93505637D01*
X58872419Y-93505637D02*
X58920038Y-93553256D01*
X58920038Y-93553256D02*
X58967657Y-93505637D01*
X58967657Y-93505637D02*
X58920038Y-93458018D01*
X58920038Y-93458018D02*
X58872419Y-93505637D01*
X58872419Y-93505637D02*
X58967657Y-93505637D01*
X59205752Y-92600876D02*
X60015276Y-92600876D01*
X60015276Y-92600876D02*
X60110514Y-92648495D01*
X60110514Y-92648495D02*
X60158133Y-92696114D01*
X60158133Y-92696114D02*
X60205752Y-92791352D01*
X60205752Y-92791352D02*
X60205752Y-92934209D01*
X60205752Y-92934209D02*
X60158133Y-93029447D01*
X59824800Y-92600876D02*
X59872419Y-92696114D01*
X59872419Y-92696114D02*
X59872419Y-92886590D01*
X59872419Y-92886590D02*
X59824800Y-92981828D01*
X59824800Y-92981828D02*
X59777180Y-93029447D01*
X59777180Y-93029447D02*
X59681942Y-93077066D01*
X59681942Y-93077066D02*
X59396228Y-93077066D01*
X59396228Y-93077066D02*
X59300990Y-93029447D01*
X59300990Y-93029447D02*
X59253371Y-92981828D01*
X59253371Y-92981828D02*
X59205752Y-92886590D01*
X59205752Y-92886590D02*
X59205752Y-92696114D01*
X59205752Y-92696114D02*
X59253371Y-92600876D01*
X59872419Y-91696114D02*
X59348609Y-91696114D01*
X59348609Y-91696114D02*
X59253371Y-91743733D01*
X59253371Y-91743733D02*
X59205752Y-91838971D01*
X59205752Y-91838971D02*
X59205752Y-92029447D01*
X59205752Y-92029447D02*
X59253371Y-92124685D01*
X59824800Y-91696114D02*
X59872419Y-91791352D01*
X59872419Y-91791352D02*
X59872419Y-92029447D01*
X59872419Y-92029447D02*
X59824800Y-92124685D01*
X59824800Y-92124685D02*
X59729561Y-92172304D01*
X59729561Y-92172304D02*
X59634323Y-92172304D01*
X59634323Y-92172304D02*
X59539085Y-92124685D01*
X59539085Y-92124685D02*
X59491466Y-92029447D01*
X59491466Y-92029447D02*
X59491466Y-91791352D01*
X59491466Y-91791352D02*
X59443847Y-91696114D01*
X59872419Y-91219923D02*
X58872419Y-91219923D01*
X58872419Y-91219923D02*
X58872419Y-90981828D01*
X58872419Y-90981828D02*
X58920038Y-90838971D01*
X58920038Y-90838971D02*
X59015276Y-90743733D01*
X59015276Y-90743733D02*
X59110514Y-90696114D01*
X59110514Y-90696114D02*
X59300990Y-90648495D01*
X59300990Y-90648495D02*
X59443847Y-90648495D01*
X59443847Y-90648495D02*
X59634323Y-90696114D01*
X59634323Y-90696114D02*
X59729561Y-90743733D01*
X59729561Y-90743733D02*
X59824800Y-90838971D01*
X59824800Y-90838971D02*
X59872419Y-90981828D01*
X59872419Y-90981828D02*
X59872419Y-91219923D01*
X59205752Y-89791352D02*
X59872419Y-89791352D01*
X59205752Y-90219923D02*
X59729561Y-90219923D01*
X59729561Y-90219923D02*
X59824800Y-90172304D01*
X59824800Y-90172304D02*
X59872419Y-90077066D01*
X59872419Y-90077066D02*
X59872419Y-89934209D01*
X59872419Y-89934209D02*
X59824800Y-89838971D01*
X59824800Y-89838971D02*
X59777180Y-89791352D01*
X59872419Y-88886590D02*
X59348609Y-88886590D01*
X59348609Y-88886590D02*
X59253371Y-88934209D01*
X59253371Y-88934209D02*
X59205752Y-89029447D01*
X59205752Y-89029447D02*
X59205752Y-89219923D01*
X59205752Y-89219923D02*
X59253371Y-89315161D01*
X59824800Y-88886590D02*
X59872419Y-88981828D01*
X59872419Y-88981828D02*
X59872419Y-89219923D01*
X59872419Y-89219923D02*
X59824800Y-89315161D01*
X59824800Y-89315161D02*
X59729561Y-89362780D01*
X59729561Y-89362780D02*
X59634323Y-89362780D01*
X59634323Y-89362780D02*
X59539085Y-89315161D01*
X59539085Y-89315161D02*
X59491466Y-89219923D01*
X59491466Y-89219923D02*
X59491466Y-88981828D01*
X59491466Y-88981828D02*
X59443847Y-88886590D01*
X59872419Y-88267542D02*
X59824800Y-88362780D01*
X59824800Y-88362780D02*
X59729561Y-88410399D01*
X59729561Y-88410399D02*
X58872419Y-88410399D01*
X59348609Y-87553256D02*
X59348609Y-87886589D01*
X59872419Y-87886589D02*
X58872419Y-87886589D01*
X58872419Y-87886589D02*
X58872419Y-87410399D01*
X59872419Y-86886589D02*
X59824800Y-86981827D01*
X59824800Y-86981827D02*
X59729561Y-87029446D01*
X59729561Y-87029446D02*
X58872419Y-87029446D01*
X59872419Y-86362779D02*
X59824800Y-86458017D01*
X59824800Y-86458017D02*
X59777180Y-86505636D01*
X59777180Y-86505636D02*
X59681942Y-86553255D01*
X59681942Y-86553255D02*
X59396228Y-86553255D01*
X59396228Y-86553255D02*
X59300990Y-86505636D01*
X59300990Y-86505636D02*
X59253371Y-86458017D01*
X59253371Y-86458017D02*
X59205752Y-86362779D01*
X59205752Y-86362779D02*
X59205752Y-86219922D01*
X59205752Y-86219922D02*
X59253371Y-86124684D01*
X59253371Y-86124684D02*
X59300990Y-86077065D01*
X59300990Y-86077065D02*
X59396228Y-86029446D01*
X59396228Y-86029446D02*
X59681942Y-86029446D01*
X59681942Y-86029446D02*
X59777180Y-86077065D01*
X59777180Y-86077065D02*
X59824800Y-86124684D01*
X59824800Y-86124684D02*
X59872419Y-86219922D01*
X59872419Y-86219922D02*
X59872419Y-86362779D01*
X59205752Y-85600874D02*
X60205752Y-85600874D01*
X59253371Y-85600874D02*
X59205752Y-85505636D01*
X59205752Y-85505636D02*
X59205752Y-85315160D01*
X59205752Y-85315160D02*
X59253371Y-85219922D01*
X59253371Y-85219922D02*
X59300990Y-85172303D01*
X59300990Y-85172303D02*
X59396228Y-85124684D01*
X59396228Y-85124684D02*
X59681942Y-85124684D01*
X59681942Y-85124684D02*
X59777180Y-85172303D01*
X59777180Y-85172303D02*
X59824800Y-85219922D01*
X59824800Y-85219922D02*
X59872419Y-85315160D01*
X59872419Y-85315160D02*
X59872419Y-85505636D01*
X59872419Y-85505636D02*
X59824800Y-85600874D01*
X59205752Y-84696112D02*
X60205752Y-84696112D01*
X59253371Y-84696112D02*
X59205752Y-84600874D01*
X59205752Y-84600874D02*
X59205752Y-84410398D01*
X59205752Y-84410398D02*
X59253371Y-84315160D01*
X59253371Y-84315160D02*
X59300990Y-84267541D01*
X59300990Y-84267541D02*
X59396228Y-84219922D01*
X59396228Y-84219922D02*
X59681942Y-84219922D01*
X59681942Y-84219922D02*
X59777180Y-84267541D01*
X59777180Y-84267541D02*
X59824800Y-84315160D01*
X59824800Y-84315160D02*
X59872419Y-84410398D01*
X59872419Y-84410398D02*
X59872419Y-84600874D01*
X59872419Y-84600874D02*
X59824800Y-84696112D01*
X59205752Y-83886588D02*
X59872419Y-83648493D01*
X59205752Y-83410398D02*
X59872419Y-83648493D01*
X59872419Y-83648493D02*
X60110514Y-83743731D01*
X60110514Y-83743731D02*
X60158133Y-83791350D01*
X60158133Y-83791350D02*
X60205752Y-83886588D01*
X59872419Y-83029445D02*
X58872419Y-83029445D01*
X59205752Y-82553255D02*
X59872419Y-82553255D01*
X59300990Y-82553255D02*
X59253371Y-82505636D01*
X59253371Y-82505636D02*
X59205752Y-82410398D01*
X59205752Y-82410398D02*
X59205752Y-82267541D01*
X59205752Y-82267541D02*
X59253371Y-82172303D01*
X59253371Y-82172303D02*
X59348609Y-82124684D01*
X59348609Y-82124684D02*
X59872419Y-82124684D01*
X59205752Y-81791350D02*
X59205752Y-81410398D01*
X58872419Y-81648493D02*
X59729561Y-81648493D01*
X59729561Y-81648493D02*
X59824800Y-81600874D01*
X59824800Y-81600874D02*
X59872419Y-81505636D01*
X59872419Y-81505636D02*
X59872419Y-81410398D01*
X59824800Y-80696112D02*
X59872419Y-80791350D01*
X59872419Y-80791350D02*
X59872419Y-80981826D01*
X59872419Y-80981826D02*
X59824800Y-81077064D01*
X59824800Y-81077064D02*
X59729561Y-81124683D01*
X59729561Y-81124683D02*
X59348609Y-81124683D01*
X59348609Y-81124683D02*
X59253371Y-81077064D01*
X59253371Y-81077064D02*
X59205752Y-80981826D01*
X59205752Y-80981826D02*
X59205752Y-80791350D01*
X59205752Y-80791350D02*
X59253371Y-80696112D01*
X59253371Y-80696112D02*
X59348609Y-80648493D01*
X59348609Y-80648493D02*
X59443847Y-80648493D01*
X59443847Y-80648493D02*
X59539085Y-81124683D01*
X59872419Y-80219921D02*
X59205752Y-80219921D01*
X59396228Y-80219921D02*
X59300990Y-80172302D01*
X59300990Y-80172302D02*
X59253371Y-80124683D01*
X59253371Y-80124683D02*
X59205752Y-80029445D01*
X59205752Y-80029445D02*
X59205752Y-79934207D01*
X59205752Y-79743730D02*
X59205752Y-79362778D01*
X59872419Y-79600873D02*
X59015276Y-79600873D01*
X59015276Y-79600873D02*
X58920038Y-79553254D01*
X58920038Y-79553254D02*
X58872419Y-79458016D01*
X58872419Y-79458016D02*
X58872419Y-79362778D01*
X59872419Y-78600873D02*
X59348609Y-78600873D01*
X59348609Y-78600873D02*
X59253371Y-78648492D01*
X59253371Y-78648492D02*
X59205752Y-78743730D01*
X59205752Y-78743730D02*
X59205752Y-78934206D01*
X59205752Y-78934206D02*
X59253371Y-79029444D01*
X59824800Y-78600873D02*
X59872419Y-78696111D01*
X59872419Y-78696111D02*
X59872419Y-78934206D01*
X59872419Y-78934206D02*
X59824800Y-79029444D01*
X59824800Y-79029444D02*
X59729561Y-79077063D01*
X59729561Y-79077063D02*
X59634323Y-79077063D01*
X59634323Y-79077063D02*
X59539085Y-79029444D01*
X59539085Y-79029444D02*
X59491466Y-78934206D01*
X59491466Y-78934206D02*
X59491466Y-78696111D01*
X59491466Y-78696111D02*
X59443847Y-78600873D01*
X59824800Y-77696111D02*
X59872419Y-77791349D01*
X59872419Y-77791349D02*
X59872419Y-77981825D01*
X59872419Y-77981825D02*
X59824800Y-78077063D01*
X59824800Y-78077063D02*
X59777180Y-78124682D01*
X59777180Y-78124682D02*
X59681942Y-78172301D01*
X59681942Y-78172301D02*
X59396228Y-78172301D01*
X59396228Y-78172301D02*
X59300990Y-78124682D01*
X59300990Y-78124682D02*
X59253371Y-78077063D01*
X59253371Y-78077063D02*
X59205752Y-77981825D01*
X59205752Y-77981825D02*
X59205752Y-77791349D01*
X59205752Y-77791349D02*
X59253371Y-77696111D01*
X59824800Y-76886587D02*
X59872419Y-76981825D01*
X59872419Y-76981825D02*
X59872419Y-77172301D01*
X59872419Y-77172301D02*
X59824800Y-77267539D01*
X59824800Y-77267539D02*
X59729561Y-77315158D01*
X59729561Y-77315158D02*
X59348609Y-77315158D01*
X59348609Y-77315158D02*
X59253371Y-77267539D01*
X59253371Y-77267539D02*
X59205752Y-77172301D01*
X59205752Y-77172301D02*
X59205752Y-76981825D01*
X59205752Y-76981825D02*
X59253371Y-76886587D01*
X59253371Y-76886587D02*
X59348609Y-76838968D01*
X59348609Y-76838968D02*
X59443847Y-76838968D01*
X59443847Y-76838968D02*
X59539085Y-77315158D01*
X103267419Y-72971115D02*
X102267419Y-72971115D01*
X102267419Y-72304449D02*
X102267419Y-72113973D01*
X102267419Y-72113973D02*
X102315038Y-72018735D01*
X102315038Y-72018735D02*
X102410276Y-71923497D01*
X102410276Y-71923497D02*
X102600752Y-71875878D01*
X102600752Y-71875878D02*
X102934085Y-71875878D01*
X102934085Y-71875878D02*
X103124561Y-71923497D01*
X103124561Y-71923497D02*
X103219800Y-72018735D01*
X103219800Y-72018735D02*
X103267419Y-72113973D01*
X103267419Y-72113973D02*
X103267419Y-72304449D01*
X103267419Y-72304449D02*
X103219800Y-72399687D01*
X103219800Y-72399687D02*
X103124561Y-72494925D01*
X103124561Y-72494925D02*
X102934085Y-72542544D01*
X102934085Y-72542544D02*
X102600752Y-72542544D01*
X102600752Y-72542544D02*
X102410276Y-72494925D01*
X102410276Y-72494925D02*
X102315038Y-72399687D01*
X102315038Y-72399687D02*
X102267419Y-72304449D01*
X103267419Y-70875878D02*
X102791228Y-71209211D01*
X103267419Y-71447306D02*
X102267419Y-71447306D01*
X102267419Y-71447306D02*
X102267419Y-71066354D01*
X102267419Y-71066354D02*
X102315038Y-70971116D01*
X102315038Y-70971116D02*
X102362657Y-70923497D01*
X102362657Y-70923497D02*
X102457895Y-70875878D01*
X102457895Y-70875878D02*
X102600752Y-70875878D01*
X102600752Y-70875878D02*
X102695990Y-70923497D01*
X102695990Y-70923497D02*
X102743609Y-70971116D01*
X102743609Y-70971116D02*
X102791228Y-71066354D01*
X102791228Y-71066354D02*
X102791228Y-71447306D01*
X102743609Y-70447306D02*
X102743609Y-70113973D01*
X103267419Y-69971116D02*
X103267419Y-70447306D01*
X103267419Y-70447306D02*
X102267419Y-70447306D01*
X102267419Y-70447306D02*
X102267419Y-69971116D01*
X103219800Y-69590163D02*
X103267419Y-69447306D01*
X103267419Y-69447306D02*
X103267419Y-69209211D01*
X103267419Y-69209211D02*
X103219800Y-69113973D01*
X103219800Y-69113973D02*
X103172180Y-69066354D01*
X103172180Y-69066354D02*
X103076942Y-69018735D01*
X103076942Y-69018735D02*
X102981704Y-69018735D01*
X102981704Y-69018735D02*
X102886466Y-69066354D01*
X102886466Y-69066354D02*
X102838847Y-69113973D01*
X102838847Y-69113973D02*
X102791228Y-69209211D01*
X102791228Y-69209211D02*
X102743609Y-69399687D01*
X102743609Y-69399687D02*
X102695990Y-69494925D01*
X102695990Y-69494925D02*
X102648371Y-69542544D01*
X102648371Y-69542544D02*
X102553133Y-69590163D01*
X102553133Y-69590163D02*
X102457895Y-69590163D01*
X102457895Y-69590163D02*
X102362657Y-69542544D01*
X102362657Y-69542544D02*
X102315038Y-69494925D01*
X102315038Y-69494925D02*
X102267419Y-69399687D01*
X102267419Y-69399687D02*
X102267419Y-69161592D01*
X102267419Y-69161592D02*
X102315038Y-69018735D01*
X102743609Y-68590163D02*
X102743609Y-68256830D01*
X103267419Y-68113973D02*
X103267419Y-68590163D01*
X103267419Y-68590163D02*
X102267419Y-68590163D01*
X102267419Y-68590163D02*
X102267419Y-68113973D01*
X102267419Y-67828258D02*
X102267419Y-67256830D01*
X103267419Y-67542544D02*
X102267419Y-67542544D01*
X109872419Y-72696115D02*
X108872419Y-72696115D01*
X108872419Y-72696115D02*
X109586704Y-72362782D01*
X109586704Y-72362782D02*
X108872419Y-72029449D01*
X108872419Y-72029449D02*
X109872419Y-72029449D01*
X108872419Y-71696115D02*
X108872419Y-71124687D01*
X109872419Y-71410401D02*
X108872419Y-71410401D01*
X109872419Y-70219925D02*
X109396228Y-70553258D01*
X109872419Y-70791353D02*
X108872419Y-70791353D01*
X108872419Y-70791353D02*
X108872419Y-70410401D01*
X108872419Y-70410401D02*
X108920038Y-70315163D01*
X108920038Y-70315163D02*
X108967657Y-70267544D01*
X108967657Y-70267544D02*
X109062895Y-70219925D01*
X109062895Y-70219925D02*
X109205752Y-70219925D01*
X109205752Y-70219925D02*
X109300990Y-70267544D01*
X109300990Y-70267544D02*
X109348609Y-70315163D01*
X109348609Y-70315163D02*
X109396228Y-70410401D01*
X109396228Y-70410401D02*
X109396228Y-70791353D01*
X108872419Y-69886591D02*
X109872419Y-69219925D01*
X108872419Y-69219925D02*
X109872419Y-69886591D01*
X106827693Y-120920038D02*
X106732455Y-120872419D01*
X106732455Y-120872419D02*
X106589598Y-120872419D01*
X106589598Y-120872419D02*
X106446741Y-120920038D01*
X106446741Y-120920038D02*
X106351503Y-121015276D01*
X106351503Y-121015276D02*
X106303884Y-121110514D01*
X106303884Y-121110514D02*
X106256265Y-121300990D01*
X106256265Y-121300990D02*
X106256265Y-121443847D01*
X106256265Y-121443847D02*
X106303884Y-121634323D01*
X106303884Y-121634323D02*
X106351503Y-121729561D01*
X106351503Y-121729561D02*
X106446741Y-121824800D01*
X106446741Y-121824800D02*
X106589598Y-121872419D01*
X106589598Y-121872419D02*
X106684836Y-121872419D01*
X106684836Y-121872419D02*
X106827693Y-121824800D01*
X106827693Y-121824800D02*
X106875312Y-121777180D01*
X106875312Y-121777180D02*
X106875312Y-121443847D01*
X106875312Y-121443847D02*
X106684836Y-121443847D01*
X107303884Y-121872419D02*
X107303884Y-120872419D01*
X107303884Y-120872419D02*
X107875312Y-121872419D01*
X107875312Y-121872419D02*
X107875312Y-120872419D01*
X108351503Y-121872419D02*
X108351503Y-120872419D01*
X108351503Y-120872419D02*
X108589598Y-120872419D01*
X108589598Y-120872419D02*
X108732455Y-120920038D01*
X108732455Y-120920038D02*
X108827693Y-121015276D01*
X108827693Y-121015276D02*
X108875312Y-121110514D01*
X108875312Y-121110514D02*
X108922931Y-121300990D01*
X108922931Y-121300990D02*
X108922931Y-121443847D01*
X108922931Y-121443847D02*
X108875312Y-121634323D01*
X108875312Y-121634323D02*
X108827693Y-121729561D01*
X108827693Y-121729561D02*
X108732455Y-121824800D01*
X108732455Y-121824800D02*
X108589598Y-121872419D01*
X108589598Y-121872419D02*
X108351503Y-121872419D01*
D11*
X101822013Y-104304024D02*
X101488680Y-103827833D01*
X101250585Y-104304024D02*
X101250585Y-103304024D01*
X101250585Y-103304024D02*
X101631537Y-103304024D01*
X101631537Y-103304024D02*
X101726775Y-103351643D01*
X101726775Y-103351643D02*
X101774394Y-103399262D01*
X101774394Y-103399262D02*
X101822013Y-103494500D01*
X101822013Y-103494500D02*
X101822013Y-103637357D01*
X101822013Y-103637357D02*
X101774394Y-103732595D01*
X101774394Y-103732595D02*
X101726775Y-103780214D01*
X101726775Y-103780214D02*
X101631537Y-103827833D01*
X101631537Y-103827833D02*
X101250585Y-103827833D01*
X102774394Y-104304024D02*
X102202966Y-104304024D01*
X102488680Y-104304024D02*
X102488680Y-103304024D01*
X102488680Y-103304024D02*
X102393442Y-103446881D01*
X102393442Y-103446881D02*
X102298204Y-103542119D01*
X102298204Y-103542119D02*
X102202966Y-103589738D01*
X98033333Y-98354580D02*
X97985714Y-98402200D01*
X97985714Y-98402200D02*
X97842857Y-98449819D01*
X97842857Y-98449819D02*
X97747619Y-98449819D01*
X97747619Y-98449819D02*
X97604762Y-98402200D01*
X97604762Y-98402200D02*
X97509524Y-98306961D01*
X97509524Y-98306961D02*
X97461905Y-98211723D01*
X97461905Y-98211723D02*
X97414286Y-98021247D01*
X97414286Y-98021247D02*
X97414286Y-97878390D01*
X97414286Y-97878390D02*
X97461905Y-97687914D01*
X97461905Y-97687914D02*
X97509524Y-97592676D01*
X97509524Y-97592676D02*
X97604762Y-97497438D01*
X97604762Y-97497438D02*
X97747619Y-97449819D01*
X97747619Y-97449819D02*
X97842857Y-97449819D01*
X97842857Y-97449819D02*
X97985714Y-97497438D01*
X97985714Y-97497438D02*
X98033333Y-97545057D01*
X98985714Y-98449819D02*
X98414286Y-98449819D01*
X98700000Y-98449819D02*
X98700000Y-97449819D01*
X98700000Y-97449819D02*
X98604762Y-97592676D01*
X98604762Y-97592676D02*
X98509524Y-97687914D01*
X98509524Y-97687914D02*
X98414286Y-97735533D01*
X101833333Y-107454819D02*
X101500000Y-106978628D01*
X101261905Y-107454819D02*
X101261905Y-106454819D01*
X101261905Y-106454819D02*
X101642857Y-106454819D01*
X101642857Y-106454819D02*
X101738095Y-106502438D01*
X101738095Y-106502438D02*
X101785714Y-106550057D01*
X101785714Y-106550057D02*
X101833333Y-106645295D01*
X101833333Y-106645295D02*
X101833333Y-106788152D01*
X101833333Y-106788152D02*
X101785714Y-106883390D01*
X101785714Y-106883390D02*
X101738095Y-106931009D01*
X101738095Y-106931009D02*
X101642857Y-106978628D01*
X101642857Y-106978628D02*
X101261905Y-106978628D01*
X102214286Y-106550057D02*
X102261905Y-106502438D01*
X102261905Y-106502438D02*
X102357143Y-106454819D01*
X102357143Y-106454819D02*
X102595238Y-106454819D01*
X102595238Y-106454819D02*
X102690476Y-106502438D01*
X102690476Y-106502438D02*
X102738095Y-106550057D01*
X102738095Y-106550057D02*
X102785714Y-106645295D01*
X102785714Y-106645295D02*
X102785714Y-106740533D01*
X102785714Y-106740533D02*
X102738095Y-106883390D01*
X102738095Y-106883390D02*
X102166667Y-107454819D01*
X102166667Y-107454819D02*
X102785714Y-107454819D01*
X98833333Y-73359580D02*
X98785714Y-73407200D01*
X98785714Y-73407200D02*
X98642857Y-73454819D01*
X98642857Y-73454819D02*
X98547619Y-73454819D01*
X98547619Y-73454819D02*
X98404762Y-73407200D01*
X98404762Y-73407200D02*
X98309524Y-73311961D01*
X98309524Y-73311961D02*
X98261905Y-73216723D01*
X98261905Y-73216723D02*
X98214286Y-73026247D01*
X98214286Y-73026247D02*
X98214286Y-72883390D01*
X98214286Y-72883390D02*
X98261905Y-72692914D01*
X98261905Y-72692914D02*
X98309524Y-72597676D01*
X98309524Y-72597676D02*
X98404762Y-72502438D01*
X98404762Y-72502438D02*
X98547619Y-72454819D01*
X98547619Y-72454819D02*
X98642857Y-72454819D01*
X98642857Y-72454819D02*
X98785714Y-72502438D01*
X98785714Y-72502438D02*
X98833333Y-72550057D01*
X99166667Y-72454819D02*
X99785714Y-72454819D01*
X99785714Y-72454819D02*
X99452381Y-72835771D01*
X99452381Y-72835771D02*
X99595238Y-72835771D01*
X99595238Y-72835771D02*
X99690476Y-72883390D01*
X99690476Y-72883390D02*
X99738095Y-72931009D01*
X99738095Y-72931009D02*
X99785714Y-73026247D01*
X99785714Y-73026247D02*
X99785714Y-73264342D01*
X99785714Y-73264342D02*
X99738095Y-73359580D01*
X99738095Y-73359580D02*
X99690476Y-73407200D01*
X99690476Y-73407200D02*
X99595238Y-73454819D01*
X99595238Y-73454819D02*
X99309524Y-73454819D01*
X99309524Y-73454819D02*
X99214286Y-73407200D01*
X99214286Y-73407200D02*
X99166667Y-73359580D01*
X101734166Y-119314481D02*
X101400833Y-118838290D01*
X101162738Y-119314481D02*
X101162738Y-118314481D01*
X101162738Y-118314481D02*
X101543690Y-118314481D01*
X101543690Y-118314481D02*
X101638928Y-118362100D01*
X101638928Y-118362100D02*
X101686547Y-118409719D01*
X101686547Y-118409719D02*
X101734166Y-118504957D01*
X101734166Y-118504957D02*
X101734166Y-118647814D01*
X101734166Y-118647814D02*
X101686547Y-118743052D01*
X101686547Y-118743052D02*
X101638928Y-118790671D01*
X101638928Y-118790671D02*
X101543690Y-118838290D01*
X101543690Y-118838290D02*
X101162738Y-118838290D01*
X102591309Y-118314481D02*
X102400833Y-118314481D01*
X102400833Y-118314481D02*
X102305595Y-118362100D01*
X102305595Y-118362100D02*
X102257976Y-118409719D01*
X102257976Y-118409719D02*
X102162738Y-118552576D01*
X102162738Y-118552576D02*
X102115119Y-118743052D01*
X102115119Y-118743052D02*
X102115119Y-119124004D01*
X102115119Y-119124004D02*
X102162738Y-119219242D01*
X102162738Y-119219242D02*
X102210357Y-119266862D01*
X102210357Y-119266862D02*
X102305595Y-119314481D01*
X102305595Y-119314481D02*
X102496071Y-119314481D01*
X102496071Y-119314481D02*
X102591309Y-119266862D01*
X102591309Y-119266862D02*
X102638928Y-119219242D01*
X102638928Y-119219242D02*
X102686547Y-119124004D01*
X102686547Y-119124004D02*
X102686547Y-118885909D01*
X102686547Y-118885909D02*
X102638928Y-118790671D01*
X102638928Y-118790671D02*
X102591309Y-118743052D01*
X102591309Y-118743052D02*
X102496071Y-118695433D01*
X102496071Y-118695433D02*
X102305595Y-118695433D01*
X102305595Y-118695433D02*
X102210357Y-118743052D01*
X102210357Y-118743052D02*
X102162738Y-118790671D01*
X102162738Y-118790671D02*
X102115119Y-118885909D01*
X109833333Y-81359580D02*
X109785714Y-81407200D01*
X109785714Y-81407200D02*
X109642857Y-81454819D01*
X109642857Y-81454819D02*
X109547619Y-81454819D01*
X109547619Y-81454819D02*
X109404762Y-81407200D01*
X109404762Y-81407200D02*
X109309524Y-81311961D01*
X109309524Y-81311961D02*
X109261905Y-81216723D01*
X109261905Y-81216723D02*
X109214286Y-81026247D01*
X109214286Y-81026247D02*
X109214286Y-80883390D01*
X109214286Y-80883390D02*
X109261905Y-80692914D01*
X109261905Y-80692914D02*
X109309524Y-80597676D01*
X109309524Y-80597676D02*
X109404762Y-80502438D01*
X109404762Y-80502438D02*
X109547619Y-80454819D01*
X109547619Y-80454819D02*
X109642857Y-80454819D01*
X109642857Y-80454819D02*
X109785714Y-80502438D01*
X109785714Y-80502438D02*
X109833333Y-80550057D01*
X110214286Y-80550057D02*
X110261905Y-80502438D01*
X110261905Y-80502438D02*
X110357143Y-80454819D01*
X110357143Y-80454819D02*
X110595238Y-80454819D01*
X110595238Y-80454819D02*
X110690476Y-80502438D01*
X110690476Y-80502438D02*
X110738095Y-80550057D01*
X110738095Y-80550057D02*
X110785714Y-80645295D01*
X110785714Y-80645295D02*
X110785714Y-80740533D01*
X110785714Y-80740533D02*
X110738095Y-80883390D01*
X110738095Y-80883390D02*
X110166667Y-81454819D01*
X110166667Y-81454819D02*
X110785714Y-81454819D01*
X99833333Y-69454819D02*
X99500000Y-68978628D01*
X99261905Y-69454819D02*
X99261905Y-68454819D01*
X99261905Y-68454819D02*
X99642857Y-68454819D01*
X99642857Y-68454819D02*
X99738095Y-68502438D01*
X99738095Y-68502438D02*
X99785714Y-68550057D01*
X99785714Y-68550057D02*
X99833333Y-68645295D01*
X99833333Y-68645295D02*
X99833333Y-68788152D01*
X99833333Y-68788152D02*
X99785714Y-68883390D01*
X99785714Y-68883390D02*
X99738095Y-68931009D01*
X99738095Y-68931009D02*
X99642857Y-68978628D01*
X99642857Y-68978628D02*
X99261905Y-68978628D01*
X100166667Y-68454819D02*
X100833333Y-68454819D01*
X100833333Y-68454819D02*
X100404762Y-69454819D01*
X90238095Y-73454819D02*
X90238095Y-74264342D01*
X90238095Y-74264342D02*
X90285714Y-74359580D01*
X90285714Y-74359580D02*
X90333333Y-74407200D01*
X90333333Y-74407200D02*
X90428571Y-74454819D01*
X90428571Y-74454819D02*
X90619047Y-74454819D01*
X90619047Y-74454819D02*
X90714285Y-74407200D01*
X90714285Y-74407200D02*
X90761904Y-74359580D01*
X90761904Y-74359580D02*
X90809523Y-74264342D01*
X90809523Y-74264342D02*
X90809523Y-73454819D01*
X91190476Y-73454819D02*
X91809523Y-73454819D01*
X91809523Y-73454819D02*
X91476190Y-73835771D01*
X91476190Y-73835771D02*
X91619047Y-73835771D01*
X91619047Y-73835771D02*
X91714285Y-73883390D01*
X91714285Y-73883390D02*
X91761904Y-73931009D01*
X91761904Y-73931009D02*
X91809523Y-74026247D01*
X91809523Y-74026247D02*
X91809523Y-74264342D01*
X91809523Y-74264342D02*
X91761904Y-74359580D01*
X91761904Y-74359580D02*
X91714285Y-74407200D01*
X91714285Y-74407200D02*
X91619047Y-74454819D01*
X91619047Y-74454819D02*
X91333333Y-74454819D01*
X91333333Y-74454819D02*
X91238095Y-74407200D01*
X91238095Y-74407200D02*
X91190476Y-74359580D01*
X83936666Y-68904819D02*
X83936666Y-69619104D01*
X83936666Y-69619104D02*
X83889047Y-69761961D01*
X83889047Y-69761961D02*
X83793809Y-69857200D01*
X83793809Y-69857200D02*
X83650952Y-69904819D01*
X83650952Y-69904819D02*
X83555714Y-69904819D01*
X84889047Y-68904819D02*
X84412857Y-68904819D01*
X84412857Y-68904819D02*
X84365238Y-69381009D01*
X84365238Y-69381009D02*
X84412857Y-69333390D01*
X84412857Y-69333390D02*
X84508095Y-69285771D01*
X84508095Y-69285771D02*
X84746190Y-69285771D01*
X84746190Y-69285771D02*
X84841428Y-69333390D01*
X84841428Y-69333390D02*
X84889047Y-69381009D01*
X84889047Y-69381009D02*
X84936666Y-69476247D01*
X84936666Y-69476247D02*
X84936666Y-69714342D01*
X84936666Y-69714342D02*
X84889047Y-69809580D01*
X84889047Y-69809580D02*
X84841428Y-69857200D01*
X84841428Y-69857200D02*
X84746190Y-69904819D01*
X84746190Y-69904819D02*
X84508095Y-69904819D01*
X84508095Y-69904819D02*
X84412857Y-69857200D01*
X84412857Y-69857200D02*
X84365238Y-69809580D01*
X101238095Y-81454819D02*
X101238095Y-82264342D01*
X101238095Y-82264342D02*
X101285714Y-82359580D01*
X101285714Y-82359580D02*
X101333333Y-82407200D01*
X101333333Y-82407200D02*
X101428571Y-82454819D01*
X101428571Y-82454819D02*
X101619047Y-82454819D01*
X101619047Y-82454819D02*
X101714285Y-82407200D01*
X101714285Y-82407200D02*
X101761904Y-82359580D01*
X101761904Y-82359580D02*
X101809523Y-82264342D01*
X101809523Y-82264342D02*
X101809523Y-81454819D01*
X102809523Y-82454819D02*
X102238095Y-82454819D01*
X102523809Y-82454819D02*
X102523809Y-81454819D01*
X102523809Y-81454819D02*
X102428571Y-81597676D01*
X102428571Y-81597676D02*
X102333333Y-81692914D01*
X102333333Y-81692914D02*
X102238095Y-81740533D01*
X101833333Y-116454819D02*
X101500000Y-115978628D01*
X101261905Y-116454819D02*
X101261905Y-115454819D01*
X101261905Y-115454819D02*
X101642857Y-115454819D01*
X101642857Y-115454819D02*
X101738095Y-115502438D01*
X101738095Y-115502438D02*
X101785714Y-115550057D01*
X101785714Y-115550057D02*
X101833333Y-115645295D01*
X101833333Y-115645295D02*
X101833333Y-115788152D01*
X101833333Y-115788152D02*
X101785714Y-115883390D01*
X101785714Y-115883390D02*
X101738095Y-115931009D01*
X101738095Y-115931009D02*
X101642857Y-115978628D01*
X101642857Y-115978628D02*
X101261905Y-115978628D01*
X102738095Y-115454819D02*
X102261905Y-115454819D01*
X102261905Y-115454819D02*
X102214286Y-115931009D01*
X102214286Y-115931009D02*
X102261905Y-115883390D01*
X102261905Y-115883390D02*
X102357143Y-115835771D01*
X102357143Y-115835771D02*
X102595238Y-115835771D01*
X102595238Y-115835771D02*
X102690476Y-115883390D01*
X102690476Y-115883390D02*
X102738095Y-115931009D01*
X102738095Y-115931009D02*
X102785714Y-116026247D01*
X102785714Y-116026247D02*
X102785714Y-116264342D01*
X102785714Y-116264342D02*
X102738095Y-116359580D01*
X102738095Y-116359580D02*
X102690476Y-116407200D01*
X102690476Y-116407200D02*
X102595238Y-116454819D01*
X102595238Y-116454819D02*
X102357143Y-116454819D01*
X102357143Y-116454819D02*
X102261905Y-116407200D01*
X102261905Y-116407200D02*
X102214286Y-116359580D01*
X101909819Y-75333333D02*
X102624104Y-75333333D01*
X102624104Y-75333333D02*
X102766961Y-75380952D01*
X102766961Y-75380952D02*
X102862200Y-75476190D01*
X102862200Y-75476190D02*
X102909819Y-75619047D01*
X102909819Y-75619047D02*
X102909819Y-75714285D01*
X101909819Y-74952380D02*
X101909819Y-74285714D01*
X101909819Y-74285714D02*
X102909819Y-74714285D01*
X101913333Y-110454819D02*
X101580000Y-109978628D01*
X101341905Y-110454819D02*
X101341905Y-109454819D01*
X101341905Y-109454819D02*
X101722857Y-109454819D01*
X101722857Y-109454819D02*
X101818095Y-109502438D01*
X101818095Y-109502438D02*
X101865714Y-109550057D01*
X101865714Y-109550057D02*
X101913333Y-109645295D01*
X101913333Y-109645295D02*
X101913333Y-109788152D01*
X101913333Y-109788152D02*
X101865714Y-109883390D01*
X101865714Y-109883390D02*
X101818095Y-109931009D01*
X101818095Y-109931009D02*
X101722857Y-109978628D01*
X101722857Y-109978628D02*
X101341905Y-109978628D01*
X102246667Y-109454819D02*
X102865714Y-109454819D01*
X102865714Y-109454819D02*
X102532381Y-109835771D01*
X102532381Y-109835771D02*
X102675238Y-109835771D01*
X102675238Y-109835771D02*
X102770476Y-109883390D01*
X102770476Y-109883390D02*
X102818095Y-109931009D01*
X102818095Y-109931009D02*
X102865714Y-110026247D01*
X102865714Y-110026247D02*
X102865714Y-110264342D01*
X102865714Y-110264342D02*
X102818095Y-110359580D01*
X102818095Y-110359580D02*
X102770476Y-110407200D01*
X102770476Y-110407200D02*
X102675238Y-110454819D01*
X102675238Y-110454819D02*
X102389524Y-110454819D01*
X102389524Y-110454819D02*
X102294286Y-110407200D01*
X102294286Y-110407200D02*
X102246667Y-110359580D01*
X90358938Y-99059679D02*
X90358938Y-99869202D01*
X90358938Y-99869202D02*
X90406557Y-99964440D01*
X90406557Y-99964440D02*
X90454176Y-100012060D01*
X90454176Y-100012060D02*
X90549414Y-100059679D01*
X90549414Y-100059679D02*
X90739890Y-100059679D01*
X90739890Y-100059679D02*
X90835128Y-100012060D01*
X90835128Y-100012060D02*
X90882747Y-99964440D01*
X90882747Y-99964440D02*
X90930366Y-99869202D01*
X90930366Y-99869202D02*
X90930366Y-99059679D01*
X91358938Y-99154917D02*
X91406557Y-99107298D01*
X91406557Y-99107298D02*
X91501795Y-99059679D01*
X91501795Y-99059679D02*
X91739890Y-99059679D01*
X91739890Y-99059679D02*
X91835128Y-99107298D01*
X91835128Y-99107298D02*
X91882747Y-99154917D01*
X91882747Y-99154917D02*
X91930366Y-99250155D01*
X91930366Y-99250155D02*
X91930366Y-99345393D01*
X91930366Y-99345393D02*
X91882747Y-99488250D01*
X91882747Y-99488250D02*
X91311319Y-100059679D01*
X91311319Y-100059679D02*
X91930366Y-100059679D01*
X96666666Y-124454819D02*
X96666666Y-125169104D01*
X96666666Y-125169104D02*
X96619047Y-125311961D01*
X96619047Y-125311961D02*
X96523809Y-125407200D01*
X96523809Y-125407200D02*
X96380952Y-125454819D01*
X96380952Y-125454819D02*
X96285714Y-125454819D01*
X97571428Y-124454819D02*
X97380952Y-124454819D01*
X97380952Y-124454819D02*
X97285714Y-124502438D01*
X97285714Y-124502438D02*
X97238095Y-124550057D01*
X97238095Y-124550057D02*
X97142857Y-124692914D01*
X97142857Y-124692914D02*
X97095238Y-124883390D01*
X97095238Y-124883390D02*
X97095238Y-125264342D01*
X97095238Y-125264342D02*
X97142857Y-125359580D01*
X97142857Y-125359580D02*
X97190476Y-125407200D01*
X97190476Y-125407200D02*
X97285714Y-125454819D01*
X97285714Y-125454819D02*
X97476190Y-125454819D01*
X97476190Y-125454819D02*
X97571428Y-125407200D01*
X97571428Y-125407200D02*
X97619047Y-125359580D01*
X97619047Y-125359580D02*
X97666666Y-125264342D01*
X97666666Y-125264342D02*
X97666666Y-125026247D01*
X97666666Y-125026247D02*
X97619047Y-124931009D01*
X97619047Y-124931009D02*
X97571428Y-124883390D01*
X97571428Y-124883390D02*
X97476190Y-124835771D01*
X97476190Y-124835771D02*
X97285714Y-124835771D01*
X97285714Y-124835771D02*
X97190476Y-124883390D01*
X97190476Y-124883390D02*
X97142857Y-124931009D01*
X97142857Y-124931009D02*
X97095238Y-125026247D01*
X68351666Y-68904819D02*
X68351666Y-69619104D01*
X68351666Y-69619104D02*
X68304047Y-69761961D01*
X68304047Y-69761961D02*
X68208809Y-69857200D01*
X68208809Y-69857200D02*
X68065952Y-69904819D01*
X68065952Y-69904819D02*
X67970714Y-69904819D01*
X68780238Y-69000057D02*
X68827857Y-68952438D01*
X68827857Y-68952438D02*
X68923095Y-68904819D01*
X68923095Y-68904819D02*
X69161190Y-68904819D01*
X69161190Y-68904819D02*
X69256428Y-68952438D01*
X69256428Y-68952438D02*
X69304047Y-69000057D01*
X69304047Y-69000057D02*
X69351666Y-69095295D01*
X69351666Y-69095295D02*
X69351666Y-69190533D01*
X69351666Y-69190533D02*
X69304047Y-69333390D01*
X69304047Y-69333390D02*
X68732619Y-69904819D01*
X68732619Y-69904819D02*
X69351666Y-69904819D01*
X84676666Y-123384819D02*
X84676666Y-124099104D01*
X84676666Y-124099104D02*
X84629047Y-124241961D01*
X84629047Y-124241961D02*
X84533809Y-124337200D01*
X84533809Y-124337200D02*
X84390952Y-124384819D01*
X84390952Y-124384819D02*
X84295714Y-124384819D01*
X85581428Y-123718152D02*
X85581428Y-124384819D01*
X85343333Y-123337200D02*
X85105238Y-124051485D01*
X85105238Y-124051485D02*
X85724285Y-124051485D01*
X101978337Y-113413686D02*
X101645004Y-112937495D01*
X101406909Y-113413686D02*
X101406909Y-112413686D01*
X101406909Y-112413686D02*
X101787861Y-112413686D01*
X101787861Y-112413686D02*
X101883099Y-112461305D01*
X101883099Y-112461305D02*
X101930718Y-112508924D01*
X101930718Y-112508924D02*
X101978337Y-112604162D01*
X101978337Y-112604162D02*
X101978337Y-112747019D01*
X101978337Y-112747019D02*
X101930718Y-112842257D01*
X101930718Y-112842257D02*
X101883099Y-112889876D01*
X101883099Y-112889876D02*
X101787861Y-112937495D01*
X101787861Y-112937495D02*
X101406909Y-112937495D01*
X102835480Y-112747019D02*
X102835480Y-113413686D01*
X102597385Y-112366067D02*
X102359290Y-113080352D01*
X102359290Y-113080352D02*
X102978337Y-113080352D01*
D12*
X108920000Y-103080000D02*
X105080000Y-103080000D01*
X108920000Y-104920000D02*
X105080000Y-104920000D01*
X92950000Y-97100000D02*
X92950000Y-97035000D01*
X92950000Y-99275000D02*
X92950000Y-99210000D01*
X96190000Y-97035000D02*
X92950000Y-97035000D01*
X96190000Y-97100000D02*
X96190000Y-97035000D01*
X96190000Y-99275000D02*
X92950000Y-99275000D01*
X96190000Y-99275000D02*
X96190000Y-99210000D01*
X108920000Y-106080000D02*
X105080000Y-106080000D01*
X108920000Y-107920000D02*
X105080000Y-107920000D01*
X93370341Y-71840682D02*
X93370341Y-71905682D01*
X93370341Y-71840682D02*
X96610341Y-71840682D01*
X93370341Y-74015682D02*
X93370341Y-74080682D01*
X93370341Y-74080682D02*
X96610341Y-74080682D01*
X96610341Y-71840682D02*
X96610341Y-71905682D01*
X96610341Y-74015682D02*
X96610341Y-74080682D01*
X108820833Y-117939662D02*
X104980833Y-117939662D01*
X108820833Y-119779662D02*
X104980833Y-119779662D01*
X104460000Y-80395000D02*
X104460000Y-80330000D01*
X104460000Y-82570000D02*
X104460000Y-82505000D01*
X107700000Y-80330000D02*
X104460000Y-80330000D01*
X107700000Y-80395000D02*
X107700000Y-80330000D01*
X107700000Y-82570000D02*
X104460000Y-82570000D01*
X107700000Y-82570000D02*
X107700000Y-82505000D01*
X96827645Y-67944709D02*
X92987645Y-67944709D01*
X96827645Y-69784709D02*
X92987645Y-69784709D01*
X92160000Y-75670000D02*
X92160000Y-96110000D01*
X92160000Y-96110000D02*
X97460000Y-96110000D01*
X93810000Y-75670000D02*
X92160000Y-75670000D01*
X97460000Y-75670000D02*
X95810000Y-75670000D01*
X97460000Y-96110000D02*
X97460000Y-75670000D01*
X95810000Y-75670000D02*
G75*
G02*
X93810000Y-75670000I-1000000J0D01*
G01*
X78320000Y-75050000D02*
X78320000Y-76050000D01*
X78320000Y-76050000D02*
X79320000Y-75550000D01*
X79320000Y-75550000D02*
X78320000Y-75050000D01*
X79710000Y-70340000D02*
X88830000Y-70340000D01*
X79710000Y-93820000D02*
X81020000Y-93820000D01*
X79710000Y-121400000D02*
X79710000Y-70340000D01*
X81020000Y-71640000D02*
X87520000Y-71640000D01*
X81020000Y-93820000D02*
X81020000Y-71640000D01*
X81020000Y-97920000D02*
X79710000Y-97920000D01*
X81020000Y-97920000D02*
X81020000Y-97920000D01*
X81020000Y-120100000D02*
X81020000Y-97920000D01*
X87520000Y-71640000D02*
X87520000Y-120100000D01*
X87520000Y-120100000D02*
X81020000Y-120100000D01*
X88830000Y-70340000D02*
X88830000Y-121400000D01*
X88830000Y-121400000D02*
X79710000Y-121400000D01*
D13*
G36*
X62303057Y-125196186D02*
G01*
X62378506Y-125257504D01*
X62423068Y-125341852D01*
X62420878Y-125389214D01*
X62413668Y-125495353D01*
X62490549Y-125565674D01*
X62655613Y-125602433D01*
X62820020Y-125609412D01*
X62993210Y-125612634D01*
X63089071Y-125626941D01*
X63129795Y-125659293D01*
X63137647Y-125709020D01*
X63130432Y-125755531D01*
X63096401Y-125784790D01*
X63016976Y-125800755D01*
X62873580Y-125807380D01*
X62669864Y-125808628D01*
X62202080Y-125808628D01*
X62197904Y-125512015D01*
X62201369Y-125350404D01*
X62214612Y-125233683D01*
X62230453Y-125192706D01*
X62303057Y-125196186D01*
G37*
G36*
X63718576Y-125432203D02*
G01*
X63793056Y-125504736D01*
X63840428Y-125624606D01*
X63844397Y-125650410D01*
X63858348Y-125721363D01*
X63895054Y-125762682D01*
X63977660Y-125784113D01*
X64129309Y-125795400D01*
X64195981Y-125798452D01*
X64374246Y-125808579D01*
X64474963Y-125825284D01*
X64520163Y-125857544D01*
X64531877Y-125914334D01*
X64532157Y-125935413D01*
X64528574Y-125992236D01*
X64505335Y-126027987D01*
X64443703Y-126047547D01*
X64324944Y-126055799D01*
X64130321Y-126057623D01*
X64063047Y-126057647D01*
X63593937Y-126057647D01*
X63592514Y-125760154D01*
X63599426Y-125596646D01*
X63618805Y-125476418D01*
X63640472Y-125432141D01*
X63718576Y-125432203D01*
G37*
G36*
X62417162Y-124514069D02*
G01*
X62436708Y-124534188D01*
X62471488Y-124623602D01*
X62442096Y-124709758D01*
X62415240Y-124844127D01*
X62470748Y-124953014D01*
X62591406Y-125008658D01*
X62628910Y-125011002D01*
X62788350Y-124989549D01*
X62866638Y-124919132D01*
X62875328Y-124787218D01*
X62869329Y-124750194D01*
X62863573Y-124602409D01*
X62901549Y-124513027D01*
X62969032Y-124495435D01*
X63051791Y-124563023D01*
X63058455Y-124572237D01*
X63127075Y-124743222D01*
X63123587Y-124928424D01*
X63049565Y-125086793D01*
X63038236Y-125099688D01*
X62890744Y-125198466D01*
X62705772Y-125241812D01*
X62514518Y-125231352D01*
X62348182Y-125168713D01*
X62239274Y-125058012D01*
X62197915Y-124926327D01*
X62195597Y-124782827D01*
X62224342Y-124648683D01*
X62276170Y-124545063D01*
X62343103Y-124493135D01*
X62417162Y-124514069D01*
G37*
G36*
X62809321Y-131545156D02*
G01*
X62973551Y-131606682D01*
X63029358Y-131651347D01*
X63117582Y-131807091D01*
X63131911Y-131983481D01*
X63071739Y-132143328D01*
X63038040Y-132183530D01*
X62916358Y-132250384D01*
X62741861Y-132284761D01*
X62661194Y-132285391D01*
X62551505Y-132286248D01*
X62382245Y-132254435D01*
X62273798Y-132192059D01*
X62206292Y-132052902D01*
X62197007Y-131911530D01*
X62416305Y-131911530D01*
X62443774Y-131998215D01*
X62531893Y-132059796D01*
X62661194Y-132082556D01*
X62809849Y-132053691D01*
X62877161Y-131983905D01*
X62878779Y-131878584D01*
X62828863Y-131795059D01*
X62712874Y-131740974D01*
X62572608Y-131752462D01*
X62468951Y-131813459D01*
X62416305Y-131911530D01*
X62197007Y-131911530D01*
X62194801Y-131877935D01*
X62237915Y-131712739D01*
X62290981Y-131635687D01*
X62428750Y-131558824D01*
X62614626Y-131528925D01*
X62809321Y-131545156D01*
G37*
G36*
X62809321Y-126863587D02*
G01*
X62973551Y-126925114D01*
X63029358Y-126969779D01*
X63118825Y-127131418D01*
X63128806Y-127317024D01*
X63058050Y-127488913D01*
X63047050Y-127503201D01*
X62929441Y-127580620D01*
X62756037Y-127621050D01*
X62659535Y-127622116D01*
X62564045Y-127623170D01*
X62390673Y-127585658D01*
X62294384Y-127529942D01*
X62212853Y-127396321D01*
X62192520Y-127243444D01*
X62410593Y-127243444D01*
X62445632Y-127333960D01*
X62529792Y-127378611D01*
X62659535Y-127400989D01*
X62786183Y-127396914D01*
X62855425Y-127369151D01*
X62889565Y-127275058D01*
X62856831Y-127167659D01*
X62790042Y-127104077D01*
X62660559Y-127070255D01*
X62538555Y-127092623D01*
X62447432Y-127155559D01*
X62410593Y-127243444D01*
X62192520Y-127243444D01*
X62189900Y-127223742D01*
X62225770Y-127053994D01*
X62290981Y-126954118D01*
X62428750Y-126877256D01*
X62614626Y-126847356D01*
X62809321Y-126863587D01*
G37*
G36*
X62949176Y-128948528D02*
G01*
X63063621Y-128958837D01*
X63119354Y-128982530D01*
X63136803Y-129024931D01*
X63137647Y-129045883D01*
X63126615Y-129101778D01*
X63078255Y-129131834D01*
X62969672Y-129143775D01*
X62842381Y-129145490D01*
X62621396Y-129164341D01*
X62476105Y-129218034D01*
X62414482Y-129302284D01*
X62422935Y-129371049D01*
X62468275Y-129412935D01*
X62575657Y-129436185D01*
X62762380Y-129444211D01*
X62794349Y-129444314D01*
X62974773Y-129446213D01*
X63077466Y-129457199D01*
X63124296Y-129485204D01*
X63137132Y-129538158D01*
X63137647Y-129568824D01*
X63134362Y-129626505D01*
X63112066Y-129662883D01*
X63052103Y-129682869D01*
X62935814Y-129691372D01*
X62744542Y-129693302D01*
X62664510Y-129693334D01*
X62191373Y-129693334D01*
X62191373Y-129402229D01*
X62202026Y-129204021D01*
X62244837Y-129072482D01*
X62336084Y-128994457D01*
X62492046Y-128956792D01*
X62729002Y-128946331D01*
X62755589Y-128946275D01*
X62949176Y-128948528D01*
G37*
G36*
X63130995Y-126250935D02*
G01*
X63119828Y-126441020D01*
X63088488Y-126587292D01*
X63064747Y-126636345D01*
X63008151Y-126685867D01*
X62911356Y-126717967D01*
X62752317Y-126737837D01*
X62594236Y-126747154D01*
X62191373Y-126765449D01*
X62191373Y-126637941D01*
X62197054Y-126570128D01*
X62228810Y-126530567D01*
X62308711Y-126509920D01*
X62458824Y-126498851D01*
X62527549Y-126495707D01*
X62705752Y-126485655D01*
X62806431Y-126469063D01*
X62851635Y-126436798D01*
X62863414Y-126379728D01*
X62863726Y-126356471D01*
X62857662Y-126290204D01*
X62824771Y-126251475D01*
X62743002Y-126231151D01*
X62590307Y-126220099D01*
X62527549Y-126217235D01*
X62349284Y-126207108D01*
X62248567Y-126190402D01*
X62203367Y-126158143D01*
X62191653Y-126101353D01*
X62191373Y-126080274D01*
X62194956Y-126023451D01*
X62218195Y-125987700D01*
X62279827Y-125968140D01*
X62398586Y-125959888D01*
X62593209Y-125958064D01*
X62660483Y-125958039D01*
X63129594Y-125958039D01*
X63130995Y-126250935D01*
G37*
G36*
X62739216Y-123989221D02*
G01*
X62744580Y-124147705D01*
X62764032Y-124224441D01*
X62802615Y-124236879D01*
X62810071Y-124234390D01*
X62897448Y-124155434D01*
X62911132Y-124032625D01*
X62883587Y-123956464D01*
X62857420Y-123857381D01*
X62911712Y-123773308D01*
X62979883Y-123720415D01*
X63031661Y-123745283D01*
X63065986Y-123788637D01*
X63132465Y-123954433D01*
X63123974Y-124141316D01*
X63044176Y-124309228D01*
X63015402Y-124341676D01*
X62907050Y-124423164D01*
X62771974Y-124458678D01*
X62651263Y-124463922D01*
X62458325Y-124436656D01*
X62424738Y-124431910D01*
X62272908Y-124337417D01*
X62198695Y-124182758D01*
X62191373Y-124099534D01*
X62196285Y-124071080D01*
X62405830Y-124071080D01*
X62407117Y-124136334D01*
X62458325Y-124209832D01*
X62507542Y-124195598D01*
X62537364Y-124104309D01*
X62540000Y-124054818D01*
X62535373Y-123950384D01*
X62511409Y-123930893D01*
X62458484Y-123976250D01*
X62405830Y-124071080D01*
X62196285Y-124071080D01*
X62225838Y-123899876D01*
X62328301Y-123772407D01*
X62497368Y-123718648D01*
X62542825Y-123716863D01*
X62739216Y-123716863D01*
X62739216Y-123989221D01*
G37*
G36*
X64183530Y-124947731D02*
G01*
X64185713Y-125105135D01*
X64196784Y-125179279D01*
X64223528Y-125186492D01*
X64267068Y-125148787D01*
X64322530Y-125060894D01*
X64300743Y-124955917D01*
X64297664Y-124949053D01*
X64272202Y-124830640D01*
X64316813Y-124735547D01*
X64374785Y-124667910D01*
X64417832Y-124680716D01*
X64460531Y-124734911D01*
X64516571Y-124870771D01*
X64531725Y-125042492D01*
X64507337Y-125207786D01*
X64444748Y-125324366D01*
X64441732Y-125327180D01*
X64292444Y-125409371D01*
X64105122Y-125441361D01*
X63922059Y-125426643D01*
X63911958Y-125425831D01*
X63745140Y-125365459D01*
X63636862Y-125262924D01*
X63635304Y-125260070D01*
X63587189Y-125079086D01*
X63590835Y-125061569D01*
X63859804Y-125061569D01*
X63883282Y-125160141D01*
X63922059Y-125198530D01*
X63969288Y-125172613D01*
X63984314Y-125061569D01*
X63967870Y-124947405D01*
X63922059Y-124924608D01*
X63873445Y-124984638D01*
X63859804Y-125061569D01*
X63590835Y-125061569D01*
X63623126Y-124906451D01*
X63728672Y-124765362D01*
X63889385Y-124679017D01*
X64006952Y-124663138D01*
X64183530Y-124663138D01*
X64183530Y-124947731D01*
G37*
G36*
X64532157Y-130103674D02*
G01*
X64524594Y-130300380D01*
X64497960Y-130424573D01*
X64446339Y-130502476D01*
X64441079Y-130507379D01*
X64298736Y-130586572D01*
X64250036Y-130583292D01*
X64164440Y-130577528D01*
X64056538Y-130491086D01*
X63993383Y-130338082D01*
X63984314Y-130237619D01*
X63979061Y-130187222D01*
X64183530Y-130187222D01*
X64200891Y-130307924D01*
X64250036Y-130339550D01*
X64301840Y-130305481D01*
X64326792Y-130223470D01*
X64305015Y-130120962D01*
X64249337Y-130055470D01*
X64245785Y-130054163D01*
X64198388Y-130080105D01*
X64183530Y-130187222D01*
X63979061Y-130187222D01*
X63969534Y-130095808D01*
X63923619Y-130042698D01*
X63914937Y-130041961D01*
X63838042Y-130082497D01*
X63807364Y-130178637D01*
X63833151Y-130287709D01*
X63848382Y-130396874D01*
X63808071Y-130470865D01*
X63749309Y-130535474D01*
X63704291Y-130521328D01*
X63660589Y-130468226D01*
X63602479Y-130327881D01*
X63589426Y-130148620D01*
X63621832Y-129980563D01*
X63656157Y-129915090D01*
X63711774Y-129864199D01*
X63803443Y-129831435D01*
X63953932Y-129811293D01*
X64129294Y-129800689D01*
X64532157Y-129782394D01*
X64532157Y-130103674D01*
G37*
G36*
X62973114Y-127743293D02*
G01*
X63083543Y-127857123D01*
X63135928Y-128023889D01*
X63122062Y-128224810D01*
X63088177Y-128331080D01*
X63012415Y-128451533D01*
X62924303Y-128478818D01*
X62856527Y-128437479D01*
X62814374Y-128376850D01*
X62824499Y-128304213D01*
X62873687Y-128209177D01*
X62929399Y-128101308D01*
X62932707Y-128036712D01*
X62884358Y-127974420D01*
X62878085Y-127968113D01*
X62824015Y-127922720D01*
X62792901Y-127938036D01*
X62769899Y-128029815D01*
X62759197Y-128094257D01*
X62698992Y-128300024D01*
X62601175Y-128417789D01*
X62470592Y-128444622D01*
X62312090Y-128377591D01*
X62302063Y-128370706D01*
X62225055Y-128287347D01*
X62194025Y-128159713D01*
X62191373Y-128081401D01*
X62207934Y-127924041D01*
X62249096Y-127795805D01*
X62263035Y-127772951D01*
X62323911Y-127707235D01*
X62378100Y-127721574D01*
X62417309Y-127757621D01*
X62471751Y-127839307D01*
X62449499Y-127932684D01*
X62441419Y-127948278D01*
X62409141Y-128052760D01*
X62416378Y-128141855D01*
X62456276Y-128183536D01*
X62489845Y-128174531D01*
X62528288Y-128105885D01*
X62540000Y-128018689D01*
X62570364Y-127837777D01*
X62663433Y-127733118D01*
X62812850Y-127701177D01*
X62973114Y-127743293D01*
G37*
G36*
X62678113Y-129798093D02*
G01*
X62720583Y-129829883D01*
X62736696Y-129912815D01*
X62739216Y-130066863D01*
X62750400Y-130243656D01*
X62782509Y-130329793D01*
X62833380Y-130322423D01*
X62881930Y-130254914D01*
X62900192Y-130128201D01*
X62880570Y-130076708D01*
X62852098Y-129959468D01*
X62888220Y-129870862D01*
X62960018Y-129842745D01*
X63051954Y-129885604D01*
X63110926Y-129995064D01*
X63133025Y-130142449D01*
X63114341Y-130299085D01*
X63050965Y-130436296D01*
X63042440Y-130447326D01*
X62966658Y-130518523D01*
X62866501Y-130553991D01*
X62707479Y-130564741D01*
X62674139Y-130564902D01*
X62511705Y-130548384D01*
X62441263Y-130541221D01*
X62288920Y-130465890D01*
X62208890Y-130332481D01*
X62191373Y-130187269D01*
X62193930Y-130176721D01*
X62396920Y-130176721D01*
X62413908Y-130233333D01*
X62454622Y-130276751D01*
X62511705Y-130325905D01*
X62535250Y-130306017D01*
X62539992Y-130202353D01*
X62540000Y-130191373D01*
X62536036Y-130081172D01*
X62514320Y-130055799D01*
X62460116Y-130100518D01*
X62454622Y-130105995D01*
X62396920Y-130176721D01*
X62193930Y-130176721D01*
X62235872Y-130003693D01*
X62355806Y-129867270D01*
X62530831Y-129797800D01*
X62596521Y-129792941D01*
X62678113Y-129798093D01*
G37*
G36*
X64525980Y-126521553D02*
G01*
X64519367Y-126707126D01*
X64496312Y-126843441D01*
X64471663Y-126895083D01*
X64369610Y-126941299D01*
X64250838Y-126949688D01*
X64226660Y-126951396D01*
X64094712Y-126925461D01*
X64044079Y-126894353D01*
X64006791Y-126809965D01*
X63985921Y-126671312D01*
X63984314Y-126620432D01*
X63983119Y-126605490D01*
X64183530Y-126605490D01*
X64201304Y-126723470D01*
X64250838Y-126753897D01*
X64299739Y-126721700D01*
X64333152Y-126640974D01*
X64326960Y-126540948D01*
X64288405Y-126467963D01*
X64258236Y-126456079D01*
X64198926Y-126500625D01*
X64183530Y-126605490D01*
X63983119Y-126605490D01*
X63972197Y-126468931D01*
X63933962Y-126411772D01*
X63866783Y-126446450D01*
X63831546Y-126485025D01*
X63791376Y-126565178D01*
X63824032Y-126656238D01*
X63829810Y-126665648D01*
X63866758Y-126756749D01*
X63827577Y-126831723D01*
X63811319Y-126848369D01*
X63743423Y-126900768D01*
X63691502Y-126875444D01*
X63657545Y-126832540D01*
X63596302Y-126677347D01*
X63596417Y-126492594D01*
X63657338Y-126326752D01*
X63663413Y-126317749D01*
X63713772Y-126261279D01*
X63783408Y-126227964D01*
X63897282Y-126211895D01*
X64080356Y-126207165D01*
X64131102Y-126207059D01*
X64521262Y-126207059D01*
X64525980Y-126521553D01*
G37*
G36*
X63796513Y-126989758D02*
G01*
X63987618Y-127045394D01*
X64113985Y-127084497D01*
X64317375Y-127151012D01*
X64442557Y-127202621D01*
X64507621Y-127249883D01*
X64530658Y-127303356D01*
X64532157Y-127328550D01*
X64516648Y-127400425D01*
X64454557Y-127449613D01*
X64322542Y-127492201D01*
X64279111Y-127502927D01*
X64131280Y-127545474D01*
X64077008Y-127584184D01*
X64117661Y-127625394D01*
X64254605Y-127675438D01*
X64320491Y-127694780D01*
X64462933Y-127748788D01*
X64525129Y-127812984D01*
X64532157Y-127854151D01*
X64504814Y-127946233D01*
X64469902Y-127976290D01*
X64322030Y-128028770D01*
X64142287Y-128089645D01*
X63956715Y-128150492D01*
X63791354Y-128202884D01*
X63672243Y-128238397D01*
X63626963Y-128249020D01*
X63595644Y-128206491D01*
X63585883Y-128129113D01*
X63600334Y-128053148D01*
X63659606Y-128001972D01*
X63787578Y-127957851D01*
X63832416Y-127946021D01*
X63967467Y-127904494D01*
X64047430Y-127866268D01*
X64057817Y-127848642D01*
X64001110Y-127816001D01*
X63881594Y-127772400D01*
X63811283Y-127751340D01*
X63646229Y-127686966D01*
X63579863Y-127615816D01*
X63611722Y-127540634D01*
X63741343Y-127464162D01*
X63867548Y-127418264D01*
X64149213Y-127329477D01*
X63879999Y-127251789D01*
X63715150Y-127195108D01*
X63627320Y-127137075D01*
X63594870Y-127064110D01*
X63591557Y-127002193D01*
X63613828Y-126968761D01*
X63677032Y-126964415D01*
X63796513Y-126989758D01*
G37*
G36*
X64532157Y-128589928D02*
G01*
X64516511Y-128807002D01*
X64458668Y-128944240D01*
X64342270Y-129017999D01*
X64150959Y-129044635D01*
X64107372Y-129045362D01*
X64076175Y-129045883D01*
X63802350Y-129045883D01*
X63825506Y-129207745D01*
X63852918Y-129327002D01*
X63907648Y-129397703D01*
X64011822Y-129432263D01*
X64187565Y-129443095D01*
X64245785Y-129443551D01*
X64408460Y-129447966D01*
X64494828Y-129465513D01*
X64528065Y-129504316D01*
X64532157Y-129543922D01*
X64524979Y-129590319D01*
X64491096Y-129619557D01*
X64411984Y-129635557D01*
X64269117Y-129642240D01*
X64061551Y-129643530D01*
X63590945Y-129643530D01*
X63611590Y-129332255D01*
X63623331Y-129148502D01*
X63628846Y-129023742D01*
X63628686Y-128917592D01*
X63623403Y-128789669D01*
X63619915Y-128722157D01*
X63615016Y-128680218D01*
X63844490Y-128680218D01*
X63855935Y-128763479D01*
X63936864Y-128810010D01*
X63978530Y-128820495D01*
X64107372Y-128825527D01*
X64232301Y-128796365D01*
X64316509Y-128744724D01*
X64332179Y-128707954D01*
X64307772Y-128638437D01*
X64289757Y-128606652D01*
X64207248Y-128562485D01*
X64053951Y-128556848D01*
X63920862Y-128579567D01*
X63859047Y-128629470D01*
X63844490Y-128680218D01*
X63615016Y-128680218D01*
X63606568Y-128607907D01*
X63562152Y-128559071D01*
X63455562Y-128547971D01*
X63424020Y-128547843D01*
X63300833Y-128539936D01*
X63248137Y-128503473D01*
X63237255Y-128423334D01*
X63237255Y-128298824D01*
X63884706Y-128298824D01*
X64532157Y-128298824D01*
X64532157Y-128589928D01*
G37*
G36*
X64384061Y-130641898D02*
G01*
X64480319Y-130654490D01*
X64522117Y-130685967D01*
X64532018Y-130744910D01*
X64532157Y-130761842D01*
X64525783Y-130826939D01*
X64491973Y-130865041D01*
X64408696Y-130885124D01*
X64253921Y-130896163D01*
X64195981Y-130898803D01*
X64017778Y-130908855D01*
X63917100Y-130925448D01*
X63871896Y-130957712D01*
X63860117Y-131014782D01*
X63859804Y-131038039D01*
X63865868Y-131104306D01*
X63898759Y-131143035D01*
X63980528Y-131163359D01*
X64133224Y-131174411D01*
X64195981Y-131177276D01*
X64374246Y-131187403D01*
X64474963Y-131204108D01*
X64520163Y-131236368D01*
X64531877Y-131293157D01*
X64532157Y-131314237D01*
X64532157Y-131436471D01*
X63366096Y-131436471D01*
X62660324Y-131436471D01*
X62200035Y-131436471D01*
X62197586Y-131117282D01*
X62200352Y-131045761D01*
X62407221Y-131045761D01*
X62440393Y-131112745D01*
X62528158Y-131161627D01*
X62660324Y-131186024D01*
X62788590Y-131181373D01*
X62857526Y-131152148D01*
X62880269Y-131079019D01*
X62878278Y-131015187D01*
X62840527Y-130940575D01*
X62738760Y-130904664D01*
X62685149Y-130898560D01*
X62532005Y-130909927D01*
X62433877Y-130963793D01*
X62407221Y-131045761D01*
X62200352Y-131045761D01*
X62205662Y-130908485D01*
X62244868Y-130777152D01*
X62331810Y-130702203D01*
X62483092Y-130662560D01*
X62564104Y-130652005D01*
X62804946Y-130655054D01*
X62987613Y-130718914D01*
X63101806Y-130835535D01*
X63137224Y-130996872D01*
X63123008Y-131088643D01*
X63117815Y-131145973D01*
X63155494Y-131175533D01*
X63257715Y-131186290D01*
X63361765Y-131187451D01*
X63514331Y-131183792D01*
X63589053Y-131166835D01*
X63607604Y-131127611D01*
X63600522Y-131088643D01*
X63595975Y-130913145D01*
X63668038Y-130767490D01*
X63761346Y-130697950D01*
X63879023Y-130666918D01*
X64054090Y-130645758D01*
X64210775Y-130639608D01*
X64384061Y-130641898D01*
G37*
G36*
X59406881Y-125044814D02*
G01*
X59446430Y-125238651D01*
X59494343Y-125400081D01*
X59541188Y-125498224D01*
X59547658Y-125505697D01*
X59637595Y-125565182D01*
X59785120Y-125634314D01*
X59901507Y-125678257D01*
X60176151Y-125771611D01*
X60505901Y-125541100D01*
X60664919Y-125433540D01*
X60794136Y-125352773D01*
X60871074Y-125312654D01*
X60879950Y-125310588D01*
X60933969Y-125344217D01*
X61034809Y-125431749D01*
X61162543Y-125553155D01*
X61297243Y-125688405D01*
X61418982Y-125817469D01*
X61507830Y-125920318D01*
X61543861Y-125976920D01*
X61543922Y-125977957D01*
X61516783Y-126035760D01*
X61444778Y-126151463D01*
X61342025Y-126302701D01*
X61313267Y-126343330D01*
X61082612Y-126666564D01*
X61164681Y-126838663D01*
X61212474Y-126957854D01*
X61227715Y-127036807D01*
X61225205Y-127045621D01*
X61173902Y-127075315D01*
X61046233Y-127134662D01*
X60858399Y-127216535D01*
X60626602Y-127313803D01*
X60471886Y-127377105D01*
X59740110Y-127673730D01*
X59589331Y-127485780D01*
X59361333Y-127269108D01*
X59103796Y-127143591D01*
X58827271Y-127111740D01*
X58542309Y-127176067D01*
X58454583Y-127215588D01*
X58221409Y-127382296D01*
X58062937Y-127597164D01*
X57979418Y-127842181D01*
X57971106Y-128099334D01*
X58038251Y-128350610D01*
X58181106Y-128577996D01*
X58399923Y-128763480D01*
X58432650Y-128782834D01*
X58697468Y-128879611D01*
X58971526Y-128884187D01*
X59237942Y-128800482D01*
X59479833Y-128632417D01*
X59589331Y-128514221D01*
X59740110Y-128326270D01*
X60471886Y-128622895D01*
X60722412Y-128726016D01*
X60938774Y-128818053D01*
X61104771Y-128891877D01*
X61204201Y-128940359D01*
X61225205Y-128954379D01*
X61219644Y-129017631D01*
X61178779Y-129130526D01*
X61164681Y-129161337D01*
X61082612Y-129333437D01*
X61313267Y-129656671D01*
X61421548Y-129813704D01*
X61502559Y-129941269D01*
X61542152Y-130016785D01*
X61543922Y-130024822D01*
X61510699Y-130077841D01*
X61421907Y-130181295D01*
X61293863Y-130316667D01*
X61231308Y-130379576D01*
X61087142Y-130518091D01*
X60967851Y-130624644D01*
X60891888Y-130683091D01*
X60877172Y-130689412D01*
X60819507Y-130662638D01*
X60703247Y-130591534D01*
X60550661Y-130489926D01*
X60505901Y-130458901D01*
X60176151Y-130228389D01*
X59901507Y-130321744D01*
X59736315Y-130386677D01*
X59602325Y-130454829D01*
X59547658Y-130494304D01*
X59501807Y-130580053D01*
X59453446Y-130733809D01*
X59412008Y-130924692D01*
X59406881Y-130955186D01*
X59345310Y-131336863D01*
X58857370Y-131336863D01*
X58369431Y-131336863D01*
X58311266Y-131025588D01*
X58275893Y-130837349D01*
X58244104Y-130669983D01*
X58226954Y-130581135D01*
X58154773Y-130451080D01*
X58066972Y-130399216D01*
X57928523Y-130345648D01*
X57769042Y-130279889D01*
X57753021Y-130273033D01*
X57572904Y-130195591D01*
X57222446Y-130442502D01*
X57058869Y-130554391D01*
X56924884Y-130639834D01*
X56841971Y-130685371D01*
X56828380Y-130689412D01*
X56774970Y-130655856D01*
X56674568Y-130568520D01*
X56547102Y-130447400D01*
X56412501Y-130312495D01*
X56290695Y-130183802D01*
X56201611Y-130081318D01*
X56165181Y-130025040D01*
X56165098Y-130023858D01*
X56191724Y-129967351D01*
X56262907Y-129850525D01*
X56365611Y-129694330D01*
X56416915Y-129619269D01*
X56668731Y-129255004D01*
X56547251Y-128966933D01*
X56481715Y-128821198D01*
X56417051Y-128722599D01*
X56331179Y-128657357D01*
X56202021Y-128611695D01*
X56007498Y-128571835D01*
X55878726Y-128549759D01*
X55517648Y-128489040D01*
X55517648Y-128000925D01*
X55517648Y-127512810D01*
X55951241Y-127432381D01*
X56148582Y-127392448D01*
X56306626Y-127354242D01*
X56401075Y-127323903D01*
X56416010Y-127314897D01*
X56450388Y-127251427D01*
X56506872Y-127125851D01*
X56555773Y-127008259D01*
X56664361Y-126738676D01*
X56414730Y-126377571D01*
X56302839Y-126211114D01*
X56216885Y-126074484D01*
X56169991Y-125988927D01*
X56165098Y-125973363D01*
X56198678Y-125919998D01*
X56286075Y-125819679D01*
X56407280Y-125692316D01*
X56542282Y-125557822D01*
X56671071Y-125436109D01*
X56773637Y-125347088D01*
X56829969Y-125310672D01*
X56831158Y-125310588D01*
X56887901Y-125337537D01*
X57004062Y-125409424D01*
X57158351Y-125512817D01*
X57222446Y-125557499D01*
X57572904Y-125804409D01*
X57753021Y-125726967D01*
X57910508Y-125661593D01*
X58054769Y-125605273D01*
X58066972Y-125600784D01*
X58189097Y-125509890D01*
X58226954Y-125418865D01*
X58250173Y-125298235D01*
X58283413Y-125122800D01*
X58311266Y-124974412D01*
X58369431Y-124663138D01*
X58857370Y-124663138D01*
X59345310Y-124663138D01*
X59406881Y-125044814D01*
G37*
D12*
X103360000Y-84045000D02*
X103360000Y-101945000D01*
X103360000Y-101945000D02*
X108660000Y-101945000D01*
X105010000Y-84045000D02*
X103360000Y-84045000D01*
X108660000Y-84045000D02*
X107010000Y-84045000D01*
X108660000Y-101945000D02*
X108660000Y-84045000D01*
X107010000Y-84045000D02*
G75*
G02*
X105010000Y-84045000I-1000000J0D01*
G01*
X108920000Y-115080000D02*
X105080000Y-115080000D01*
X108920000Y-116920000D02*
X105080000Y-116920000D01*
X103395000Y-73275000D02*
X103395000Y-75935000D01*
X103395000Y-75935000D02*
X108595000Y-75935000D01*
X103455000Y-78645000D02*
X103455000Y-77375000D01*
X104345000Y-67275000D02*
X105105000Y-67275000D01*
X104345000Y-73275000D02*
X104345000Y-67275000D01*
X104345000Y-76265000D02*
X104345000Y-75935000D01*
X104405000Y-73275000D02*
X104405000Y-67275000D01*
X104525000Y-73275000D02*
X104525000Y-67275000D01*
X104645000Y-73275000D02*
X104645000Y-67275000D01*
X104725000Y-78645000D02*
X103455000Y-78645000D01*
X104765000Y-73275000D02*
X104765000Y-67275000D01*
X104885000Y-73275000D02*
X104885000Y-67275000D01*
X105005000Y-73275000D02*
X105005000Y-67275000D01*
X105105000Y-67275000D02*
X105105000Y-73275000D01*
X105105000Y-76265000D02*
X105105000Y-75935000D01*
X105995000Y-75935000D02*
X105995000Y-73275000D01*
X106885000Y-67275000D02*
X107645000Y-67275000D01*
X106885000Y-73275000D02*
X106885000Y-67275000D01*
X106885000Y-76332071D02*
X106885000Y-75935000D01*
X107645000Y-67275000D02*
X107645000Y-73275000D01*
X107645000Y-76332071D02*
X107645000Y-75935000D01*
X108595000Y-73275000D02*
X103395000Y-73275000D01*
X108595000Y-75935000D02*
X108595000Y-73275000D01*
X109000000Y-109080000D02*
X105160000Y-109080000D01*
X109000000Y-110920000D02*
X105160000Y-110920000D01*
X92360000Y-101045000D02*
X92360000Y-118945000D01*
X92360000Y-118945000D02*
X97660000Y-118945000D01*
X94010000Y-101045000D02*
X92360000Y-101045000D01*
X97660000Y-101045000D02*
X96010000Y-101045000D01*
X97660000Y-118945000D02*
X97660000Y-101045000D01*
X96010000Y-101045000D02*
G75*
G02*
X94010000Y-101045000I-1000000J0D01*
G01*
X99355000Y-121455000D02*
X100625000Y-121455000D01*
X99355000Y-122725000D02*
X99355000Y-121455000D01*
X101667929Y-124885000D02*
X102065000Y-124885000D01*
X101667929Y-125645000D02*
X102065000Y-125645000D01*
X101735000Y-122345000D02*
X102065000Y-122345000D01*
X101735000Y-123105000D02*
X102065000Y-123105000D01*
X102065000Y-121395000D02*
X102065000Y-126595000D01*
X102065000Y-123995000D02*
X104725000Y-123995000D01*
X102065000Y-126595000D02*
X104725000Y-126595000D01*
X104725000Y-121395000D02*
X102065000Y-121395000D01*
X104725000Y-122345000D02*
X110725000Y-122345000D01*
X104725000Y-122405000D02*
X110725000Y-122405000D01*
X104725000Y-122525000D02*
X110725000Y-122525000D01*
X104725000Y-122645000D02*
X110725000Y-122645000D01*
X104725000Y-122765000D02*
X110725000Y-122765000D01*
X104725000Y-122885000D02*
X110725000Y-122885000D01*
X104725000Y-123005000D02*
X110725000Y-123005000D01*
X104725000Y-124885000D02*
X110725000Y-124885000D01*
X104725000Y-126595000D02*
X104725000Y-121395000D01*
X110725000Y-122345000D02*
X110725000Y-123105000D01*
X110725000Y-123105000D02*
X104725000Y-123105000D01*
X110725000Y-124885000D02*
X110725000Y-125645000D01*
X110725000Y-125645000D02*
X104725000Y-125645000D01*
X62735000Y-75050000D02*
X62735000Y-76050000D01*
X62735000Y-76050000D02*
X63735000Y-75550000D01*
X63735000Y-75550000D02*
X62735000Y-75050000D01*
X64125000Y-70340000D02*
X73245000Y-70340000D01*
X64125000Y-93820000D02*
X65435000Y-93820000D01*
X64125000Y-121400000D02*
X64125000Y-70340000D01*
X65435000Y-71640000D02*
X71935000Y-71640000D01*
X65435000Y-93820000D02*
X65435000Y-71640000D01*
X65435000Y-97920000D02*
X64125000Y-97920000D01*
X65435000Y-97920000D02*
X65435000Y-97920000D01*
X65435000Y-120100000D02*
X65435000Y-97920000D01*
X71935000Y-71640000D02*
X71935000Y-120100000D01*
X71935000Y-120100000D02*
X65435000Y-120100000D01*
X73245000Y-70340000D02*
X73245000Y-121400000D01*
X73245000Y-121400000D02*
X64125000Y-121400000D01*
X79355000Y-124930000D02*
X80625000Y-124930000D01*
X79355000Y-126200000D02*
X79355000Y-124930000D01*
X81667929Y-128360000D02*
X82065000Y-128360000D01*
X81667929Y-129120000D02*
X82065000Y-129120000D01*
X81667929Y-130900000D02*
X82065000Y-130900000D01*
X81667929Y-131660000D02*
X82065000Y-131660000D01*
X81667929Y-133440000D02*
X82065000Y-133440000D01*
X81667929Y-134200000D02*
X82065000Y-134200000D01*
X81735000Y-125820000D02*
X82065000Y-125820000D01*
X81735000Y-126580000D02*
X82065000Y-126580000D01*
X82065000Y-124870000D02*
X82065000Y-135150000D01*
X82065000Y-127470000D02*
X84725000Y-127470000D01*
X82065000Y-130010000D02*
X84725000Y-130010000D01*
X82065000Y-132550000D02*
X84725000Y-132550000D01*
X82065000Y-135150000D02*
X84725000Y-135150000D01*
X84725000Y-124870000D02*
X82065000Y-124870000D01*
X84725000Y-125820000D02*
X90725000Y-125820000D01*
X84725000Y-125880000D02*
X90725000Y-125880000D01*
X84725000Y-126000000D02*
X90725000Y-126000000D01*
X84725000Y-126120000D02*
X90725000Y-126120000D01*
X84725000Y-126240000D02*
X90725000Y-126240000D01*
X84725000Y-126360000D02*
X90725000Y-126360000D01*
X84725000Y-126480000D02*
X90725000Y-126480000D01*
X84725000Y-128360000D02*
X90725000Y-128360000D01*
X84725000Y-130900000D02*
X90725000Y-130900000D01*
X84725000Y-133440000D02*
X90725000Y-133440000D01*
X84725000Y-135150000D02*
X84725000Y-124870000D01*
X90725000Y-125820000D02*
X90725000Y-126580000D01*
X90725000Y-126580000D02*
X84725000Y-126580000D01*
X90725000Y-128360000D02*
X90725000Y-129120000D01*
X90725000Y-129120000D02*
X84725000Y-129120000D01*
X90725000Y-130900000D02*
X90725000Y-131660000D01*
X90725000Y-131660000D02*
X84725000Y-131660000D01*
X90725000Y-133440000D02*
X90725000Y-134200000D01*
X90725000Y-134200000D02*
X84725000Y-134200000D01*
X109065004Y-112038867D02*
X105225004Y-112038867D01*
X109065004Y-113878867D02*
X105225004Y-113878867D01*
%LPC*%
D14*
X109540000Y-104000000D03*
D15*
X104460000Y-104000000D03*
D16*
X95820000Y-98155000D03*
X93320000Y-98155000D03*
D14*
X109540000Y-107000000D03*
D15*
X104460000Y-107000000D03*
D16*
X93740341Y-72960682D03*
X96240341Y-72960682D03*
D14*
X109440833Y-118859662D03*
D15*
X104360833Y-118859662D03*
D16*
X107330000Y-81450000D03*
X104830000Y-81450000D03*
D14*
X97447645Y-68864709D03*
D15*
X92367645Y-68864709D03*
D17*
X91000000Y-77000000D03*
D18*
X91000000Y-79540000D03*
X91000000Y-82080000D03*
X91000000Y-84620000D03*
X91000000Y-87160000D03*
X91000000Y-89700000D03*
X91000000Y-92240000D03*
X91000000Y-94780000D03*
X98620000Y-94780000D03*
X98620000Y-92240000D03*
X98620000Y-89700000D03*
X98620000Y-87160000D03*
X98620000Y-84620000D03*
X98620000Y-82080000D03*
X98620000Y-79540000D03*
X98620000Y-77000000D03*
D19*
X83000000Y-75550000D03*
D20*
X85540000Y-75550000D03*
X83000000Y-78090000D03*
X85540000Y-78090000D03*
X83000000Y-80630000D03*
X85540000Y-80630000D03*
X83000000Y-83170000D03*
X85540000Y-83170000D03*
X83000000Y-85710000D03*
X85540000Y-85710000D03*
X83000000Y-88250000D03*
X85540000Y-88250000D03*
X83000000Y-90790000D03*
X85540000Y-90790000D03*
X83000000Y-93330000D03*
X85540000Y-93330000D03*
X83000000Y-95870000D03*
X85540000Y-95870000D03*
X83000000Y-98410000D03*
X85540000Y-98410000D03*
X83000000Y-100950000D03*
X85540000Y-100950000D03*
X83000000Y-103490000D03*
X85540000Y-103490000D03*
X83000000Y-106030000D03*
X85540000Y-106030000D03*
X83000000Y-108570000D03*
X85540000Y-108570000D03*
X83000000Y-111110000D03*
X85540000Y-111110000D03*
X83000000Y-113650000D03*
X85540000Y-113650000D03*
X83000000Y-116190000D03*
X85540000Y-116190000D03*
D17*
X102200000Y-85375000D03*
D18*
X102200000Y-87915000D03*
X102200000Y-90455000D03*
X102200000Y-92995000D03*
X102200000Y-95535000D03*
X102200000Y-98075000D03*
X102200000Y-100615000D03*
X109820000Y-100615000D03*
X109820000Y-98075000D03*
X109820000Y-95535000D03*
X109820000Y-92995000D03*
X109820000Y-90455000D03*
X109820000Y-87915000D03*
X109820000Y-85375000D03*
D14*
X109540000Y-116000000D03*
D15*
X104460000Y-116000000D03*
D21*
X104725000Y-77375000D03*
D22*
X107265000Y-77375000D03*
D14*
X109620000Y-110000000D03*
D15*
X104540000Y-110000000D03*
D17*
X91200000Y-102375000D03*
D18*
X91200000Y-104915000D03*
X91200000Y-107455000D03*
X91200000Y-109995000D03*
X91200000Y-112535000D03*
X91200000Y-115075000D03*
X91200000Y-117615000D03*
X98820000Y-117615000D03*
X98820000Y-115075000D03*
X98820000Y-112535000D03*
X98820000Y-109995000D03*
X98820000Y-107455000D03*
X98820000Y-104915000D03*
X98820000Y-102375000D03*
D21*
X100625000Y-122725000D03*
D22*
X100625000Y-125265000D03*
D19*
X67415000Y-75550000D03*
D20*
X69955000Y-75550000D03*
X67415000Y-78090000D03*
X69955000Y-78090000D03*
X67415000Y-80630000D03*
X69955000Y-80630000D03*
X67415000Y-83170000D03*
X69955000Y-83170000D03*
X67415000Y-85710000D03*
X69955000Y-85710000D03*
X67415000Y-88250000D03*
X69955000Y-88250000D03*
X67415000Y-90790000D03*
X69955000Y-90790000D03*
X67415000Y-93330000D03*
X69955000Y-93330000D03*
X67415000Y-95870000D03*
X69955000Y-95870000D03*
X67415000Y-98410000D03*
X69955000Y-98410000D03*
X67415000Y-100950000D03*
X69955000Y-100950000D03*
X67415000Y-103490000D03*
X69955000Y-103490000D03*
X67415000Y-106030000D03*
X69955000Y-106030000D03*
X67415000Y-108570000D03*
X69955000Y-108570000D03*
X67415000Y-111110000D03*
X69955000Y-111110000D03*
X67415000Y-113650000D03*
X69955000Y-113650000D03*
X67415000Y-116190000D03*
X69955000Y-116190000D03*
D21*
X80625000Y-126200000D03*
D22*
X80625000Y-128740000D03*
X80625000Y-131280000D03*
X80625000Y-133820000D03*
D14*
X109685004Y-112958867D03*
D15*
X104605004Y-112958867D03*
D21*
X75000000Y-75380000D03*
D22*
X77540000Y-75380000D03*
X75000000Y-77920000D03*
X77540000Y-77920000D03*
X75000000Y-80460000D03*
X77540000Y-80460000D03*
X75000000Y-83000000D03*
X77540000Y-83000000D03*
X75000000Y-85540000D03*
X77540000Y-85540000D03*
X75000000Y-88080000D03*
X77540000Y-88080000D03*
X75000000Y-90620000D03*
X77540000Y-90620000D03*
X75000000Y-93160000D03*
X77540000Y-93160000D03*
X75000000Y-95700000D03*
X77540000Y-95700000D03*
X75000000Y-98240000D03*
X77540000Y-98240000D03*
X75000000Y-100780000D03*
X77540000Y-100780000D03*
X75000000Y-103320000D03*
X77540000Y-103320000D03*
X75000000Y-105860000D03*
X77540000Y-105860000D03*
X75000000Y-108400000D03*
X77540000Y-108400000D03*
X75000000Y-110940000D03*
X77540000Y-110940000D03*
X75000000Y-113480000D03*
X77540000Y-113480000D03*
X75000000Y-116020000D03*
X77540000Y-116020000D03*
D21*
X75750000Y-122770000D03*
D22*
X75750000Y-125310000D03*
X75750000Y-127850000D03*
X75750000Y-130390000D03*
%LPD*%
M02*
