%TF.GenerationSoftware,KiCad,Pcbnew,8.0.4*%
%TF.CreationDate,2024-09-09T13:52:01+01:00*%
%TF.ProjectId,Amiga_internal_floppy_adapter,416d6967-615f-4696-9e74-65726e616c5f,1.0*%
%TF.SameCoordinates,Original*%
%TF.FileFunction,Drillmap*%
%TF.FilePolarity,Positive*%
%FSLAX45Y45*%
G04 Gerber Fmt 4.5, Leading zero omitted, Abs format (unit mm)*
G04 Created by KiCad (PCBNEW 8.0.4) date 2024-09-09 13:52:01*
%MOMM*%
%LPD*%
G01*
G04 APERTURE LIST*
%ADD10C,0.050000*%
%ADD11C,0.200000*%
%ADD12C,0.100000*%
G04 APERTURE END LIST*
D10*
X11237000Y-12792500D02*
X9137000Y-12792500D01*
X9137000Y-13592500D01*
X5037000Y-13592500D01*
X5037000Y-6692500D01*
X11237000Y-6692500D01*
X11237000Y-12792500D01*
D11*
D12*
X8785000Y-9685000D02*
X8815000Y-9715000D01*
X8815000Y-9685000D02*
X8785000Y-9715000D01*
X8785000Y-11485000D02*
X8815000Y-11515000D01*
X8815000Y-11485000D02*
X8785000Y-11515000D01*
X8785000Y-11685000D02*
X8815000Y-11715000D01*
X8815000Y-11685000D02*
X8785000Y-11715000D01*
X8885000Y-7685000D02*
X8915000Y-7715000D01*
X8915000Y-7685000D02*
X8885000Y-7715000D01*
X8970612Y-7877230D02*
X9000612Y-7907230D01*
X9000612Y-7877230D02*
X8970612Y-7907230D01*
X9285000Y-7985000D02*
X9315000Y-8015000D01*
X9315000Y-7985000D02*
X9285000Y-8015000D01*
X9285000Y-9025000D02*
X9315000Y-9055000D01*
X9315000Y-9025000D02*
X9285000Y-9055000D01*
X9285000Y-9185000D02*
X9315000Y-9215000D01*
X9315000Y-9185000D02*
X9285000Y-9215000D01*
X9385000Y-8085000D02*
X9415000Y-8115000D01*
X9415000Y-8085000D02*
X9385000Y-8115000D01*
X10085000Y-10685000D02*
X10115000Y-10715000D01*
X10115000Y-10685000D02*
X10085000Y-10715000D01*
X10100458Y-10469542D02*
X10130458Y-10499542D01*
X10130458Y-10469542D02*
X10100458Y-10499542D01*
X10485000Y-9285000D02*
X10515000Y-9315000D01*
X10515000Y-9285000D02*
X10485000Y-9315000D01*
X10485000Y-9785000D02*
X10515000Y-9815000D01*
X10515000Y-9785000D02*
X10485000Y-9815000D01*
X10485000Y-10085000D02*
X10515000Y-10115000D01*
X10515000Y-10085000D02*
X10485000Y-10115000D01*
X10600427Y-10585000D02*
X10630427Y-10615000D01*
X10630427Y-10585000D02*
X10600427Y-10615000D01*
X10600427Y-10785000D02*
X10630427Y-10815000D01*
X10630427Y-10785000D02*
X10600427Y-10815000D01*
X10685000Y-9785000D02*
X10715000Y-9815000D01*
X10715000Y-9785000D02*
X10685000Y-9815000D01*
X10785000Y-9285000D02*
X10815000Y-9315000D01*
X10815000Y-9285000D02*
X10785000Y-9315000D01*
X10785000Y-10085000D02*
X10815000Y-10115000D01*
X10815000Y-10085000D02*
X10785000Y-10115000D01*
X9271765Y-6886471D02*
G75*
G02*
X9201765Y-6886471I-35000J0D01*
G01*
X9201765Y-6886471D02*
G75*
G02*
X9271765Y-6886471I35000J0D01*
G01*
X9779765Y-6886471D02*
G75*
G02*
X9709765Y-6886471I-35000J0D01*
G01*
X9709765Y-6886471D02*
G75*
G02*
X9779765Y-6886471I35000J0D01*
G01*
X10471083Y-11885966D02*
G75*
G02*
X10401083Y-11885966I-35000J0D01*
G01*
X10401083Y-11885966D02*
G75*
G02*
X10471083Y-11885966I35000J0D01*
G01*
X10481000Y-10400000D02*
G75*
G02*
X10411000Y-10400000I-35000J0D01*
G01*
X10411000Y-10400000D02*
G75*
G02*
X10481000Y-10400000I35000J0D01*
G01*
X10481000Y-10700000D02*
G75*
G02*
X10411000Y-10700000I-35000J0D01*
G01*
X10411000Y-10700000D02*
G75*
G02*
X10481000Y-10700000I35000J0D01*
G01*
X10481000Y-11600000D02*
G75*
G02*
X10411000Y-11600000I-35000J0D01*
G01*
X10411000Y-11600000D02*
G75*
G02*
X10481000Y-11600000I35000J0D01*
G01*
X10489000Y-11000000D02*
G75*
G02*
X10419000Y-11000000I-35000J0D01*
G01*
X10419000Y-11000000D02*
G75*
G02*
X10489000Y-11000000I35000J0D01*
G01*
X10495500Y-11295887D02*
G75*
G02*
X10425500Y-11295887I-35000J0D01*
G01*
X10425500Y-11295887D02*
G75*
G02*
X10495500Y-11295887I35000J0D01*
G01*
X10979083Y-11885966D02*
G75*
G02*
X10909083Y-11885966I-35000J0D01*
G01*
X10909083Y-11885966D02*
G75*
G02*
X10979083Y-11885966I35000J0D01*
G01*
X10989000Y-10400000D02*
G75*
G02*
X10919000Y-10400000I-35000J0D01*
G01*
X10919000Y-10400000D02*
G75*
G02*
X10989000Y-10400000I35000J0D01*
G01*
X10989000Y-10700000D02*
G75*
G02*
X10919000Y-10700000I-35000J0D01*
G01*
X10919000Y-10700000D02*
G75*
G02*
X10989000Y-10700000I35000J0D01*
G01*
X10989000Y-11600000D02*
G75*
G02*
X10919000Y-11600000I-35000J0D01*
G01*
X10919000Y-11600000D02*
G75*
G02*
X10989000Y-11600000I35000J0D01*
G01*
X10997000Y-11000000D02*
G75*
G02*
X10927000Y-11000000I-35000J0D01*
G01*
X10927000Y-11000000D02*
G75*
G02*
X10997000Y-11000000I35000J0D01*
G01*
X11003500Y-11295887D02*
G75*
G02*
X10933500Y-11295887I-35000J0D01*
G01*
X10933500Y-11295887D02*
G75*
G02*
X11003500Y-11295887I35000J0D01*
G01*
X9100000Y-7660000D02*
X9100000Y-7740000D01*
X9060000Y-7700000D02*
X9140000Y-7700000D01*
X9100000Y-7914000D02*
X9100000Y-7994000D01*
X9060000Y-7954000D02*
X9140000Y-7954000D01*
X9100000Y-8168000D02*
X9100000Y-8248000D01*
X9060000Y-8208000D02*
X9140000Y-8208000D01*
X9100000Y-8422000D02*
X9100000Y-8502000D01*
X9060000Y-8462000D02*
X9140000Y-8462000D01*
X9100000Y-8676000D02*
X9100000Y-8756000D01*
X9060000Y-8716000D02*
X9140000Y-8716000D01*
X9100000Y-8930000D02*
X9100000Y-9010000D01*
X9060000Y-8970000D02*
X9140000Y-8970000D01*
X9100000Y-9184000D02*
X9100000Y-9264000D01*
X9060000Y-9224000D02*
X9140000Y-9224000D01*
X9100000Y-9438000D02*
X9100000Y-9518000D01*
X9060000Y-9478000D02*
X9140000Y-9478000D01*
X9120000Y-10197500D02*
X9120000Y-10277500D01*
X9080000Y-10237500D02*
X9160000Y-10237500D01*
X9120000Y-10451500D02*
X9120000Y-10531500D01*
X9080000Y-10491500D02*
X9160000Y-10491500D01*
X9120000Y-10705500D02*
X9120000Y-10785500D01*
X9080000Y-10745500D02*
X9160000Y-10745500D01*
X9120000Y-10959500D02*
X9120000Y-11039500D01*
X9080000Y-10999500D02*
X9160000Y-10999500D01*
X9120000Y-11213500D02*
X9120000Y-11293500D01*
X9080000Y-11253500D02*
X9160000Y-11253500D01*
X9120000Y-11467500D02*
X9120000Y-11547500D01*
X9080000Y-11507500D02*
X9160000Y-11507500D01*
X9120000Y-11721500D02*
X9120000Y-11801500D01*
X9080000Y-11761500D02*
X9160000Y-11761500D01*
X9332000Y-9775500D02*
X9332000Y-9855500D01*
X9292000Y-9815500D02*
X9372000Y-9815500D01*
X9374034Y-7256068D02*
X9374034Y-7336068D01*
X9334034Y-7296068D02*
X9414034Y-7296068D01*
X9582000Y-9775500D02*
X9582000Y-9855500D01*
X9542000Y-9815500D02*
X9622000Y-9815500D01*
X9624034Y-7256068D02*
X9624034Y-7336068D01*
X9584034Y-7296068D02*
X9664034Y-7296068D01*
X9862000Y-7660000D02*
X9862000Y-7740000D01*
X9822000Y-7700000D02*
X9902000Y-7700000D01*
X9862000Y-7914000D02*
X9862000Y-7994000D01*
X9822000Y-7954000D02*
X9902000Y-7954000D01*
X9862000Y-8168000D02*
X9862000Y-8248000D01*
X9822000Y-8208000D02*
X9902000Y-8208000D01*
X9862000Y-8422000D02*
X9862000Y-8502000D01*
X9822000Y-8462000D02*
X9902000Y-8462000D01*
X9862000Y-8676000D02*
X9862000Y-8756000D01*
X9822000Y-8716000D02*
X9902000Y-8716000D01*
X9862000Y-8930000D02*
X9862000Y-9010000D01*
X9822000Y-8970000D02*
X9902000Y-8970000D01*
X9862000Y-9184000D02*
X9862000Y-9264000D01*
X9822000Y-9224000D02*
X9902000Y-9224000D01*
X9862000Y-9438000D02*
X9862000Y-9518000D01*
X9822000Y-9478000D02*
X9902000Y-9478000D01*
X9882000Y-10197500D02*
X9882000Y-10277500D01*
X9842000Y-10237500D02*
X9922000Y-10237500D01*
X9882000Y-10451500D02*
X9882000Y-10531500D01*
X9842000Y-10491500D02*
X9922000Y-10491500D01*
X9882000Y-10705500D02*
X9882000Y-10785500D01*
X9842000Y-10745500D02*
X9922000Y-10745500D01*
X9882000Y-10959500D02*
X9882000Y-11039500D01*
X9842000Y-10999500D02*
X9922000Y-10999500D01*
X9882000Y-11213500D02*
X9882000Y-11293500D01*
X9842000Y-11253500D02*
X9922000Y-11253500D01*
X9882000Y-11467500D02*
X9882000Y-11547500D01*
X9842000Y-11507500D02*
X9922000Y-11507500D01*
X9882000Y-11721500D02*
X9882000Y-11801500D01*
X9842000Y-11761500D02*
X9922000Y-11761500D01*
X10220000Y-8497500D02*
X10220000Y-8577500D01*
X10180000Y-8537500D02*
X10260000Y-8537500D01*
X10220000Y-8751500D02*
X10220000Y-8831500D01*
X10180000Y-8791500D02*
X10260000Y-8791500D01*
X10220000Y-9005500D02*
X10220000Y-9085500D01*
X10180000Y-9045500D02*
X10260000Y-9045500D01*
X10220000Y-9259500D02*
X10220000Y-9339500D01*
X10180000Y-9299500D02*
X10260000Y-9299500D01*
X10220000Y-9513500D02*
X10220000Y-9593500D01*
X10180000Y-9553500D02*
X10260000Y-9553500D01*
X10220000Y-9767500D02*
X10220000Y-9847500D01*
X10180000Y-9807500D02*
X10260000Y-9807500D01*
X10220000Y-10021500D02*
X10220000Y-10101500D01*
X10180000Y-10061500D02*
X10260000Y-10061500D01*
X10483000Y-8105000D02*
X10483000Y-8185000D01*
X10443000Y-8145000D02*
X10523000Y-8145000D01*
X10733000Y-8105000D02*
X10733000Y-8185000D01*
X10693000Y-8145000D02*
X10773000Y-8145000D01*
X10982000Y-8497500D02*
X10982000Y-8577500D01*
X10942000Y-8537500D02*
X11022000Y-8537500D01*
X10982000Y-8751500D02*
X10982000Y-8831500D01*
X10942000Y-8791500D02*
X11022000Y-8791500D01*
X10982000Y-9005500D02*
X10982000Y-9085500D01*
X10942000Y-9045500D02*
X11022000Y-9045500D01*
X10982000Y-9259500D02*
X10982000Y-9339500D01*
X10942000Y-9299500D02*
X11022000Y-9299500D01*
X10982000Y-9513500D02*
X10982000Y-9593500D01*
X10942000Y-9553500D02*
X11022000Y-9553500D01*
X10982000Y-9767500D02*
X10982000Y-9847500D01*
X10942000Y-9807500D02*
X11022000Y-9807500D01*
X10982000Y-10021500D02*
X10982000Y-10101500D01*
X10942000Y-10061500D02*
X11022000Y-10061500D01*
X6776856Y-7590356D02*
X6776856Y-7519644D01*
X6706144Y-7519644D01*
X6706144Y-7590356D01*
X6776856Y-7590356D01*
X6776856Y-7844356D02*
X6776856Y-7773644D01*
X6706144Y-7773644D01*
X6706144Y-7844356D01*
X6776856Y-7844356D01*
X6776856Y-8098356D02*
X6776856Y-8027644D01*
X6706144Y-8027644D01*
X6706144Y-8098356D01*
X6776856Y-8098356D01*
X6776856Y-8352356D02*
X6776856Y-8281644D01*
X6706144Y-8281644D01*
X6706144Y-8352356D01*
X6776856Y-8352356D01*
X6776856Y-8606356D02*
X6776856Y-8535644D01*
X6706144Y-8535644D01*
X6706144Y-8606356D01*
X6776856Y-8606356D01*
X6776856Y-8860356D02*
X6776856Y-8789644D01*
X6706144Y-8789644D01*
X6706144Y-8860356D01*
X6776856Y-8860356D01*
X6776856Y-9114356D02*
X6776856Y-9043644D01*
X6706144Y-9043644D01*
X6706144Y-9114356D01*
X6776856Y-9114356D01*
X6776856Y-9368356D02*
X6776856Y-9297644D01*
X6706144Y-9297644D01*
X6706144Y-9368356D01*
X6776856Y-9368356D01*
X6776856Y-9622356D02*
X6776856Y-9551644D01*
X6706144Y-9551644D01*
X6706144Y-9622356D01*
X6776856Y-9622356D01*
X6776856Y-9876356D02*
X6776856Y-9805644D01*
X6706144Y-9805644D01*
X6706144Y-9876356D01*
X6776856Y-9876356D01*
X6776856Y-10130356D02*
X6776856Y-10059644D01*
X6706144Y-10059644D01*
X6706144Y-10130356D01*
X6776856Y-10130356D01*
X6776856Y-10384356D02*
X6776856Y-10313644D01*
X6706144Y-10313644D01*
X6706144Y-10384356D01*
X6776856Y-10384356D01*
X6776856Y-10638356D02*
X6776856Y-10567644D01*
X6706144Y-10567644D01*
X6706144Y-10638356D01*
X6776856Y-10638356D01*
X6776856Y-10892356D02*
X6776856Y-10821644D01*
X6706144Y-10821644D01*
X6706144Y-10892356D01*
X6776856Y-10892356D01*
X6776856Y-11146356D02*
X6776856Y-11075644D01*
X6706144Y-11075644D01*
X6706144Y-11146356D01*
X6776856Y-11146356D01*
X6776856Y-11400356D02*
X6776856Y-11329644D01*
X6706144Y-11329644D01*
X6706144Y-11400356D01*
X6776856Y-11400356D01*
X6776856Y-11654356D02*
X6776856Y-11583644D01*
X6706144Y-11583644D01*
X6706144Y-11654356D01*
X6776856Y-11654356D01*
X7030856Y-7590356D02*
X7030856Y-7519644D01*
X6960144Y-7519644D01*
X6960144Y-7590356D01*
X7030856Y-7590356D01*
X7030856Y-7844356D02*
X7030856Y-7773644D01*
X6960144Y-7773644D01*
X6960144Y-7844356D01*
X7030856Y-7844356D01*
X7030856Y-8098356D02*
X7030856Y-8027644D01*
X6960144Y-8027644D01*
X6960144Y-8098356D01*
X7030856Y-8098356D01*
X7030856Y-8352356D02*
X7030856Y-8281644D01*
X6960144Y-8281644D01*
X6960144Y-8352356D01*
X7030856Y-8352356D01*
X7030856Y-8606356D02*
X7030856Y-8535644D01*
X6960144Y-8535644D01*
X6960144Y-8606356D01*
X7030856Y-8606356D01*
X7030856Y-8860356D02*
X7030856Y-8789644D01*
X6960144Y-8789644D01*
X6960144Y-8860356D01*
X7030856Y-8860356D01*
X7030856Y-9114356D02*
X7030856Y-9043644D01*
X6960144Y-9043644D01*
X6960144Y-9114356D01*
X7030856Y-9114356D01*
X7030856Y-9368356D02*
X7030856Y-9297644D01*
X6960144Y-9297644D01*
X6960144Y-9368356D01*
X7030856Y-9368356D01*
X7030856Y-9622356D02*
X7030856Y-9551644D01*
X6960144Y-9551644D01*
X6960144Y-9622356D01*
X7030856Y-9622356D01*
X7030856Y-9876356D02*
X7030856Y-9805644D01*
X6960144Y-9805644D01*
X6960144Y-9876356D01*
X7030856Y-9876356D01*
X7030856Y-10130356D02*
X7030856Y-10059644D01*
X6960144Y-10059644D01*
X6960144Y-10130356D01*
X7030856Y-10130356D01*
X7030856Y-10384356D02*
X7030856Y-10313644D01*
X6960144Y-10313644D01*
X6960144Y-10384356D01*
X7030856Y-10384356D01*
X7030856Y-10638356D02*
X7030856Y-10567644D01*
X6960144Y-10567644D01*
X6960144Y-10638356D01*
X7030856Y-10638356D01*
X7030856Y-10892356D02*
X7030856Y-10821644D01*
X6960144Y-10821644D01*
X6960144Y-10892356D01*
X7030856Y-10892356D01*
X7030856Y-11146356D02*
X7030856Y-11075644D01*
X6960144Y-11075644D01*
X6960144Y-11146356D01*
X7030856Y-11146356D01*
X7030856Y-11400356D02*
X7030856Y-11329644D01*
X6960144Y-11329644D01*
X6960144Y-11400356D01*
X7030856Y-11400356D01*
X7030856Y-11654356D02*
X7030856Y-11583644D01*
X6960144Y-11583644D01*
X6960144Y-11654356D01*
X7030856Y-11654356D01*
X7535356Y-7573356D02*
X7535356Y-7502644D01*
X7464644Y-7502644D01*
X7464644Y-7573356D01*
X7535356Y-7573356D01*
X7535356Y-7827356D02*
X7535356Y-7756644D01*
X7464644Y-7756644D01*
X7464644Y-7827356D01*
X7535356Y-7827356D01*
X7535356Y-8081356D02*
X7535356Y-8010644D01*
X7464644Y-8010644D01*
X7464644Y-8081356D01*
X7535356Y-8081356D01*
X7535356Y-8335356D02*
X7535356Y-8264644D01*
X7464644Y-8264644D01*
X7464644Y-8335356D01*
X7535356Y-8335356D01*
X7535356Y-8589356D02*
X7535356Y-8518644D01*
X7464644Y-8518644D01*
X7464644Y-8589356D01*
X7535356Y-8589356D01*
X7535356Y-8843356D02*
X7535356Y-8772644D01*
X7464644Y-8772644D01*
X7464644Y-8843356D01*
X7535356Y-8843356D01*
X7535356Y-9097356D02*
X7535356Y-9026644D01*
X7464644Y-9026644D01*
X7464644Y-9097356D01*
X7535356Y-9097356D01*
X7535356Y-9351356D02*
X7535356Y-9280644D01*
X7464644Y-9280644D01*
X7464644Y-9351356D01*
X7535356Y-9351356D01*
X7535356Y-9605356D02*
X7535356Y-9534644D01*
X7464644Y-9534644D01*
X7464644Y-9605356D01*
X7535356Y-9605356D01*
X7535356Y-9859356D02*
X7535356Y-9788644D01*
X7464644Y-9788644D01*
X7464644Y-9859356D01*
X7535356Y-9859356D01*
X7535356Y-10113356D02*
X7535356Y-10042644D01*
X7464644Y-10042644D01*
X7464644Y-10113356D01*
X7535356Y-10113356D01*
X7535356Y-10367356D02*
X7535356Y-10296644D01*
X7464644Y-10296644D01*
X7464644Y-10367356D01*
X7535356Y-10367356D01*
X7535356Y-10621356D02*
X7535356Y-10550644D01*
X7464644Y-10550644D01*
X7464644Y-10621356D01*
X7535356Y-10621356D01*
X7535356Y-10875356D02*
X7535356Y-10804644D01*
X7464644Y-10804644D01*
X7464644Y-10875356D01*
X7535356Y-10875356D01*
X7535356Y-11129356D02*
X7535356Y-11058644D01*
X7464644Y-11058644D01*
X7464644Y-11129356D01*
X7535356Y-11129356D01*
X7535356Y-11383356D02*
X7535356Y-11312644D01*
X7464644Y-11312644D01*
X7464644Y-11383356D01*
X7535356Y-11383356D01*
X7535356Y-11637356D02*
X7535356Y-11566644D01*
X7464644Y-11566644D01*
X7464644Y-11637356D01*
X7535356Y-11637356D01*
X7610356Y-12312356D02*
X7610356Y-12241644D01*
X7539644Y-12241644D01*
X7539644Y-12312356D01*
X7610356Y-12312356D01*
X7610356Y-12566356D02*
X7610356Y-12495644D01*
X7539644Y-12495644D01*
X7539644Y-12566356D01*
X7610356Y-12566356D01*
X7610356Y-12820356D02*
X7610356Y-12749644D01*
X7539644Y-12749644D01*
X7539644Y-12820356D01*
X7610356Y-12820356D01*
X7610356Y-13074356D02*
X7610356Y-13003644D01*
X7539644Y-13003644D01*
X7539644Y-13074356D01*
X7610356Y-13074356D01*
X7789356Y-7573356D02*
X7789356Y-7502644D01*
X7718644Y-7502644D01*
X7718644Y-7573356D01*
X7789356Y-7573356D01*
X7789356Y-7827356D02*
X7789356Y-7756644D01*
X7718644Y-7756644D01*
X7718644Y-7827356D01*
X7789356Y-7827356D01*
X7789356Y-8081356D02*
X7789356Y-8010644D01*
X7718644Y-8010644D01*
X7718644Y-8081356D01*
X7789356Y-8081356D01*
X7789356Y-8335356D02*
X7789356Y-8264644D01*
X7718644Y-8264644D01*
X7718644Y-8335356D01*
X7789356Y-8335356D01*
X7789356Y-8589356D02*
X7789356Y-8518644D01*
X7718644Y-8518644D01*
X7718644Y-8589356D01*
X7789356Y-8589356D01*
X7789356Y-8843356D02*
X7789356Y-8772644D01*
X7718644Y-8772644D01*
X7718644Y-8843356D01*
X7789356Y-8843356D01*
X7789356Y-9097356D02*
X7789356Y-9026644D01*
X7718644Y-9026644D01*
X7718644Y-9097356D01*
X7789356Y-9097356D01*
X7789356Y-9351356D02*
X7789356Y-9280644D01*
X7718644Y-9280644D01*
X7718644Y-9351356D01*
X7789356Y-9351356D01*
X7789356Y-9605356D02*
X7789356Y-9534644D01*
X7718644Y-9534644D01*
X7718644Y-9605356D01*
X7789356Y-9605356D01*
X7789356Y-9859356D02*
X7789356Y-9788644D01*
X7718644Y-9788644D01*
X7718644Y-9859356D01*
X7789356Y-9859356D01*
X7789356Y-10113356D02*
X7789356Y-10042644D01*
X7718644Y-10042644D01*
X7718644Y-10113356D01*
X7789356Y-10113356D01*
X7789356Y-10367356D02*
X7789356Y-10296644D01*
X7718644Y-10296644D01*
X7718644Y-10367356D01*
X7789356Y-10367356D01*
X7789356Y-10621356D02*
X7789356Y-10550644D01*
X7718644Y-10550644D01*
X7718644Y-10621356D01*
X7789356Y-10621356D01*
X7789356Y-10875356D02*
X7789356Y-10804644D01*
X7718644Y-10804644D01*
X7718644Y-10875356D01*
X7789356Y-10875356D01*
X7789356Y-11129356D02*
X7789356Y-11058644D01*
X7718644Y-11058644D01*
X7718644Y-11129356D01*
X7789356Y-11129356D01*
X7789356Y-11383356D02*
X7789356Y-11312644D01*
X7718644Y-11312644D01*
X7718644Y-11383356D01*
X7789356Y-11383356D01*
X7789356Y-11637356D02*
X7789356Y-11566644D01*
X7718644Y-11566644D01*
X7718644Y-11637356D01*
X7789356Y-11637356D01*
X8097856Y-12655356D02*
X8097856Y-12584644D01*
X8027144Y-12584644D01*
X8027144Y-12655356D01*
X8097856Y-12655356D01*
X8097856Y-12909356D02*
X8097856Y-12838644D01*
X8027144Y-12838644D01*
X8027144Y-12909356D01*
X8097856Y-12909356D01*
X8097856Y-13163356D02*
X8097856Y-13092644D01*
X8027144Y-13092644D01*
X8027144Y-13163356D01*
X8097856Y-13163356D01*
X8097856Y-13417356D02*
X8097856Y-13346644D01*
X8027144Y-13346644D01*
X8027144Y-13417356D01*
X8097856Y-13417356D01*
X8335356Y-7590356D02*
X8335356Y-7519644D01*
X8264644Y-7519644D01*
X8264644Y-7590356D01*
X8335356Y-7590356D01*
X8335356Y-7844356D02*
X8335356Y-7773644D01*
X8264644Y-7773644D01*
X8264644Y-7844356D01*
X8335356Y-7844356D01*
X8335356Y-8098356D02*
X8335356Y-8027644D01*
X8264644Y-8027644D01*
X8264644Y-8098356D01*
X8335356Y-8098356D01*
X8335356Y-8352356D02*
X8335356Y-8281644D01*
X8264644Y-8281644D01*
X8264644Y-8352356D01*
X8335356Y-8352356D01*
X8335356Y-8606356D02*
X8335356Y-8535644D01*
X8264644Y-8535644D01*
X8264644Y-8606356D01*
X8335356Y-8606356D01*
X8335356Y-8860356D02*
X8335356Y-8789644D01*
X8264644Y-8789644D01*
X8264644Y-8860356D01*
X8335356Y-8860356D01*
X8335356Y-9114356D02*
X8335356Y-9043644D01*
X8264644Y-9043644D01*
X8264644Y-9114356D01*
X8335356Y-9114356D01*
X8335356Y-9368356D02*
X8335356Y-9297644D01*
X8264644Y-9297644D01*
X8264644Y-9368356D01*
X8335356Y-9368356D01*
X8335356Y-9622356D02*
X8335356Y-9551644D01*
X8264644Y-9551644D01*
X8264644Y-9622356D01*
X8335356Y-9622356D01*
X8335356Y-9876356D02*
X8335356Y-9805644D01*
X8264644Y-9805644D01*
X8264644Y-9876356D01*
X8335356Y-9876356D01*
X8335356Y-10130356D02*
X8335356Y-10059644D01*
X8264644Y-10059644D01*
X8264644Y-10130356D01*
X8335356Y-10130356D01*
X8335356Y-10384356D02*
X8335356Y-10313644D01*
X8264644Y-10313644D01*
X8264644Y-10384356D01*
X8335356Y-10384356D01*
X8335356Y-10638356D02*
X8335356Y-10567644D01*
X8264644Y-10567644D01*
X8264644Y-10638356D01*
X8335356Y-10638356D01*
X8335356Y-10892356D02*
X8335356Y-10821644D01*
X8264644Y-10821644D01*
X8264644Y-10892356D01*
X8335356Y-10892356D01*
X8335356Y-11146356D02*
X8335356Y-11075644D01*
X8264644Y-11075644D01*
X8264644Y-11146356D01*
X8335356Y-11146356D01*
X8335356Y-11400356D02*
X8335356Y-11329644D01*
X8264644Y-11329644D01*
X8264644Y-11400356D01*
X8335356Y-11400356D01*
X8335356Y-11654356D02*
X8335356Y-11583644D01*
X8264644Y-11583644D01*
X8264644Y-11654356D01*
X8335356Y-11654356D01*
X8589356Y-7590356D02*
X8589356Y-7519644D01*
X8518644Y-7519644D01*
X8518644Y-7590356D01*
X8589356Y-7590356D01*
X8589356Y-7844356D02*
X8589356Y-7773644D01*
X8518644Y-7773644D01*
X8518644Y-7844356D01*
X8589356Y-7844356D01*
X8589356Y-8098356D02*
X8589356Y-8027644D01*
X8518644Y-8027644D01*
X8518644Y-8098356D01*
X8589356Y-8098356D01*
X8589356Y-8352356D02*
X8589356Y-8281644D01*
X8518644Y-8281644D01*
X8518644Y-8352356D01*
X8589356Y-8352356D01*
X8589356Y-8606356D02*
X8589356Y-8535644D01*
X8518644Y-8535644D01*
X8518644Y-8606356D01*
X8589356Y-8606356D01*
X8589356Y-8860356D02*
X8589356Y-8789644D01*
X8518644Y-8789644D01*
X8518644Y-8860356D01*
X8589356Y-8860356D01*
X8589356Y-9114356D02*
X8589356Y-9043644D01*
X8518644Y-9043644D01*
X8518644Y-9114356D01*
X8589356Y-9114356D01*
X8589356Y-9368356D02*
X8589356Y-9297644D01*
X8518644Y-9297644D01*
X8518644Y-9368356D01*
X8589356Y-9368356D01*
X8589356Y-9622356D02*
X8589356Y-9551644D01*
X8518644Y-9551644D01*
X8518644Y-9622356D01*
X8589356Y-9622356D01*
X8589356Y-9876356D02*
X8589356Y-9805644D01*
X8518644Y-9805644D01*
X8518644Y-9876356D01*
X8589356Y-9876356D01*
X8589356Y-10130356D02*
X8589356Y-10059644D01*
X8518644Y-10059644D01*
X8518644Y-10130356D01*
X8589356Y-10130356D01*
X8589356Y-10384356D02*
X8589356Y-10313644D01*
X8518644Y-10313644D01*
X8518644Y-10384356D01*
X8589356Y-10384356D01*
X8589356Y-10638356D02*
X8589356Y-10567644D01*
X8518644Y-10567644D01*
X8518644Y-10638356D01*
X8589356Y-10638356D01*
X8589356Y-10892356D02*
X8589356Y-10821644D01*
X8518644Y-10821644D01*
X8518644Y-10892356D01*
X8589356Y-10892356D01*
X8589356Y-11146356D02*
X8589356Y-11075644D01*
X8518644Y-11075644D01*
X8518644Y-11146356D01*
X8589356Y-11146356D01*
X8589356Y-11400356D02*
X8589356Y-11329644D01*
X8518644Y-11329644D01*
X8518644Y-11400356D01*
X8589356Y-11400356D01*
X8589356Y-11654356D02*
X8589356Y-11583644D01*
X8518644Y-11583644D01*
X8518644Y-11654356D01*
X8589356Y-11654356D01*
X10097856Y-12307856D02*
X10097856Y-12237144D01*
X10027144Y-12237144D01*
X10027144Y-12307856D01*
X10097856Y-12307856D01*
X10097856Y-12561856D02*
X10097856Y-12491144D01*
X10027144Y-12491144D01*
X10027144Y-12561856D01*
X10097856Y-12561856D01*
X10507856Y-7772856D02*
X10507856Y-7702144D01*
X10437144Y-7702144D01*
X10437144Y-7772856D01*
X10507856Y-7772856D01*
X10761856Y-7772856D02*
X10761856Y-7702144D01*
X10691144Y-7702144D01*
X10691144Y-7772856D01*
X10761856Y-7772856D01*
D11*
X5295277Y-13906484D02*
X5295277Y-13706484D01*
X5295277Y-13706484D02*
X5342896Y-13706484D01*
X5342896Y-13706484D02*
X5371467Y-13716008D01*
X5371467Y-13716008D02*
X5390515Y-13735055D01*
X5390515Y-13735055D02*
X5400039Y-13754103D01*
X5400039Y-13754103D02*
X5409563Y-13792198D01*
X5409563Y-13792198D02*
X5409563Y-13820769D01*
X5409563Y-13820769D02*
X5400039Y-13858865D01*
X5400039Y-13858865D02*
X5390515Y-13877912D01*
X5390515Y-13877912D02*
X5371467Y-13896960D01*
X5371467Y-13896960D02*
X5342896Y-13906484D01*
X5342896Y-13906484D02*
X5295277Y-13906484D01*
X5495277Y-13906484D02*
X5495277Y-13773150D01*
X5495277Y-13811246D02*
X5504801Y-13792198D01*
X5504801Y-13792198D02*
X5514324Y-13782674D01*
X5514324Y-13782674D02*
X5533372Y-13773150D01*
X5533372Y-13773150D02*
X5552420Y-13773150D01*
X5619086Y-13906484D02*
X5619086Y-13773150D01*
X5619086Y-13706484D02*
X5609562Y-13716008D01*
X5609562Y-13716008D02*
X5619086Y-13725531D01*
X5619086Y-13725531D02*
X5628610Y-13716008D01*
X5628610Y-13716008D02*
X5619086Y-13706484D01*
X5619086Y-13706484D02*
X5619086Y-13725531D01*
X5742896Y-13906484D02*
X5723848Y-13896960D01*
X5723848Y-13896960D02*
X5714324Y-13877912D01*
X5714324Y-13877912D02*
X5714324Y-13706484D01*
X5847658Y-13906484D02*
X5828610Y-13896960D01*
X5828610Y-13896960D02*
X5819086Y-13877912D01*
X5819086Y-13877912D02*
X5819086Y-13706484D01*
X6076229Y-13906484D02*
X6076229Y-13706484D01*
X6076229Y-13706484D02*
X6142896Y-13849341D01*
X6142896Y-13849341D02*
X6209562Y-13706484D01*
X6209562Y-13706484D02*
X6209562Y-13906484D01*
X6390515Y-13906484D02*
X6390515Y-13801722D01*
X6390515Y-13801722D02*
X6380991Y-13782674D01*
X6380991Y-13782674D02*
X6361943Y-13773150D01*
X6361943Y-13773150D02*
X6323848Y-13773150D01*
X6323848Y-13773150D02*
X6304801Y-13782674D01*
X6390515Y-13896960D02*
X6371467Y-13906484D01*
X6371467Y-13906484D02*
X6323848Y-13906484D01*
X6323848Y-13906484D02*
X6304801Y-13896960D01*
X6304801Y-13896960D02*
X6295277Y-13877912D01*
X6295277Y-13877912D02*
X6295277Y-13858865D01*
X6295277Y-13858865D02*
X6304801Y-13839817D01*
X6304801Y-13839817D02*
X6323848Y-13830293D01*
X6323848Y-13830293D02*
X6371467Y-13830293D01*
X6371467Y-13830293D02*
X6390515Y-13820769D01*
X6485753Y-13773150D02*
X6485753Y-13973150D01*
X6485753Y-13782674D02*
X6504801Y-13773150D01*
X6504801Y-13773150D02*
X6542896Y-13773150D01*
X6542896Y-13773150D02*
X6561943Y-13782674D01*
X6561943Y-13782674D02*
X6571467Y-13792198D01*
X6571467Y-13792198D02*
X6580991Y-13811246D01*
X6580991Y-13811246D02*
X6580991Y-13868388D01*
X6580991Y-13868388D02*
X6571467Y-13887436D01*
X6571467Y-13887436D02*
X6561943Y-13896960D01*
X6561943Y-13896960D02*
X6542896Y-13906484D01*
X6542896Y-13906484D02*
X6504801Y-13906484D01*
X6504801Y-13906484D02*
X6485753Y-13896960D01*
X6666705Y-13887436D02*
X6676229Y-13896960D01*
X6676229Y-13896960D02*
X6666705Y-13906484D01*
X6666705Y-13906484D02*
X6657182Y-13896960D01*
X6657182Y-13896960D02*
X6666705Y-13887436D01*
X6666705Y-13887436D02*
X6666705Y-13906484D01*
X6666705Y-13782674D02*
X6676229Y-13792198D01*
X6676229Y-13792198D02*
X6666705Y-13801722D01*
X6666705Y-13801722D02*
X6657182Y-13792198D01*
X6657182Y-13792198D02*
X6666705Y-13782674D01*
X6666705Y-13782674D02*
X6666705Y-13801722D01*
D12*
X5004500Y-14220000D02*
X5034500Y-14250000D01*
X5034500Y-14220000D02*
X5004500Y-14250000D01*
D11*
X5333372Y-14126484D02*
X5352420Y-14126484D01*
X5352420Y-14126484D02*
X5371467Y-14136008D01*
X5371467Y-14136008D02*
X5380991Y-14145531D01*
X5380991Y-14145531D02*
X5390515Y-14164579D01*
X5390515Y-14164579D02*
X5400039Y-14202674D01*
X5400039Y-14202674D02*
X5400039Y-14250293D01*
X5400039Y-14250293D02*
X5390515Y-14288388D01*
X5390515Y-14288388D02*
X5380991Y-14307436D01*
X5380991Y-14307436D02*
X5371467Y-14316960D01*
X5371467Y-14316960D02*
X5352420Y-14326484D01*
X5352420Y-14326484D02*
X5333372Y-14326484D01*
X5333372Y-14326484D02*
X5314324Y-14316960D01*
X5314324Y-14316960D02*
X5304801Y-14307436D01*
X5304801Y-14307436D02*
X5295277Y-14288388D01*
X5295277Y-14288388D02*
X5285753Y-14250293D01*
X5285753Y-14250293D02*
X5285753Y-14202674D01*
X5285753Y-14202674D02*
X5295277Y-14164579D01*
X5295277Y-14164579D02*
X5304801Y-14145531D01*
X5304801Y-14145531D02*
X5314324Y-14136008D01*
X5314324Y-14136008D02*
X5333372Y-14126484D01*
X5485753Y-14307436D02*
X5495277Y-14316960D01*
X5495277Y-14316960D02*
X5485753Y-14326484D01*
X5485753Y-14326484D02*
X5476229Y-14316960D01*
X5476229Y-14316960D02*
X5485753Y-14307436D01*
X5485753Y-14307436D02*
X5485753Y-14326484D01*
X5561944Y-14126484D02*
X5685753Y-14126484D01*
X5685753Y-14126484D02*
X5619086Y-14202674D01*
X5619086Y-14202674D02*
X5647658Y-14202674D01*
X5647658Y-14202674D02*
X5666705Y-14212198D01*
X5666705Y-14212198D02*
X5676229Y-14221722D01*
X5676229Y-14221722D02*
X5685753Y-14240769D01*
X5685753Y-14240769D02*
X5685753Y-14288388D01*
X5685753Y-14288388D02*
X5676229Y-14307436D01*
X5676229Y-14307436D02*
X5666705Y-14316960D01*
X5666705Y-14316960D02*
X5647658Y-14326484D01*
X5647658Y-14326484D02*
X5590515Y-14326484D01*
X5590515Y-14326484D02*
X5571467Y-14316960D01*
X5571467Y-14316960D02*
X5561944Y-14307436D01*
X5809562Y-14126484D02*
X5828610Y-14126484D01*
X5828610Y-14126484D02*
X5847658Y-14136008D01*
X5847658Y-14136008D02*
X5857182Y-14145531D01*
X5857182Y-14145531D02*
X5866705Y-14164579D01*
X5866705Y-14164579D02*
X5876229Y-14202674D01*
X5876229Y-14202674D02*
X5876229Y-14250293D01*
X5876229Y-14250293D02*
X5866705Y-14288388D01*
X5866705Y-14288388D02*
X5857182Y-14307436D01*
X5857182Y-14307436D02*
X5847658Y-14316960D01*
X5847658Y-14316960D02*
X5828610Y-14326484D01*
X5828610Y-14326484D02*
X5809562Y-14326484D01*
X5809562Y-14326484D02*
X5790515Y-14316960D01*
X5790515Y-14316960D02*
X5780991Y-14307436D01*
X5780991Y-14307436D02*
X5771467Y-14288388D01*
X5771467Y-14288388D02*
X5761943Y-14250293D01*
X5761943Y-14250293D02*
X5761943Y-14202674D01*
X5761943Y-14202674D02*
X5771467Y-14164579D01*
X5771467Y-14164579D02*
X5780991Y-14145531D01*
X5780991Y-14145531D02*
X5790515Y-14136008D01*
X5790515Y-14136008D02*
X5809562Y-14126484D01*
X6000039Y-14126484D02*
X6019086Y-14126484D01*
X6019086Y-14126484D02*
X6038134Y-14136008D01*
X6038134Y-14136008D02*
X6047658Y-14145531D01*
X6047658Y-14145531D02*
X6057182Y-14164579D01*
X6057182Y-14164579D02*
X6066705Y-14202674D01*
X6066705Y-14202674D02*
X6066705Y-14250293D01*
X6066705Y-14250293D02*
X6057182Y-14288388D01*
X6057182Y-14288388D02*
X6047658Y-14307436D01*
X6047658Y-14307436D02*
X6038134Y-14316960D01*
X6038134Y-14316960D02*
X6019086Y-14326484D01*
X6019086Y-14326484D02*
X6000039Y-14326484D01*
X6000039Y-14326484D02*
X5980991Y-14316960D01*
X5980991Y-14316960D02*
X5971467Y-14307436D01*
X5971467Y-14307436D02*
X5961943Y-14288388D01*
X5961943Y-14288388D02*
X5952420Y-14250293D01*
X5952420Y-14250293D02*
X5952420Y-14202674D01*
X5952420Y-14202674D02*
X5961943Y-14164579D01*
X5961943Y-14164579D02*
X5971467Y-14145531D01*
X5971467Y-14145531D02*
X5980991Y-14136008D01*
X5980991Y-14136008D02*
X6000039Y-14126484D01*
X6152420Y-14326484D02*
X6152420Y-14193150D01*
X6152420Y-14212198D02*
X6161943Y-14202674D01*
X6161943Y-14202674D02*
X6180991Y-14193150D01*
X6180991Y-14193150D02*
X6209563Y-14193150D01*
X6209563Y-14193150D02*
X6228610Y-14202674D01*
X6228610Y-14202674D02*
X6238134Y-14221722D01*
X6238134Y-14221722D02*
X6238134Y-14326484D01*
X6238134Y-14221722D02*
X6247658Y-14202674D01*
X6247658Y-14202674D02*
X6266705Y-14193150D01*
X6266705Y-14193150D02*
X6295277Y-14193150D01*
X6295277Y-14193150D02*
X6314324Y-14202674D01*
X6314324Y-14202674D02*
X6323848Y-14221722D01*
X6323848Y-14221722D02*
X6323848Y-14326484D01*
X6419086Y-14326484D02*
X6419086Y-14193150D01*
X6419086Y-14212198D02*
X6428610Y-14202674D01*
X6428610Y-14202674D02*
X6447658Y-14193150D01*
X6447658Y-14193150D02*
X6476229Y-14193150D01*
X6476229Y-14193150D02*
X6495277Y-14202674D01*
X6495277Y-14202674D02*
X6504801Y-14221722D01*
X6504801Y-14221722D02*
X6504801Y-14326484D01*
X6504801Y-14221722D02*
X6514324Y-14202674D01*
X6514324Y-14202674D02*
X6533372Y-14193150D01*
X6533372Y-14193150D02*
X6561943Y-14193150D01*
X6561943Y-14193150D02*
X6580991Y-14202674D01*
X6580991Y-14202674D02*
X6590515Y-14221722D01*
X6590515Y-14221722D02*
X6590515Y-14326484D01*
X6980991Y-14116960D02*
X6809563Y-14374103D01*
X7238134Y-14126484D02*
X7257182Y-14126484D01*
X7257182Y-14126484D02*
X7276229Y-14136008D01*
X7276229Y-14136008D02*
X7285753Y-14145531D01*
X7285753Y-14145531D02*
X7295277Y-14164579D01*
X7295277Y-14164579D02*
X7304801Y-14202674D01*
X7304801Y-14202674D02*
X7304801Y-14250293D01*
X7304801Y-14250293D02*
X7295277Y-14288388D01*
X7295277Y-14288388D02*
X7285753Y-14307436D01*
X7285753Y-14307436D02*
X7276229Y-14316960D01*
X7276229Y-14316960D02*
X7257182Y-14326484D01*
X7257182Y-14326484D02*
X7238134Y-14326484D01*
X7238134Y-14326484D02*
X7219086Y-14316960D01*
X7219086Y-14316960D02*
X7209563Y-14307436D01*
X7209563Y-14307436D02*
X7200039Y-14288388D01*
X7200039Y-14288388D02*
X7190515Y-14250293D01*
X7190515Y-14250293D02*
X7190515Y-14202674D01*
X7190515Y-14202674D02*
X7200039Y-14164579D01*
X7200039Y-14164579D02*
X7209563Y-14145531D01*
X7209563Y-14145531D02*
X7219086Y-14136008D01*
X7219086Y-14136008D02*
X7238134Y-14126484D01*
X7390515Y-14307436D02*
X7400039Y-14316960D01*
X7400039Y-14316960D02*
X7390515Y-14326484D01*
X7390515Y-14326484D02*
X7380991Y-14316960D01*
X7380991Y-14316960D02*
X7390515Y-14307436D01*
X7390515Y-14307436D02*
X7390515Y-14326484D01*
X7523848Y-14126484D02*
X7542896Y-14126484D01*
X7542896Y-14126484D02*
X7561944Y-14136008D01*
X7561944Y-14136008D02*
X7571467Y-14145531D01*
X7571467Y-14145531D02*
X7580991Y-14164579D01*
X7580991Y-14164579D02*
X7590515Y-14202674D01*
X7590515Y-14202674D02*
X7590515Y-14250293D01*
X7590515Y-14250293D02*
X7580991Y-14288388D01*
X7580991Y-14288388D02*
X7571467Y-14307436D01*
X7571467Y-14307436D02*
X7561944Y-14316960D01*
X7561944Y-14316960D02*
X7542896Y-14326484D01*
X7542896Y-14326484D02*
X7523848Y-14326484D01*
X7523848Y-14326484D02*
X7504801Y-14316960D01*
X7504801Y-14316960D02*
X7495277Y-14307436D01*
X7495277Y-14307436D02*
X7485753Y-14288388D01*
X7485753Y-14288388D02*
X7476229Y-14250293D01*
X7476229Y-14250293D02*
X7476229Y-14202674D01*
X7476229Y-14202674D02*
X7485753Y-14164579D01*
X7485753Y-14164579D02*
X7495277Y-14145531D01*
X7495277Y-14145531D02*
X7504801Y-14136008D01*
X7504801Y-14136008D02*
X7523848Y-14126484D01*
X7780991Y-14326484D02*
X7666706Y-14326484D01*
X7723848Y-14326484D02*
X7723848Y-14126484D01*
X7723848Y-14126484D02*
X7704801Y-14155055D01*
X7704801Y-14155055D02*
X7685753Y-14174103D01*
X7685753Y-14174103D02*
X7666706Y-14183627D01*
X7971467Y-14326484D02*
X7857182Y-14326484D01*
X7914325Y-14326484D02*
X7914325Y-14126484D01*
X7914325Y-14126484D02*
X7895277Y-14155055D01*
X7895277Y-14155055D02*
X7876229Y-14174103D01*
X7876229Y-14174103D02*
X7857182Y-14183627D01*
X8085753Y-14212198D02*
X8066706Y-14202674D01*
X8066706Y-14202674D02*
X8057182Y-14193150D01*
X8057182Y-14193150D02*
X8047658Y-14174103D01*
X8047658Y-14174103D02*
X8047658Y-14164579D01*
X8047658Y-14164579D02*
X8057182Y-14145531D01*
X8057182Y-14145531D02*
X8066706Y-14136008D01*
X8066706Y-14136008D02*
X8085753Y-14126484D01*
X8085753Y-14126484D02*
X8123848Y-14126484D01*
X8123848Y-14126484D02*
X8142896Y-14136008D01*
X8142896Y-14136008D02*
X8152420Y-14145531D01*
X8152420Y-14145531D02*
X8161944Y-14164579D01*
X8161944Y-14164579D02*
X8161944Y-14174103D01*
X8161944Y-14174103D02*
X8152420Y-14193150D01*
X8152420Y-14193150D02*
X8142896Y-14202674D01*
X8142896Y-14202674D02*
X8123848Y-14212198D01*
X8123848Y-14212198D02*
X8085753Y-14212198D01*
X8085753Y-14212198D02*
X8066706Y-14221722D01*
X8066706Y-14221722D02*
X8057182Y-14231246D01*
X8057182Y-14231246D02*
X8047658Y-14250293D01*
X8047658Y-14250293D02*
X8047658Y-14288388D01*
X8047658Y-14288388D02*
X8057182Y-14307436D01*
X8057182Y-14307436D02*
X8066706Y-14316960D01*
X8066706Y-14316960D02*
X8085753Y-14326484D01*
X8085753Y-14326484D02*
X8123848Y-14326484D01*
X8123848Y-14326484D02*
X8142896Y-14316960D01*
X8142896Y-14316960D02*
X8152420Y-14307436D01*
X8152420Y-14307436D02*
X8161944Y-14288388D01*
X8161944Y-14288388D02*
X8161944Y-14250293D01*
X8161944Y-14250293D02*
X8152420Y-14231246D01*
X8152420Y-14231246D02*
X8142896Y-14221722D01*
X8142896Y-14221722D02*
X8123848Y-14212198D01*
X8238134Y-14126484D02*
X8238134Y-14164579D01*
X8314325Y-14126484D02*
X8314325Y-14164579D01*
X8609563Y-14402674D02*
X8600039Y-14393150D01*
X8600039Y-14393150D02*
X8580991Y-14364579D01*
X8580991Y-14364579D02*
X8571468Y-14345531D01*
X8571468Y-14345531D02*
X8561944Y-14316960D01*
X8561944Y-14316960D02*
X8552420Y-14269341D01*
X8552420Y-14269341D02*
X8552420Y-14231246D01*
X8552420Y-14231246D02*
X8561944Y-14183627D01*
X8561944Y-14183627D02*
X8571468Y-14155055D01*
X8571468Y-14155055D02*
X8580991Y-14136008D01*
X8580991Y-14136008D02*
X8600039Y-14107436D01*
X8600039Y-14107436D02*
X8609563Y-14097912D01*
X8790515Y-14326484D02*
X8676230Y-14326484D01*
X8733372Y-14326484D02*
X8733372Y-14126484D01*
X8733372Y-14126484D02*
X8714325Y-14155055D01*
X8714325Y-14155055D02*
X8695277Y-14174103D01*
X8695277Y-14174103D02*
X8676230Y-14183627D01*
X8885753Y-14326484D02*
X8923849Y-14326484D01*
X8923849Y-14326484D02*
X8942896Y-14316960D01*
X8942896Y-14316960D02*
X8952420Y-14307436D01*
X8952420Y-14307436D02*
X8971468Y-14278865D01*
X8971468Y-14278865D02*
X8980991Y-14240769D01*
X8980991Y-14240769D02*
X8980991Y-14164579D01*
X8980991Y-14164579D02*
X8971468Y-14145531D01*
X8971468Y-14145531D02*
X8961944Y-14136008D01*
X8961944Y-14136008D02*
X8942896Y-14126484D01*
X8942896Y-14126484D02*
X8904801Y-14126484D01*
X8904801Y-14126484D02*
X8885753Y-14136008D01*
X8885753Y-14136008D02*
X8876230Y-14145531D01*
X8876230Y-14145531D02*
X8866706Y-14164579D01*
X8866706Y-14164579D02*
X8866706Y-14212198D01*
X8866706Y-14212198D02*
X8876230Y-14231246D01*
X8876230Y-14231246D02*
X8885753Y-14240769D01*
X8885753Y-14240769D02*
X8904801Y-14250293D01*
X8904801Y-14250293D02*
X8942896Y-14250293D01*
X8942896Y-14250293D02*
X8961944Y-14240769D01*
X8961944Y-14240769D02*
X8971468Y-14231246D01*
X8971468Y-14231246D02*
X8980991Y-14212198D01*
X9219087Y-14326484D02*
X9219087Y-14126484D01*
X9304801Y-14326484D02*
X9304801Y-14221722D01*
X9304801Y-14221722D02*
X9295277Y-14202674D01*
X9295277Y-14202674D02*
X9276230Y-14193150D01*
X9276230Y-14193150D02*
X9247658Y-14193150D01*
X9247658Y-14193150D02*
X9228611Y-14202674D01*
X9228611Y-14202674D02*
X9219087Y-14212198D01*
X9428611Y-14326484D02*
X9409563Y-14316960D01*
X9409563Y-14316960D02*
X9400039Y-14307436D01*
X9400039Y-14307436D02*
X9390515Y-14288388D01*
X9390515Y-14288388D02*
X9390515Y-14231246D01*
X9390515Y-14231246D02*
X9400039Y-14212198D01*
X9400039Y-14212198D02*
X9409563Y-14202674D01*
X9409563Y-14202674D02*
X9428611Y-14193150D01*
X9428611Y-14193150D02*
X9457182Y-14193150D01*
X9457182Y-14193150D02*
X9476230Y-14202674D01*
X9476230Y-14202674D02*
X9485753Y-14212198D01*
X9485753Y-14212198D02*
X9495277Y-14231246D01*
X9495277Y-14231246D02*
X9495277Y-14288388D01*
X9495277Y-14288388D02*
X9485753Y-14307436D01*
X9485753Y-14307436D02*
X9476230Y-14316960D01*
X9476230Y-14316960D02*
X9457182Y-14326484D01*
X9457182Y-14326484D02*
X9428611Y-14326484D01*
X9609563Y-14326484D02*
X9590515Y-14316960D01*
X9590515Y-14316960D02*
X9580992Y-14297912D01*
X9580992Y-14297912D02*
X9580992Y-14126484D01*
X9761944Y-14316960D02*
X9742896Y-14326484D01*
X9742896Y-14326484D02*
X9704801Y-14326484D01*
X9704801Y-14326484D02*
X9685753Y-14316960D01*
X9685753Y-14316960D02*
X9676230Y-14297912D01*
X9676230Y-14297912D02*
X9676230Y-14221722D01*
X9676230Y-14221722D02*
X9685753Y-14202674D01*
X9685753Y-14202674D02*
X9704801Y-14193150D01*
X9704801Y-14193150D02*
X9742896Y-14193150D01*
X9742896Y-14193150D02*
X9761944Y-14202674D01*
X9761944Y-14202674D02*
X9771468Y-14221722D01*
X9771468Y-14221722D02*
X9771468Y-14240769D01*
X9771468Y-14240769D02*
X9676230Y-14259817D01*
X9847658Y-14316960D02*
X9866706Y-14326484D01*
X9866706Y-14326484D02*
X9904801Y-14326484D01*
X9904801Y-14326484D02*
X9923849Y-14316960D01*
X9923849Y-14316960D02*
X9933373Y-14297912D01*
X9933373Y-14297912D02*
X9933373Y-14288388D01*
X9933373Y-14288388D02*
X9923849Y-14269341D01*
X9923849Y-14269341D02*
X9904801Y-14259817D01*
X9904801Y-14259817D02*
X9876230Y-14259817D01*
X9876230Y-14259817D02*
X9857182Y-14250293D01*
X9857182Y-14250293D02*
X9847658Y-14231246D01*
X9847658Y-14231246D02*
X9847658Y-14221722D01*
X9847658Y-14221722D02*
X9857182Y-14202674D01*
X9857182Y-14202674D02*
X9876230Y-14193150D01*
X9876230Y-14193150D02*
X9904801Y-14193150D01*
X9904801Y-14193150D02*
X9923849Y-14202674D01*
X10000039Y-14402674D02*
X10009563Y-14393150D01*
X10009563Y-14393150D02*
X10028611Y-14364579D01*
X10028611Y-14364579D02*
X10038134Y-14345531D01*
X10038134Y-14345531D02*
X10047658Y-14316960D01*
X10047658Y-14316960D02*
X10057182Y-14269341D01*
X10057182Y-14269341D02*
X10057182Y-14231246D01*
X10057182Y-14231246D02*
X10047658Y-14183627D01*
X10047658Y-14183627D02*
X10038134Y-14155055D01*
X10038134Y-14155055D02*
X10028611Y-14136008D01*
X10028611Y-14136008D02*
X10009563Y-14107436D01*
X10009563Y-14107436D02*
X10000039Y-14097912D01*
D12*
X5034500Y-14499000D02*
G75*
G02*
X4964500Y-14499000I-35000J0D01*
G01*
X4964500Y-14499000D02*
G75*
G02*
X5034500Y-14499000I35000J0D01*
G01*
D11*
X5333372Y-14390484D02*
X5352420Y-14390484D01*
X5352420Y-14390484D02*
X5371467Y-14400008D01*
X5371467Y-14400008D02*
X5380991Y-14409531D01*
X5380991Y-14409531D02*
X5390515Y-14428579D01*
X5390515Y-14428579D02*
X5400039Y-14466674D01*
X5400039Y-14466674D02*
X5400039Y-14514293D01*
X5400039Y-14514293D02*
X5390515Y-14552388D01*
X5390515Y-14552388D02*
X5380991Y-14571436D01*
X5380991Y-14571436D02*
X5371467Y-14580960D01*
X5371467Y-14580960D02*
X5352420Y-14590484D01*
X5352420Y-14590484D02*
X5333372Y-14590484D01*
X5333372Y-14590484D02*
X5314324Y-14580960D01*
X5314324Y-14580960D02*
X5304801Y-14571436D01*
X5304801Y-14571436D02*
X5295277Y-14552388D01*
X5295277Y-14552388D02*
X5285753Y-14514293D01*
X5285753Y-14514293D02*
X5285753Y-14466674D01*
X5285753Y-14466674D02*
X5295277Y-14428579D01*
X5295277Y-14428579D02*
X5304801Y-14409531D01*
X5304801Y-14409531D02*
X5314324Y-14400008D01*
X5314324Y-14400008D02*
X5333372Y-14390484D01*
X5485753Y-14571436D02*
X5495277Y-14580960D01*
X5495277Y-14580960D02*
X5485753Y-14590484D01*
X5485753Y-14590484D02*
X5476229Y-14580960D01*
X5476229Y-14580960D02*
X5485753Y-14571436D01*
X5485753Y-14571436D02*
X5485753Y-14590484D01*
X5561944Y-14390484D02*
X5695277Y-14390484D01*
X5695277Y-14390484D02*
X5609562Y-14590484D01*
X5809562Y-14390484D02*
X5828610Y-14390484D01*
X5828610Y-14390484D02*
X5847658Y-14400008D01*
X5847658Y-14400008D02*
X5857182Y-14409531D01*
X5857182Y-14409531D02*
X5866705Y-14428579D01*
X5866705Y-14428579D02*
X5876229Y-14466674D01*
X5876229Y-14466674D02*
X5876229Y-14514293D01*
X5876229Y-14514293D02*
X5866705Y-14552388D01*
X5866705Y-14552388D02*
X5857182Y-14571436D01*
X5857182Y-14571436D02*
X5847658Y-14580960D01*
X5847658Y-14580960D02*
X5828610Y-14590484D01*
X5828610Y-14590484D02*
X5809562Y-14590484D01*
X5809562Y-14590484D02*
X5790515Y-14580960D01*
X5790515Y-14580960D02*
X5780991Y-14571436D01*
X5780991Y-14571436D02*
X5771467Y-14552388D01*
X5771467Y-14552388D02*
X5761943Y-14514293D01*
X5761943Y-14514293D02*
X5761943Y-14466674D01*
X5761943Y-14466674D02*
X5771467Y-14428579D01*
X5771467Y-14428579D02*
X5780991Y-14409531D01*
X5780991Y-14409531D02*
X5790515Y-14400008D01*
X5790515Y-14400008D02*
X5809562Y-14390484D01*
X6000039Y-14390484D02*
X6019086Y-14390484D01*
X6019086Y-14390484D02*
X6038134Y-14400008D01*
X6038134Y-14400008D02*
X6047658Y-14409531D01*
X6047658Y-14409531D02*
X6057182Y-14428579D01*
X6057182Y-14428579D02*
X6066705Y-14466674D01*
X6066705Y-14466674D02*
X6066705Y-14514293D01*
X6066705Y-14514293D02*
X6057182Y-14552388D01*
X6057182Y-14552388D02*
X6047658Y-14571436D01*
X6047658Y-14571436D02*
X6038134Y-14580960D01*
X6038134Y-14580960D02*
X6019086Y-14590484D01*
X6019086Y-14590484D02*
X6000039Y-14590484D01*
X6000039Y-14590484D02*
X5980991Y-14580960D01*
X5980991Y-14580960D02*
X5971467Y-14571436D01*
X5971467Y-14571436D02*
X5961943Y-14552388D01*
X5961943Y-14552388D02*
X5952420Y-14514293D01*
X5952420Y-14514293D02*
X5952420Y-14466674D01*
X5952420Y-14466674D02*
X5961943Y-14428579D01*
X5961943Y-14428579D02*
X5971467Y-14409531D01*
X5971467Y-14409531D02*
X5980991Y-14400008D01*
X5980991Y-14400008D02*
X6000039Y-14390484D01*
X6152420Y-14590484D02*
X6152420Y-14457150D01*
X6152420Y-14476198D02*
X6161943Y-14466674D01*
X6161943Y-14466674D02*
X6180991Y-14457150D01*
X6180991Y-14457150D02*
X6209563Y-14457150D01*
X6209563Y-14457150D02*
X6228610Y-14466674D01*
X6228610Y-14466674D02*
X6238134Y-14485722D01*
X6238134Y-14485722D02*
X6238134Y-14590484D01*
X6238134Y-14485722D02*
X6247658Y-14466674D01*
X6247658Y-14466674D02*
X6266705Y-14457150D01*
X6266705Y-14457150D02*
X6295277Y-14457150D01*
X6295277Y-14457150D02*
X6314324Y-14466674D01*
X6314324Y-14466674D02*
X6323848Y-14485722D01*
X6323848Y-14485722D02*
X6323848Y-14590484D01*
X6419086Y-14590484D02*
X6419086Y-14457150D01*
X6419086Y-14476198D02*
X6428610Y-14466674D01*
X6428610Y-14466674D02*
X6447658Y-14457150D01*
X6447658Y-14457150D02*
X6476229Y-14457150D01*
X6476229Y-14457150D02*
X6495277Y-14466674D01*
X6495277Y-14466674D02*
X6504801Y-14485722D01*
X6504801Y-14485722D02*
X6504801Y-14590484D01*
X6504801Y-14485722D02*
X6514324Y-14466674D01*
X6514324Y-14466674D02*
X6533372Y-14457150D01*
X6533372Y-14457150D02*
X6561943Y-14457150D01*
X6561943Y-14457150D02*
X6580991Y-14466674D01*
X6580991Y-14466674D02*
X6590515Y-14485722D01*
X6590515Y-14485722D02*
X6590515Y-14590484D01*
X6980991Y-14380960D02*
X6809563Y-14638103D01*
X7238134Y-14390484D02*
X7257182Y-14390484D01*
X7257182Y-14390484D02*
X7276229Y-14400008D01*
X7276229Y-14400008D02*
X7285753Y-14409531D01*
X7285753Y-14409531D02*
X7295277Y-14428579D01*
X7295277Y-14428579D02*
X7304801Y-14466674D01*
X7304801Y-14466674D02*
X7304801Y-14514293D01*
X7304801Y-14514293D02*
X7295277Y-14552388D01*
X7295277Y-14552388D02*
X7285753Y-14571436D01*
X7285753Y-14571436D02*
X7276229Y-14580960D01*
X7276229Y-14580960D02*
X7257182Y-14590484D01*
X7257182Y-14590484D02*
X7238134Y-14590484D01*
X7238134Y-14590484D02*
X7219086Y-14580960D01*
X7219086Y-14580960D02*
X7209563Y-14571436D01*
X7209563Y-14571436D02*
X7200039Y-14552388D01*
X7200039Y-14552388D02*
X7190515Y-14514293D01*
X7190515Y-14514293D02*
X7190515Y-14466674D01*
X7190515Y-14466674D02*
X7200039Y-14428579D01*
X7200039Y-14428579D02*
X7209563Y-14409531D01*
X7209563Y-14409531D02*
X7219086Y-14400008D01*
X7219086Y-14400008D02*
X7238134Y-14390484D01*
X7390515Y-14571436D02*
X7400039Y-14580960D01*
X7400039Y-14580960D02*
X7390515Y-14590484D01*
X7390515Y-14590484D02*
X7380991Y-14580960D01*
X7380991Y-14580960D02*
X7390515Y-14571436D01*
X7390515Y-14571436D02*
X7390515Y-14590484D01*
X7523848Y-14390484D02*
X7542896Y-14390484D01*
X7542896Y-14390484D02*
X7561944Y-14400008D01*
X7561944Y-14400008D02*
X7571467Y-14409531D01*
X7571467Y-14409531D02*
X7580991Y-14428579D01*
X7580991Y-14428579D02*
X7590515Y-14466674D01*
X7590515Y-14466674D02*
X7590515Y-14514293D01*
X7590515Y-14514293D02*
X7580991Y-14552388D01*
X7580991Y-14552388D02*
X7571467Y-14571436D01*
X7571467Y-14571436D02*
X7561944Y-14580960D01*
X7561944Y-14580960D02*
X7542896Y-14590484D01*
X7542896Y-14590484D02*
X7523848Y-14590484D01*
X7523848Y-14590484D02*
X7504801Y-14580960D01*
X7504801Y-14580960D02*
X7495277Y-14571436D01*
X7495277Y-14571436D02*
X7485753Y-14552388D01*
X7485753Y-14552388D02*
X7476229Y-14514293D01*
X7476229Y-14514293D02*
X7476229Y-14466674D01*
X7476229Y-14466674D02*
X7485753Y-14428579D01*
X7485753Y-14428579D02*
X7495277Y-14409531D01*
X7495277Y-14409531D02*
X7504801Y-14400008D01*
X7504801Y-14400008D02*
X7523848Y-14390484D01*
X7666706Y-14409531D02*
X7676229Y-14400008D01*
X7676229Y-14400008D02*
X7695277Y-14390484D01*
X7695277Y-14390484D02*
X7742896Y-14390484D01*
X7742896Y-14390484D02*
X7761944Y-14400008D01*
X7761944Y-14400008D02*
X7771467Y-14409531D01*
X7771467Y-14409531D02*
X7780991Y-14428579D01*
X7780991Y-14428579D02*
X7780991Y-14447627D01*
X7780991Y-14447627D02*
X7771467Y-14476198D01*
X7771467Y-14476198D02*
X7657182Y-14590484D01*
X7657182Y-14590484D02*
X7780991Y-14590484D01*
X7847658Y-14390484D02*
X7980991Y-14390484D01*
X7980991Y-14390484D02*
X7895277Y-14590484D01*
X8142896Y-14390484D02*
X8104801Y-14390484D01*
X8104801Y-14390484D02*
X8085753Y-14400008D01*
X8085753Y-14400008D02*
X8076229Y-14409531D01*
X8076229Y-14409531D02*
X8057182Y-14438103D01*
X8057182Y-14438103D02*
X8047658Y-14476198D01*
X8047658Y-14476198D02*
X8047658Y-14552388D01*
X8047658Y-14552388D02*
X8057182Y-14571436D01*
X8057182Y-14571436D02*
X8066706Y-14580960D01*
X8066706Y-14580960D02*
X8085753Y-14590484D01*
X8085753Y-14590484D02*
X8123848Y-14590484D01*
X8123848Y-14590484D02*
X8142896Y-14580960D01*
X8142896Y-14580960D02*
X8152420Y-14571436D01*
X8152420Y-14571436D02*
X8161944Y-14552388D01*
X8161944Y-14552388D02*
X8161944Y-14504769D01*
X8161944Y-14504769D02*
X8152420Y-14485722D01*
X8152420Y-14485722D02*
X8142896Y-14476198D01*
X8142896Y-14476198D02*
X8123848Y-14466674D01*
X8123848Y-14466674D02*
X8085753Y-14466674D01*
X8085753Y-14466674D02*
X8066706Y-14476198D01*
X8066706Y-14476198D02*
X8057182Y-14485722D01*
X8057182Y-14485722D02*
X8047658Y-14504769D01*
X8238134Y-14390484D02*
X8238134Y-14428579D01*
X8314325Y-14390484D02*
X8314325Y-14428579D01*
X8609563Y-14666674D02*
X8600039Y-14657150D01*
X8600039Y-14657150D02*
X8580991Y-14628579D01*
X8580991Y-14628579D02*
X8571468Y-14609531D01*
X8571468Y-14609531D02*
X8561944Y-14580960D01*
X8561944Y-14580960D02*
X8552420Y-14533341D01*
X8552420Y-14533341D02*
X8552420Y-14495246D01*
X8552420Y-14495246D02*
X8561944Y-14447627D01*
X8561944Y-14447627D02*
X8571468Y-14419055D01*
X8571468Y-14419055D02*
X8580991Y-14400008D01*
X8580991Y-14400008D02*
X8600039Y-14371436D01*
X8600039Y-14371436D02*
X8609563Y-14361912D01*
X8790515Y-14590484D02*
X8676230Y-14590484D01*
X8733372Y-14590484D02*
X8733372Y-14390484D01*
X8733372Y-14390484D02*
X8714325Y-14419055D01*
X8714325Y-14419055D02*
X8695277Y-14438103D01*
X8695277Y-14438103D02*
X8676230Y-14447627D01*
X8961944Y-14457150D02*
X8961944Y-14590484D01*
X8914325Y-14380960D02*
X8866706Y-14523817D01*
X8866706Y-14523817D02*
X8990515Y-14523817D01*
X9219087Y-14590484D02*
X9219087Y-14390484D01*
X9304801Y-14590484D02*
X9304801Y-14485722D01*
X9304801Y-14485722D02*
X9295277Y-14466674D01*
X9295277Y-14466674D02*
X9276230Y-14457150D01*
X9276230Y-14457150D02*
X9247658Y-14457150D01*
X9247658Y-14457150D02*
X9228611Y-14466674D01*
X9228611Y-14466674D02*
X9219087Y-14476198D01*
X9428611Y-14590484D02*
X9409563Y-14580960D01*
X9409563Y-14580960D02*
X9400039Y-14571436D01*
X9400039Y-14571436D02*
X9390515Y-14552388D01*
X9390515Y-14552388D02*
X9390515Y-14495246D01*
X9390515Y-14495246D02*
X9400039Y-14476198D01*
X9400039Y-14476198D02*
X9409563Y-14466674D01*
X9409563Y-14466674D02*
X9428611Y-14457150D01*
X9428611Y-14457150D02*
X9457182Y-14457150D01*
X9457182Y-14457150D02*
X9476230Y-14466674D01*
X9476230Y-14466674D02*
X9485753Y-14476198D01*
X9485753Y-14476198D02*
X9495277Y-14495246D01*
X9495277Y-14495246D02*
X9495277Y-14552388D01*
X9495277Y-14552388D02*
X9485753Y-14571436D01*
X9485753Y-14571436D02*
X9476230Y-14580960D01*
X9476230Y-14580960D02*
X9457182Y-14590484D01*
X9457182Y-14590484D02*
X9428611Y-14590484D01*
X9609563Y-14590484D02*
X9590515Y-14580960D01*
X9590515Y-14580960D02*
X9580992Y-14561912D01*
X9580992Y-14561912D02*
X9580992Y-14390484D01*
X9761944Y-14580960D02*
X9742896Y-14590484D01*
X9742896Y-14590484D02*
X9704801Y-14590484D01*
X9704801Y-14590484D02*
X9685753Y-14580960D01*
X9685753Y-14580960D02*
X9676230Y-14561912D01*
X9676230Y-14561912D02*
X9676230Y-14485722D01*
X9676230Y-14485722D02*
X9685753Y-14466674D01*
X9685753Y-14466674D02*
X9704801Y-14457150D01*
X9704801Y-14457150D02*
X9742896Y-14457150D01*
X9742896Y-14457150D02*
X9761944Y-14466674D01*
X9761944Y-14466674D02*
X9771468Y-14485722D01*
X9771468Y-14485722D02*
X9771468Y-14504769D01*
X9771468Y-14504769D02*
X9676230Y-14523817D01*
X9847658Y-14580960D02*
X9866706Y-14590484D01*
X9866706Y-14590484D02*
X9904801Y-14590484D01*
X9904801Y-14590484D02*
X9923849Y-14580960D01*
X9923849Y-14580960D02*
X9933373Y-14561912D01*
X9933373Y-14561912D02*
X9933373Y-14552388D01*
X9933373Y-14552388D02*
X9923849Y-14533341D01*
X9923849Y-14533341D02*
X9904801Y-14523817D01*
X9904801Y-14523817D02*
X9876230Y-14523817D01*
X9876230Y-14523817D02*
X9857182Y-14514293D01*
X9857182Y-14514293D02*
X9847658Y-14495246D01*
X9847658Y-14495246D02*
X9847658Y-14485722D01*
X9847658Y-14485722D02*
X9857182Y-14466674D01*
X9857182Y-14466674D02*
X9876230Y-14457150D01*
X9876230Y-14457150D02*
X9904801Y-14457150D01*
X9904801Y-14457150D02*
X9923849Y-14466674D01*
X10000039Y-14666674D02*
X10009563Y-14657150D01*
X10009563Y-14657150D02*
X10028611Y-14628579D01*
X10028611Y-14628579D02*
X10038134Y-14609531D01*
X10038134Y-14609531D02*
X10047658Y-14580960D01*
X10047658Y-14580960D02*
X10057182Y-14533341D01*
X10057182Y-14533341D02*
X10057182Y-14495246D01*
X10057182Y-14495246D02*
X10047658Y-14447627D01*
X10047658Y-14447627D02*
X10038134Y-14419055D01*
X10038134Y-14419055D02*
X10028611Y-14400008D01*
X10028611Y-14400008D02*
X10009563Y-14371436D01*
X10009563Y-14371436D02*
X10000039Y-14361912D01*
D12*
X4994500Y-14723000D02*
X4994500Y-14803000D01*
X4954500Y-14763000D02*
X5034500Y-14763000D01*
D11*
X5333372Y-14654484D02*
X5352420Y-14654484D01*
X5352420Y-14654484D02*
X5371467Y-14664008D01*
X5371467Y-14664008D02*
X5380991Y-14673531D01*
X5380991Y-14673531D02*
X5390515Y-14692579D01*
X5390515Y-14692579D02*
X5400039Y-14730674D01*
X5400039Y-14730674D02*
X5400039Y-14778293D01*
X5400039Y-14778293D02*
X5390515Y-14816388D01*
X5390515Y-14816388D02*
X5380991Y-14835436D01*
X5380991Y-14835436D02*
X5371467Y-14844960D01*
X5371467Y-14844960D02*
X5352420Y-14854484D01*
X5352420Y-14854484D02*
X5333372Y-14854484D01*
X5333372Y-14854484D02*
X5314324Y-14844960D01*
X5314324Y-14844960D02*
X5304801Y-14835436D01*
X5304801Y-14835436D02*
X5295277Y-14816388D01*
X5295277Y-14816388D02*
X5285753Y-14778293D01*
X5285753Y-14778293D02*
X5285753Y-14730674D01*
X5285753Y-14730674D02*
X5295277Y-14692579D01*
X5295277Y-14692579D02*
X5304801Y-14673531D01*
X5304801Y-14673531D02*
X5314324Y-14664008D01*
X5314324Y-14664008D02*
X5333372Y-14654484D01*
X5485753Y-14835436D02*
X5495277Y-14844960D01*
X5495277Y-14844960D02*
X5485753Y-14854484D01*
X5485753Y-14854484D02*
X5476229Y-14844960D01*
X5476229Y-14844960D02*
X5485753Y-14835436D01*
X5485753Y-14835436D02*
X5485753Y-14854484D01*
X5609562Y-14740198D02*
X5590515Y-14730674D01*
X5590515Y-14730674D02*
X5580991Y-14721150D01*
X5580991Y-14721150D02*
X5571467Y-14702103D01*
X5571467Y-14702103D02*
X5571467Y-14692579D01*
X5571467Y-14692579D02*
X5580991Y-14673531D01*
X5580991Y-14673531D02*
X5590515Y-14664008D01*
X5590515Y-14664008D02*
X5609562Y-14654484D01*
X5609562Y-14654484D02*
X5647658Y-14654484D01*
X5647658Y-14654484D02*
X5666705Y-14664008D01*
X5666705Y-14664008D02*
X5676229Y-14673531D01*
X5676229Y-14673531D02*
X5685753Y-14692579D01*
X5685753Y-14692579D02*
X5685753Y-14702103D01*
X5685753Y-14702103D02*
X5676229Y-14721150D01*
X5676229Y-14721150D02*
X5666705Y-14730674D01*
X5666705Y-14730674D02*
X5647658Y-14740198D01*
X5647658Y-14740198D02*
X5609562Y-14740198D01*
X5609562Y-14740198D02*
X5590515Y-14749722D01*
X5590515Y-14749722D02*
X5580991Y-14759246D01*
X5580991Y-14759246D02*
X5571467Y-14778293D01*
X5571467Y-14778293D02*
X5571467Y-14816388D01*
X5571467Y-14816388D02*
X5580991Y-14835436D01*
X5580991Y-14835436D02*
X5590515Y-14844960D01*
X5590515Y-14844960D02*
X5609562Y-14854484D01*
X5609562Y-14854484D02*
X5647658Y-14854484D01*
X5647658Y-14854484D02*
X5666705Y-14844960D01*
X5666705Y-14844960D02*
X5676229Y-14835436D01*
X5676229Y-14835436D02*
X5685753Y-14816388D01*
X5685753Y-14816388D02*
X5685753Y-14778293D01*
X5685753Y-14778293D02*
X5676229Y-14759246D01*
X5676229Y-14759246D02*
X5666705Y-14749722D01*
X5666705Y-14749722D02*
X5647658Y-14740198D01*
X5809562Y-14654484D02*
X5828610Y-14654484D01*
X5828610Y-14654484D02*
X5847658Y-14664008D01*
X5847658Y-14664008D02*
X5857182Y-14673531D01*
X5857182Y-14673531D02*
X5866705Y-14692579D01*
X5866705Y-14692579D02*
X5876229Y-14730674D01*
X5876229Y-14730674D02*
X5876229Y-14778293D01*
X5876229Y-14778293D02*
X5866705Y-14816388D01*
X5866705Y-14816388D02*
X5857182Y-14835436D01*
X5857182Y-14835436D02*
X5847658Y-14844960D01*
X5847658Y-14844960D02*
X5828610Y-14854484D01*
X5828610Y-14854484D02*
X5809562Y-14854484D01*
X5809562Y-14854484D02*
X5790515Y-14844960D01*
X5790515Y-14844960D02*
X5780991Y-14835436D01*
X5780991Y-14835436D02*
X5771467Y-14816388D01*
X5771467Y-14816388D02*
X5761943Y-14778293D01*
X5761943Y-14778293D02*
X5761943Y-14730674D01*
X5761943Y-14730674D02*
X5771467Y-14692579D01*
X5771467Y-14692579D02*
X5780991Y-14673531D01*
X5780991Y-14673531D02*
X5790515Y-14664008D01*
X5790515Y-14664008D02*
X5809562Y-14654484D01*
X6000039Y-14654484D02*
X6019086Y-14654484D01*
X6019086Y-14654484D02*
X6038134Y-14664008D01*
X6038134Y-14664008D02*
X6047658Y-14673531D01*
X6047658Y-14673531D02*
X6057182Y-14692579D01*
X6057182Y-14692579D02*
X6066705Y-14730674D01*
X6066705Y-14730674D02*
X6066705Y-14778293D01*
X6066705Y-14778293D02*
X6057182Y-14816388D01*
X6057182Y-14816388D02*
X6047658Y-14835436D01*
X6047658Y-14835436D02*
X6038134Y-14844960D01*
X6038134Y-14844960D02*
X6019086Y-14854484D01*
X6019086Y-14854484D02*
X6000039Y-14854484D01*
X6000039Y-14854484D02*
X5980991Y-14844960D01*
X5980991Y-14844960D02*
X5971467Y-14835436D01*
X5971467Y-14835436D02*
X5961943Y-14816388D01*
X5961943Y-14816388D02*
X5952420Y-14778293D01*
X5952420Y-14778293D02*
X5952420Y-14730674D01*
X5952420Y-14730674D02*
X5961943Y-14692579D01*
X5961943Y-14692579D02*
X5971467Y-14673531D01*
X5971467Y-14673531D02*
X5980991Y-14664008D01*
X5980991Y-14664008D02*
X6000039Y-14654484D01*
X6152420Y-14854484D02*
X6152420Y-14721150D01*
X6152420Y-14740198D02*
X6161943Y-14730674D01*
X6161943Y-14730674D02*
X6180991Y-14721150D01*
X6180991Y-14721150D02*
X6209563Y-14721150D01*
X6209563Y-14721150D02*
X6228610Y-14730674D01*
X6228610Y-14730674D02*
X6238134Y-14749722D01*
X6238134Y-14749722D02*
X6238134Y-14854484D01*
X6238134Y-14749722D02*
X6247658Y-14730674D01*
X6247658Y-14730674D02*
X6266705Y-14721150D01*
X6266705Y-14721150D02*
X6295277Y-14721150D01*
X6295277Y-14721150D02*
X6314324Y-14730674D01*
X6314324Y-14730674D02*
X6323848Y-14749722D01*
X6323848Y-14749722D02*
X6323848Y-14854484D01*
X6419086Y-14854484D02*
X6419086Y-14721150D01*
X6419086Y-14740198D02*
X6428610Y-14730674D01*
X6428610Y-14730674D02*
X6447658Y-14721150D01*
X6447658Y-14721150D02*
X6476229Y-14721150D01*
X6476229Y-14721150D02*
X6495277Y-14730674D01*
X6495277Y-14730674D02*
X6504801Y-14749722D01*
X6504801Y-14749722D02*
X6504801Y-14854484D01*
X6504801Y-14749722D02*
X6514324Y-14730674D01*
X6514324Y-14730674D02*
X6533372Y-14721150D01*
X6533372Y-14721150D02*
X6561943Y-14721150D01*
X6561943Y-14721150D02*
X6580991Y-14730674D01*
X6580991Y-14730674D02*
X6590515Y-14749722D01*
X6590515Y-14749722D02*
X6590515Y-14854484D01*
X6980991Y-14644960D02*
X6809563Y-14902103D01*
X7238134Y-14654484D02*
X7257182Y-14654484D01*
X7257182Y-14654484D02*
X7276229Y-14664008D01*
X7276229Y-14664008D02*
X7285753Y-14673531D01*
X7285753Y-14673531D02*
X7295277Y-14692579D01*
X7295277Y-14692579D02*
X7304801Y-14730674D01*
X7304801Y-14730674D02*
X7304801Y-14778293D01*
X7304801Y-14778293D02*
X7295277Y-14816388D01*
X7295277Y-14816388D02*
X7285753Y-14835436D01*
X7285753Y-14835436D02*
X7276229Y-14844960D01*
X7276229Y-14844960D02*
X7257182Y-14854484D01*
X7257182Y-14854484D02*
X7238134Y-14854484D01*
X7238134Y-14854484D02*
X7219086Y-14844960D01*
X7219086Y-14844960D02*
X7209563Y-14835436D01*
X7209563Y-14835436D02*
X7200039Y-14816388D01*
X7200039Y-14816388D02*
X7190515Y-14778293D01*
X7190515Y-14778293D02*
X7190515Y-14730674D01*
X7190515Y-14730674D02*
X7200039Y-14692579D01*
X7200039Y-14692579D02*
X7209563Y-14673531D01*
X7209563Y-14673531D02*
X7219086Y-14664008D01*
X7219086Y-14664008D02*
X7238134Y-14654484D01*
X7390515Y-14835436D02*
X7400039Y-14844960D01*
X7400039Y-14844960D02*
X7390515Y-14854484D01*
X7390515Y-14854484D02*
X7380991Y-14844960D01*
X7380991Y-14844960D02*
X7390515Y-14835436D01*
X7390515Y-14835436D02*
X7390515Y-14854484D01*
X7523848Y-14654484D02*
X7542896Y-14654484D01*
X7542896Y-14654484D02*
X7561944Y-14664008D01*
X7561944Y-14664008D02*
X7571467Y-14673531D01*
X7571467Y-14673531D02*
X7580991Y-14692579D01*
X7580991Y-14692579D02*
X7590515Y-14730674D01*
X7590515Y-14730674D02*
X7590515Y-14778293D01*
X7590515Y-14778293D02*
X7580991Y-14816388D01*
X7580991Y-14816388D02*
X7571467Y-14835436D01*
X7571467Y-14835436D02*
X7561944Y-14844960D01*
X7561944Y-14844960D02*
X7542896Y-14854484D01*
X7542896Y-14854484D02*
X7523848Y-14854484D01*
X7523848Y-14854484D02*
X7504801Y-14844960D01*
X7504801Y-14844960D02*
X7495277Y-14835436D01*
X7495277Y-14835436D02*
X7485753Y-14816388D01*
X7485753Y-14816388D02*
X7476229Y-14778293D01*
X7476229Y-14778293D02*
X7476229Y-14730674D01*
X7476229Y-14730674D02*
X7485753Y-14692579D01*
X7485753Y-14692579D02*
X7495277Y-14673531D01*
X7495277Y-14673531D02*
X7504801Y-14664008D01*
X7504801Y-14664008D02*
X7523848Y-14654484D01*
X7657182Y-14654484D02*
X7780991Y-14654484D01*
X7780991Y-14654484D02*
X7714325Y-14730674D01*
X7714325Y-14730674D02*
X7742896Y-14730674D01*
X7742896Y-14730674D02*
X7761944Y-14740198D01*
X7761944Y-14740198D02*
X7771467Y-14749722D01*
X7771467Y-14749722D02*
X7780991Y-14768769D01*
X7780991Y-14768769D02*
X7780991Y-14816388D01*
X7780991Y-14816388D02*
X7771467Y-14835436D01*
X7771467Y-14835436D02*
X7761944Y-14844960D01*
X7761944Y-14844960D02*
X7742896Y-14854484D01*
X7742896Y-14854484D02*
X7685753Y-14854484D01*
X7685753Y-14854484D02*
X7666706Y-14844960D01*
X7666706Y-14844960D02*
X7657182Y-14835436D01*
X7971467Y-14854484D02*
X7857182Y-14854484D01*
X7914325Y-14854484D02*
X7914325Y-14654484D01*
X7914325Y-14654484D02*
X7895277Y-14683055D01*
X7895277Y-14683055D02*
X7876229Y-14702103D01*
X7876229Y-14702103D02*
X7857182Y-14711627D01*
X8152420Y-14654484D02*
X8057182Y-14654484D01*
X8057182Y-14654484D02*
X8047658Y-14749722D01*
X8047658Y-14749722D02*
X8057182Y-14740198D01*
X8057182Y-14740198D02*
X8076229Y-14730674D01*
X8076229Y-14730674D02*
X8123848Y-14730674D01*
X8123848Y-14730674D02*
X8142896Y-14740198D01*
X8142896Y-14740198D02*
X8152420Y-14749722D01*
X8152420Y-14749722D02*
X8161944Y-14768769D01*
X8161944Y-14768769D02*
X8161944Y-14816388D01*
X8161944Y-14816388D02*
X8152420Y-14835436D01*
X8152420Y-14835436D02*
X8142896Y-14844960D01*
X8142896Y-14844960D02*
X8123848Y-14854484D01*
X8123848Y-14854484D02*
X8076229Y-14854484D01*
X8076229Y-14854484D02*
X8057182Y-14844960D01*
X8057182Y-14844960D02*
X8047658Y-14835436D01*
X8238134Y-14654484D02*
X8238134Y-14692579D01*
X8314325Y-14654484D02*
X8314325Y-14692579D01*
X8609563Y-14930674D02*
X8600039Y-14921150D01*
X8600039Y-14921150D02*
X8580991Y-14892579D01*
X8580991Y-14892579D02*
X8571468Y-14873531D01*
X8571468Y-14873531D02*
X8561944Y-14844960D01*
X8561944Y-14844960D02*
X8552420Y-14797341D01*
X8552420Y-14797341D02*
X8552420Y-14759246D01*
X8552420Y-14759246D02*
X8561944Y-14711627D01*
X8561944Y-14711627D02*
X8571468Y-14683055D01*
X8571468Y-14683055D02*
X8580991Y-14664008D01*
X8580991Y-14664008D02*
X8600039Y-14635436D01*
X8600039Y-14635436D02*
X8609563Y-14625912D01*
X8780991Y-14654484D02*
X8685753Y-14654484D01*
X8685753Y-14654484D02*
X8676230Y-14749722D01*
X8676230Y-14749722D02*
X8685753Y-14740198D01*
X8685753Y-14740198D02*
X8704801Y-14730674D01*
X8704801Y-14730674D02*
X8752420Y-14730674D01*
X8752420Y-14730674D02*
X8771468Y-14740198D01*
X8771468Y-14740198D02*
X8780991Y-14749722D01*
X8780991Y-14749722D02*
X8790515Y-14768769D01*
X8790515Y-14768769D02*
X8790515Y-14816388D01*
X8790515Y-14816388D02*
X8780991Y-14835436D01*
X8780991Y-14835436D02*
X8771468Y-14844960D01*
X8771468Y-14844960D02*
X8752420Y-14854484D01*
X8752420Y-14854484D02*
X8704801Y-14854484D01*
X8704801Y-14854484D02*
X8685753Y-14844960D01*
X8685753Y-14844960D02*
X8676230Y-14835436D01*
X8914325Y-14654484D02*
X8933372Y-14654484D01*
X8933372Y-14654484D02*
X8952420Y-14664008D01*
X8952420Y-14664008D02*
X8961944Y-14673531D01*
X8961944Y-14673531D02*
X8971468Y-14692579D01*
X8971468Y-14692579D02*
X8980991Y-14730674D01*
X8980991Y-14730674D02*
X8980991Y-14778293D01*
X8980991Y-14778293D02*
X8971468Y-14816388D01*
X8971468Y-14816388D02*
X8961944Y-14835436D01*
X8961944Y-14835436D02*
X8952420Y-14844960D01*
X8952420Y-14844960D02*
X8933372Y-14854484D01*
X8933372Y-14854484D02*
X8914325Y-14854484D01*
X8914325Y-14854484D02*
X8895277Y-14844960D01*
X8895277Y-14844960D02*
X8885753Y-14835436D01*
X8885753Y-14835436D02*
X8876230Y-14816388D01*
X8876230Y-14816388D02*
X8866706Y-14778293D01*
X8866706Y-14778293D02*
X8866706Y-14730674D01*
X8866706Y-14730674D02*
X8876230Y-14692579D01*
X8876230Y-14692579D02*
X8885753Y-14673531D01*
X8885753Y-14673531D02*
X8895277Y-14664008D01*
X8895277Y-14664008D02*
X8914325Y-14654484D01*
X9219087Y-14854484D02*
X9219087Y-14654484D01*
X9304801Y-14854484D02*
X9304801Y-14749722D01*
X9304801Y-14749722D02*
X9295277Y-14730674D01*
X9295277Y-14730674D02*
X9276230Y-14721150D01*
X9276230Y-14721150D02*
X9247658Y-14721150D01*
X9247658Y-14721150D02*
X9228611Y-14730674D01*
X9228611Y-14730674D02*
X9219087Y-14740198D01*
X9428611Y-14854484D02*
X9409563Y-14844960D01*
X9409563Y-14844960D02*
X9400039Y-14835436D01*
X9400039Y-14835436D02*
X9390515Y-14816388D01*
X9390515Y-14816388D02*
X9390515Y-14759246D01*
X9390515Y-14759246D02*
X9400039Y-14740198D01*
X9400039Y-14740198D02*
X9409563Y-14730674D01*
X9409563Y-14730674D02*
X9428611Y-14721150D01*
X9428611Y-14721150D02*
X9457182Y-14721150D01*
X9457182Y-14721150D02*
X9476230Y-14730674D01*
X9476230Y-14730674D02*
X9485753Y-14740198D01*
X9485753Y-14740198D02*
X9495277Y-14759246D01*
X9495277Y-14759246D02*
X9495277Y-14816388D01*
X9495277Y-14816388D02*
X9485753Y-14835436D01*
X9485753Y-14835436D02*
X9476230Y-14844960D01*
X9476230Y-14844960D02*
X9457182Y-14854484D01*
X9457182Y-14854484D02*
X9428611Y-14854484D01*
X9609563Y-14854484D02*
X9590515Y-14844960D01*
X9590515Y-14844960D02*
X9580992Y-14825912D01*
X9580992Y-14825912D02*
X9580992Y-14654484D01*
X9761944Y-14844960D02*
X9742896Y-14854484D01*
X9742896Y-14854484D02*
X9704801Y-14854484D01*
X9704801Y-14854484D02*
X9685753Y-14844960D01*
X9685753Y-14844960D02*
X9676230Y-14825912D01*
X9676230Y-14825912D02*
X9676230Y-14749722D01*
X9676230Y-14749722D02*
X9685753Y-14730674D01*
X9685753Y-14730674D02*
X9704801Y-14721150D01*
X9704801Y-14721150D02*
X9742896Y-14721150D01*
X9742896Y-14721150D02*
X9761944Y-14730674D01*
X9761944Y-14730674D02*
X9771468Y-14749722D01*
X9771468Y-14749722D02*
X9771468Y-14768769D01*
X9771468Y-14768769D02*
X9676230Y-14787817D01*
X9847658Y-14844960D02*
X9866706Y-14854484D01*
X9866706Y-14854484D02*
X9904801Y-14854484D01*
X9904801Y-14854484D02*
X9923849Y-14844960D01*
X9923849Y-14844960D02*
X9933373Y-14825912D01*
X9933373Y-14825912D02*
X9933373Y-14816388D01*
X9933373Y-14816388D02*
X9923849Y-14797341D01*
X9923849Y-14797341D02*
X9904801Y-14787817D01*
X9904801Y-14787817D02*
X9876230Y-14787817D01*
X9876230Y-14787817D02*
X9857182Y-14778293D01*
X9857182Y-14778293D02*
X9847658Y-14759246D01*
X9847658Y-14759246D02*
X9847658Y-14749722D01*
X9847658Y-14749722D02*
X9857182Y-14730674D01*
X9857182Y-14730674D02*
X9876230Y-14721150D01*
X9876230Y-14721150D02*
X9904801Y-14721150D01*
X9904801Y-14721150D02*
X9923849Y-14730674D01*
X10000039Y-14930674D02*
X10009563Y-14921150D01*
X10009563Y-14921150D02*
X10028611Y-14892579D01*
X10028611Y-14892579D02*
X10038134Y-14873531D01*
X10038134Y-14873531D02*
X10047658Y-14844960D01*
X10047658Y-14844960D02*
X10057182Y-14797341D01*
X10057182Y-14797341D02*
X10057182Y-14759246D01*
X10057182Y-14759246D02*
X10047658Y-14711627D01*
X10047658Y-14711627D02*
X10038134Y-14683055D01*
X10038134Y-14683055D02*
X10028611Y-14664008D01*
X10028611Y-14664008D02*
X10009563Y-14635436D01*
X10009563Y-14635436D02*
X10000039Y-14625912D01*
D12*
X5019856Y-15062356D02*
X5019856Y-14991644D01*
X4949144Y-14991644D01*
X4949144Y-15062356D01*
X5019856Y-15062356D01*
D11*
X5400039Y-15118484D02*
X5285753Y-15118484D01*
X5342896Y-15118484D02*
X5342896Y-14918484D01*
X5342896Y-14918484D02*
X5323848Y-14947055D01*
X5323848Y-14947055D02*
X5304801Y-14966103D01*
X5304801Y-14966103D02*
X5285753Y-14975627D01*
X5485753Y-15099436D02*
X5495277Y-15108960D01*
X5495277Y-15108960D02*
X5485753Y-15118484D01*
X5485753Y-15118484D02*
X5476229Y-15108960D01*
X5476229Y-15108960D02*
X5485753Y-15099436D01*
X5485753Y-15099436D02*
X5485753Y-15118484D01*
X5619086Y-14918484D02*
X5638134Y-14918484D01*
X5638134Y-14918484D02*
X5657182Y-14928008D01*
X5657182Y-14928008D02*
X5666705Y-14937531D01*
X5666705Y-14937531D02*
X5676229Y-14956579D01*
X5676229Y-14956579D02*
X5685753Y-14994674D01*
X5685753Y-14994674D02*
X5685753Y-15042293D01*
X5685753Y-15042293D02*
X5676229Y-15080388D01*
X5676229Y-15080388D02*
X5666705Y-15099436D01*
X5666705Y-15099436D02*
X5657182Y-15108960D01*
X5657182Y-15108960D02*
X5638134Y-15118484D01*
X5638134Y-15118484D02*
X5619086Y-15118484D01*
X5619086Y-15118484D02*
X5600039Y-15108960D01*
X5600039Y-15108960D02*
X5590515Y-15099436D01*
X5590515Y-15099436D02*
X5580991Y-15080388D01*
X5580991Y-15080388D02*
X5571467Y-15042293D01*
X5571467Y-15042293D02*
X5571467Y-14994674D01*
X5571467Y-14994674D02*
X5580991Y-14956579D01*
X5580991Y-14956579D02*
X5590515Y-14937531D01*
X5590515Y-14937531D02*
X5600039Y-14928008D01*
X5600039Y-14928008D02*
X5619086Y-14918484D01*
X5809562Y-14918484D02*
X5828610Y-14918484D01*
X5828610Y-14918484D02*
X5847658Y-14928008D01*
X5847658Y-14928008D02*
X5857182Y-14937531D01*
X5857182Y-14937531D02*
X5866705Y-14956579D01*
X5866705Y-14956579D02*
X5876229Y-14994674D01*
X5876229Y-14994674D02*
X5876229Y-15042293D01*
X5876229Y-15042293D02*
X5866705Y-15080388D01*
X5866705Y-15080388D02*
X5857182Y-15099436D01*
X5857182Y-15099436D02*
X5847658Y-15108960D01*
X5847658Y-15108960D02*
X5828610Y-15118484D01*
X5828610Y-15118484D02*
X5809562Y-15118484D01*
X5809562Y-15118484D02*
X5790515Y-15108960D01*
X5790515Y-15108960D02*
X5780991Y-15099436D01*
X5780991Y-15099436D02*
X5771467Y-15080388D01*
X5771467Y-15080388D02*
X5761943Y-15042293D01*
X5761943Y-15042293D02*
X5761943Y-14994674D01*
X5761943Y-14994674D02*
X5771467Y-14956579D01*
X5771467Y-14956579D02*
X5780991Y-14937531D01*
X5780991Y-14937531D02*
X5790515Y-14928008D01*
X5790515Y-14928008D02*
X5809562Y-14918484D01*
X6000039Y-14918484D02*
X6019086Y-14918484D01*
X6019086Y-14918484D02*
X6038134Y-14928008D01*
X6038134Y-14928008D02*
X6047658Y-14937531D01*
X6047658Y-14937531D02*
X6057182Y-14956579D01*
X6057182Y-14956579D02*
X6066705Y-14994674D01*
X6066705Y-14994674D02*
X6066705Y-15042293D01*
X6066705Y-15042293D02*
X6057182Y-15080388D01*
X6057182Y-15080388D02*
X6047658Y-15099436D01*
X6047658Y-15099436D02*
X6038134Y-15108960D01*
X6038134Y-15108960D02*
X6019086Y-15118484D01*
X6019086Y-15118484D02*
X6000039Y-15118484D01*
X6000039Y-15118484D02*
X5980991Y-15108960D01*
X5980991Y-15108960D02*
X5971467Y-15099436D01*
X5971467Y-15099436D02*
X5961943Y-15080388D01*
X5961943Y-15080388D02*
X5952420Y-15042293D01*
X5952420Y-15042293D02*
X5952420Y-14994674D01*
X5952420Y-14994674D02*
X5961943Y-14956579D01*
X5961943Y-14956579D02*
X5971467Y-14937531D01*
X5971467Y-14937531D02*
X5980991Y-14928008D01*
X5980991Y-14928008D02*
X6000039Y-14918484D01*
X6152420Y-15118484D02*
X6152420Y-14985150D01*
X6152420Y-15004198D02*
X6161943Y-14994674D01*
X6161943Y-14994674D02*
X6180991Y-14985150D01*
X6180991Y-14985150D02*
X6209563Y-14985150D01*
X6209563Y-14985150D02*
X6228610Y-14994674D01*
X6228610Y-14994674D02*
X6238134Y-15013722D01*
X6238134Y-15013722D02*
X6238134Y-15118484D01*
X6238134Y-15013722D02*
X6247658Y-14994674D01*
X6247658Y-14994674D02*
X6266705Y-14985150D01*
X6266705Y-14985150D02*
X6295277Y-14985150D01*
X6295277Y-14985150D02*
X6314324Y-14994674D01*
X6314324Y-14994674D02*
X6323848Y-15013722D01*
X6323848Y-15013722D02*
X6323848Y-15118484D01*
X6419086Y-15118484D02*
X6419086Y-14985150D01*
X6419086Y-15004198D02*
X6428610Y-14994674D01*
X6428610Y-14994674D02*
X6447658Y-14985150D01*
X6447658Y-14985150D02*
X6476229Y-14985150D01*
X6476229Y-14985150D02*
X6495277Y-14994674D01*
X6495277Y-14994674D02*
X6504801Y-15013722D01*
X6504801Y-15013722D02*
X6504801Y-15118484D01*
X6504801Y-15013722D02*
X6514324Y-14994674D01*
X6514324Y-14994674D02*
X6533372Y-14985150D01*
X6533372Y-14985150D02*
X6561943Y-14985150D01*
X6561943Y-14985150D02*
X6580991Y-14994674D01*
X6580991Y-14994674D02*
X6590515Y-15013722D01*
X6590515Y-15013722D02*
X6590515Y-15118484D01*
X6980991Y-14908960D02*
X6809563Y-15166103D01*
X7238134Y-14918484D02*
X7257182Y-14918484D01*
X7257182Y-14918484D02*
X7276229Y-14928008D01*
X7276229Y-14928008D02*
X7285753Y-14937531D01*
X7285753Y-14937531D02*
X7295277Y-14956579D01*
X7295277Y-14956579D02*
X7304801Y-14994674D01*
X7304801Y-14994674D02*
X7304801Y-15042293D01*
X7304801Y-15042293D02*
X7295277Y-15080388D01*
X7295277Y-15080388D02*
X7285753Y-15099436D01*
X7285753Y-15099436D02*
X7276229Y-15108960D01*
X7276229Y-15108960D02*
X7257182Y-15118484D01*
X7257182Y-15118484D02*
X7238134Y-15118484D01*
X7238134Y-15118484D02*
X7219086Y-15108960D01*
X7219086Y-15108960D02*
X7209563Y-15099436D01*
X7209563Y-15099436D02*
X7200039Y-15080388D01*
X7200039Y-15080388D02*
X7190515Y-15042293D01*
X7190515Y-15042293D02*
X7190515Y-14994674D01*
X7190515Y-14994674D02*
X7200039Y-14956579D01*
X7200039Y-14956579D02*
X7209563Y-14937531D01*
X7209563Y-14937531D02*
X7219086Y-14928008D01*
X7219086Y-14928008D02*
X7238134Y-14918484D01*
X7390515Y-15099436D02*
X7400039Y-15108960D01*
X7400039Y-15108960D02*
X7390515Y-15118484D01*
X7390515Y-15118484D02*
X7380991Y-15108960D01*
X7380991Y-15108960D02*
X7390515Y-15099436D01*
X7390515Y-15099436D02*
X7390515Y-15118484D01*
X7523848Y-14918484D02*
X7542896Y-14918484D01*
X7542896Y-14918484D02*
X7561944Y-14928008D01*
X7561944Y-14928008D02*
X7571467Y-14937531D01*
X7571467Y-14937531D02*
X7580991Y-14956579D01*
X7580991Y-14956579D02*
X7590515Y-14994674D01*
X7590515Y-14994674D02*
X7590515Y-15042293D01*
X7590515Y-15042293D02*
X7580991Y-15080388D01*
X7580991Y-15080388D02*
X7571467Y-15099436D01*
X7571467Y-15099436D02*
X7561944Y-15108960D01*
X7561944Y-15108960D02*
X7542896Y-15118484D01*
X7542896Y-15118484D02*
X7523848Y-15118484D01*
X7523848Y-15118484D02*
X7504801Y-15108960D01*
X7504801Y-15108960D02*
X7495277Y-15099436D01*
X7495277Y-15099436D02*
X7485753Y-15080388D01*
X7485753Y-15080388D02*
X7476229Y-15042293D01*
X7476229Y-15042293D02*
X7476229Y-14994674D01*
X7476229Y-14994674D02*
X7485753Y-14956579D01*
X7485753Y-14956579D02*
X7495277Y-14937531D01*
X7495277Y-14937531D02*
X7504801Y-14928008D01*
X7504801Y-14928008D02*
X7523848Y-14918484D01*
X7657182Y-14918484D02*
X7780991Y-14918484D01*
X7780991Y-14918484D02*
X7714325Y-14994674D01*
X7714325Y-14994674D02*
X7742896Y-14994674D01*
X7742896Y-14994674D02*
X7761944Y-15004198D01*
X7761944Y-15004198D02*
X7771467Y-15013722D01*
X7771467Y-15013722D02*
X7780991Y-15032769D01*
X7780991Y-15032769D02*
X7780991Y-15080388D01*
X7780991Y-15080388D02*
X7771467Y-15099436D01*
X7771467Y-15099436D02*
X7761944Y-15108960D01*
X7761944Y-15108960D02*
X7742896Y-15118484D01*
X7742896Y-15118484D02*
X7685753Y-15118484D01*
X7685753Y-15118484D02*
X7666706Y-15108960D01*
X7666706Y-15108960D02*
X7657182Y-15099436D01*
X7876229Y-15118484D02*
X7914325Y-15118484D01*
X7914325Y-15118484D02*
X7933372Y-15108960D01*
X7933372Y-15108960D02*
X7942896Y-15099436D01*
X7942896Y-15099436D02*
X7961944Y-15070865D01*
X7961944Y-15070865D02*
X7971467Y-15032769D01*
X7971467Y-15032769D02*
X7971467Y-14956579D01*
X7971467Y-14956579D02*
X7961944Y-14937531D01*
X7961944Y-14937531D02*
X7952420Y-14928008D01*
X7952420Y-14928008D02*
X7933372Y-14918484D01*
X7933372Y-14918484D02*
X7895277Y-14918484D01*
X7895277Y-14918484D02*
X7876229Y-14928008D01*
X7876229Y-14928008D02*
X7866706Y-14937531D01*
X7866706Y-14937531D02*
X7857182Y-14956579D01*
X7857182Y-14956579D02*
X7857182Y-15004198D01*
X7857182Y-15004198D02*
X7866706Y-15023246D01*
X7866706Y-15023246D02*
X7876229Y-15032769D01*
X7876229Y-15032769D02*
X7895277Y-15042293D01*
X7895277Y-15042293D02*
X7933372Y-15042293D01*
X7933372Y-15042293D02*
X7952420Y-15032769D01*
X7952420Y-15032769D02*
X7961944Y-15023246D01*
X7961944Y-15023246D02*
X7971467Y-15004198D01*
X8142896Y-14985150D02*
X8142896Y-15118484D01*
X8095277Y-14908960D02*
X8047658Y-15051817D01*
X8047658Y-15051817D02*
X8171467Y-15051817D01*
X8238134Y-14918484D02*
X8238134Y-14956579D01*
X8314325Y-14918484D02*
X8314325Y-14956579D01*
X8609563Y-15194674D02*
X8600039Y-15185150D01*
X8600039Y-15185150D02*
X8580991Y-15156579D01*
X8580991Y-15156579D02*
X8571468Y-15137531D01*
X8571468Y-15137531D02*
X8561944Y-15108960D01*
X8561944Y-15108960D02*
X8552420Y-15061341D01*
X8552420Y-15061341D02*
X8552420Y-15023246D01*
X8552420Y-15023246D02*
X8561944Y-14975627D01*
X8561944Y-14975627D02*
X8571468Y-14947055D01*
X8571468Y-14947055D02*
X8580991Y-14928008D01*
X8580991Y-14928008D02*
X8600039Y-14899436D01*
X8600039Y-14899436D02*
X8609563Y-14889912D01*
X8790515Y-15118484D02*
X8676230Y-15118484D01*
X8733372Y-15118484D02*
X8733372Y-14918484D01*
X8733372Y-14918484D02*
X8714325Y-14947055D01*
X8714325Y-14947055D02*
X8695277Y-14966103D01*
X8695277Y-14966103D02*
X8676230Y-14975627D01*
X8980991Y-15118484D02*
X8866706Y-15118484D01*
X8923849Y-15118484D02*
X8923849Y-14918484D01*
X8923849Y-14918484D02*
X8904801Y-14947055D01*
X8904801Y-14947055D02*
X8885753Y-14966103D01*
X8885753Y-14966103D02*
X8866706Y-14975627D01*
X9152420Y-14985150D02*
X9152420Y-15118484D01*
X9104801Y-14908960D02*
X9057182Y-15051817D01*
X9057182Y-15051817D02*
X9180991Y-15051817D01*
X9409563Y-15118484D02*
X9409563Y-14918484D01*
X9495277Y-15118484D02*
X9495277Y-15013722D01*
X9495277Y-15013722D02*
X9485753Y-14994674D01*
X9485753Y-14994674D02*
X9466706Y-14985150D01*
X9466706Y-14985150D02*
X9438134Y-14985150D01*
X9438134Y-14985150D02*
X9419087Y-14994674D01*
X9419087Y-14994674D02*
X9409563Y-15004198D01*
X9619087Y-15118484D02*
X9600039Y-15108960D01*
X9600039Y-15108960D02*
X9590515Y-15099436D01*
X9590515Y-15099436D02*
X9580992Y-15080388D01*
X9580992Y-15080388D02*
X9580992Y-15023246D01*
X9580992Y-15023246D02*
X9590515Y-15004198D01*
X9590515Y-15004198D02*
X9600039Y-14994674D01*
X9600039Y-14994674D02*
X9619087Y-14985150D01*
X9619087Y-14985150D02*
X9647658Y-14985150D01*
X9647658Y-14985150D02*
X9666706Y-14994674D01*
X9666706Y-14994674D02*
X9676230Y-15004198D01*
X9676230Y-15004198D02*
X9685753Y-15023246D01*
X9685753Y-15023246D02*
X9685753Y-15080388D01*
X9685753Y-15080388D02*
X9676230Y-15099436D01*
X9676230Y-15099436D02*
X9666706Y-15108960D01*
X9666706Y-15108960D02*
X9647658Y-15118484D01*
X9647658Y-15118484D02*
X9619087Y-15118484D01*
X9800039Y-15118484D02*
X9780992Y-15108960D01*
X9780992Y-15108960D02*
X9771468Y-15089912D01*
X9771468Y-15089912D02*
X9771468Y-14918484D01*
X9952420Y-15108960D02*
X9933373Y-15118484D01*
X9933373Y-15118484D02*
X9895277Y-15118484D01*
X9895277Y-15118484D02*
X9876230Y-15108960D01*
X9876230Y-15108960D02*
X9866706Y-15089912D01*
X9866706Y-15089912D02*
X9866706Y-15013722D01*
X9866706Y-15013722D02*
X9876230Y-14994674D01*
X9876230Y-14994674D02*
X9895277Y-14985150D01*
X9895277Y-14985150D02*
X9933373Y-14985150D01*
X9933373Y-14985150D02*
X9952420Y-14994674D01*
X9952420Y-14994674D02*
X9961944Y-15013722D01*
X9961944Y-15013722D02*
X9961944Y-15032769D01*
X9961944Y-15032769D02*
X9866706Y-15051817D01*
X10038134Y-15108960D02*
X10057182Y-15118484D01*
X10057182Y-15118484D02*
X10095277Y-15118484D01*
X10095277Y-15118484D02*
X10114325Y-15108960D01*
X10114325Y-15108960D02*
X10123849Y-15089912D01*
X10123849Y-15089912D02*
X10123849Y-15080388D01*
X10123849Y-15080388D02*
X10114325Y-15061341D01*
X10114325Y-15061341D02*
X10095277Y-15051817D01*
X10095277Y-15051817D02*
X10066706Y-15051817D01*
X10066706Y-15051817D02*
X10047658Y-15042293D01*
X10047658Y-15042293D02*
X10038134Y-15023246D01*
X10038134Y-15023246D02*
X10038134Y-15013722D01*
X10038134Y-15013722D02*
X10047658Y-14994674D01*
X10047658Y-14994674D02*
X10066706Y-14985150D01*
X10066706Y-14985150D02*
X10095277Y-14985150D01*
X10095277Y-14985150D02*
X10114325Y-14994674D01*
X10190515Y-15194674D02*
X10200039Y-15185150D01*
X10200039Y-15185150D02*
X10219087Y-15156579D01*
X10219087Y-15156579D02*
X10228611Y-15137531D01*
X10228611Y-15137531D02*
X10238134Y-15108960D01*
X10238134Y-15108960D02*
X10247658Y-15061341D01*
X10247658Y-15061341D02*
X10247658Y-15023246D01*
X10247658Y-15023246D02*
X10238134Y-14975627D01*
X10238134Y-14975627D02*
X10228611Y-14947055D01*
X10228611Y-14947055D02*
X10219087Y-14928008D01*
X10219087Y-14928008D02*
X10200039Y-14899436D01*
X10200039Y-14899436D02*
X10190515Y-14889912D01*
M02*
