G04 #@! TF.GenerationSoftware,KiCad,Pcbnew,8.0.4*
G04 #@! TF.CreationDate,2024-09-09T13:58:12+01:00*
G04 #@! TF.ProjectId,Amiga_internal_floppy_adapter,416d6967-615f-4696-9e74-65726e616c5f,1.0*
G04 #@! TF.SameCoordinates,Original*
G04 #@! TF.FileFunction,Soldermask,Top*
G04 #@! TF.FilePolarity,Negative*
%FSLAX46Y46*%
G04 Gerber Fmt 4.6, Leading zero omitted, Abs format (unit mm)*
G04 Created by KiCad (PCBNEW 8.0.4) date 2024-09-09 13:58:12*
%MOMM*%
%LPD*%
G01*
G04 APERTURE LIST*
G04 Aperture macros list*
%AMRoundRect*
0 Rectangle with rounded corners*
0 $1 Rounding radius*
0 $2 $3 $4 $5 $6 $7 $8 $9 X,Y pos of 4 corners*
0 Add a 4 corners polygon primitive as box body*
4,1,4,$2,$3,$4,$5,$6,$7,$8,$9,$2,$3,0*
0 Add four circle primitives for the rounded corners*
1,1,$1+$1,$2,$3*
1,1,$1+$1,$4,$5*
1,1,$1+$1,$6,$7*
1,1,$1+$1,$8,$9*
0 Add four rect primitives between the rounded corners*
20,1,$1+$1,$2,$3,$4,$5,0*
20,1,$1+$1,$4,$5,$6,$7,0*
20,1,$1+$1,$6,$7,$8,$9,0*
20,1,$1+$1,$8,$9,$2,$3,0*%
G04 Aperture macros list end*
%ADD10C,1.400000*%
%ADD11O,1.400000X1.400000*%
%ADD12C,1.600000*%
%ADD13R,1.600000X1.600000*%
%ADD14O,1.600000X1.600000*%
%ADD15RoundRect,0.250000X-0.600000X-0.600000X0.600000X-0.600000X0.600000X0.600000X-0.600000X0.600000X0*%
%ADD16C,1.700000*%
%ADD17R,1.700000X1.700000*%
%ADD18O,1.700000X1.700000*%
G04 APERTURE END LIST*
D10*
X109540000Y-104000000D03*
D11*
X104460000Y-104000000D03*
D12*
X95820000Y-98155000D03*
X93320000Y-98155000D03*
D10*
X109540000Y-107000000D03*
D11*
X104460000Y-107000000D03*
D12*
X93740341Y-72960682D03*
X96240341Y-72960682D03*
D10*
X109440833Y-118859662D03*
D11*
X104360833Y-118859662D03*
D12*
X107330000Y-81450000D03*
X104830000Y-81450000D03*
D10*
X97447645Y-68864709D03*
D11*
X92367645Y-68864709D03*
D13*
X91000000Y-77000000D03*
D14*
X91000000Y-79540000D03*
X91000000Y-82080000D03*
X91000000Y-84620000D03*
X91000000Y-87160000D03*
X91000000Y-89700000D03*
X91000000Y-92240000D03*
X91000000Y-94780000D03*
X98620000Y-94780000D03*
X98620000Y-92240000D03*
X98620000Y-89700000D03*
X98620000Y-87160000D03*
X98620000Y-84620000D03*
X98620000Y-82080000D03*
X98620000Y-79540000D03*
X98620000Y-77000000D03*
D15*
X83000000Y-75550000D03*
D16*
X85540000Y-75550000D03*
X83000000Y-78090000D03*
X85540000Y-78090000D03*
X83000000Y-80630000D03*
X85540000Y-80630000D03*
X83000000Y-83170000D03*
X85540000Y-83170000D03*
X83000000Y-85710000D03*
X85540000Y-85710000D03*
X83000000Y-88250000D03*
X85540000Y-88250000D03*
X83000000Y-90790000D03*
X85540000Y-90790000D03*
X83000000Y-93330000D03*
X85540000Y-93330000D03*
X83000000Y-95870000D03*
X85540000Y-95870000D03*
X83000000Y-98410000D03*
X85540000Y-98410000D03*
X83000000Y-100950000D03*
X85540000Y-100950000D03*
X83000000Y-103490000D03*
X85540000Y-103490000D03*
X83000000Y-106030000D03*
X85540000Y-106030000D03*
X83000000Y-108570000D03*
X85540000Y-108570000D03*
X83000000Y-111110000D03*
X85540000Y-111110000D03*
X83000000Y-113650000D03*
X85540000Y-113650000D03*
X83000000Y-116190000D03*
X85540000Y-116190000D03*
D13*
X102200000Y-85375000D03*
D14*
X102200000Y-87915000D03*
X102200000Y-90455000D03*
X102200000Y-92995000D03*
X102200000Y-95535000D03*
X102200000Y-98075000D03*
X102200000Y-100615000D03*
X109820000Y-100615000D03*
X109820000Y-98075000D03*
X109820000Y-95535000D03*
X109820000Y-92995000D03*
X109820000Y-90455000D03*
X109820000Y-87915000D03*
X109820000Y-85375000D03*
D10*
X109540000Y-116000000D03*
D11*
X104460000Y-116000000D03*
D17*
X104725000Y-77375000D03*
D18*
X107265000Y-77375000D03*
D10*
X109620000Y-110000000D03*
D11*
X104540000Y-110000000D03*
D13*
X91200000Y-102375000D03*
D14*
X91200000Y-104915000D03*
X91200000Y-107455000D03*
X91200000Y-109995000D03*
X91200000Y-112535000D03*
X91200000Y-115075000D03*
X91200000Y-117615000D03*
X98820000Y-117615000D03*
X98820000Y-115075000D03*
X98820000Y-112535000D03*
X98820000Y-109995000D03*
X98820000Y-107455000D03*
X98820000Y-104915000D03*
X98820000Y-102375000D03*
D17*
X100625000Y-122725000D03*
D18*
X100625000Y-125265000D03*
D15*
X67415000Y-75550000D03*
D16*
X69955000Y-75550000D03*
X67415000Y-78090000D03*
X69955000Y-78090000D03*
X67415000Y-80630000D03*
X69955000Y-80630000D03*
X67415000Y-83170000D03*
X69955000Y-83170000D03*
X67415000Y-85710000D03*
X69955000Y-85710000D03*
X67415000Y-88250000D03*
X69955000Y-88250000D03*
X67415000Y-90790000D03*
X69955000Y-90790000D03*
X67415000Y-93330000D03*
X69955000Y-93330000D03*
X67415000Y-95870000D03*
X69955000Y-95870000D03*
X67415000Y-98410000D03*
X69955000Y-98410000D03*
X67415000Y-100950000D03*
X69955000Y-100950000D03*
X67415000Y-103490000D03*
X69955000Y-103490000D03*
X67415000Y-106030000D03*
X69955000Y-106030000D03*
X67415000Y-108570000D03*
X69955000Y-108570000D03*
X67415000Y-111110000D03*
X69955000Y-111110000D03*
X67415000Y-113650000D03*
X69955000Y-113650000D03*
X67415000Y-116190000D03*
X69955000Y-116190000D03*
D17*
X80625000Y-126200000D03*
D18*
X80625000Y-128740000D03*
X80625000Y-131280000D03*
X80625000Y-133820000D03*
D10*
X109685004Y-112958867D03*
D11*
X104605004Y-112958867D03*
D17*
X75000000Y-75380000D03*
D18*
X77540000Y-75380000D03*
X75000000Y-77920000D03*
X77540000Y-77920000D03*
X75000000Y-80460000D03*
X77540000Y-80460000D03*
X75000000Y-83000000D03*
X77540000Y-83000000D03*
X75000000Y-85540000D03*
X77540000Y-85540000D03*
X75000000Y-88080000D03*
X77540000Y-88080000D03*
X75000000Y-90620000D03*
X77540000Y-90620000D03*
X75000000Y-93160000D03*
X77540000Y-93160000D03*
X75000000Y-95700000D03*
X77540000Y-95700000D03*
X75000000Y-98240000D03*
X77540000Y-98240000D03*
X75000000Y-100780000D03*
X77540000Y-100780000D03*
X75000000Y-103320000D03*
X77540000Y-103320000D03*
X75000000Y-105860000D03*
X77540000Y-105860000D03*
X75000000Y-108400000D03*
X77540000Y-108400000D03*
X75000000Y-110940000D03*
X77540000Y-110940000D03*
X75000000Y-113480000D03*
X77540000Y-113480000D03*
X75000000Y-116020000D03*
X77540000Y-116020000D03*
D17*
X75750000Y-122770000D03*
D18*
X75750000Y-125310000D03*
X75750000Y-127850000D03*
X75750000Y-130390000D03*
M02*
