M48
; DRILL file {KiCad 8.0.4} date 2024-09-09T13:51:59+0100
; FORMAT={-:-/ absolute / metric / decimal}
; #@! TF.CreationDate,2024-09-09T13:51:59+01:00
; #@! TF.GenerationSoftware,Kicad,Pcbnew,8.0.4
; #@! TF.FileFunction,Plated,1,2,PTH
FMAT,2
METRIC
; #@! TA.AperFunction,Plated,PTH,ViaDrill
T1C0.300
; #@! TA.AperFunction,Plated,PTH,ComponentDrill
T2C0.700
; #@! TA.AperFunction,Plated,PTH,ComponentDrill
T3C0.800
; #@! TA.AperFunction,Plated,PTH,ComponentDrill
T4C1.000
%
G90
G05
T1
X88.0Y-97.0
X88.0Y-115.0
X88.0Y-117.0
X89.0Y-77.0
X89.856Y-78.922
X93.0Y-80.0
X93.0Y-90.4
X93.0Y-92.0
X94.0Y-81.0
X101.0Y-107.0
X101.155Y-104.845
X105.0Y-93.0
X105.0Y-98.0
X105.0Y-101.0
X106.154Y-106.0
X106.154Y-108.0
X107.0Y-98.0
X108.0Y-93.0
X108.0Y-101.0
T2
X92.368Y-68.865
X97.448Y-68.865
X104.361Y-118.86
X104.46Y-104.0
X104.46Y-107.0
X104.46Y-116.0
X104.54Y-110.0
X104.605Y-112.959
X109.441Y-118.86
X109.54Y-104.0
X109.54Y-107.0
X109.54Y-116.0
X109.62Y-110.0
X109.685Y-112.959
T3
X91.0Y-77.0
X91.0Y-79.54
X91.0Y-82.08
X91.0Y-84.62
X91.0Y-87.16
X91.0Y-89.7
X91.0Y-92.24
X91.0Y-94.78
X91.2Y-102.375
X91.2Y-104.915
X91.2Y-107.455
X91.2Y-109.995
X91.2Y-112.535
X91.2Y-115.075
X91.2Y-117.615
X93.32Y-98.155
X93.74Y-72.961
X95.82Y-98.155
X96.24Y-72.961
X98.62Y-77.0
X98.62Y-79.54
X98.62Y-82.08
X98.62Y-84.62
X98.62Y-87.16
X98.62Y-89.7
X98.62Y-92.24
X98.62Y-94.78
X98.82Y-102.375
X98.82Y-104.915
X98.82Y-107.455
X98.82Y-109.995
X98.82Y-112.535
X98.82Y-115.075
X98.82Y-117.615
X102.2Y-85.375
X102.2Y-87.915
X102.2Y-90.455
X102.2Y-92.995
X102.2Y-95.535
X102.2Y-98.075
X102.2Y-100.615
X104.83Y-81.45
X107.33Y-81.45
X109.82Y-85.375
X109.82Y-87.915
X109.82Y-90.455
X109.82Y-92.995
X109.82Y-95.535
X109.82Y-98.075
X109.82Y-100.615
T4
X67.415Y-75.55
X67.415Y-78.09
X67.415Y-80.63
X67.415Y-83.17
X67.415Y-85.71
X67.415Y-88.25
X67.415Y-90.79
X67.415Y-93.33
X67.415Y-95.87
X67.415Y-98.41
X67.415Y-100.95
X67.415Y-103.49
X67.415Y-106.03
X67.415Y-108.57
X67.415Y-111.11
X67.415Y-113.65
X67.415Y-116.19
X69.955Y-75.55
X69.955Y-78.09
X69.955Y-80.63
X69.955Y-83.17
X69.955Y-85.71
X69.955Y-88.25
X69.955Y-90.79
X69.955Y-93.33
X69.955Y-95.87
X69.955Y-98.41
X69.955Y-100.95
X69.955Y-103.49
X69.955Y-106.03
X69.955Y-108.57
X69.955Y-111.11
X69.955Y-113.65
X69.955Y-116.19
X75.0Y-75.38
X75.0Y-77.92
X75.0Y-80.46
X75.0Y-83.0
X75.0Y-85.54
X75.0Y-88.08
X75.0Y-90.62
X75.0Y-93.16
X75.0Y-95.7
X75.0Y-98.24
X75.0Y-100.78
X75.0Y-103.32
X75.0Y-105.86
X75.0Y-108.4
X75.0Y-110.94
X75.0Y-113.48
X75.0Y-116.02
X75.75Y-122.77
X75.75Y-125.31
X75.75Y-127.85
X75.75Y-130.39
X77.54Y-75.38
X77.54Y-77.92
X77.54Y-80.46
X77.54Y-83.0
X77.54Y-85.54
X77.54Y-88.08
X77.54Y-90.62
X77.54Y-93.16
X77.54Y-95.7
X77.54Y-98.24
X77.54Y-100.78
X77.54Y-103.32
X77.54Y-105.86
X77.54Y-108.4
X77.54Y-110.94
X77.54Y-113.48
X77.54Y-116.02
X80.625Y-126.2
X80.625Y-128.74
X80.625Y-131.28
X80.625Y-133.82
X83.0Y-75.55
X83.0Y-78.09
X83.0Y-80.63
X83.0Y-83.17
X83.0Y-85.71
X83.0Y-88.25
X83.0Y-90.79
X83.0Y-93.33
X83.0Y-95.87
X83.0Y-98.41
X83.0Y-100.95
X83.0Y-103.49
X83.0Y-106.03
X83.0Y-108.57
X83.0Y-111.11
X83.0Y-113.65
X83.0Y-116.19
X85.54Y-75.55
X85.54Y-78.09
X85.54Y-80.63
X85.54Y-83.17
X85.54Y-85.71
X85.54Y-88.25
X85.54Y-90.79
X85.54Y-93.33
X85.54Y-95.87
X85.54Y-98.41
X85.54Y-100.95
X85.54Y-103.49
X85.54Y-106.03
X85.54Y-108.57
X85.54Y-111.11
X85.54Y-113.65
X85.54Y-116.19
X100.625Y-122.725
X100.625Y-125.265
X104.725Y-77.375
X107.265Y-77.375
M30
