%TF.GenerationSoftware,KiCad,Pcbnew,8.0.4*%
%TF.CreationDate,2024-09-21T16:00:35+01:00*%
%TF.ProjectId,AmigaDualFloppyInterface,416d6967-6144-4756-916c-466c6f707079,1.0*%
%TF.SameCoordinates,Original*%
%TF.FileFunction,Drillmap*%
%TF.FilePolarity,Positive*%
%FSLAX45Y45*%
G04 Gerber Fmt 4.5, Leading zero omitted, Abs format (unit mm)*
G04 Created by KiCad (PCBNEW 8.0.4) date 2024-09-21 16:00:35*
%MOMM*%
%LPD*%
G01*
G04 APERTURE LIST*
%ADD10C,0.050000*%
%ADD11C,0.200000*%
G04 APERTURE END LIST*
D10*
X11400000Y-13800000D02*
X5800000Y-13800000D01*
X5800000Y-6641141D01*
X11400000Y-6641141D01*
X11400000Y-13800000D01*
D11*
X6058277Y-14113984D02*
X6058277Y-13913984D01*
X6058277Y-13913984D02*
X6105896Y-13913984D01*
X6105896Y-13913984D02*
X6134467Y-13923508D01*
X6134467Y-13923508D02*
X6153515Y-13942555D01*
X6153515Y-13942555D02*
X6163039Y-13961603D01*
X6163039Y-13961603D02*
X6172562Y-13999698D01*
X6172562Y-13999698D02*
X6172562Y-14028269D01*
X6172562Y-14028269D02*
X6163039Y-14066365D01*
X6163039Y-14066365D02*
X6153515Y-14085412D01*
X6153515Y-14085412D02*
X6134467Y-14104460D01*
X6134467Y-14104460D02*
X6105896Y-14113984D01*
X6105896Y-14113984D02*
X6058277Y-14113984D01*
X6258277Y-14113984D02*
X6258277Y-13980650D01*
X6258277Y-14018746D02*
X6267801Y-13999698D01*
X6267801Y-13999698D02*
X6277324Y-13990174D01*
X6277324Y-13990174D02*
X6296372Y-13980650D01*
X6296372Y-13980650D02*
X6315420Y-13980650D01*
X6382086Y-14113984D02*
X6382086Y-13980650D01*
X6382086Y-13913984D02*
X6372562Y-13923508D01*
X6372562Y-13923508D02*
X6382086Y-13933031D01*
X6382086Y-13933031D02*
X6391610Y-13923508D01*
X6391610Y-13923508D02*
X6382086Y-13913984D01*
X6382086Y-13913984D02*
X6382086Y-13933031D01*
X6505896Y-14113984D02*
X6486848Y-14104460D01*
X6486848Y-14104460D02*
X6477324Y-14085412D01*
X6477324Y-14085412D02*
X6477324Y-13913984D01*
X6610658Y-14113984D02*
X6591610Y-14104460D01*
X6591610Y-14104460D02*
X6582086Y-14085412D01*
X6582086Y-14085412D02*
X6582086Y-13913984D01*
X6839229Y-14113984D02*
X6839229Y-13913984D01*
X6839229Y-13913984D02*
X6905896Y-14056841D01*
X6905896Y-14056841D02*
X6972562Y-13913984D01*
X6972562Y-13913984D02*
X6972562Y-14113984D01*
X7153515Y-14113984D02*
X7153515Y-14009222D01*
X7153515Y-14009222D02*
X7143991Y-13990174D01*
X7143991Y-13990174D02*
X7124943Y-13980650D01*
X7124943Y-13980650D02*
X7086848Y-13980650D01*
X7086848Y-13980650D02*
X7067801Y-13990174D01*
X7153515Y-14104460D02*
X7134467Y-14113984D01*
X7134467Y-14113984D02*
X7086848Y-14113984D01*
X7086848Y-14113984D02*
X7067801Y-14104460D01*
X7067801Y-14104460D02*
X7058277Y-14085412D01*
X7058277Y-14085412D02*
X7058277Y-14066365D01*
X7058277Y-14066365D02*
X7067801Y-14047317D01*
X7067801Y-14047317D02*
X7086848Y-14037793D01*
X7086848Y-14037793D02*
X7134467Y-14037793D01*
X7134467Y-14037793D02*
X7153515Y-14028269D01*
X7248753Y-13980650D02*
X7248753Y-14180650D01*
X7248753Y-13990174D02*
X7267801Y-13980650D01*
X7267801Y-13980650D02*
X7305896Y-13980650D01*
X7305896Y-13980650D02*
X7324943Y-13990174D01*
X7324943Y-13990174D02*
X7334467Y-13999698D01*
X7334467Y-13999698D02*
X7343991Y-14018746D01*
X7343991Y-14018746D02*
X7343991Y-14075888D01*
X7343991Y-14075888D02*
X7334467Y-14094936D01*
X7334467Y-14094936D02*
X7324943Y-14104460D01*
X7324943Y-14104460D02*
X7305896Y-14113984D01*
X7305896Y-14113984D02*
X7267801Y-14113984D01*
X7267801Y-14113984D02*
X7248753Y-14104460D01*
X7429705Y-14094936D02*
X7439229Y-14104460D01*
X7439229Y-14104460D02*
X7429705Y-14113984D01*
X7429705Y-14113984D02*
X7420182Y-14104460D01*
X7420182Y-14104460D02*
X7429705Y-14094936D01*
X7429705Y-14094936D02*
X7429705Y-14113984D01*
X7429705Y-13990174D02*
X7439229Y-13999698D01*
X7439229Y-13999698D02*
X7429705Y-14009222D01*
X7429705Y-14009222D02*
X7420182Y-13999698D01*
X7420182Y-13999698D02*
X7429705Y-13990174D01*
X7429705Y-13990174D02*
X7429705Y-14009222D01*
M02*
