M48
; DRILL file {KiCad 8.0.4} date 2024-09-21T16:00:19+0100
; FORMAT={-:-/ absolute / metric / decimal}
; #@! TF.CreationDate,2024-09-21T16:00:19+01:00
; #@! TF.GenerationSoftware,Kicad,Pcbnew,8.0.4
; #@! TF.FileFunction,Plated,1,2,PTH
FMAT,2
METRIC
; #@! TA.AperFunction,Plated,PTH,ViaDrill
T1C0.300
; #@! TA.AperFunction,Plated,PTH,ComponentDrill
T2C0.750
; #@! TA.AperFunction,Plated,PTH,ComponentDrill
T3C0.800
; #@! TA.AperFunction,Plated,PTH,ComponentDrill
T4C1.000
%
G90
G05
T1
X88.0Y-117.0
X95.0Y-82.08
X95.0Y-115.0
X95.0Y-117.0
X100.429Y-104.0
X100.5Y-106.615
X105.0Y-98.0
X105.23Y-104.566
X106.43Y-106.0
X107.176Y-98.0
X107.651Y-104.5
T2
X94.965Y-122.0
X96.235Y-122.0
X97.505Y-122.0
T3
X91.0Y-77.0
X91.0Y-79.54
X91.0Y-82.08
X91.0Y-84.62
X91.0Y-87.16
X91.0Y-89.7
X91.0Y-92.24
X91.0Y-94.78
X91.2Y-102.375
X91.2Y-104.915
X91.2Y-107.455
X91.2Y-109.995
X91.2Y-112.535
X91.2Y-115.075
X91.2Y-117.615
X92.38Y-69.0
X93.376Y-98.186
X93.74Y-72.961
X98.376Y-98.186
X98.62Y-77.0
X98.62Y-79.54
X98.62Y-82.08
X98.62Y-84.62
X98.62Y-87.16
X98.62Y-89.7
X98.62Y-92.24
X98.62Y-94.78
X98.74Y-72.961
X98.82Y-102.375
X98.82Y-104.915
X98.82Y-107.455
X98.82Y-109.995
X98.82Y-112.535
X98.82Y-115.075
X98.82Y-117.615
X100.0Y-69.0
X102.2Y-84.0
X102.2Y-86.54
X102.2Y-89.08
X102.2Y-91.62
X102.2Y-94.16
X102.2Y-96.7
X102.2Y-99.24
X103.38Y-103.0
X103.38Y-106.0
X103.38Y-109.0
X103.38Y-112.0
X103.38Y-115.0
X103.38Y-118.0
X103.38Y-121.0
X104.5Y-80.508
X109.5Y-80.508
X109.82Y-84.0
X109.82Y-86.54
X109.82Y-89.08
X109.82Y-91.62
X109.82Y-94.16
X109.82Y-96.7
X109.82Y-99.24
X111.0Y-103.0
X111.0Y-106.0
X111.0Y-109.0
X111.0Y-112.0
X111.0Y-115.0
X111.0Y-118.0
X111.0Y-121.0
T4
X67.415Y-75.55
X67.415Y-78.09
X67.415Y-80.63
X67.415Y-83.17
X67.415Y-85.71
X67.415Y-88.25
X67.415Y-90.79
X67.415Y-93.33
X67.415Y-95.87
X67.415Y-98.41
X67.415Y-100.95
X67.415Y-103.49
X67.415Y-106.03
X67.415Y-108.57
X67.415Y-111.11
X67.415Y-113.65
X67.415Y-116.19
X69.955Y-75.55
X69.955Y-78.09
X69.955Y-80.63
X69.955Y-83.17
X69.955Y-85.71
X69.955Y-88.25
X69.955Y-90.79
X69.955Y-93.33
X69.955Y-95.87
X69.955Y-98.41
X69.955Y-100.95
X69.955Y-103.49
X69.955Y-106.03
X69.955Y-108.57
X69.955Y-111.11
X69.955Y-113.65
X69.955Y-116.19
X75.0Y-75.38
X75.0Y-77.92
X75.0Y-80.46
X75.0Y-83.0
X75.0Y-85.54
X75.0Y-88.08
X75.0Y-90.62
X75.0Y-93.16
X75.0Y-95.7
X75.0Y-98.24
X75.0Y-100.78
X75.0Y-103.32
X75.0Y-105.86
X75.0Y-108.4
X75.0Y-110.94
X75.0Y-113.48
X75.0Y-116.02
X75.75Y-122.77
X75.75Y-125.31
X75.75Y-127.85
X75.75Y-130.39
X77.54Y-75.38
X77.54Y-77.92
X77.54Y-80.46
X77.54Y-83.0
X77.54Y-85.54
X77.54Y-88.08
X77.54Y-90.62
X77.54Y-93.16
X77.54Y-95.7
X77.54Y-98.24
X77.54Y-100.78
X77.54Y-103.32
X77.54Y-105.86
X77.54Y-108.4
X77.54Y-110.94
X77.54Y-113.48
X77.54Y-116.02
X79.613Y-127.998
X79.613Y-130.538
X79.613Y-133.078
X79.613Y-135.618
X83.0Y-75.55
X83.0Y-78.09
X83.0Y-80.63
X83.0Y-83.17
X83.0Y-85.71
X83.0Y-88.25
X83.0Y-90.79
X83.0Y-93.33
X83.0Y-95.87
X83.0Y-98.41
X83.0Y-100.95
X83.0Y-103.49
X83.0Y-106.03
X83.0Y-108.57
X83.0Y-111.11
X83.0Y-113.65
X83.0Y-116.19
X85.54Y-75.55
X85.54Y-78.09
X85.54Y-80.63
X85.54Y-83.17
X85.54Y-85.71
X85.54Y-88.25
X85.54Y-90.79
X85.54Y-93.33
X85.54Y-95.87
X85.54Y-98.41
X85.54Y-100.95
X85.54Y-103.49
X85.54Y-106.03
X85.54Y-108.57
X85.54Y-111.11
X85.54Y-113.65
X85.54Y-116.19
X103.0Y-125.0
X103.0Y-127.54
X103.0Y-133.0
X103.0Y-135.54
X104.989Y-77.29
X107.529Y-77.29
M30
