G04 #@! TF.GenerationSoftware,KiCad,Pcbnew,8.0.4*
G04 #@! TF.CreationDate,2024-09-21T15:59:35+01:00*
G04 #@! TF.ProjectId,AmigaDualFloppyInterface,416d6967-6144-4756-916c-466c6f707079,1.0*
G04 #@! TF.SameCoordinates,Original*
G04 #@! TF.FileFunction,Legend,Top*
G04 #@! TF.FilePolarity,Positive*
%FSLAX46Y46*%
G04 Gerber Fmt 4.6, Leading zero omitted, Abs format (unit mm)*
G04 Created by KiCad (PCBNEW 8.0.4) date 2024-09-21 15:59:35*
%MOMM*%
%LPD*%
G01*
G04 APERTURE LIST*
G04 Aperture macros list*
%AMRoundRect*
0 Rectangle with rounded corners*
0 $1 Rounding radius*
0 $2 $3 $4 $5 $6 $7 $8 $9 X,Y pos of 4 corners*
0 Add a 4 corners polygon primitive as box body*
4,1,4,$2,$3,$4,$5,$6,$7,$8,$9,$2,$3,0*
0 Add four circle primitives for the rounded corners*
1,1,$1+$1,$2,$3*
1,1,$1+$1,$4,$5*
1,1,$1+$1,$6,$7*
1,1,$1+$1,$8,$9*
0 Add four rect primitives between the rounded corners*
20,1,$1+$1,$2,$3,$4,$5,0*
20,1,$1+$1,$4,$5,$6,$7,0*
20,1,$1+$1,$6,$7,$8,$9,0*
20,1,$1+$1,$8,$9,$2,$3,0*%
G04 Aperture macros list end*
%ADD10C,0.100000*%
%ADD11C,0.110000*%
%ADD12C,0.150000*%
%ADD13C,0.120000*%
%ADD14C,0.000000*%
%ADD15C,1.600000*%
%ADD16O,1.600000X1.600000*%
%ADD17R,1.050000X1.500000*%
%ADD18O,1.050000X1.500000*%
%ADD19R,1.700000X1.700000*%
%ADD20O,1.700000X1.700000*%
%ADD21R,1.600000X1.600000*%
%ADD22RoundRect,0.250000X-0.600000X-0.600000X0.600000X-0.600000X0.600000X0.600000X-0.600000X0.600000X0*%
%ADD23C,1.700000*%
G04 APERTURE END LIST*
D10*
X109528291Y-73652590D02*
X110337814Y-73652590D01*
X110337814Y-73652590D02*
X110433052Y-73604971D01*
X110433052Y-73604971D02*
X110480672Y-73557352D01*
X110480672Y-73557352D02*
X110528291Y-73462114D01*
X110528291Y-73462114D02*
X110528291Y-73271638D01*
X110528291Y-73271638D02*
X110480672Y-73176400D01*
X110480672Y-73176400D02*
X110433052Y-73128781D01*
X110433052Y-73128781D02*
X110337814Y-73081162D01*
X110337814Y-73081162D02*
X109528291Y-73081162D01*
X109528291Y-72700209D02*
X109528291Y-72081162D01*
X109528291Y-72081162D02*
X109909243Y-72414495D01*
X109909243Y-72414495D02*
X109909243Y-72271638D01*
X109909243Y-72271638D02*
X109956862Y-72176400D01*
X109956862Y-72176400D02*
X110004481Y-72128781D01*
X110004481Y-72128781D02*
X110099719Y-72081162D01*
X110099719Y-72081162D02*
X110337814Y-72081162D01*
X110337814Y-72081162D02*
X110433052Y-72128781D01*
X110433052Y-72128781D02*
X110480672Y-72176400D01*
X110480672Y-72176400D02*
X110528291Y-72271638D01*
X110528291Y-72271638D02*
X110528291Y-72557352D01*
X110528291Y-72557352D02*
X110480672Y-72652590D01*
X110480672Y-72652590D02*
X110433052Y-72700209D01*
X109528291Y-71224019D02*
X109528291Y-71414495D01*
X109528291Y-71414495D02*
X109575910Y-71509733D01*
X109575910Y-71509733D02*
X109623529Y-71557352D01*
X109623529Y-71557352D02*
X109766386Y-71652590D01*
X109766386Y-71652590D02*
X109956862Y-71700209D01*
X109956862Y-71700209D02*
X110337814Y-71700209D01*
X110337814Y-71700209D02*
X110433052Y-71652590D01*
X110433052Y-71652590D02*
X110480672Y-71604971D01*
X110480672Y-71604971D02*
X110528291Y-71509733D01*
X110528291Y-71509733D02*
X110528291Y-71319257D01*
X110528291Y-71319257D02*
X110480672Y-71224019D01*
X110480672Y-71224019D02*
X110433052Y-71176400D01*
X110433052Y-71176400D02*
X110337814Y-71128781D01*
X110337814Y-71128781D02*
X110099719Y-71128781D01*
X110099719Y-71128781D02*
X110004481Y-71176400D01*
X110004481Y-71176400D02*
X109956862Y-71224019D01*
X109956862Y-71224019D02*
X109909243Y-71319257D01*
X109909243Y-71319257D02*
X109909243Y-71509733D01*
X109909243Y-71509733D02*
X109956862Y-71604971D01*
X109956862Y-71604971D02*
X110004481Y-71652590D01*
X110004481Y-71652590D02*
X110099719Y-71700209D01*
X110528291Y-69938304D02*
X109528291Y-69938304D01*
X109528291Y-69938304D02*
X109528291Y-69557352D01*
X109528291Y-69557352D02*
X109575910Y-69462114D01*
X109575910Y-69462114D02*
X109623529Y-69414495D01*
X109623529Y-69414495D02*
X109718767Y-69366876D01*
X109718767Y-69366876D02*
X109861624Y-69366876D01*
X109861624Y-69366876D02*
X109956862Y-69414495D01*
X109956862Y-69414495D02*
X110004481Y-69462114D01*
X110004481Y-69462114D02*
X110052100Y-69557352D01*
X110052100Y-69557352D02*
X110052100Y-69938304D01*
X110528291Y-68938304D02*
X109861624Y-68938304D01*
X109528291Y-68938304D02*
X109575910Y-68985923D01*
X109575910Y-68985923D02*
X109623529Y-68938304D01*
X109623529Y-68938304D02*
X109575910Y-68890685D01*
X109575910Y-68890685D02*
X109528291Y-68938304D01*
X109528291Y-68938304D02*
X109623529Y-68938304D01*
X109861624Y-68462114D02*
X110528291Y-68462114D01*
X109956862Y-68462114D02*
X109909243Y-68414495D01*
X109909243Y-68414495D02*
X109861624Y-68319257D01*
X109861624Y-68319257D02*
X109861624Y-68176400D01*
X109861624Y-68176400D02*
X109909243Y-68081162D01*
X109909243Y-68081162D02*
X110004481Y-68033543D01*
X110004481Y-68033543D02*
X110528291Y-68033543D01*
X109528291Y-67652590D02*
X109528291Y-67033543D01*
X109528291Y-67033543D02*
X109909243Y-67366876D01*
X109909243Y-67366876D02*
X109909243Y-67224019D01*
X109909243Y-67224019D02*
X109956862Y-67128781D01*
X109956862Y-67128781D02*
X110004481Y-67081162D01*
X110004481Y-67081162D02*
X110099719Y-67033543D01*
X110099719Y-67033543D02*
X110337814Y-67033543D01*
X110337814Y-67033543D02*
X110433052Y-67081162D01*
X110433052Y-67081162D02*
X110480672Y-67128781D01*
X110480672Y-67128781D02*
X110528291Y-67224019D01*
X110528291Y-67224019D02*
X110528291Y-67509733D01*
X110528291Y-67509733D02*
X110480672Y-67604971D01*
X110480672Y-67604971D02*
X110433052Y-67652590D01*
D11*
X101871899Y-73689536D02*
X102681422Y-73689536D01*
X102681422Y-73689536D02*
X102776660Y-73641917D01*
X102776660Y-73641917D02*
X102824280Y-73594298D01*
X102824280Y-73594298D02*
X102871899Y-73499060D01*
X102871899Y-73499060D02*
X102871899Y-73308584D01*
X102871899Y-73308584D02*
X102824280Y-73213346D01*
X102824280Y-73213346D02*
X102776660Y-73165727D01*
X102776660Y-73165727D02*
X102681422Y-73118108D01*
X102681422Y-73118108D02*
X101871899Y-73118108D01*
X101871899Y-72737155D02*
X101871899Y-72118108D01*
X101871899Y-72118108D02*
X102252851Y-72451441D01*
X102252851Y-72451441D02*
X102252851Y-72308584D01*
X102252851Y-72308584D02*
X102300470Y-72213346D01*
X102300470Y-72213346D02*
X102348089Y-72165727D01*
X102348089Y-72165727D02*
X102443327Y-72118108D01*
X102443327Y-72118108D02*
X102681422Y-72118108D01*
X102681422Y-72118108D02*
X102776660Y-72165727D01*
X102776660Y-72165727D02*
X102824280Y-72213346D01*
X102824280Y-72213346D02*
X102871899Y-72308584D01*
X102871899Y-72308584D02*
X102871899Y-72594298D01*
X102871899Y-72594298D02*
X102824280Y-72689536D01*
X102824280Y-72689536D02*
X102776660Y-72737155D01*
X101871899Y-71784774D02*
X101871899Y-71118108D01*
X101871899Y-71118108D02*
X102871899Y-71546679D01*
X102871899Y-69975250D02*
X101871899Y-69975250D01*
X101871899Y-69975250D02*
X101871899Y-69594298D01*
X101871899Y-69594298D02*
X101919518Y-69499060D01*
X101919518Y-69499060D02*
X101967137Y-69451441D01*
X101967137Y-69451441D02*
X102062375Y-69403822D01*
X102062375Y-69403822D02*
X102205232Y-69403822D01*
X102205232Y-69403822D02*
X102300470Y-69451441D01*
X102300470Y-69451441D02*
X102348089Y-69499060D01*
X102348089Y-69499060D02*
X102395708Y-69594298D01*
X102395708Y-69594298D02*
X102395708Y-69975250D01*
X102871899Y-68975250D02*
X102205232Y-68975250D01*
X101871899Y-68975250D02*
X101919518Y-69022869D01*
X101919518Y-69022869D02*
X101967137Y-68975250D01*
X101967137Y-68975250D02*
X101919518Y-68927631D01*
X101919518Y-68927631D02*
X101871899Y-68975250D01*
X101871899Y-68975250D02*
X101967137Y-68975250D01*
X102205232Y-68499060D02*
X102871899Y-68499060D01*
X102300470Y-68499060D02*
X102252851Y-68451441D01*
X102252851Y-68451441D02*
X102205232Y-68356203D01*
X102205232Y-68356203D02*
X102205232Y-68213346D01*
X102205232Y-68213346D02*
X102252851Y-68118108D01*
X102252851Y-68118108D02*
X102348089Y-68070489D01*
X102348089Y-68070489D02*
X102871899Y-68070489D01*
X102300470Y-67451441D02*
X102252851Y-67546679D01*
X102252851Y-67546679D02*
X102205232Y-67594298D01*
X102205232Y-67594298D02*
X102109994Y-67641917D01*
X102109994Y-67641917D02*
X102062375Y-67641917D01*
X102062375Y-67641917D02*
X101967137Y-67594298D01*
X101967137Y-67594298D02*
X101919518Y-67546679D01*
X101919518Y-67546679D02*
X101871899Y-67451441D01*
X101871899Y-67451441D02*
X101871899Y-67260965D01*
X101871899Y-67260965D02*
X101919518Y-67165727D01*
X101919518Y-67165727D02*
X101967137Y-67118108D01*
X101967137Y-67118108D02*
X102062375Y-67070489D01*
X102062375Y-67070489D02*
X102109994Y-67070489D01*
X102109994Y-67070489D02*
X102205232Y-67118108D01*
X102205232Y-67118108D02*
X102252851Y-67165727D01*
X102252851Y-67165727D02*
X102300470Y-67260965D01*
X102300470Y-67260965D02*
X102300470Y-67451441D01*
X102300470Y-67451441D02*
X102348089Y-67546679D01*
X102348089Y-67546679D02*
X102395708Y-67594298D01*
X102395708Y-67594298D02*
X102490946Y-67641917D01*
X102490946Y-67641917D02*
X102681422Y-67641917D01*
X102681422Y-67641917D02*
X102776660Y-67594298D01*
X102776660Y-67594298D02*
X102824280Y-67546679D01*
X102824280Y-67546679D02*
X102871899Y-67451441D01*
X102871899Y-67451441D02*
X102871899Y-67260965D01*
X102871899Y-67260965D02*
X102824280Y-67165727D01*
X102824280Y-67165727D02*
X102776660Y-67118108D01*
X102776660Y-67118108D02*
X102681422Y-67070489D01*
X102681422Y-67070489D02*
X102490946Y-67070489D01*
X102490946Y-67070489D02*
X102395708Y-67118108D01*
X102395708Y-67118108D02*
X102348089Y-67165727D01*
X102348089Y-67165727D02*
X102300470Y-67260965D01*
D12*
X81336779Y-122869819D02*
X81336779Y-121869819D01*
X81336779Y-121869819D02*
X81574874Y-121869819D01*
X81574874Y-121869819D02*
X81717731Y-121917438D01*
X81717731Y-121917438D02*
X81812969Y-122012676D01*
X81812969Y-122012676D02*
X81860588Y-122107914D01*
X81860588Y-122107914D02*
X81908207Y-122298390D01*
X81908207Y-122298390D02*
X81908207Y-122441247D01*
X81908207Y-122441247D02*
X81860588Y-122631723D01*
X81860588Y-122631723D02*
X81812969Y-122726961D01*
X81812969Y-122726961D02*
X81717731Y-122822200D01*
X81717731Y-122822200D02*
X81574874Y-122869819D01*
X81574874Y-122869819D02*
X81336779Y-122869819D01*
X82336779Y-122869819D02*
X82336779Y-122203152D01*
X82336779Y-122393628D02*
X82384398Y-122298390D01*
X82384398Y-122298390D02*
X82432017Y-122250771D01*
X82432017Y-122250771D02*
X82527255Y-122203152D01*
X82527255Y-122203152D02*
X82622493Y-122203152D01*
X82955827Y-122869819D02*
X82955827Y-122203152D01*
X82955827Y-121869819D02*
X82908208Y-121917438D01*
X82908208Y-121917438D02*
X82955827Y-121965057D01*
X82955827Y-121965057D02*
X83003446Y-121917438D01*
X83003446Y-121917438D02*
X82955827Y-121869819D01*
X82955827Y-121869819D02*
X82955827Y-121965057D01*
X83336779Y-122203152D02*
X83574874Y-122869819D01*
X83574874Y-122869819D02*
X83812969Y-122203152D01*
X84574874Y-122822200D02*
X84479636Y-122869819D01*
X84479636Y-122869819D02*
X84289160Y-122869819D01*
X84289160Y-122869819D02*
X84193922Y-122822200D01*
X84193922Y-122822200D02*
X84146303Y-122726961D01*
X84146303Y-122726961D02*
X84146303Y-122346009D01*
X84146303Y-122346009D02*
X84193922Y-122250771D01*
X84193922Y-122250771D02*
X84289160Y-122203152D01*
X84289160Y-122203152D02*
X84479636Y-122203152D01*
X84479636Y-122203152D02*
X84574874Y-122250771D01*
X84574874Y-122250771D02*
X84622493Y-122346009D01*
X84622493Y-122346009D02*
X84622493Y-122441247D01*
X84622493Y-122441247D02*
X84146303Y-122536485D01*
X85765351Y-122584104D02*
X86241541Y-122584104D01*
X85670113Y-122869819D02*
X86003446Y-121869819D01*
X86003446Y-121869819D02*
X86336779Y-122869819D01*
X66336779Y-122869819D02*
X66336779Y-121869819D01*
X66336779Y-121869819D02*
X66574874Y-121869819D01*
X66574874Y-121869819D02*
X66717731Y-121917438D01*
X66717731Y-121917438D02*
X66812969Y-122012676D01*
X66812969Y-122012676D02*
X66860588Y-122107914D01*
X66860588Y-122107914D02*
X66908207Y-122298390D01*
X66908207Y-122298390D02*
X66908207Y-122441247D01*
X66908207Y-122441247D02*
X66860588Y-122631723D01*
X66860588Y-122631723D02*
X66812969Y-122726961D01*
X66812969Y-122726961D02*
X66717731Y-122822200D01*
X66717731Y-122822200D02*
X66574874Y-122869819D01*
X66574874Y-122869819D02*
X66336779Y-122869819D01*
X67336779Y-122869819D02*
X67336779Y-122203152D01*
X67336779Y-122393628D02*
X67384398Y-122298390D01*
X67384398Y-122298390D02*
X67432017Y-122250771D01*
X67432017Y-122250771D02*
X67527255Y-122203152D01*
X67527255Y-122203152D02*
X67622493Y-122203152D01*
X67955827Y-122869819D02*
X67955827Y-122203152D01*
X67955827Y-121869819D02*
X67908208Y-121917438D01*
X67908208Y-121917438D02*
X67955827Y-121965057D01*
X67955827Y-121965057D02*
X68003446Y-121917438D01*
X68003446Y-121917438D02*
X67955827Y-121869819D01*
X67955827Y-121869819D02*
X67955827Y-121965057D01*
X68336779Y-122203152D02*
X68574874Y-122869819D01*
X68574874Y-122869819D02*
X68812969Y-122203152D01*
X69574874Y-122822200D02*
X69479636Y-122869819D01*
X69479636Y-122869819D02*
X69289160Y-122869819D01*
X69289160Y-122869819D02*
X69193922Y-122822200D01*
X69193922Y-122822200D02*
X69146303Y-122726961D01*
X69146303Y-122726961D02*
X69146303Y-122346009D01*
X69146303Y-122346009D02*
X69193922Y-122250771D01*
X69193922Y-122250771D02*
X69289160Y-122203152D01*
X69289160Y-122203152D02*
X69479636Y-122203152D01*
X69479636Y-122203152D02*
X69574874Y-122250771D01*
X69574874Y-122250771D02*
X69622493Y-122346009D01*
X69622493Y-122346009D02*
X69622493Y-122441247D01*
X69622493Y-122441247D02*
X69146303Y-122536485D01*
X71146303Y-122346009D02*
X71289160Y-122393628D01*
X71289160Y-122393628D02*
X71336779Y-122441247D01*
X71336779Y-122441247D02*
X71384398Y-122536485D01*
X71384398Y-122536485D02*
X71384398Y-122679342D01*
X71384398Y-122679342D02*
X71336779Y-122774580D01*
X71336779Y-122774580D02*
X71289160Y-122822200D01*
X71289160Y-122822200D02*
X71193922Y-122869819D01*
X71193922Y-122869819D02*
X70812970Y-122869819D01*
X70812970Y-122869819D02*
X70812970Y-121869819D01*
X70812970Y-121869819D02*
X71146303Y-121869819D01*
X71146303Y-121869819D02*
X71241541Y-121917438D01*
X71241541Y-121917438D02*
X71289160Y-121965057D01*
X71289160Y-121965057D02*
X71336779Y-122060295D01*
X71336779Y-122060295D02*
X71336779Y-122155533D01*
X71336779Y-122155533D02*
X71289160Y-122250771D01*
X71289160Y-122250771D02*
X71241541Y-122298390D01*
X71241541Y-122298390D02*
X71146303Y-122346009D01*
X71146303Y-122346009D02*
X70812970Y-122346009D01*
X107604813Y-137195164D02*
X107747670Y-137242783D01*
X107747670Y-137242783D02*
X107985765Y-137242783D01*
X107985765Y-137242783D02*
X108081003Y-137195164D01*
X108081003Y-137195164D02*
X108128622Y-137147544D01*
X108128622Y-137147544D02*
X108176241Y-137052306D01*
X108176241Y-137052306D02*
X108176241Y-136957068D01*
X108176241Y-136957068D02*
X108128622Y-136861830D01*
X108128622Y-136861830D02*
X108081003Y-136814211D01*
X108081003Y-136814211D02*
X107985765Y-136766592D01*
X107985765Y-136766592D02*
X107795289Y-136718973D01*
X107795289Y-136718973D02*
X107700051Y-136671354D01*
X107700051Y-136671354D02*
X107652432Y-136623735D01*
X107652432Y-136623735D02*
X107604813Y-136528497D01*
X107604813Y-136528497D02*
X107604813Y-136433259D01*
X107604813Y-136433259D02*
X107652432Y-136338021D01*
X107652432Y-136338021D02*
X107700051Y-136290402D01*
X107700051Y-136290402D02*
X107795289Y-136242783D01*
X107795289Y-136242783D02*
X108033384Y-136242783D01*
X108033384Y-136242783D02*
X108176241Y-136290402D01*
X108509575Y-136242783D02*
X108747670Y-137242783D01*
X108747670Y-137242783D02*
X108938146Y-136528497D01*
X108938146Y-136528497D02*
X109128622Y-137242783D01*
X109128622Y-137242783D02*
X109366718Y-136242783D01*
X110319098Y-137147544D02*
X110271479Y-137195164D01*
X110271479Y-137195164D02*
X110128622Y-137242783D01*
X110128622Y-137242783D02*
X110033384Y-137242783D01*
X110033384Y-137242783D02*
X109890527Y-137195164D01*
X109890527Y-137195164D02*
X109795289Y-137099925D01*
X109795289Y-137099925D02*
X109747670Y-137004687D01*
X109747670Y-137004687D02*
X109700051Y-136814211D01*
X109700051Y-136814211D02*
X109700051Y-136671354D01*
X109700051Y-136671354D02*
X109747670Y-136480878D01*
X109747670Y-136480878D02*
X109795289Y-136385640D01*
X109795289Y-136385640D02*
X109890527Y-136290402D01*
X109890527Y-136290402D02*
X110033384Y-136242783D01*
X110033384Y-136242783D02*
X110128622Y-136242783D01*
X110128622Y-136242783D02*
X110271479Y-136290402D01*
X110271479Y-136290402D02*
X110319098Y-136338021D01*
X110747670Y-137242783D02*
X110747670Y-136242783D01*
X110747670Y-136718973D02*
X111319098Y-136718973D01*
X111319098Y-137242783D02*
X111319098Y-136242783D01*
D10*
X59652531Y-119124687D02*
X59176340Y-119458020D01*
X59652531Y-119696115D02*
X58652531Y-119696115D01*
X58652531Y-119696115D02*
X58652531Y-119315163D01*
X58652531Y-119315163D02*
X58700150Y-119219925D01*
X58700150Y-119219925D02*
X58747769Y-119172306D01*
X58747769Y-119172306D02*
X58843007Y-119124687D01*
X58843007Y-119124687D02*
X58985864Y-119124687D01*
X58985864Y-119124687D02*
X59081102Y-119172306D01*
X59081102Y-119172306D02*
X59128721Y-119219925D01*
X59128721Y-119219925D02*
X59176340Y-119315163D01*
X59176340Y-119315163D02*
X59176340Y-119696115D01*
X59652531Y-118553258D02*
X59604912Y-118648496D01*
X59604912Y-118648496D02*
X59557292Y-118696115D01*
X59557292Y-118696115D02*
X59462054Y-118743734D01*
X59462054Y-118743734D02*
X59176340Y-118743734D01*
X59176340Y-118743734D02*
X59081102Y-118696115D01*
X59081102Y-118696115D02*
X59033483Y-118648496D01*
X59033483Y-118648496D02*
X58985864Y-118553258D01*
X58985864Y-118553258D02*
X58985864Y-118410401D01*
X58985864Y-118410401D02*
X59033483Y-118315163D01*
X59033483Y-118315163D02*
X59081102Y-118267544D01*
X59081102Y-118267544D02*
X59176340Y-118219925D01*
X59176340Y-118219925D02*
X59462054Y-118219925D01*
X59462054Y-118219925D02*
X59557292Y-118267544D01*
X59557292Y-118267544D02*
X59604912Y-118315163D01*
X59604912Y-118315163D02*
X59652531Y-118410401D01*
X59652531Y-118410401D02*
X59652531Y-118553258D01*
X59652531Y-117362782D02*
X58652531Y-117362782D01*
X59604912Y-117362782D02*
X59652531Y-117458020D01*
X59652531Y-117458020D02*
X59652531Y-117648496D01*
X59652531Y-117648496D02*
X59604912Y-117743734D01*
X59604912Y-117743734D02*
X59557292Y-117791353D01*
X59557292Y-117791353D02*
X59462054Y-117838972D01*
X59462054Y-117838972D02*
X59176340Y-117838972D01*
X59176340Y-117838972D02*
X59081102Y-117791353D01*
X59081102Y-117791353D02*
X59033483Y-117743734D01*
X59033483Y-117743734D02*
X58985864Y-117648496D01*
X58985864Y-117648496D02*
X58985864Y-117458020D01*
X58985864Y-117458020D02*
X59033483Y-117362782D01*
X58652531Y-116267543D02*
X58652531Y-115696115D01*
X59652531Y-115981829D02*
X58652531Y-115981829D01*
X59652531Y-115362781D02*
X58652531Y-115362781D01*
X59652531Y-114934210D02*
X59128721Y-114934210D01*
X59128721Y-114934210D02*
X59033483Y-114981829D01*
X59033483Y-114981829D02*
X58985864Y-115077067D01*
X58985864Y-115077067D02*
X58985864Y-115219924D01*
X58985864Y-115219924D02*
X59033483Y-115315162D01*
X59033483Y-115315162D02*
X59081102Y-115362781D01*
X59652531Y-114315162D02*
X59604912Y-114410400D01*
X59604912Y-114410400D02*
X59557292Y-114458019D01*
X59557292Y-114458019D02*
X59462054Y-114505638D01*
X59462054Y-114505638D02*
X59176340Y-114505638D01*
X59176340Y-114505638D02*
X59081102Y-114458019D01*
X59081102Y-114458019D02*
X59033483Y-114410400D01*
X59033483Y-114410400D02*
X58985864Y-114315162D01*
X58985864Y-114315162D02*
X58985864Y-114172305D01*
X58985864Y-114172305D02*
X59033483Y-114077067D01*
X59033483Y-114077067D02*
X59081102Y-114029448D01*
X59081102Y-114029448D02*
X59176340Y-113981829D01*
X59176340Y-113981829D02*
X59462054Y-113981829D01*
X59462054Y-113981829D02*
X59557292Y-114029448D01*
X59557292Y-114029448D02*
X59604912Y-114077067D01*
X59604912Y-114077067D02*
X59652531Y-114172305D01*
X59652531Y-114172305D02*
X59652531Y-114315162D01*
X59652531Y-113553257D02*
X58985864Y-113553257D01*
X59081102Y-113553257D02*
X59033483Y-113505638D01*
X59033483Y-113505638D02*
X58985864Y-113410400D01*
X58985864Y-113410400D02*
X58985864Y-113267543D01*
X58985864Y-113267543D02*
X59033483Y-113172305D01*
X59033483Y-113172305D02*
X59128721Y-113124686D01*
X59128721Y-113124686D02*
X59652531Y-113124686D01*
X59128721Y-113124686D02*
X59033483Y-113077067D01*
X59033483Y-113077067D02*
X58985864Y-112981829D01*
X58985864Y-112981829D02*
X58985864Y-112838972D01*
X58985864Y-112838972D02*
X59033483Y-112743733D01*
X59033483Y-112743733D02*
X59128721Y-112696114D01*
X59128721Y-112696114D02*
X59652531Y-112696114D01*
X59652531Y-111791353D02*
X59128721Y-111791353D01*
X59128721Y-111791353D02*
X59033483Y-111838972D01*
X59033483Y-111838972D02*
X58985864Y-111934210D01*
X58985864Y-111934210D02*
X58985864Y-112124686D01*
X58985864Y-112124686D02*
X59033483Y-112219924D01*
X59604912Y-111791353D02*
X59652531Y-111886591D01*
X59652531Y-111886591D02*
X59652531Y-112124686D01*
X59652531Y-112124686D02*
X59604912Y-112219924D01*
X59604912Y-112219924D02*
X59509673Y-112267543D01*
X59509673Y-112267543D02*
X59414435Y-112267543D01*
X59414435Y-112267543D02*
X59319197Y-112219924D01*
X59319197Y-112219924D02*
X59271578Y-112124686D01*
X59271578Y-112124686D02*
X59271578Y-111886591D01*
X59271578Y-111886591D02*
X59223959Y-111791353D01*
X59604912Y-111362781D02*
X59652531Y-111267543D01*
X59652531Y-111267543D02*
X59652531Y-111077067D01*
X59652531Y-111077067D02*
X59604912Y-110981829D01*
X59604912Y-110981829D02*
X59509673Y-110934210D01*
X59509673Y-110934210D02*
X59462054Y-110934210D01*
X59462054Y-110934210D02*
X59366816Y-110981829D01*
X59366816Y-110981829D02*
X59319197Y-111077067D01*
X59319197Y-111077067D02*
X59319197Y-111219924D01*
X59319197Y-111219924D02*
X59271578Y-111315162D01*
X59271578Y-111315162D02*
X59176340Y-111362781D01*
X59176340Y-111362781D02*
X59128721Y-111362781D01*
X59128721Y-111362781D02*
X59033483Y-111315162D01*
X59033483Y-111315162D02*
X58985864Y-111219924D01*
X58985864Y-111219924D02*
X58985864Y-111077067D01*
X58985864Y-111077067D02*
X59033483Y-110981829D01*
X59271578Y-109743733D02*
X59271578Y-108981829D01*
X59652531Y-107743733D02*
X58652531Y-107743733D01*
X58652531Y-107743733D02*
X58652531Y-107362781D01*
X58652531Y-107362781D02*
X58700150Y-107267543D01*
X58700150Y-107267543D02*
X58747769Y-107219924D01*
X58747769Y-107219924D02*
X58843007Y-107172305D01*
X58843007Y-107172305D02*
X58985864Y-107172305D01*
X58985864Y-107172305D02*
X59081102Y-107219924D01*
X59081102Y-107219924D02*
X59128721Y-107267543D01*
X59128721Y-107267543D02*
X59176340Y-107362781D01*
X59176340Y-107362781D02*
X59176340Y-107743733D01*
X59652531Y-106315162D02*
X59128721Y-106315162D01*
X59128721Y-106315162D02*
X59033483Y-106362781D01*
X59033483Y-106362781D02*
X58985864Y-106458019D01*
X58985864Y-106458019D02*
X58985864Y-106648495D01*
X58985864Y-106648495D02*
X59033483Y-106743733D01*
X59604912Y-106315162D02*
X59652531Y-106410400D01*
X59652531Y-106410400D02*
X59652531Y-106648495D01*
X59652531Y-106648495D02*
X59604912Y-106743733D01*
X59604912Y-106743733D02*
X59509673Y-106791352D01*
X59509673Y-106791352D02*
X59414435Y-106791352D01*
X59414435Y-106791352D02*
X59319197Y-106743733D01*
X59319197Y-106743733D02*
X59271578Y-106648495D01*
X59271578Y-106648495D02*
X59271578Y-106410400D01*
X59271578Y-106410400D02*
X59223959Y-106315162D01*
X59652531Y-105838971D02*
X58985864Y-105838971D01*
X59176340Y-105838971D02*
X59081102Y-105791352D01*
X59081102Y-105791352D02*
X59033483Y-105743733D01*
X59033483Y-105743733D02*
X58985864Y-105648495D01*
X58985864Y-105648495D02*
X58985864Y-105553257D01*
X59652531Y-105219923D02*
X58652531Y-105219923D01*
X59271578Y-105124685D02*
X59652531Y-104838971D01*
X58985864Y-104838971D02*
X59366816Y-105219923D01*
X59604912Y-104458018D02*
X59652531Y-104362780D01*
X59652531Y-104362780D02*
X59652531Y-104172304D01*
X59652531Y-104172304D02*
X59604912Y-104077066D01*
X59604912Y-104077066D02*
X59509673Y-104029447D01*
X59509673Y-104029447D02*
X59462054Y-104029447D01*
X59462054Y-104029447D02*
X59366816Y-104077066D01*
X59366816Y-104077066D02*
X59319197Y-104172304D01*
X59319197Y-104172304D02*
X59319197Y-104315161D01*
X59319197Y-104315161D02*
X59271578Y-104410399D01*
X59271578Y-104410399D02*
X59176340Y-104458018D01*
X59176340Y-104458018D02*
X59128721Y-104458018D01*
X59128721Y-104458018D02*
X59033483Y-104410399D01*
X59033483Y-104410399D02*
X58985864Y-104315161D01*
X58985864Y-104315161D02*
X58985864Y-104172304D01*
X58985864Y-104172304D02*
X59033483Y-104077066D01*
X58985864Y-103696113D02*
X59652531Y-103458018D01*
X58985864Y-103219923D02*
X59652531Y-103458018D01*
X59652531Y-103458018D02*
X59890626Y-103553256D01*
X59890626Y-103553256D02*
X59938245Y-103600875D01*
X59938245Y-103600875D02*
X59985864Y-103696113D01*
X59652531Y-102410399D02*
X58652531Y-102410399D01*
X59604912Y-102410399D02*
X59652531Y-102505637D01*
X59652531Y-102505637D02*
X59652531Y-102696113D01*
X59652531Y-102696113D02*
X59604912Y-102791351D01*
X59604912Y-102791351D02*
X59557292Y-102838970D01*
X59557292Y-102838970D02*
X59462054Y-102886589D01*
X59462054Y-102886589D02*
X59176340Y-102886589D01*
X59176340Y-102886589D02*
X59081102Y-102838970D01*
X59081102Y-102838970D02*
X59033483Y-102791351D01*
X59033483Y-102791351D02*
X58985864Y-102696113D01*
X58985864Y-102696113D02*
X58985864Y-102505637D01*
X58985864Y-102505637D02*
X59033483Y-102410399D01*
X59604912Y-101553256D02*
X59652531Y-101648494D01*
X59652531Y-101648494D02*
X59652531Y-101838970D01*
X59652531Y-101838970D02*
X59604912Y-101934208D01*
X59604912Y-101934208D02*
X59509673Y-101981827D01*
X59509673Y-101981827D02*
X59128721Y-101981827D01*
X59128721Y-101981827D02*
X59033483Y-101934208D01*
X59033483Y-101934208D02*
X58985864Y-101838970D01*
X58985864Y-101838970D02*
X58985864Y-101648494D01*
X58985864Y-101648494D02*
X59033483Y-101553256D01*
X59033483Y-101553256D02*
X59128721Y-101505637D01*
X59128721Y-101505637D02*
X59223959Y-101505637D01*
X59223959Y-101505637D02*
X59319197Y-101981827D01*
X59652531Y-99743732D02*
X59176340Y-100077065D01*
X59652531Y-100315160D02*
X58652531Y-100315160D01*
X58652531Y-100315160D02*
X58652531Y-99934208D01*
X58652531Y-99934208D02*
X58700150Y-99838970D01*
X58700150Y-99838970D02*
X58747769Y-99791351D01*
X58747769Y-99791351D02*
X58843007Y-99743732D01*
X58843007Y-99743732D02*
X58985864Y-99743732D01*
X58985864Y-99743732D02*
X59081102Y-99791351D01*
X59081102Y-99791351D02*
X59128721Y-99838970D01*
X59128721Y-99838970D02*
X59176340Y-99934208D01*
X59176340Y-99934208D02*
X59176340Y-100315160D01*
X59604912Y-98934208D02*
X59652531Y-99029446D01*
X59652531Y-99029446D02*
X59652531Y-99219922D01*
X59652531Y-99219922D02*
X59604912Y-99315160D01*
X59604912Y-99315160D02*
X59509673Y-99362779D01*
X59509673Y-99362779D02*
X59128721Y-99362779D01*
X59128721Y-99362779D02*
X59033483Y-99315160D01*
X59033483Y-99315160D02*
X58985864Y-99219922D01*
X58985864Y-99219922D02*
X58985864Y-99029446D01*
X58985864Y-99029446D02*
X59033483Y-98934208D01*
X59033483Y-98934208D02*
X59128721Y-98886589D01*
X59128721Y-98886589D02*
X59223959Y-98886589D01*
X59223959Y-98886589D02*
X59319197Y-99362779D01*
X58985864Y-98600874D02*
X58985864Y-98219922D01*
X58652531Y-98458017D02*
X59509673Y-98458017D01*
X59509673Y-98458017D02*
X59604912Y-98410398D01*
X59604912Y-98410398D02*
X59652531Y-98315160D01*
X59652531Y-98315160D02*
X59652531Y-98219922D01*
X59652531Y-97886588D02*
X58985864Y-97886588D01*
X59176340Y-97886588D02*
X59081102Y-97838969D01*
X59081102Y-97838969D02*
X59033483Y-97791350D01*
X59033483Y-97791350D02*
X58985864Y-97696112D01*
X58985864Y-97696112D02*
X58985864Y-97600874D01*
X59652531Y-97124683D02*
X59604912Y-97219921D01*
X59604912Y-97219921D02*
X59557292Y-97267540D01*
X59557292Y-97267540D02*
X59462054Y-97315159D01*
X59462054Y-97315159D02*
X59176340Y-97315159D01*
X59176340Y-97315159D02*
X59081102Y-97267540D01*
X59081102Y-97267540D02*
X59033483Y-97219921D01*
X59033483Y-97219921D02*
X58985864Y-97124683D01*
X58985864Y-97124683D02*
X58985864Y-96981826D01*
X58985864Y-96981826D02*
X59033483Y-96886588D01*
X59033483Y-96886588D02*
X59081102Y-96838969D01*
X59081102Y-96838969D02*
X59176340Y-96791350D01*
X59176340Y-96791350D02*
X59462054Y-96791350D01*
X59462054Y-96791350D02*
X59557292Y-96838969D01*
X59557292Y-96838969D02*
X59604912Y-96886588D01*
X59604912Y-96886588D02*
X59652531Y-96981826D01*
X59652531Y-96981826D02*
X59652531Y-97124683D01*
X60976760Y-119743734D02*
X60976760Y-119267544D01*
X61262475Y-119838972D02*
X60262475Y-119505639D01*
X60262475Y-119505639D02*
X61262475Y-119172306D01*
X61262475Y-118838972D02*
X60595808Y-118838972D01*
X60691046Y-118838972D02*
X60643427Y-118791353D01*
X60643427Y-118791353D02*
X60595808Y-118696115D01*
X60595808Y-118696115D02*
X60595808Y-118553258D01*
X60595808Y-118553258D02*
X60643427Y-118458020D01*
X60643427Y-118458020D02*
X60738665Y-118410401D01*
X60738665Y-118410401D02*
X61262475Y-118410401D01*
X60738665Y-118410401D02*
X60643427Y-118362782D01*
X60643427Y-118362782D02*
X60595808Y-118267544D01*
X60595808Y-118267544D02*
X60595808Y-118124687D01*
X60595808Y-118124687D02*
X60643427Y-118029448D01*
X60643427Y-118029448D02*
X60738665Y-117981829D01*
X60738665Y-117981829D02*
X61262475Y-117981829D01*
X61262475Y-117505639D02*
X60595808Y-117505639D01*
X60262475Y-117505639D02*
X60310094Y-117553258D01*
X60310094Y-117553258D02*
X60357713Y-117505639D01*
X60357713Y-117505639D02*
X60310094Y-117458020D01*
X60310094Y-117458020D02*
X60262475Y-117505639D01*
X60262475Y-117505639D02*
X60357713Y-117505639D01*
X60595808Y-116600878D02*
X61405332Y-116600878D01*
X61405332Y-116600878D02*
X61500570Y-116648497D01*
X61500570Y-116648497D02*
X61548189Y-116696116D01*
X61548189Y-116696116D02*
X61595808Y-116791354D01*
X61595808Y-116791354D02*
X61595808Y-116934211D01*
X61595808Y-116934211D02*
X61548189Y-117029449D01*
X61214856Y-116600878D02*
X61262475Y-116696116D01*
X61262475Y-116696116D02*
X61262475Y-116886592D01*
X61262475Y-116886592D02*
X61214856Y-116981830D01*
X61214856Y-116981830D02*
X61167236Y-117029449D01*
X61167236Y-117029449D02*
X61071998Y-117077068D01*
X61071998Y-117077068D02*
X60786284Y-117077068D01*
X60786284Y-117077068D02*
X60691046Y-117029449D01*
X60691046Y-117029449D02*
X60643427Y-116981830D01*
X60643427Y-116981830D02*
X60595808Y-116886592D01*
X60595808Y-116886592D02*
X60595808Y-116696116D01*
X60595808Y-116696116D02*
X60643427Y-116600878D01*
X61262475Y-115696116D02*
X60738665Y-115696116D01*
X60738665Y-115696116D02*
X60643427Y-115743735D01*
X60643427Y-115743735D02*
X60595808Y-115838973D01*
X60595808Y-115838973D02*
X60595808Y-116029449D01*
X60595808Y-116029449D02*
X60643427Y-116124687D01*
X61214856Y-115696116D02*
X61262475Y-115791354D01*
X61262475Y-115791354D02*
X61262475Y-116029449D01*
X61262475Y-116029449D02*
X61214856Y-116124687D01*
X61214856Y-116124687D02*
X61119617Y-116172306D01*
X61119617Y-116172306D02*
X61024379Y-116172306D01*
X61024379Y-116172306D02*
X60929141Y-116124687D01*
X60929141Y-116124687D02*
X60881522Y-116029449D01*
X60881522Y-116029449D02*
X60881522Y-115791354D01*
X60881522Y-115791354D02*
X60833903Y-115696116D01*
X60262475Y-113981830D02*
X60262475Y-114458020D01*
X60262475Y-114458020D02*
X60738665Y-114505639D01*
X60738665Y-114505639D02*
X60691046Y-114458020D01*
X60691046Y-114458020D02*
X60643427Y-114362782D01*
X60643427Y-114362782D02*
X60643427Y-114124687D01*
X60643427Y-114124687D02*
X60691046Y-114029449D01*
X60691046Y-114029449D02*
X60738665Y-113981830D01*
X60738665Y-113981830D02*
X60833903Y-113934211D01*
X60833903Y-113934211D02*
X61071998Y-113934211D01*
X61071998Y-113934211D02*
X61167236Y-113981830D01*
X61167236Y-113981830D02*
X61214856Y-114029449D01*
X61214856Y-114029449D02*
X61262475Y-114124687D01*
X61262475Y-114124687D02*
X61262475Y-114362782D01*
X61262475Y-114362782D02*
X61214856Y-114458020D01*
X61214856Y-114458020D02*
X61167236Y-114505639D01*
X60262475Y-113315163D02*
X60262475Y-113219925D01*
X60262475Y-113219925D02*
X60310094Y-113124687D01*
X60310094Y-113124687D02*
X60357713Y-113077068D01*
X60357713Y-113077068D02*
X60452951Y-113029449D01*
X60452951Y-113029449D02*
X60643427Y-112981830D01*
X60643427Y-112981830D02*
X60881522Y-112981830D01*
X60881522Y-112981830D02*
X61071998Y-113029449D01*
X61071998Y-113029449D02*
X61167236Y-113077068D01*
X61167236Y-113077068D02*
X61214856Y-113124687D01*
X61214856Y-113124687D02*
X61262475Y-113219925D01*
X61262475Y-113219925D02*
X61262475Y-113315163D01*
X61262475Y-113315163D02*
X61214856Y-113410401D01*
X61214856Y-113410401D02*
X61167236Y-113458020D01*
X61167236Y-113458020D02*
X61071998Y-113505639D01*
X61071998Y-113505639D02*
X60881522Y-113553258D01*
X60881522Y-113553258D02*
X60643427Y-113553258D01*
X60643427Y-113553258D02*
X60452951Y-113505639D01*
X60452951Y-113505639D02*
X60357713Y-113458020D01*
X60357713Y-113458020D02*
X60310094Y-113410401D01*
X60310094Y-113410401D02*
X60262475Y-113315163D01*
X60262475Y-112362782D02*
X60262475Y-112267544D01*
X60262475Y-112267544D02*
X60310094Y-112172306D01*
X60310094Y-112172306D02*
X60357713Y-112124687D01*
X60357713Y-112124687D02*
X60452951Y-112077068D01*
X60452951Y-112077068D02*
X60643427Y-112029449D01*
X60643427Y-112029449D02*
X60881522Y-112029449D01*
X60881522Y-112029449D02*
X61071998Y-112077068D01*
X61071998Y-112077068D02*
X61167236Y-112124687D01*
X61167236Y-112124687D02*
X61214856Y-112172306D01*
X61214856Y-112172306D02*
X61262475Y-112267544D01*
X61262475Y-112267544D02*
X61262475Y-112362782D01*
X61262475Y-112362782D02*
X61214856Y-112458020D01*
X61214856Y-112458020D02*
X61167236Y-112505639D01*
X61167236Y-112505639D02*
X61071998Y-112553258D01*
X61071998Y-112553258D02*
X60881522Y-112600877D01*
X60881522Y-112600877D02*
X60643427Y-112600877D01*
X60643427Y-112600877D02*
X60452951Y-112553258D01*
X60452951Y-112553258D02*
X60357713Y-112505639D01*
X60357713Y-112505639D02*
X60310094Y-112458020D01*
X60310094Y-112458020D02*
X60262475Y-112362782D01*
X60262475Y-110410401D02*
X60262475Y-110600877D01*
X60262475Y-110600877D02*
X60310094Y-110696115D01*
X60310094Y-110696115D02*
X60357713Y-110743734D01*
X60357713Y-110743734D02*
X60500570Y-110838972D01*
X60500570Y-110838972D02*
X60691046Y-110886591D01*
X60691046Y-110886591D02*
X61071998Y-110886591D01*
X61071998Y-110886591D02*
X61167236Y-110838972D01*
X61167236Y-110838972D02*
X61214856Y-110791353D01*
X61214856Y-110791353D02*
X61262475Y-110696115D01*
X61262475Y-110696115D02*
X61262475Y-110505639D01*
X61262475Y-110505639D02*
X61214856Y-110410401D01*
X61214856Y-110410401D02*
X61167236Y-110362782D01*
X61167236Y-110362782D02*
X61071998Y-110315163D01*
X61071998Y-110315163D02*
X60833903Y-110315163D01*
X60833903Y-110315163D02*
X60738665Y-110362782D01*
X60738665Y-110362782D02*
X60691046Y-110410401D01*
X60691046Y-110410401D02*
X60643427Y-110505639D01*
X60643427Y-110505639D02*
X60643427Y-110696115D01*
X60643427Y-110696115D02*
X60691046Y-110791353D01*
X60691046Y-110791353D02*
X60738665Y-110838972D01*
X60738665Y-110838972D02*
X60833903Y-110886591D01*
X60976760Y-109934210D02*
X60976760Y-109458020D01*
X61262475Y-110029448D02*
X60262475Y-109696115D01*
X60262475Y-109696115D02*
X61262475Y-109362782D01*
X61262475Y-108267543D02*
X60262475Y-108267543D01*
X60262475Y-108267543D02*
X60262475Y-108029448D01*
X60262475Y-108029448D02*
X60310094Y-107886591D01*
X60310094Y-107886591D02*
X60405332Y-107791353D01*
X60405332Y-107791353D02*
X60500570Y-107743734D01*
X60500570Y-107743734D02*
X60691046Y-107696115D01*
X60691046Y-107696115D02*
X60833903Y-107696115D01*
X60833903Y-107696115D02*
X61024379Y-107743734D01*
X61024379Y-107743734D02*
X61119617Y-107791353D01*
X61119617Y-107791353D02*
X61214856Y-107886591D01*
X61214856Y-107886591D02*
X61262475Y-108029448D01*
X61262475Y-108029448D02*
X61262475Y-108267543D01*
X60595808Y-106838972D02*
X61262475Y-106838972D01*
X60595808Y-107267543D02*
X61119617Y-107267543D01*
X61119617Y-107267543D02*
X61214856Y-107219924D01*
X61214856Y-107219924D02*
X61262475Y-107124686D01*
X61262475Y-107124686D02*
X61262475Y-106981829D01*
X61262475Y-106981829D02*
X61214856Y-106886591D01*
X61214856Y-106886591D02*
X61167236Y-106838972D01*
X61262475Y-105934210D02*
X60738665Y-105934210D01*
X60738665Y-105934210D02*
X60643427Y-105981829D01*
X60643427Y-105981829D02*
X60595808Y-106077067D01*
X60595808Y-106077067D02*
X60595808Y-106267543D01*
X60595808Y-106267543D02*
X60643427Y-106362781D01*
X61214856Y-105934210D02*
X61262475Y-106029448D01*
X61262475Y-106029448D02*
X61262475Y-106267543D01*
X61262475Y-106267543D02*
X61214856Y-106362781D01*
X61214856Y-106362781D02*
X61119617Y-106410400D01*
X61119617Y-106410400D02*
X61024379Y-106410400D01*
X61024379Y-106410400D02*
X60929141Y-106362781D01*
X60929141Y-106362781D02*
X60881522Y-106267543D01*
X60881522Y-106267543D02*
X60881522Y-106029448D01*
X60881522Y-106029448D02*
X60833903Y-105934210D01*
X61262475Y-105315162D02*
X61214856Y-105410400D01*
X61214856Y-105410400D02*
X61119617Y-105458019D01*
X61119617Y-105458019D02*
X60262475Y-105458019D01*
X61262475Y-104172304D02*
X60262475Y-104172304D01*
X60595808Y-103696114D02*
X61262475Y-103696114D01*
X60691046Y-103696114D02*
X60643427Y-103648495D01*
X60643427Y-103648495D02*
X60595808Y-103553257D01*
X60595808Y-103553257D02*
X60595808Y-103410400D01*
X60595808Y-103410400D02*
X60643427Y-103315162D01*
X60643427Y-103315162D02*
X60738665Y-103267543D01*
X60738665Y-103267543D02*
X61262475Y-103267543D01*
X60595808Y-102934209D02*
X60595808Y-102553257D01*
X60262475Y-102791352D02*
X61119617Y-102791352D01*
X61119617Y-102791352D02*
X61214856Y-102743733D01*
X61214856Y-102743733D02*
X61262475Y-102648495D01*
X61262475Y-102648495D02*
X61262475Y-102553257D01*
X61214856Y-101838971D02*
X61262475Y-101934209D01*
X61262475Y-101934209D02*
X61262475Y-102124685D01*
X61262475Y-102124685D02*
X61214856Y-102219923D01*
X61214856Y-102219923D02*
X61119617Y-102267542D01*
X61119617Y-102267542D02*
X60738665Y-102267542D01*
X60738665Y-102267542D02*
X60643427Y-102219923D01*
X60643427Y-102219923D02*
X60595808Y-102124685D01*
X60595808Y-102124685D02*
X60595808Y-101934209D01*
X60595808Y-101934209D02*
X60643427Y-101838971D01*
X60643427Y-101838971D02*
X60738665Y-101791352D01*
X60738665Y-101791352D02*
X60833903Y-101791352D01*
X60833903Y-101791352D02*
X60929141Y-102267542D01*
X61262475Y-101362780D02*
X60595808Y-101362780D01*
X60786284Y-101362780D02*
X60691046Y-101315161D01*
X60691046Y-101315161D02*
X60643427Y-101267542D01*
X60643427Y-101267542D02*
X60595808Y-101172304D01*
X60595808Y-101172304D02*
X60595808Y-101077066D01*
X60595808Y-100743732D02*
X61262475Y-100743732D01*
X60691046Y-100743732D02*
X60643427Y-100696113D01*
X60643427Y-100696113D02*
X60595808Y-100600875D01*
X60595808Y-100600875D02*
X60595808Y-100458018D01*
X60595808Y-100458018D02*
X60643427Y-100362780D01*
X60643427Y-100362780D02*
X60738665Y-100315161D01*
X60738665Y-100315161D02*
X61262475Y-100315161D01*
X61262475Y-99410399D02*
X60738665Y-99410399D01*
X60738665Y-99410399D02*
X60643427Y-99458018D01*
X60643427Y-99458018D02*
X60595808Y-99553256D01*
X60595808Y-99553256D02*
X60595808Y-99743732D01*
X60595808Y-99743732D02*
X60643427Y-99838970D01*
X61214856Y-99410399D02*
X61262475Y-99505637D01*
X61262475Y-99505637D02*
X61262475Y-99743732D01*
X61262475Y-99743732D02*
X61214856Y-99838970D01*
X61214856Y-99838970D02*
X61119617Y-99886589D01*
X61119617Y-99886589D02*
X61024379Y-99886589D01*
X61024379Y-99886589D02*
X60929141Y-99838970D01*
X60929141Y-99838970D02*
X60881522Y-99743732D01*
X60881522Y-99743732D02*
X60881522Y-99505637D01*
X60881522Y-99505637D02*
X60833903Y-99410399D01*
X61262475Y-98791351D02*
X61214856Y-98886589D01*
X61214856Y-98886589D02*
X61119617Y-98934208D01*
X61119617Y-98934208D02*
X60262475Y-98934208D01*
X60738665Y-97315160D02*
X60738665Y-97648493D01*
X61262475Y-97648493D02*
X60262475Y-97648493D01*
X60262475Y-97648493D02*
X60262475Y-97172303D01*
X61262475Y-96648493D02*
X61214856Y-96743731D01*
X61214856Y-96743731D02*
X61119617Y-96791350D01*
X61119617Y-96791350D02*
X60262475Y-96791350D01*
X61262475Y-96124683D02*
X61214856Y-96219921D01*
X61214856Y-96219921D02*
X61167236Y-96267540D01*
X61167236Y-96267540D02*
X61071998Y-96315159D01*
X61071998Y-96315159D02*
X60786284Y-96315159D01*
X60786284Y-96315159D02*
X60691046Y-96267540D01*
X60691046Y-96267540D02*
X60643427Y-96219921D01*
X60643427Y-96219921D02*
X60595808Y-96124683D01*
X60595808Y-96124683D02*
X60595808Y-95981826D01*
X60595808Y-95981826D02*
X60643427Y-95886588D01*
X60643427Y-95886588D02*
X60691046Y-95838969D01*
X60691046Y-95838969D02*
X60786284Y-95791350D01*
X60786284Y-95791350D02*
X61071998Y-95791350D01*
X61071998Y-95791350D02*
X61167236Y-95838969D01*
X61167236Y-95838969D02*
X61214856Y-95886588D01*
X61214856Y-95886588D02*
X61262475Y-95981826D01*
X61262475Y-95981826D02*
X61262475Y-96124683D01*
X60595808Y-95362778D02*
X61595808Y-95362778D01*
X60643427Y-95362778D02*
X60595808Y-95267540D01*
X60595808Y-95267540D02*
X60595808Y-95077064D01*
X60595808Y-95077064D02*
X60643427Y-94981826D01*
X60643427Y-94981826D02*
X60691046Y-94934207D01*
X60691046Y-94934207D02*
X60786284Y-94886588D01*
X60786284Y-94886588D02*
X61071998Y-94886588D01*
X61071998Y-94886588D02*
X61167236Y-94934207D01*
X61167236Y-94934207D02*
X61214856Y-94981826D01*
X61214856Y-94981826D02*
X61262475Y-95077064D01*
X61262475Y-95077064D02*
X61262475Y-95267540D01*
X61262475Y-95267540D02*
X61214856Y-95362778D01*
X60595808Y-94458016D02*
X61595808Y-94458016D01*
X60643427Y-94458016D02*
X60595808Y-94362778D01*
X60595808Y-94362778D02*
X60595808Y-94172302D01*
X60595808Y-94172302D02*
X60643427Y-94077064D01*
X60643427Y-94077064D02*
X60691046Y-94029445D01*
X60691046Y-94029445D02*
X60786284Y-93981826D01*
X60786284Y-93981826D02*
X61071998Y-93981826D01*
X61071998Y-93981826D02*
X61167236Y-94029445D01*
X61167236Y-94029445D02*
X61214856Y-94077064D01*
X61214856Y-94077064D02*
X61262475Y-94172302D01*
X61262475Y-94172302D02*
X61262475Y-94362778D01*
X61262475Y-94362778D02*
X61214856Y-94458016D01*
X60595808Y-93648492D02*
X61262475Y-93410397D01*
X60595808Y-93172302D02*
X61262475Y-93410397D01*
X61262475Y-93410397D02*
X61500570Y-93505635D01*
X61500570Y-93505635D02*
X61548189Y-93553254D01*
X61548189Y-93553254D02*
X61595808Y-93648492D01*
X61262475Y-92029444D02*
X60262475Y-92029444D01*
X60262475Y-92029444D02*
X60262475Y-91791349D01*
X60262475Y-91791349D02*
X60310094Y-91648492D01*
X60310094Y-91648492D02*
X60405332Y-91553254D01*
X60405332Y-91553254D02*
X60500570Y-91505635D01*
X60500570Y-91505635D02*
X60691046Y-91458016D01*
X60691046Y-91458016D02*
X60833903Y-91458016D01*
X60833903Y-91458016D02*
X61024379Y-91505635D01*
X61024379Y-91505635D02*
X61119617Y-91553254D01*
X61119617Y-91553254D02*
X61214856Y-91648492D01*
X61214856Y-91648492D02*
X61262475Y-91791349D01*
X61262475Y-91791349D02*
X61262475Y-92029444D01*
X61262475Y-91029444D02*
X60595808Y-91029444D01*
X60786284Y-91029444D02*
X60691046Y-90981825D01*
X60691046Y-90981825D02*
X60643427Y-90934206D01*
X60643427Y-90934206D02*
X60595808Y-90838968D01*
X60595808Y-90838968D02*
X60595808Y-90743730D01*
X61262475Y-90410396D02*
X60595808Y-90410396D01*
X60262475Y-90410396D02*
X60310094Y-90458015D01*
X60310094Y-90458015D02*
X60357713Y-90410396D01*
X60357713Y-90410396D02*
X60310094Y-90362777D01*
X60310094Y-90362777D02*
X60262475Y-90410396D01*
X60262475Y-90410396D02*
X60357713Y-90410396D01*
X60595808Y-90029444D02*
X61262475Y-89791349D01*
X61262475Y-89791349D02*
X60595808Y-89553254D01*
X61214856Y-88791349D02*
X61262475Y-88886587D01*
X61262475Y-88886587D02*
X61262475Y-89077063D01*
X61262475Y-89077063D02*
X61214856Y-89172301D01*
X61214856Y-89172301D02*
X61119617Y-89219920D01*
X61119617Y-89219920D02*
X60738665Y-89219920D01*
X60738665Y-89219920D02*
X60643427Y-89172301D01*
X60643427Y-89172301D02*
X60595808Y-89077063D01*
X60595808Y-89077063D02*
X60595808Y-88886587D01*
X60595808Y-88886587D02*
X60643427Y-88791349D01*
X60643427Y-88791349D02*
X60738665Y-88743730D01*
X60738665Y-88743730D02*
X60833903Y-88743730D01*
X60833903Y-88743730D02*
X60929141Y-89219920D01*
X61262475Y-87553253D02*
X60262475Y-87553253D01*
X60595808Y-87077063D02*
X61262475Y-87077063D01*
X60691046Y-87077063D02*
X60643427Y-87029444D01*
X60643427Y-87029444D02*
X60595808Y-86934206D01*
X60595808Y-86934206D02*
X60595808Y-86791349D01*
X60595808Y-86791349D02*
X60643427Y-86696111D01*
X60643427Y-86696111D02*
X60738665Y-86648492D01*
X60738665Y-86648492D02*
X61262475Y-86648492D01*
X60595808Y-86315158D02*
X60595808Y-85934206D01*
X60262475Y-86172301D02*
X61119617Y-86172301D01*
X61119617Y-86172301D02*
X61214856Y-86124682D01*
X61214856Y-86124682D02*
X61262475Y-86029444D01*
X61262475Y-86029444D02*
X61262475Y-85934206D01*
X61214856Y-85219920D02*
X61262475Y-85315158D01*
X61262475Y-85315158D02*
X61262475Y-85505634D01*
X61262475Y-85505634D02*
X61214856Y-85600872D01*
X61214856Y-85600872D02*
X61119617Y-85648491D01*
X61119617Y-85648491D02*
X60738665Y-85648491D01*
X60738665Y-85648491D02*
X60643427Y-85600872D01*
X60643427Y-85600872D02*
X60595808Y-85505634D01*
X60595808Y-85505634D02*
X60595808Y-85315158D01*
X60595808Y-85315158D02*
X60643427Y-85219920D01*
X60643427Y-85219920D02*
X60738665Y-85172301D01*
X60738665Y-85172301D02*
X60833903Y-85172301D01*
X60833903Y-85172301D02*
X60929141Y-85648491D01*
X61262475Y-84743729D02*
X60595808Y-84743729D01*
X60786284Y-84743729D02*
X60691046Y-84696110D01*
X60691046Y-84696110D02*
X60643427Y-84648491D01*
X60643427Y-84648491D02*
X60595808Y-84553253D01*
X60595808Y-84553253D02*
X60595808Y-84458015D01*
X60595808Y-84267538D02*
X60595808Y-83886586D01*
X61262475Y-84124681D02*
X60405332Y-84124681D01*
X60405332Y-84124681D02*
X60310094Y-84077062D01*
X60310094Y-84077062D02*
X60262475Y-83981824D01*
X60262475Y-83981824D02*
X60262475Y-83886586D01*
X61262475Y-83124681D02*
X60738665Y-83124681D01*
X60738665Y-83124681D02*
X60643427Y-83172300D01*
X60643427Y-83172300D02*
X60595808Y-83267538D01*
X60595808Y-83267538D02*
X60595808Y-83458014D01*
X60595808Y-83458014D02*
X60643427Y-83553252D01*
X61214856Y-83124681D02*
X61262475Y-83219919D01*
X61262475Y-83219919D02*
X61262475Y-83458014D01*
X61262475Y-83458014D02*
X61214856Y-83553252D01*
X61214856Y-83553252D02*
X61119617Y-83600871D01*
X61119617Y-83600871D02*
X61024379Y-83600871D01*
X61024379Y-83600871D02*
X60929141Y-83553252D01*
X60929141Y-83553252D02*
X60881522Y-83458014D01*
X60881522Y-83458014D02*
X60881522Y-83219919D01*
X60881522Y-83219919D02*
X60833903Y-83124681D01*
X61214856Y-82219919D02*
X61262475Y-82315157D01*
X61262475Y-82315157D02*
X61262475Y-82505633D01*
X61262475Y-82505633D02*
X61214856Y-82600871D01*
X61214856Y-82600871D02*
X61167236Y-82648490D01*
X61167236Y-82648490D02*
X61071998Y-82696109D01*
X61071998Y-82696109D02*
X60786284Y-82696109D01*
X60786284Y-82696109D02*
X60691046Y-82648490D01*
X60691046Y-82648490D02*
X60643427Y-82600871D01*
X60643427Y-82600871D02*
X60595808Y-82505633D01*
X60595808Y-82505633D02*
X60595808Y-82315157D01*
X60595808Y-82315157D02*
X60643427Y-82219919D01*
X61214856Y-81410395D02*
X61262475Y-81505633D01*
X61262475Y-81505633D02*
X61262475Y-81696109D01*
X61262475Y-81696109D02*
X61214856Y-81791347D01*
X61214856Y-81791347D02*
X61119617Y-81838966D01*
X61119617Y-81838966D02*
X60738665Y-81838966D01*
X60738665Y-81838966D02*
X60643427Y-81791347D01*
X60643427Y-81791347D02*
X60595808Y-81696109D01*
X60595808Y-81696109D02*
X60595808Y-81505633D01*
X60595808Y-81505633D02*
X60643427Y-81410395D01*
X60643427Y-81410395D02*
X60738665Y-81362776D01*
X60738665Y-81362776D02*
X60833903Y-81362776D01*
X60833903Y-81362776D02*
X60929141Y-81838966D01*
X61262475Y-79600871D02*
X60786284Y-79934204D01*
X61262475Y-80172299D02*
X60262475Y-80172299D01*
X60262475Y-80172299D02*
X60262475Y-79791347D01*
X60262475Y-79791347D02*
X60310094Y-79696109D01*
X60310094Y-79696109D02*
X60357713Y-79648490D01*
X60357713Y-79648490D02*
X60452951Y-79600871D01*
X60452951Y-79600871D02*
X60595808Y-79600871D01*
X60595808Y-79600871D02*
X60691046Y-79648490D01*
X60691046Y-79648490D02*
X60738665Y-79696109D01*
X60738665Y-79696109D02*
X60786284Y-79791347D01*
X60786284Y-79791347D02*
X60786284Y-80172299D01*
X61214856Y-78791347D02*
X61262475Y-78886585D01*
X61262475Y-78886585D02*
X61262475Y-79077061D01*
X61262475Y-79077061D02*
X61214856Y-79172299D01*
X61214856Y-79172299D02*
X61119617Y-79219918D01*
X61119617Y-79219918D02*
X60738665Y-79219918D01*
X60738665Y-79219918D02*
X60643427Y-79172299D01*
X60643427Y-79172299D02*
X60595808Y-79077061D01*
X60595808Y-79077061D02*
X60595808Y-78886585D01*
X60595808Y-78886585D02*
X60643427Y-78791347D01*
X60643427Y-78791347D02*
X60738665Y-78743728D01*
X60738665Y-78743728D02*
X60833903Y-78743728D01*
X60833903Y-78743728D02*
X60929141Y-79219918D01*
X60595808Y-78410394D02*
X61262475Y-78172299D01*
X61262475Y-78172299D02*
X60595808Y-77934204D01*
X61167236Y-77553251D02*
X61214856Y-77505632D01*
X61214856Y-77505632D02*
X61262475Y-77553251D01*
X61262475Y-77553251D02*
X61214856Y-77600870D01*
X61214856Y-77600870D02*
X61167236Y-77553251D01*
X61167236Y-77553251D02*
X61262475Y-77553251D01*
X61262475Y-75791347D02*
X61262475Y-76362775D01*
X61262475Y-76077061D02*
X60262475Y-76077061D01*
X60262475Y-76077061D02*
X60405332Y-76172299D01*
X60405332Y-76172299D02*
X60500570Y-76267537D01*
X60500570Y-76267537D02*
X60548189Y-76362775D01*
X61167236Y-75362775D02*
X61214856Y-75315156D01*
X61214856Y-75315156D02*
X61262475Y-75362775D01*
X61262475Y-75362775D02*
X61214856Y-75410394D01*
X61214856Y-75410394D02*
X61167236Y-75362775D01*
X61167236Y-75362775D02*
X61262475Y-75362775D01*
X60262475Y-74696109D02*
X60262475Y-74600871D01*
X60262475Y-74600871D02*
X60310094Y-74505633D01*
X60310094Y-74505633D02*
X60357713Y-74458014D01*
X60357713Y-74458014D02*
X60452951Y-74410395D01*
X60452951Y-74410395D02*
X60643427Y-74362776D01*
X60643427Y-74362776D02*
X60881522Y-74362776D01*
X60881522Y-74362776D02*
X61071998Y-74410395D01*
X61071998Y-74410395D02*
X61167236Y-74458014D01*
X61167236Y-74458014D02*
X61214856Y-74505633D01*
X61214856Y-74505633D02*
X61262475Y-74600871D01*
X61262475Y-74600871D02*
X61262475Y-74696109D01*
X61262475Y-74696109D02*
X61214856Y-74791347D01*
X61214856Y-74791347D02*
X61167236Y-74838966D01*
X61167236Y-74838966D02*
X61071998Y-74886585D01*
X61071998Y-74886585D02*
X60881522Y-74934204D01*
X60881522Y-74934204D02*
X60643427Y-74934204D01*
X60643427Y-74934204D02*
X60452951Y-74886585D01*
X60452951Y-74886585D02*
X60357713Y-74838966D01*
X60357713Y-74838966D02*
X60310094Y-74791347D01*
X60310094Y-74791347D02*
X60262475Y-74696109D01*
X62872419Y-119696115D02*
X61872419Y-119696115D01*
X62872419Y-119267544D02*
X62348609Y-119267544D01*
X62348609Y-119267544D02*
X62253371Y-119315163D01*
X62253371Y-119315163D02*
X62205752Y-119410401D01*
X62205752Y-119410401D02*
X62205752Y-119553258D01*
X62205752Y-119553258D02*
X62253371Y-119648496D01*
X62253371Y-119648496D02*
X62300990Y-119696115D01*
X62205752Y-118934210D02*
X62205752Y-118553258D01*
X61872419Y-118791353D02*
X62729561Y-118791353D01*
X62729561Y-118791353D02*
X62824800Y-118743734D01*
X62824800Y-118743734D02*
X62872419Y-118648496D01*
X62872419Y-118648496D02*
X62872419Y-118553258D01*
X62205752Y-118362781D02*
X62205752Y-117981829D01*
X61872419Y-118219924D02*
X62729561Y-118219924D01*
X62729561Y-118219924D02*
X62824800Y-118172305D01*
X62824800Y-118172305D02*
X62872419Y-118077067D01*
X62872419Y-118077067D02*
X62872419Y-117981829D01*
X62205752Y-117648495D02*
X63205752Y-117648495D01*
X62253371Y-117648495D02*
X62205752Y-117553257D01*
X62205752Y-117553257D02*
X62205752Y-117362781D01*
X62205752Y-117362781D02*
X62253371Y-117267543D01*
X62253371Y-117267543D02*
X62300990Y-117219924D01*
X62300990Y-117219924D02*
X62396228Y-117172305D01*
X62396228Y-117172305D02*
X62681942Y-117172305D01*
X62681942Y-117172305D02*
X62777180Y-117219924D01*
X62777180Y-117219924D02*
X62824800Y-117267543D01*
X62824800Y-117267543D02*
X62872419Y-117362781D01*
X62872419Y-117362781D02*
X62872419Y-117553257D01*
X62872419Y-117553257D02*
X62824800Y-117648495D01*
X62824800Y-116791352D02*
X62872419Y-116696114D01*
X62872419Y-116696114D02*
X62872419Y-116505638D01*
X62872419Y-116505638D02*
X62824800Y-116410400D01*
X62824800Y-116410400D02*
X62729561Y-116362781D01*
X62729561Y-116362781D02*
X62681942Y-116362781D01*
X62681942Y-116362781D02*
X62586704Y-116410400D01*
X62586704Y-116410400D02*
X62539085Y-116505638D01*
X62539085Y-116505638D02*
X62539085Y-116648495D01*
X62539085Y-116648495D02*
X62491466Y-116743733D01*
X62491466Y-116743733D02*
X62396228Y-116791352D01*
X62396228Y-116791352D02*
X62348609Y-116791352D01*
X62348609Y-116791352D02*
X62253371Y-116743733D01*
X62253371Y-116743733D02*
X62205752Y-116648495D01*
X62205752Y-116648495D02*
X62205752Y-116505638D01*
X62205752Y-116505638D02*
X62253371Y-116410400D01*
X62777180Y-115934209D02*
X62824800Y-115886590D01*
X62824800Y-115886590D02*
X62872419Y-115934209D01*
X62872419Y-115934209D02*
X62824800Y-115981828D01*
X62824800Y-115981828D02*
X62777180Y-115934209D01*
X62777180Y-115934209D02*
X62872419Y-115934209D01*
X62253371Y-115934209D02*
X62300990Y-115886590D01*
X62300990Y-115886590D02*
X62348609Y-115934209D01*
X62348609Y-115934209D02*
X62300990Y-115981828D01*
X62300990Y-115981828D02*
X62253371Y-115934209D01*
X62253371Y-115934209D02*
X62348609Y-115934209D01*
X61824800Y-114743734D02*
X63110514Y-115600876D01*
X61824800Y-113696115D02*
X63110514Y-114553257D01*
X62205752Y-112934210D02*
X63015276Y-112934210D01*
X63015276Y-112934210D02*
X63110514Y-112981829D01*
X63110514Y-112981829D02*
X63158133Y-113029448D01*
X63158133Y-113029448D02*
X63205752Y-113124686D01*
X63205752Y-113124686D02*
X63205752Y-113267543D01*
X63205752Y-113267543D02*
X63158133Y-113362781D01*
X62824800Y-112934210D02*
X62872419Y-113029448D01*
X62872419Y-113029448D02*
X62872419Y-113219924D01*
X62872419Y-113219924D02*
X62824800Y-113315162D01*
X62824800Y-113315162D02*
X62777180Y-113362781D01*
X62777180Y-113362781D02*
X62681942Y-113410400D01*
X62681942Y-113410400D02*
X62396228Y-113410400D01*
X62396228Y-113410400D02*
X62300990Y-113362781D01*
X62300990Y-113362781D02*
X62253371Y-113315162D01*
X62253371Y-113315162D02*
X62205752Y-113219924D01*
X62205752Y-113219924D02*
X62205752Y-113029448D01*
X62205752Y-113029448D02*
X62253371Y-112934210D01*
X62872419Y-112458019D02*
X62205752Y-112458019D01*
X61872419Y-112458019D02*
X61920038Y-112505638D01*
X61920038Y-112505638D02*
X61967657Y-112458019D01*
X61967657Y-112458019D02*
X61920038Y-112410400D01*
X61920038Y-112410400D02*
X61872419Y-112458019D01*
X61872419Y-112458019D02*
X61967657Y-112458019D01*
X62205752Y-112124686D02*
X62205752Y-111743734D01*
X61872419Y-111981829D02*
X62729561Y-111981829D01*
X62729561Y-111981829D02*
X62824800Y-111934210D01*
X62824800Y-111934210D02*
X62872419Y-111838972D01*
X62872419Y-111838972D02*
X62872419Y-111743734D01*
X62872419Y-111410400D02*
X61872419Y-111410400D01*
X62872419Y-110981829D02*
X62348609Y-110981829D01*
X62348609Y-110981829D02*
X62253371Y-111029448D01*
X62253371Y-111029448D02*
X62205752Y-111124686D01*
X62205752Y-111124686D02*
X62205752Y-111267543D01*
X62205752Y-111267543D02*
X62253371Y-111362781D01*
X62253371Y-111362781D02*
X62300990Y-111410400D01*
X62205752Y-110077067D02*
X62872419Y-110077067D01*
X62205752Y-110505638D02*
X62729561Y-110505638D01*
X62729561Y-110505638D02*
X62824800Y-110458019D01*
X62824800Y-110458019D02*
X62872419Y-110362781D01*
X62872419Y-110362781D02*
X62872419Y-110219924D01*
X62872419Y-110219924D02*
X62824800Y-110124686D01*
X62824800Y-110124686D02*
X62777180Y-110077067D01*
X62872419Y-109600876D02*
X61872419Y-109600876D01*
X62253371Y-109600876D02*
X62205752Y-109505638D01*
X62205752Y-109505638D02*
X62205752Y-109315162D01*
X62205752Y-109315162D02*
X62253371Y-109219924D01*
X62253371Y-109219924D02*
X62300990Y-109172305D01*
X62300990Y-109172305D02*
X62396228Y-109124686D01*
X62396228Y-109124686D02*
X62681942Y-109124686D01*
X62681942Y-109124686D02*
X62777180Y-109172305D01*
X62777180Y-109172305D02*
X62824800Y-109219924D01*
X62824800Y-109219924D02*
X62872419Y-109315162D01*
X62872419Y-109315162D02*
X62872419Y-109505638D01*
X62872419Y-109505638D02*
X62824800Y-109600876D01*
X62777180Y-108696114D02*
X62824800Y-108648495D01*
X62824800Y-108648495D02*
X62872419Y-108696114D01*
X62872419Y-108696114D02*
X62824800Y-108743733D01*
X62824800Y-108743733D02*
X62777180Y-108696114D01*
X62777180Y-108696114D02*
X62872419Y-108696114D01*
X62824800Y-107791353D02*
X62872419Y-107886591D01*
X62872419Y-107886591D02*
X62872419Y-108077067D01*
X62872419Y-108077067D02*
X62824800Y-108172305D01*
X62824800Y-108172305D02*
X62777180Y-108219924D01*
X62777180Y-108219924D02*
X62681942Y-108267543D01*
X62681942Y-108267543D02*
X62396228Y-108267543D01*
X62396228Y-108267543D02*
X62300990Y-108219924D01*
X62300990Y-108219924D02*
X62253371Y-108172305D01*
X62253371Y-108172305D02*
X62205752Y-108077067D01*
X62205752Y-108077067D02*
X62205752Y-107886591D01*
X62205752Y-107886591D02*
X62253371Y-107791353D01*
X62872419Y-107219924D02*
X62824800Y-107315162D01*
X62824800Y-107315162D02*
X62777180Y-107362781D01*
X62777180Y-107362781D02*
X62681942Y-107410400D01*
X62681942Y-107410400D02*
X62396228Y-107410400D01*
X62396228Y-107410400D02*
X62300990Y-107362781D01*
X62300990Y-107362781D02*
X62253371Y-107315162D01*
X62253371Y-107315162D02*
X62205752Y-107219924D01*
X62205752Y-107219924D02*
X62205752Y-107077067D01*
X62205752Y-107077067D02*
X62253371Y-106981829D01*
X62253371Y-106981829D02*
X62300990Y-106934210D01*
X62300990Y-106934210D02*
X62396228Y-106886591D01*
X62396228Y-106886591D02*
X62681942Y-106886591D01*
X62681942Y-106886591D02*
X62777180Y-106934210D01*
X62777180Y-106934210D02*
X62824800Y-106981829D01*
X62824800Y-106981829D02*
X62872419Y-107077067D01*
X62872419Y-107077067D02*
X62872419Y-107219924D01*
X62872419Y-106458019D02*
X62205752Y-106458019D01*
X62300990Y-106458019D02*
X62253371Y-106410400D01*
X62253371Y-106410400D02*
X62205752Y-106315162D01*
X62205752Y-106315162D02*
X62205752Y-106172305D01*
X62205752Y-106172305D02*
X62253371Y-106077067D01*
X62253371Y-106077067D02*
X62348609Y-106029448D01*
X62348609Y-106029448D02*
X62872419Y-106029448D01*
X62348609Y-106029448D02*
X62253371Y-105981829D01*
X62253371Y-105981829D02*
X62205752Y-105886591D01*
X62205752Y-105886591D02*
X62205752Y-105743734D01*
X62205752Y-105743734D02*
X62253371Y-105648495D01*
X62253371Y-105648495D02*
X62348609Y-105600876D01*
X62348609Y-105600876D02*
X62872419Y-105600876D01*
X61824800Y-104410401D02*
X63110514Y-105267543D01*
X62872419Y-104077067D02*
X62205752Y-104077067D01*
X62396228Y-104077067D02*
X62300990Y-104029448D01*
X62300990Y-104029448D02*
X62253371Y-103981829D01*
X62253371Y-103981829D02*
X62205752Y-103886591D01*
X62205752Y-103886591D02*
X62205752Y-103791353D01*
X62872419Y-103315162D02*
X62824800Y-103410400D01*
X62824800Y-103410400D02*
X62777180Y-103458019D01*
X62777180Y-103458019D02*
X62681942Y-103505638D01*
X62681942Y-103505638D02*
X62396228Y-103505638D01*
X62396228Y-103505638D02*
X62300990Y-103458019D01*
X62300990Y-103458019D02*
X62253371Y-103410400D01*
X62253371Y-103410400D02*
X62205752Y-103315162D01*
X62205752Y-103315162D02*
X62205752Y-103172305D01*
X62205752Y-103172305D02*
X62253371Y-103077067D01*
X62253371Y-103077067D02*
X62300990Y-103029448D01*
X62300990Y-103029448D02*
X62396228Y-102981829D01*
X62396228Y-102981829D02*
X62681942Y-102981829D01*
X62681942Y-102981829D02*
X62777180Y-103029448D01*
X62777180Y-103029448D02*
X62824800Y-103077067D01*
X62824800Y-103077067D02*
X62872419Y-103172305D01*
X62872419Y-103172305D02*
X62872419Y-103315162D01*
X62872419Y-102124686D02*
X61872419Y-102124686D01*
X62824800Y-102124686D02*
X62872419Y-102219924D01*
X62872419Y-102219924D02*
X62872419Y-102410400D01*
X62872419Y-102410400D02*
X62824800Y-102505638D01*
X62824800Y-102505638D02*
X62777180Y-102553257D01*
X62777180Y-102553257D02*
X62681942Y-102600876D01*
X62681942Y-102600876D02*
X62396228Y-102600876D01*
X62396228Y-102600876D02*
X62300990Y-102553257D01*
X62300990Y-102553257D02*
X62253371Y-102505638D01*
X62253371Y-102505638D02*
X62205752Y-102410400D01*
X62205752Y-102410400D02*
X62205752Y-102219924D01*
X62205752Y-102219924D02*
X62253371Y-102124686D01*
X62872419Y-101219924D02*
X61872419Y-101219924D01*
X62824800Y-101219924D02*
X62872419Y-101315162D01*
X62872419Y-101315162D02*
X62872419Y-101505638D01*
X62872419Y-101505638D02*
X62824800Y-101600876D01*
X62824800Y-101600876D02*
X62777180Y-101648495D01*
X62777180Y-101648495D02*
X62681942Y-101696114D01*
X62681942Y-101696114D02*
X62396228Y-101696114D01*
X62396228Y-101696114D02*
X62300990Y-101648495D01*
X62300990Y-101648495D02*
X62253371Y-101600876D01*
X62253371Y-101600876D02*
X62205752Y-101505638D01*
X62205752Y-101505638D02*
X62205752Y-101315162D01*
X62205752Y-101315162D02*
X62253371Y-101219924D01*
X62824800Y-100362781D02*
X62872419Y-100458019D01*
X62872419Y-100458019D02*
X62872419Y-100648495D01*
X62872419Y-100648495D02*
X62824800Y-100743733D01*
X62824800Y-100743733D02*
X62729561Y-100791352D01*
X62729561Y-100791352D02*
X62348609Y-100791352D01*
X62348609Y-100791352D02*
X62253371Y-100743733D01*
X62253371Y-100743733D02*
X62205752Y-100648495D01*
X62205752Y-100648495D02*
X62205752Y-100458019D01*
X62205752Y-100458019D02*
X62253371Y-100362781D01*
X62253371Y-100362781D02*
X62348609Y-100315162D01*
X62348609Y-100315162D02*
X62443847Y-100315162D01*
X62443847Y-100315162D02*
X62539085Y-100791352D01*
X62872419Y-99886590D02*
X62205752Y-99886590D01*
X62396228Y-99886590D02*
X62300990Y-99838971D01*
X62300990Y-99838971D02*
X62253371Y-99791352D01*
X62253371Y-99791352D02*
X62205752Y-99696114D01*
X62205752Y-99696114D02*
X62205752Y-99600876D01*
X62824800Y-99315161D02*
X62872419Y-99219923D01*
X62872419Y-99219923D02*
X62872419Y-99029447D01*
X62872419Y-99029447D02*
X62824800Y-98934209D01*
X62824800Y-98934209D02*
X62729561Y-98886590D01*
X62729561Y-98886590D02*
X62681942Y-98886590D01*
X62681942Y-98886590D02*
X62586704Y-98934209D01*
X62586704Y-98934209D02*
X62539085Y-99029447D01*
X62539085Y-99029447D02*
X62539085Y-99172304D01*
X62539085Y-99172304D02*
X62491466Y-99267542D01*
X62491466Y-99267542D02*
X62396228Y-99315161D01*
X62396228Y-99315161D02*
X62348609Y-99315161D01*
X62348609Y-99315161D02*
X62253371Y-99267542D01*
X62253371Y-99267542D02*
X62205752Y-99172304D01*
X62205752Y-99172304D02*
X62205752Y-99029447D01*
X62205752Y-99029447D02*
X62253371Y-98934209D01*
X62205752Y-98029447D02*
X62872419Y-98029447D01*
X62205752Y-98458018D02*
X62729561Y-98458018D01*
X62729561Y-98458018D02*
X62824800Y-98410399D01*
X62824800Y-98410399D02*
X62872419Y-98315161D01*
X62872419Y-98315161D02*
X62872419Y-98172304D01*
X62872419Y-98172304D02*
X62824800Y-98077066D01*
X62824800Y-98077066D02*
X62777180Y-98029447D01*
X62872419Y-97553256D02*
X61872419Y-97553256D01*
X62491466Y-97458018D02*
X62872419Y-97172304D01*
X62205752Y-97172304D02*
X62586704Y-97553256D01*
X61824800Y-96029447D02*
X63110514Y-96886589D01*
X62586704Y-95743732D02*
X62586704Y-95267542D01*
X62872419Y-95838970D02*
X61872419Y-95505637D01*
X61872419Y-95505637D02*
X62872419Y-95172304D01*
X62872419Y-94838970D02*
X62205752Y-94838970D01*
X62300990Y-94838970D02*
X62253371Y-94791351D01*
X62253371Y-94791351D02*
X62205752Y-94696113D01*
X62205752Y-94696113D02*
X62205752Y-94553256D01*
X62205752Y-94553256D02*
X62253371Y-94458018D01*
X62253371Y-94458018D02*
X62348609Y-94410399D01*
X62348609Y-94410399D02*
X62872419Y-94410399D01*
X62348609Y-94410399D02*
X62253371Y-94362780D01*
X62253371Y-94362780D02*
X62205752Y-94267542D01*
X62205752Y-94267542D02*
X62205752Y-94124685D01*
X62205752Y-94124685D02*
X62253371Y-94029446D01*
X62253371Y-94029446D02*
X62348609Y-93981827D01*
X62348609Y-93981827D02*
X62872419Y-93981827D01*
X62872419Y-93505637D02*
X62205752Y-93505637D01*
X61872419Y-93505637D02*
X61920038Y-93553256D01*
X61920038Y-93553256D02*
X61967657Y-93505637D01*
X61967657Y-93505637D02*
X61920038Y-93458018D01*
X61920038Y-93458018D02*
X61872419Y-93505637D01*
X61872419Y-93505637D02*
X61967657Y-93505637D01*
X62205752Y-92600876D02*
X63015276Y-92600876D01*
X63015276Y-92600876D02*
X63110514Y-92648495D01*
X63110514Y-92648495D02*
X63158133Y-92696114D01*
X63158133Y-92696114D02*
X63205752Y-92791352D01*
X63205752Y-92791352D02*
X63205752Y-92934209D01*
X63205752Y-92934209D02*
X63158133Y-93029447D01*
X62824800Y-92600876D02*
X62872419Y-92696114D01*
X62872419Y-92696114D02*
X62872419Y-92886590D01*
X62872419Y-92886590D02*
X62824800Y-92981828D01*
X62824800Y-92981828D02*
X62777180Y-93029447D01*
X62777180Y-93029447D02*
X62681942Y-93077066D01*
X62681942Y-93077066D02*
X62396228Y-93077066D01*
X62396228Y-93077066D02*
X62300990Y-93029447D01*
X62300990Y-93029447D02*
X62253371Y-92981828D01*
X62253371Y-92981828D02*
X62205752Y-92886590D01*
X62205752Y-92886590D02*
X62205752Y-92696114D01*
X62205752Y-92696114D02*
X62253371Y-92600876D01*
X62872419Y-91696114D02*
X62348609Y-91696114D01*
X62348609Y-91696114D02*
X62253371Y-91743733D01*
X62253371Y-91743733D02*
X62205752Y-91838971D01*
X62205752Y-91838971D02*
X62205752Y-92029447D01*
X62205752Y-92029447D02*
X62253371Y-92124685D01*
X62824800Y-91696114D02*
X62872419Y-91791352D01*
X62872419Y-91791352D02*
X62872419Y-92029447D01*
X62872419Y-92029447D02*
X62824800Y-92124685D01*
X62824800Y-92124685D02*
X62729561Y-92172304D01*
X62729561Y-92172304D02*
X62634323Y-92172304D01*
X62634323Y-92172304D02*
X62539085Y-92124685D01*
X62539085Y-92124685D02*
X62491466Y-92029447D01*
X62491466Y-92029447D02*
X62491466Y-91791352D01*
X62491466Y-91791352D02*
X62443847Y-91696114D01*
X62872419Y-91219923D02*
X61872419Y-91219923D01*
X61872419Y-91219923D02*
X61872419Y-90981828D01*
X61872419Y-90981828D02*
X61920038Y-90838971D01*
X61920038Y-90838971D02*
X62015276Y-90743733D01*
X62015276Y-90743733D02*
X62110514Y-90696114D01*
X62110514Y-90696114D02*
X62300990Y-90648495D01*
X62300990Y-90648495D02*
X62443847Y-90648495D01*
X62443847Y-90648495D02*
X62634323Y-90696114D01*
X62634323Y-90696114D02*
X62729561Y-90743733D01*
X62729561Y-90743733D02*
X62824800Y-90838971D01*
X62824800Y-90838971D02*
X62872419Y-90981828D01*
X62872419Y-90981828D02*
X62872419Y-91219923D01*
X62205752Y-89791352D02*
X62872419Y-89791352D01*
X62205752Y-90219923D02*
X62729561Y-90219923D01*
X62729561Y-90219923D02*
X62824800Y-90172304D01*
X62824800Y-90172304D02*
X62872419Y-90077066D01*
X62872419Y-90077066D02*
X62872419Y-89934209D01*
X62872419Y-89934209D02*
X62824800Y-89838971D01*
X62824800Y-89838971D02*
X62777180Y-89791352D01*
X62872419Y-88886590D02*
X62348609Y-88886590D01*
X62348609Y-88886590D02*
X62253371Y-88934209D01*
X62253371Y-88934209D02*
X62205752Y-89029447D01*
X62205752Y-89029447D02*
X62205752Y-89219923D01*
X62205752Y-89219923D02*
X62253371Y-89315161D01*
X62824800Y-88886590D02*
X62872419Y-88981828D01*
X62872419Y-88981828D02*
X62872419Y-89219923D01*
X62872419Y-89219923D02*
X62824800Y-89315161D01*
X62824800Y-89315161D02*
X62729561Y-89362780D01*
X62729561Y-89362780D02*
X62634323Y-89362780D01*
X62634323Y-89362780D02*
X62539085Y-89315161D01*
X62539085Y-89315161D02*
X62491466Y-89219923D01*
X62491466Y-89219923D02*
X62491466Y-88981828D01*
X62491466Y-88981828D02*
X62443847Y-88886590D01*
X62872419Y-88267542D02*
X62824800Y-88362780D01*
X62824800Y-88362780D02*
X62729561Y-88410399D01*
X62729561Y-88410399D02*
X61872419Y-88410399D01*
X62348609Y-87553256D02*
X62348609Y-87886589D01*
X62872419Y-87886589D02*
X61872419Y-87886589D01*
X61872419Y-87886589D02*
X61872419Y-87410399D01*
X62872419Y-86886589D02*
X62824800Y-86981827D01*
X62824800Y-86981827D02*
X62729561Y-87029446D01*
X62729561Y-87029446D02*
X61872419Y-87029446D01*
X62872419Y-86362779D02*
X62824800Y-86458017D01*
X62824800Y-86458017D02*
X62777180Y-86505636D01*
X62777180Y-86505636D02*
X62681942Y-86553255D01*
X62681942Y-86553255D02*
X62396228Y-86553255D01*
X62396228Y-86553255D02*
X62300990Y-86505636D01*
X62300990Y-86505636D02*
X62253371Y-86458017D01*
X62253371Y-86458017D02*
X62205752Y-86362779D01*
X62205752Y-86362779D02*
X62205752Y-86219922D01*
X62205752Y-86219922D02*
X62253371Y-86124684D01*
X62253371Y-86124684D02*
X62300990Y-86077065D01*
X62300990Y-86077065D02*
X62396228Y-86029446D01*
X62396228Y-86029446D02*
X62681942Y-86029446D01*
X62681942Y-86029446D02*
X62777180Y-86077065D01*
X62777180Y-86077065D02*
X62824800Y-86124684D01*
X62824800Y-86124684D02*
X62872419Y-86219922D01*
X62872419Y-86219922D02*
X62872419Y-86362779D01*
X62205752Y-85600874D02*
X63205752Y-85600874D01*
X62253371Y-85600874D02*
X62205752Y-85505636D01*
X62205752Y-85505636D02*
X62205752Y-85315160D01*
X62205752Y-85315160D02*
X62253371Y-85219922D01*
X62253371Y-85219922D02*
X62300990Y-85172303D01*
X62300990Y-85172303D02*
X62396228Y-85124684D01*
X62396228Y-85124684D02*
X62681942Y-85124684D01*
X62681942Y-85124684D02*
X62777180Y-85172303D01*
X62777180Y-85172303D02*
X62824800Y-85219922D01*
X62824800Y-85219922D02*
X62872419Y-85315160D01*
X62872419Y-85315160D02*
X62872419Y-85505636D01*
X62872419Y-85505636D02*
X62824800Y-85600874D01*
X62205752Y-84696112D02*
X63205752Y-84696112D01*
X62253371Y-84696112D02*
X62205752Y-84600874D01*
X62205752Y-84600874D02*
X62205752Y-84410398D01*
X62205752Y-84410398D02*
X62253371Y-84315160D01*
X62253371Y-84315160D02*
X62300990Y-84267541D01*
X62300990Y-84267541D02*
X62396228Y-84219922D01*
X62396228Y-84219922D02*
X62681942Y-84219922D01*
X62681942Y-84219922D02*
X62777180Y-84267541D01*
X62777180Y-84267541D02*
X62824800Y-84315160D01*
X62824800Y-84315160D02*
X62872419Y-84410398D01*
X62872419Y-84410398D02*
X62872419Y-84600874D01*
X62872419Y-84600874D02*
X62824800Y-84696112D01*
X62205752Y-83886588D02*
X62872419Y-83648493D01*
X62205752Y-83410398D02*
X62872419Y-83648493D01*
X62872419Y-83648493D02*
X63110514Y-83743731D01*
X63110514Y-83743731D02*
X63158133Y-83791350D01*
X63158133Y-83791350D02*
X63205752Y-83886588D01*
X62872419Y-83029445D02*
X61872419Y-83029445D01*
X62205752Y-82553255D02*
X62872419Y-82553255D01*
X62300990Y-82553255D02*
X62253371Y-82505636D01*
X62253371Y-82505636D02*
X62205752Y-82410398D01*
X62205752Y-82410398D02*
X62205752Y-82267541D01*
X62205752Y-82267541D02*
X62253371Y-82172303D01*
X62253371Y-82172303D02*
X62348609Y-82124684D01*
X62348609Y-82124684D02*
X62872419Y-82124684D01*
X62205752Y-81791350D02*
X62205752Y-81410398D01*
X61872419Y-81648493D02*
X62729561Y-81648493D01*
X62729561Y-81648493D02*
X62824800Y-81600874D01*
X62824800Y-81600874D02*
X62872419Y-81505636D01*
X62872419Y-81505636D02*
X62872419Y-81410398D01*
X62824800Y-80696112D02*
X62872419Y-80791350D01*
X62872419Y-80791350D02*
X62872419Y-80981826D01*
X62872419Y-80981826D02*
X62824800Y-81077064D01*
X62824800Y-81077064D02*
X62729561Y-81124683D01*
X62729561Y-81124683D02*
X62348609Y-81124683D01*
X62348609Y-81124683D02*
X62253371Y-81077064D01*
X62253371Y-81077064D02*
X62205752Y-80981826D01*
X62205752Y-80981826D02*
X62205752Y-80791350D01*
X62205752Y-80791350D02*
X62253371Y-80696112D01*
X62253371Y-80696112D02*
X62348609Y-80648493D01*
X62348609Y-80648493D02*
X62443847Y-80648493D01*
X62443847Y-80648493D02*
X62539085Y-81124683D01*
X62872419Y-80219921D02*
X62205752Y-80219921D01*
X62396228Y-80219921D02*
X62300990Y-80172302D01*
X62300990Y-80172302D02*
X62253371Y-80124683D01*
X62253371Y-80124683D02*
X62205752Y-80029445D01*
X62205752Y-80029445D02*
X62205752Y-79934207D01*
X62205752Y-79743730D02*
X62205752Y-79362778D01*
X62872419Y-79600873D02*
X62015276Y-79600873D01*
X62015276Y-79600873D02*
X61920038Y-79553254D01*
X61920038Y-79553254D02*
X61872419Y-79458016D01*
X61872419Y-79458016D02*
X61872419Y-79362778D01*
X62872419Y-78600873D02*
X62348609Y-78600873D01*
X62348609Y-78600873D02*
X62253371Y-78648492D01*
X62253371Y-78648492D02*
X62205752Y-78743730D01*
X62205752Y-78743730D02*
X62205752Y-78934206D01*
X62205752Y-78934206D02*
X62253371Y-79029444D01*
X62824800Y-78600873D02*
X62872419Y-78696111D01*
X62872419Y-78696111D02*
X62872419Y-78934206D01*
X62872419Y-78934206D02*
X62824800Y-79029444D01*
X62824800Y-79029444D02*
X62729561Y-79077063D01*
X62729561Y-79077063D02*
X62634323Y-79077063D01*
X62634323Y-79077063D02*
X62539085Y-79029444D01*
X62539085Y-79029444D02*
X62491466Y-78934206D01*
X62491466Y-78934206D02*
X62491466Y-78696111D01*
X62491466Y-78696111D02*
X62443847Y-78600873D01*
X62824800Y-77696111D02*
X62872419Y-77791349D01*
X62872419Y-77791349D02*
X62872419Y-77981825D01*
X62872419Y-77981825D02*
X62824800Y-78077063D01*
X62824800Y-78077063D02*
X62777180Y-78124682D01*
X62777180Y-78124682D02*
X62681942Y-78172301D01*
X62681942Y-78172301D02*
X62396228Y-78172301D01*
X62396228Y-78172301D02*
X62300990Y-78124682D01*
X62300990Y-78124682D02*
X62253371Y-78077063D01*
X62253371Y-78077063D02*
X62205752Y-77981825D01*
X62205752Y-77981825D02*
X62205752Y-77791349D01*
X62205752Y-77791349D02*
X62253371Y-77696111D01*
X62824800Y-76886587D02*
X62872419Y-76981825D01*
X62872419Y-76981825D02*
X62872419Y-77172301D01*
X62872419Y-77172301D02*
X62824800Y-77267539D01*
X62824800Y-77267539D02*
X62729561Y-77315158D01*
X62729561Y-77315158D02*
X62348609Y-77315158D01*
X62348609Y-77315158D02*
X62253371Y-77267539D01*
X62253371Y-77267539D02*
X62205752Y-77172301D01*
X62205752Y-77172301D02*
X62205752Y-76981825D01*
X62205752Y-76981825D02*
X62253371Y-76886587D01*
X62253371Y-76886587D02*
X62348609Y-76838968D01*
X62348609Y-76838968D02*
X62443847Y-76838968D01*
X62443847Y-76838968D02*
X62539085Y-77315158D01*
D12*
X107336779Y-129144198D02*
X107336779Y-128144198D01*
X107336779Y-128144198D02*
X107574874Y-128144198D01*
X107574874Y-128144198D02*
X107717731Y-128191817D01*
X107717731Y-128191817D02*
X107812969Y-128287055D01*
X107812969Y-128287055D02*
X107860588Y-128382293D01*
X107860588Y-128382293D02*
X107908207Y-128572769D01*
X107908207Y-128572769D02*
X107908207Y-128715626D01*
X107908207Y-128715626D02*
X107860588Y-128906102D01*
X107860588Y-128906102D02*
X107812969Y-129001340D01*
X107812969Y-129001340D02*
X107717731Y-129096579D01*
X107717731Y-129096579D02*
X107574874Y-129144198D01*
X107574874Y-129144198D02*
X107336779Y-129144198D01*
X108670112Y-128620388D02*
X108336779Y-128620388D01*
X108336779Y-129144198D02*
X108336779Y-128144198D01*
X108336779Y-128144198D02*
X108812969Y-128144198D01*
X109717731Y-129144198D02*
X109146303Y-129144198D01*
X109432017Y-129144198D02*
X109432017Y-128144198D01*
X109432017Y-128144198D02*
X109336779Y-128287055D01*
X109336779Y-128287055D02*
X109241541Y-128382293D01*
X109241541Y-128382293D02*
X109146303Y-128429912D01*
X111384398Y-129144198D02*
X110908208Y-129144198D01*
X110908208Y-129144198D02*
X110908208Y-128144198D01*
X111717732Y-128620388D02*
X112051065Y-128620388D01*
X112193922Y-129144198D02*
X111717732Y-129144198D01*
X111717732Y-129144198D02*
X111717732Y-128144198D01*
X111717732Y-128144198D02*
X112193922Y-128144198D01*
X112622494Y-129144198D02*
X112622494Y-128144198D01*
X112622494Y-128144198D02*
X112860589Y-128144198D01*
X112860589Y-128144198D02*
X113003446Y-128191817D01*
X113003446Y-128191817D02*
X113098684Y-128287055D01*
X113098684Y-128287055D02*
X113146303Y-128382293D01*
X113146303Y-128382293D02*
X113193922Y-128572769D01*
X113193922Y-128572769D02*
X113193922Y-128715626D01*
X113193922Y-128715626D02*
X113146303Y-128906102D01*
X113146303Y-128906102D02*
X113098684Y-129001340D01*
X113098684Y-129001340D02*
X113003446Y-129096579D01*
X113003446Y-129096579D02*
X112860589Y-129144198D01*
X112860589Y-129144198D02*
X112622494Y-129144198D01*
X104220632Y-72802661D02*
X103220632Y-72802661D01*
X103220632Y-72135995D02*
X103220632Y-71945519D01*
X103220632Y-71945519D02*
X103268251Y-71850281D01*
X103268251Y-71850281D02*
X103363489Y-71755043D01*
X103363489Y-71755043D02*
X103553965Y-71707424D01*
X103553965Y-71707424D02*
X103887298Y-71707424D01*
X103887298Y-71707424D02*
X104077774Y-71755043D01*
X104077774Y-71755043D02*
X104173013Y-71850281D01*
X104173013Y-71850281D02*
X104220632Y-71945519D01*
X104220632Y-71945519D02*
X104220632Y-72135995D01*
X104220632Y-72135995D02*
X104173013Y-72231233D01*
X104173013Y-72231233D02*
X104077774Y-72326471D01*
X104077774Y-72326471D02*
X103887298Y-72374090D01*
X103887298Y-72374090D02*
X103553965Y-72374090D01*
X103553965Y-72374090D02*
X103363489Y-72326471D01*
X103363489Y-72326471D02*
X103268251Y-72231233D01*
X103268251Y-72231233D02*
X103220632Y-72135995D01*
X104220632Y-70707424D02*
X103744441Y-71040757D01*
X104220632Y-71278852D02*
X103220632Y-71278852D01*
X103220632Y-71278852D02*
X103220632Y-70897900D01*
X103220632Y-70897900D02*
X103268251Y-70802662D01*
X103268251Y-70802662D02*
X103315870Y-70755043D01*
X103315870Y-70755043D02*
X103411108Y-70707424D01*
X103411108Y-70707424D02*
X103553965Y-70707424D01*
X103553965Y-70707424D02*
X103649203Y-70755043D01*
X103649203Y-70755043D02*
X103696822Y-70802662D01*
X103696822Y-70802662D02*
X103744441Y-70897900D01*
X103744441Y-70897900D02*
X103744441Y-71278852D01*
X103696822Y-70278852D02*
X103696822Y-69945519D01*
X104220632Y-69802662D02*
X104220632Y-70278852D01*
X104220632Y-70278852D02*
X103220632Y-70278852D01*
X103220632Y-70278852D02*
X103220632Y-69802662D01*
X104173013Y-69421709D02*
X104220632Y-69278852D01*
X104220632Y-69278852D02*
X104220632Y-69040757D01*
X104220632Y-69040757D02*
X104173013Y-68945519D01*
X104173013Y-68945519D02*
X104125393Y-68897900D01*
X104125393Y-68897900D02*
X104030155Y-68850281D01*
X104030155Y-68850281D02*
X103934917Y-68850281D01*
X103934917Y-68850281D02*
X103839679Y-68897900D01*
X103839679Y-68897900D02*
X103792060Y-68945519D01*
X103792060Y-68945519D02*
X103744441Y-69040757D01*
X103744441Y-69040757D02*
X103696822Y-69231233D01*
X103696822Y-69231233D02*
X103649203Y-69326471D01*
X103649203Y-69326471D02*
X103601584Y-69374090D01*
X103601584Y-69374090D02*
X103506346Y-69421709D01*
X103506346Y-69421709D02*
X103411108Y-69421709D01*
X103411108Y-69421709D02*
X103315870Y-69374090D01*
X103315870Y-69374090D02*
X103268251Y-69326471D01*
X103268251Y-69326471D02*
X103220632Y-69231233D01*
X103220632Y-69231233D02*
X103220632Y-68993138D01*
X103220632Y-68993138D02*
X103268251Y-68850281D01*
X103696822Y-68421709D02*
X103696822Y-68088376D01*
X104220632Y-67945519D02*
X104220632Y-68421709D01*
X104220632Y-68421709D02*
X103220632Y-68421709D01*
X103220632Y-68421709D02*
X103220632Y-67945519D01*
X103220632Y-67659804D02*
X103220632Y-67088376D01*
X104220632Y-67374090D02*
X103220632Y-67374090D01*
X109143512Y-71765194D02*
X108143512Y-71765194D01*
X108143512Y-71765194D02*
X108857797Y-71431861D01*
X108857797Y-71431861D02*
X108143512Y-71098528D01*
X108143512Y-71098528D02*
X109143512Y-71098528D01*
X108143512Y-70765194D02*
X108143512Y-70193766D01*
X109143512Y-70479480D02*
X108143512Y-70479480D01*
X109143512Y-69289004D02*
X108667321Y-69622337D01*
X109143512Y-69860432D02*
X108143512Y-69860432D01*
X108143512Y-69860432D02*
X108143512Y-69479480D01*
X108143512Y-69479480D02*
X108191131Y-69384242D01*
X108191131Y-69384242D02*
X108238750Y-69336623D01*
X108238750Y-69336623D02*
X108333988Y-69289004D01*
X108333988Y-69289004D02*
X108476845Y-69289004D01*
X108476845Y-69289004D02*
X108572083Y-69336623D01*
X108572083Y-69336623D02*
X108619702Y-69384242D01*
X108619702Y-69384242D02*
X108667321Y-69479480D01*
X108667321Y-69479480D02*
X108667321Y-69860432D01*
X108143512Y-68955670D02*
X109143512Y-68289004D01*
X108143512Y-68289004D02*
X109143512Y-68955670D01*
X109097788Y-131298928D02*
X109002550Y-131251309D01*
X109002550Y-131251309D02*
X108859693Y-131251309D01*
X108859693Y-131251309D02*
X108716836Y-131298928D01*
X108716836Y-131298928D02*
X108621598Y-131394166D01*
X108621598Y-131394166D02*
X108573979Y-131489404D01*
X108573979Y-131489404D02*
X108526360Y-131679880D01*
X108526360Y-131679880D02*
X108526360Y-131822737D01*
X108526360Y-131822737D02*
X108573979Y-132013213D01*
X108573979Y-132013213D02*
X108621598Y-132108451D01*
X108621598Y-132108451D02*
X108716836Y-132203690D01*
X108716836Y-132203690D02*
X108859693Y-132251309D01*
X108859693Y-132251309D02*
X108954931Y-132251309D01*
X108954931Y-132251309D02*
X109097788Y-132203690D01*
X109097788Y-132203690D02*
X109145407Y-132156070D01*
X109145407Y-132156070D02*
X109145407Y-131822737D01*
X109145407Y-131822737D02*
X108954931Y-131822737D01*
X109573979Y-132251309D02*
X109573979Y-131251309D01*
X109573979Y-131251309D02*
X110145407Y-132251309D01*
X110145407Y-132251309D02*
X110145407Y-131251309D01*
X110621598Y-132251309D02*
X110621598Y-131251309D01*
X110621598Y-131251309D02*
X110859693Y-131251309D01*
X110859693Y-131251309D02*
X111002550Y-131298928D01*
X111002550Y-131298928D02*
X111097788Y-131394166D01*
X111097788Y-131394166D02*
X111145407Y-131489404D01*
X111145407Y-131489404D02*
X111193026Y-131679880D01*
X111193026Y-131679880D02*
X111193026Y-131822737D01*
X111193026Y-131822737D02*
X111145407Y-132013213D01*
X111145407Y-132013213D02*
X111097788Y-132108451D01*
X111097788Y-132108451D02*
X111002550Y-132203690D01*
X111002550Y-132203690D02*
X110859693Y-132251309D01*
X110859693Y-132251309D02*
X110621598Y-132251309D01*
X108860588Y-123365495D02*
X108765350Y-123317876D01*
X108765350Y-123317876D02*
X108622493Y-123317876D01*
X108622493Y-123317876D02*
X108479636Y-123365495D01*
X108479636Y-123365495D02*
X108384398Y-123460733D01*
X108384398Y-123460733D02*
X108336779Y-123555971D01*
X108336779Y-123555971D02*
X108289160Y-123746447D01*
X108289160Y-123746447D02*
X108289160Y-123889304D01*
X108289160Y-123889304D02*
X108336779Y-124079780D01*
X108336779Y-124079780D02*
X108384398Y-124175018D01*
X108384398Y-124175018D02*
X108479636Y-124270257D01*
X108479636Y-124270257D02*
X108622493Y-124317876D01*
X108622493Y-124317876D02*
X108717731Y-124317876D01*
X108717731Y-124317876D02*
X108860588Y-124270257D01*
X108860588Y-124270257D02*
X108908207Y-124222637D01*
X108908207Y-124222637D02*
X108908207Y-123889304D01*
X108908207Y-123889304D02*
X108717731Y-123889304D01*
X109336779Y-124317876D02*
X109336779Y-123317876D01*
X109336779Y-123317876D02*
X109908207Y-124317876D01*
X109908207Y-124317876D02*
X109908207Y-123317876D01*
X110384398Y-124317876D02*
X110384398Y-123317876D01*
X110384398Y-123317876D02*
X110622493Y-123317876D01*
X110622493Y-123317876D02*
X110765350Y-123365495D01*
X110765350Y-123365495D02*
X110860588Y-123460733D01*
X110860588Y-123460733D02*
X110908207Y-123555971D01*
X110908207Y-123555971D02*
X110955826Y-123746447D01*
X110955826Y-123746447D02*
X110955826Y-123889304D01*
X110955826Y-123889304D02*
X110908207Y-124079780D01*
X110908207Y-124079780D02*
X110860588Y-124175018D01*
X110860588Y-124175018D02*
X110765350Y-124270257D01*
X110765350Y-124270257D02*
X110622493Y-124317876D01*
X110622493Y-124317876D02*
X110384398Y-124317876D01*
X100833333Y-121454819D02*
X100500000Y-120978628D01*
X100261905Y-121454819D02*
X100261905Y-120454819D01*
X100261905Y-120454819D02*
X100642857Y-120454819D01*
X100642857Y-120454819D02*
X100738095Y-120502438D01*
X100738095Y-120502438D02*
X100785714Y-120550057D01*
X100785714Y-120550057D02*
X100833333Y-120645295D01*
X100833333Y-120645295D02*
X100833333Y-120788152D01*
X100833333Y-120788152D02*
X100785714Y-120883390D01*
X100785714Y-120883390D02*
X100738095Y-120931009D01*
X100738095Y-120931009D02*
X100642857Y-120978628D01*
X100642857Y-120978628D02*
X100261905Y-120978628D01*
X101404762Y-120883390D02*
X101309524Y-120835771D01*
X101309524Y-120835771D02*
X101261905Y-120788152D01*
X101261905Y-120788152D02*
X101214286Y-120692914D01*
X101214286Y-120692914D02*
X101214286Y-120645295D01*
X101214286Y-120645295D02*
X101261905Y-120550057D01*
X101261905Y-120550057D02*
X101309524Y-120502438D01*
X101309524Y-120502438D02*
X101404762Y-120454819D01*
X101404762Y-120454819D02*
X101595238Y-120454819D01*
X101595238Y-120454819D02*
X101690476Y-120502438D01*
X101690476Y-120502438D02*
X101738095Y-120550057D01*
X101738095Y-120550057D02*
X101785714Y-120645295D01*
X101785714Y-120645295D02*
X101785714Y-120692914D01*
X101785714Y-120692914D02*
X101738095Y-120788152D01*
X101738095Y-120788152D02*
X101690476Y-120835771D01*
X101690476Y-120835771D02*
X101595238Y-120883390D01*
X101595238Y-120883390D02*
X101404762Y-120883390D01*
X101404762Y-120883390D02*
X101309524Y-120931009D01*
X101309524Y-120931009D02*
X101261905Y-120978628D01*
X101261905Y-120978628D02*
X101214286Y-121073866D01*
X101214286Y-121073866D02*
X101214286Y-121264342D01*
X101214286Y-121264342D02*
X101261905Y-121359580D01*
X101261905Y-121359580D02*
X101309524Y-121407200D01*
X101309524Y-121407200D02*
X101404762Y-121454819D01*
X101404762Y-121454819D02*
X101595238Y-121454819D01*
X101595238Y-121454819D02*
X101690476Y-121407200D01*
X101690476Y-121407200D02*
X101738095Y-121359580D01*
X101738095Y-121359580D02*
X101785714Y-121264342D01*
X101785714Y-121264342D02*
X101785714Y-121073866D01*
X101785714Y-121073866D02*
X101738095Y-120978628D01*
X101738095Y-120978628D02*
X101690476Y-120931009D01*
X101690476Y-120931009D02*
X101595238Y-120883390D01*
X89833333Y-69454819D02*
X89500000Y-68978628D01*
X89261905Y-69454819D02*
X89261905Y-68454819D01*
X89261905Y-68454819D02*
X89642857Y-68454819D01*
X89642857Y-68454819D02*
X89738095Y-68502438D01*
X89738095Y-68502438D02*
X89785714Y-68550057D01*
X89785714Y-68550057D02*
X89833333Y-68645295D01*
X89833333Y-68645295D02*
X89833333Y-68788152D01*
X89833333Y-68788152D02*
X89785714Y-68883390D01*
X89785714Y-68883390D02*
X89738095Y-68931009D01*
X89738095Y-68931009D02*
X89642857Y-68978628D01*
X89642857Y-68978628D02*
X89261905Y-68978628D01*
X90166667Y-68454819D02*
X90833333Y-68454819D01*
X90833333Y-68454819D02*
X90404762Y-69454819D01*
X100833333Y-118454819D02*
X100500000Y-117978628D01*
X100261905Y-118454819D02*
X100261905Y-117454819D01*
X100261905Y-117454819D02*
X100642857Y-117454819D01*
X100642857Y-117454819D02*
X100738095Y-117502438D01*
X100738095Y-117502438D02*
X100785714Y-117550057D01*
X100785714Y-117550057D02*
X100833333Y-117645295D01*
X100833333Y-117645295D02*
X100833333Y-117788152D01*
X100833333Y-117788152D02*
X100785714Y-117883390D01*
X100785714Y-117883390D02*
X100738095Y-117931009D01*
X100738095Y-117931009D02*
X100642857Y-117978628D01*
X100642857Y-117978628D02*
X100261905Y-117978628D01*
X101690476Y-117454819D02*
X101500000Y-117454819D01*
X101500000Y-117454819D02*
X101404762Y-117502438D01*
X101404762Y-117502438D02*
X101357143Y-117550057D01*
X101357143Y-117550057D02*
X101261905Y-117692914D01*
X101261905Y-117692914D02*
X101214286Y-117883390D01*
X101214286Y-117883390D02*
X101214286Y-118264342D01*
X101214286Y-118264342D02*
X101261905Y-118359580D01*
X101261905Y-118359580D02*
X101309524Y-118407200D01*
X101309524Y-118407200D02*
X101404762Y-118454819D01*
X101404762Y-118454819D02*
X101595238Y-118454819D01*
X101595238Y-118454819D02*
X101690476Y-118407200D01*
X101690476Y-118407200D02*
X101738095Y-118359580D01*
X101738095Y-118359580D02*
X101785714Y-118264342D01*
X101785714Y-118264342D02*
X101785714Y-118026247D01*
X101785714Y-118026247D02*
X101738095Y-117931009D01*
X101738095Y-117931009D02*
X101690476Y-117883390D01*
X101690476Y-117883390D02*
X101595238Y-117835771D01*
X101595238Y-117835771D02*
X101404762Y-117835771D01*
X101404762Y-117835771D02*
X101309524Y-117883390D01*
X101309524Y-117883390D02*
X101261905Y-117931009D01*
X101261905Y-117931009D02*
X101214286Y-118026247D01*
X100833333Y-115454819D02*
X100500000Y-114978628D01*
X100261905Y-115454819D02*
X100261905Y-114454819D01*
X100261905Y-114454819D02*
X100642857Y-114454819D01*
X100642857Y-114454819D02*
X100738095Y-114502438D01*
X100738095Y-114502438D02*
X100785714Y-114550057D01*
X100785714Y-114550057D02*
X100833333Y-114645295D01*
X100833333Y-114645295D02*
X100833333Y-114788152D01*
X100833333Y-114788152D02*
X100785714Y-114883390D01*
X100785714Y-114883390D02*
X100738095Y-114931009D01*
X100738095Y-114931009D02*
X100642857Y-114978628D01*
X100642857Y-114978628D02*
X100261905Y-114978628D01*
X101738095Y-114454819D02*
X101261905Y-114454819D01*
X101261905Y-114454819D02*
X101214286Y-114931009D01*
X101214286Y-114931009D02*
X101261905Y-114883390D01*
X101261905Y-114883390D02*
X101357143Y-114835771D01*
X101357143Y-114835771D02*
X101595238Y-114835771D01*
X101595238Y-114835771D02*
X101690476Y-114883390D01*
X101690476Y-114883390D02*
X101738095Y-114931009D01*
X101738095Y-114931009D02*
X101785714Y-115026247D01*
X101785714Y-115026247D02*
X101785714Y-115264342D01*
X101785714Y-115264342D02*
X101738095Y-115359580D01*
X101738095Y-115359580D02*
X101690476Y-115407200D01*
X101690476Y-115407200D02*
X101595238Y-115454819D01*
X101595238Y-115454819D02*
X101357143Y-115454819D01*
X101357143Y-115454819D02*
X101261905Y-115407200D01*
X101261905Y-115407200D02*
X101214286Y-115359580D01*
X100833333Y-109454819D02*
X100500000Y-108978628D01*
X100261905Y-109454819D02*
X100261905Y-108454819D01*
X100261905Y-108454819D02*
X100642857Y-108454819D01*
X100642857Y-108454819D02*
X100738095Y-108502438D01*
X100738095Y-108502438D02*
X100785714Y-108550057D01*
X100785714Y-108550057D02*
X100833333Y-108645295D01*
X100833333Y-108645295D02*
X100833333Y-108788152D01*
X100833333Y-108788152D02*
X100785714Y-108883390D01*
X100785714Y-108883390D02*
X100738095Y-108931009D01*
X100738095Y-108931009D02*
X100642857Y-108978628D01*
X100642857Y-108978628D02*
X100261905Y-108978628D01*
X101166667Y-108454819D02*
X101785714Y-108454819D01*
X101785714Y-108454819D02*
X101452381Y-108835771D01*
X101452381Y-108835771D02*
X101595238Y-108835771D01*
X101595238Y-108835771D02*
X101690476Y-108883390D01*
X101690476Y-108883390D02*
X101738095Y-108931009D01*
X101738095Y-108931009D02*
X101785714Y-109026247D01*
X101785714Y-109026247D02*
X101785714Y-109264342D01*
X101785714Y-109264342D02*
X101738095Y-109359580D01*
X101738095Y-109359580D02*
X101690476Y-109407200D01*
X101690476Y-109407200D02*
X101595238Y-109454819D01*
X101595238Y-109454819D02*
X101309524Y-109454819D01*
X101309524Y-109454819D02*
X101214286Y-109407200D01*
X101214286Y-109407200D02*
X101166667Y-109359580D01*
X100833333Y-106454819D02*
X100500000Y-105978628D01*
X100261905Y-106454819D02*
X100261905Y-105454819D01*
X100261905Y-105454819D02*
X100642857Y-105454819D01*
X100642857Y-105454819D02*
X100738095Y-105502438D01*
X100738095Y-105502438D02*
X100785714Y-105550057D01*
X100785714Y-105550057D02*
X100833333Y-105645295D01*
X100833333Y-105645295D02*
X100833333Y-105788152D01*
X100833333Y-105788152D02*
X100785714Y-105883390D01*
X100785714Y-105883390D02*
X100738095Y-105931009D01*
X100738095Y-105931009D02*
X100642857Y-105978628D01*
X100642857Y-105978628D02*
X100261905Y-105978628D01*
X101214286Y-105550057D02*
X101261905Y-105502438D01*
X101261905Y-105502438D02*
X101357143Y-105454819D01*
X101357143Y-105454819D02*
X101595238Y-105454819D01*
X101595238Y-105454819D02*
X101690476Y-105502438D01*
X101690476Y-105502438D02*
X101738095Y-105550057D01*
X101738095Y-105550057D02*
X101785714Y-105645295D01*
X101785714Y-105645295D02*
X101785714Y-105740533D01*
X101785714Y-105740533D02*
X101738095Y-105883390D01*
X101738095Y-105883390D02*
X101166667Y-106454819D01*
X101166667Y-106454819D02*
X101785714Y-106454819D01*
X100833333Y-103454819D02*
X100500000Y-102978628D01*
X100261905Y-103454819D02*
X100261905Y-102454819D01*
X100261905Y-102454819D02*
X100642857Y-102454819D01*
X100642857Y-102454819D02*
X100738095Y-102502438D01*
X100738095Y-102502438D02*
X100785714Y-102550057D01*
X100785714Y-102550057D02*
X100833333Y-102645295D01*
X100833333Y-102645295D02*
X100833333Y-102788152D01*
X100833333Y-102788152D02*
X100785714Y-102883390D01*
X100785714Y-102883390D02*
X100738095Y-102931009D01*
X100738095Y-102931009D02*
X100642857Y-102978628D01*
X100642857Y-102978628D02*
X100261905Y-102978628D01*
X101785714Y-103454819D02*
X101214286Y-103454819D01*
X101500000Y-103454819D02*
X101500000Y-102454819D01*
X101500000Y-102454819D02*
X101404762Y-102597676D01*
X101404762Y-102597676D02*
X101309524Y-102692914D01*
X101309524Y-102692914D02*
X101214286Y-102740533D01*
X91225986Y-72802494D02*
X91178367Y-72850114D01*
X91178367Y-72850114D02*
X91035510Y-72897733D01*
X91035510Y-72897733D02*
X90940272Y-72897733D01*
X90940272Y-72897733D02*
X90797415Y-72850114D01*
X90797415Y-72850114D02*
X90702177Y-72754875D01*
X90702177Y-72754875D02*
X90654558Y-72659637D01*
X90654558Y-72659637D02*
X90606939Y-72469161D01*
X90606939Y-72469161D02*
X90606939Y-72326304D01*
X90606939Y-72326304D02*
X90654558Y-72135828D01*
X90654558Y-72135828D02*
X90702177Y-72040590D01*
X90702177Y-72040590D02*
X90797415Y-71945352D01*
X90797415Y-71945352D02*
X90940272Y-71897733D01*
X90940272Y-71897733D02*
X91035510Y-71897733D01*
X91035510Y-71897733D02*
X91178367Y-71945352D01*
X91178367Y-71945352D02*
X91225986Y-71992971D01*
X91559320Y-71897733D02*
X92178367Y-71897733D01*
X92178367Y-71897733D02*
X91845034Y-72278685D01*
X91845034Y-72278685D02*
X91987891Y-72278685D01*
X91987891Y-72278685D02*
X92083129Y-72326304D01*
X92083129Y-72326304D02*
X92130748Y-72373923D01*
X92130748Y-72373923D02*
X92178367Y-72469161D01*
X92178367Y-72469161D02*
X92178367Y-72707256D01*
X92178367Y-72707256D02*
X92130748Y-72802494D01*
X92130748Y-72802494D02*
X92083129Y-72850114D01*
X92083129Y-72850114D02*
X91987891Y-72897733D01*
X91987891Y-72897733D02*
X91702177Y-72897733D01*
X91702177Y-72897733D02*
X91606939Y-72850114D01*
X91606939Y-72850114D02*
X91559320Y-72802494D01*
X102129555Y-80268184D02*
X102081936Y-80315804D01*
X102081936Y-80315804D02*
X101939079Y-80363423D01*
X101939079Y-80363423D02*
X101843841Y-80363423D01*
X101843841Y-80363423D02*
X101700984Y-80315804D01*
X101700984Y-80315804D02*
X101605746Y-80220565D01*
X101605746Y-80220565D02*
X101558127Y-80125327D01*
X101558127Y-80125327D02*
X101510508Y-79934851D01*
X101510508Y-79934851D02*
X101510508Y-79791994D01*
X101510508Y-79791994D02*
X101558127Y-79601518D01*
X101558127Y-79601518D02*
X101605746Y-79506280D01*
X101605746Y-79506280D02*
X101700984Y-79411042D01*
X101700984Y-79411042D02*
X101843841Y-79363423D01*
X101843841Y-79363423D02*
X101939079Y-79363423D01*
X101939079Y-79363423D02*
X102081936Y-79411042D01*
X102081936Y-79411042D02*
X102129555Y-79458661D01*
X102510508Y-79458661D02*
X102558127Y-79411042D01*
X102558127Y-79411042D02*
X102653365Y-79363423D01*
X102653365Y-79363423D02*
X102891460Y-79363423D01*
X102891460Y-79363423D02*
X102986698Y-79411042D01*
X102986698Y-79411042D02*
X103034317Y-79458661D01*
X103034317Y-79458661D02*
X103081936Y-79553899D01*
X103081936Y-79553899D02*
X103081936Y-79649137D01*
X103081936Y-79649137D02*
X103034317Y-79791994D01*
X103034317Y-79791994D02*
X102462889Y-80363423D01*
X102462889Y-80363423D02*
X103081936Y-80363423D01*
X90833333Y-98359580D02*
X90785714Y-98407200D01*
X90785714Y-98407200D02*
X90642857Y-98454819D01*
X90642857Y-98454819D02*
X90547619Y-98454819D01*
X90547619Y-98454819D02*
X90404762Y-98407200D01*
X90404762Y-98407200D02*
X90309524Y-98311961D01*
X90309524Y-98311961D02*
X90261905Y-98216723D01*
X90261905Y-98216723D02*
X90214286Y-98026247D01*
X90214286Y-98026247D02*
X90214286Y-97883390D01*
X90214286Y-97883390D02*
X90261905Y-97692914D01*
X90261905Y-97692914D02*
X90309524Y-97597676D01*
X90309524Y-97597676D02*
X90404762Y-97502438D01*
X90404762Y-97502438D02*
X90547619Y-97454819D01*
X90547619Y-97454819D02*
X90642857Y-97454819D01*
X90642857Y-97454819D02*
X90785714Y-97502438D01*
X90785714Y-97502438D02*
X90833333Y-97550057D01*
X91785714Y-98454819D02*
X91214286Y-98454819D01*
X91500000Y-98454819D02*
X91500000Y-97454819D01*
X91500000Y-97454819D02*
X91404762Y-97597676D01*
X91404762Y-97597676D02*
X91309524Y-97692914D01*
X91309524Y-97692914D02*
X91214286Y-97740533D01*
X92139994Y-121870057D02*
X92044756Y-121822438D01*
X92044756Y-121822438D02*
X91949518Y-121727200D01*
X91949518Y-121727200D02*
X91806661Y-121584342D01*
X91806661Y-121584342D02*
X91711423Y-121536723D01*
X91711423Y-121536723D02*
X91616185Y-121536723D01*
X91663804Y-121774819D02*
X91568566Y-121727200D01*
X91568566Y-121727200D02*
X91473328Y-121631961D01*
X91473328Y-121631961D02*
X91425709Y-121441485D01*
X91425709Y-121441485D02*
X91425709Y-121108152D01*
X91425709Y-121108152D02*
X91473328Y-120917676D01*
X91473328Y-120917676D02*
X91568566Y-120822438D01*
X91568566Y-120822438D02*
X91663804Y-120774819D01*
X91663804Y-120774819D02*
X91854280Y-120774819D01*
X91854280Y-120774819D02*
X91949518Y-120822438D01*
X91949518Y-120822438D02*
X92044756Y-120917676D01*
X92044756Y-120917676D02*
X92092375Y-121108152D01*
X92092375Y-121108152D02*
X92092375Y-121441485D01*
X92092375Y-121441485D02*
X92044756Y-121631961D01*
X92044756Y-121631961D02*
X91949518Y-121727200D01*
X91949518Y-121727200D02*
X91854280Y-121774819D01*
X91854280Y-121774819D02*
X91663804Y-121774819D01*
X93044756Y-121774819D02*
X92473328Y-121774819D01*
X92759042Y-121774819D02*
X92759042Y-120774819D01*
X92759042Y-120774819D02*
X92663804Y-120917676D01*
X92663804Y-120917676D02*
X92568566Y-121012914D01*
X92568566Y-121012914D02*
X92473328Y-121060533D01*
X99666666Y-126729819D02*
X99666666Y-127444104D01*
X99666666Y-127444104D02*
X99619047Y-127586961D01*
X99619047Y-127586961D02*
X99523809Y-127682200D01*
X99523809Y-127682200D02*
X99380952Y-127729819D01*
X99380952Y-127729819D02*
X99285714Y-127729819D01*
X100285714Y-127158390D02*
X100190476Y-127110771D01*
X100190476Y-127110771D02*
X100142857Y-127063152D01*
X100142857Y-127063152D02*
X100095238Y-126967914D01*
X100095238Y-126967914D02*
X100095238Y-126920295D01*
X100095238Y-126920295D02*
X100142857Y-126825057D01*
X100142857Y-126825057D02*
X100190476Y-126777438D01*
X100190476Y-126777438D02*
X100285714Y-126729819D01*
X100285714Y-126729819D02*
X100476190Y-126729819D01*
X100476190Y-126729819D02*
X100571428Y-126777438D01*
X100571428Y-126777438D02*
X100619047Y-126825057D01*
X100619047Y-126825057D02*
X100666666Y-126920295D01*
X100666666Y-126920295D02*
X100666666Y-126967914D01*
X100666666Y-126967914D02*
X100619047Y-127063152D01*
X100619047Y-127063152D02*
X100571428Y-127110771D01*
X100571428Y-127110771D02*
X100476190Y-127158390D01*
X100476190Y-127158390D02*
X100285714Y-127158390D01*
X100285714Y-127158390D02*
X100190476Y-127206009D01*
X100190476Y-127206009D02*
X100142857Y-127253628D01*
X100142857Y-127253628D02*
X100095238Y-127348866D01*
X100095238Y-127348866D02*
X100095238Y-127539342D01*
X100095238Y-127539342D02*
X100142857Y-127634580D01*
X100142857Y-127634580D02*
X100190476Y-127682200D01*
X100190476Y-127682200D02*
X100285714Y-127729819D01*
X100285714Y-127729819D02*
X100476190Y-127729819D01*
X100476190Y-127729819D02*
X100571428Y-127682200D01*
X100571428Y-127682200D02*
X100619047Y-127634580D01*
X100619047Y-127634580D02*
X100666666Y-127539342D01*
X100666666Y-127539342D02*
X100666666Y-127348866D01*
X100666666Y-127348866D02*
X100619047Y-127253628D01*
X100619047Y-127253628D02*
X100571428Y-127206009D01*
X100571428Y-127206009D02*
X100476190Y-127158390D01*
X90144864Y-74131829D02*
X90144864Y-74941352D01*
X90144864Y-74941352D02*
X90192483Y-75036590D01*
X90192483Y-75036590D02*
X90240102Y-75084210D01*
X90240102Y-75084210D02*
X90335340Y-75131829D01*
X90335340Y-75131829D02*
X90525816Y-75131829D01*
X90525816Y-75131829D02*
X90621054Y-75084210D01*
X90621054Y-75084210D02*
X90668673Y-75036590D01*
X90668673Y-75036590D02*
X90716292Y-74941352D01*
X90716292Y-74941352D02*
X90716292Y-74131829D01*
X91097245Y-74131829D02*
X91716292Y-74131829D01*
X91716292Y-74131829D02*
X91382959Y-74512781D01*
X91382959Y-74512781D02*
X91525816Y-74512781D01*
X91525816Y-74512781D02*
X91621054Y-74560400D01*
X91621054Y-74560400D02*
X91668673Y-74608019D01*
X91668673Y-74608019D02*
X91716292Y-74703257D01*
X91716292Y-74703257D02*
X91716292Y-74941352D01*
X91716292Y-74941352D02*
X91668673Y-75036590D01*
X91668673Y-75036590D02*
X91621054Y-75084210D01*
X91621054Y-75084210D02*
X91525816Y-75131829D01*
X91525816Y-75131829D02*
X91240102Y-75131829D01*
X91240102Y-75131829D02*
X91144864Y-75084210D01*
X91144864Y-75084210D02*
X91097245Y-75036590D01*
X83936666Y-68904819D02*
X83936666Y-69619104D01*
X83936666Y-69619104D02*
X83889047Y-69761961D01*
X83889047Y-69761961D02*
X83793809Y-69857200D01*
X83793809Y-69857200D02*
X83650952Y-69904819D01*
X83650952Y-69904819D02*
X83555714Y-69904819D01*
X84889047Y-68904819D02*
X84412857Y-68904819D01*
X84412857Y-68904819D02*
X84365238Y-69381009D01*
X84365238Y-69381009D02*
X84412857Y-69333390D01*
X84412857Y-69333390D02*
X84508095Y-69285771D01*
X84508095Y-69285771D02*
X84746190Y-69285771D01*
X84746190Y-69285771D02*
X84841428Y-69333390D01*
X84841428Y-69333390D02*
X84889047Y-69381009D01*
X84889047Y-69381009D02*
X84936666Y-69476247D01*
X84936666Y-69476247D02*
X84936666Y-69714342D01*
X84936666Y-69714342D02*
X84889047Y-69809580D01*
X84889047Y-69809580D02*
X84841428Y-69857200D01*
X84841428Y-69857200D02*
X84746190Y-69904819D01*
X84746190Y-69904819D02*
X84508095Y-69904819D01*
X84508095Y-69904819D02*
X84412857Y-69857200D01*
X84412857Y-69857200D02*
X84365238Y-69809580D01*
X101141696Y-81119092D02*
X101141696Y-81928615D01*
X101141696Y-81928615D02*
X101189315Y-82023853D01*
X101189315Y-82023853D02*
X101236934Y-82071473D01*
X101236934Y-82071473D02*
X101332172Y-82119092D01*
X101332172Y-82119092D02*
X101522648Y-82119092D01*
X101522648Y-82119092D02*
X101617886Y-82071473D01*
X101617886Y-82071473D02*
X101665505Y-82023853D01*
X101665505Y-82023853D02*
X101713124Y-81928615D01*
X101713124Y-81928615D02*
X101713124Y-81119092D01*
X102713124Y-82119092D02*
X102141696Y-82119092D01*
X102427410Y-82119092D02*
X102427410Y-81119092D01*
X102427410Y-81119092D02*
X102332172Y-81261949D01*
X102332172Y-81261949D02*
X102236934Y-81357187D01*
X102236934Y-81357187D02*
X102141696Y-81404806D01*
X109718502Y-75623015D02*
X110432787Y-75623015D01*
X110432787Y-75623015D02*
X110575644Y-75670634D01*
X110575644Y-75670634D02*
X110670883Y-75765872D01*
X110670883Y-75765872D02*
X110718502Y-75908729D01*
X110718502Y-75908729D02*
X110718502Y-76003967D01*
X109718502Y-75242062D02*
X109718502Y-74575396D01*
X109718502Y-74575396D02*
X110718502Y-75003967D01*
X90238095Y-99454819D02*
X90238095Y-100264342D01*
X90238095Y-100264342D02*
X90285714Y-100359580D01*
X90285714Y-100359580D02*
X90333333Y-100407200D01*
X90333333Y-100407200D02*
X90428571Y-100454819D01*
X90428571Y-100454819D02*
X90619047Y-100454819D01*
X90619047Y-100454819D02*
X90714285Y-100407200D01*
X90714285Y-100407200D02*
X90761904Y-100359580D01*
X90761904Y-100359580D02*
X90809523Y-100264342D01*
X90809523Y-100264342D02*
X90809523Y-99454819D01*
X91238095Y-99550057D02*
X91285714Y-99502438D01*
X91285714Y-99502438D02*
X91380952Y-99454819D01*
X91380952Y-99454819D02*
X91619047Y-99454819D01*
X91619047Y-99454819D02*
X91714285Y-99502438D01*
X91714285Y-99502438D02*
X91761904Y-99550057D01*
X91761904Y-99550057D02*
X91809523Y-99645295D01*
X91809523Y-99645295D02*
X91809523Y-99740533D01*
X91809523Y-99740533D02*
X91761904Y-99883390D01*
X91761904Y-99883390D02*
X91190476Y-100454819D01*
X91190476Y-100454819D02*
X91809523Y-100454819D01*
X99663817Y-134332371D02*
X99663817Y-135046656D01*
X99663817Y-135046656D02*
X99616198Y-135189513D01*
X99616198Y-135189513D02*
X99520960Y-135284752D01*
X99520960Y-135284752D02*
X99378103Y-135332371D01*
X99378103Y-135332371D02*
X99282865Y-135332371D01*
X100568579Y-134332371D02*
X100378103Y-134332371D01*
X100378103Y-134332371D02*
X100282865Y-134379990D01*
X100282865Y-134379990D02*
X100235246Y-134427609D01*
X100235246Y-134427609D02*
X100140008Y-134570466D01*
X100140008Y-134570466D02*
X100092389Y-134760942D01*
X100092389Y-134760942D02*
X100092389Y-135141894D01*
X100092389Y-135141894D02*
X100140008Y-135237132D01*
X100140008Y-135237132D02*
X100187627Y-135284752D01*
X100187627Y-135284752D02*
X100282865Y-135332371D01*
X100282865Y-135332371D02*
X100473341Y-135332371D01*
X100473341Y-135332371D02*
X100568579Y-135284752D01*
X100568579Y-135284752D02*
X100616198Y-135237132D01*
X100616198Y-135237132D02*
X100663817Y-135141894D01*
X100663817Y-135141894D02*
X100663817Y-134903799D01*
X100663817Y-134903799D02*
X100616198Y-134808561D01*
X100616198Y-134808561D02*
X100568579Y-134760942D01*
X100568579Y-134760942D02*
X100473341Y-134713323D01*
X100473341Y-134713323D02*
X100282865Y-134713323D01*
X100282865Y-134713323D02*
X100187627Y-134760942D01*
X100187627Y-134760942D02*
X100140008Y-134808561D01*
X100140008Y-134808561D02*
X100092389Y-134903799D01*
X68351666Y-68904819D02*
X68351666Y-69619104D01*
X68351666Y-69619104D02*
X68304047Y-69761961D01*
X68304047Y-69761961D02*
X68208809Y-69857200D01*
X68208809Y-69857200D02*
X68065952Y-69904819D01*
X68065952Y-69904819D02*
X67970714Y-69904819D01*
X68780238Y-69000057D02*
X68827857Y-68952438D01*
X68827857Y-68952438D02*
X68923095Y-68904819D01*
X68923095Y-68904819D02*
X69161190Y-68904819D01*
X69161190Y-68904819D02*
X69256428Y-68952438D01*
X69256428Y-68952438D02*
X69304047Y-69000057D01*
X69304047Y-69000057D02*
X69351666Y-69095295D01*
X69351666Y-69095295D02*
X69351666Y-69190533D01*
X69351666Y-69190533D02*
X69304047Y-69333390D01*
X69304047Y-69333390D02*
X68732619Y-69904819D01*
X68732619Y-69904819D02*
X69351666Y-69904819D01*
X91279772Y-131452434D02*
X91279772Y-132166719D01*
X91279772Y-132166719D02*
X91232153Y-132309576D01*
X91232153Y-132309576D02*
X91136915Y-132404815D01*
X91136915Y-132404815D02*
X90994058Y-132452434D01*
X90994058Y-132452434D02*
X90898820Y-132452434D01*
X92184534Y-131785767D02*
X92184534Y-132452434D01*
X91946439Y-131404815D02*
X91708344Y-132119100D01*
X91708344Y-132119100D02*
X92327391Y-132119100D01*
X100833333Y-112454819D02*
X100500000Y-111978628D01*
X100261905Y-112454819D02*
X100261905Y-111454819D01*
X100261905Y-111454819D02*
X100642857Y-111454819D01*
X100642857Y-111454819D02*
X100738095Y-111502438D01*
X100738095Y-111502438D02*
X100785714Y-111550057D01*
X100785714Y-111550057D02*
X100833333Y-111645295D01*
X100833333Y-111645295D02*
X100833333Y-111788152D01*
X100833333Y-111788152D02*
X100785714Y-111883390D01*
X100785714Y-111883390D02*
X100738095Y-111931009D01*
X100738095Y-111931009D02*
X100642857Y-111978628D01*
X100642857Y-111978628D02*
X100261905Y-111978628D01*
X101690476Y-111788152D02*
X101690476Y-112454819D01*
X101452381Y-111407200D02*
X101214286Y-112121485D01*
X101214286Y-112121485D02*
X101833333Y-112121485D01*
D13*
X110460000Y-122370000D02*
X103920000Y-122370000D01*
X110460000Y-122040000D02*
X110460000Y-122370000D01*
X110460000Y-119960000D02*
X110460000Y-119630000D01*
X110460000Y-119630000D02*
X103920000Y-119630000D01*
X103920000Y-122370000D02*
X103920000Y-122040000D01*
X103920000Y-119630000D02*
X103920000Y-119960000D01*
X99460000Y-70370000D02*
X92920000Y-70370000D01*
X99460000Y-70040000D02*
X99460000Y-70370000D01*
X99460000Y-67960000D02*
X99460000Y-67630000D01*
X99460000Y-67630000D02*
X92920000Y-67630000D01*
X92920000Y-70370000D02*
X92920000Y-70040000D01*
X92920000Y-67630000D02*
X92920000Y-67960000D01*
X110460000Y-119370000D02*
X103920000Y-119370000D01*
X110460000Y-119040000D02*
X110460000Y-119370000D01*
X110460000Y-116960000D02*
X110460000Y-116630000D01*
X110460000Y-116630000D02*
X103920000Y-116630000D01*
X103920000Y-119370000D02*
X103920000Y-119040000D01*
X103920000Y-116630000D02*
X103920000Y-116960000D01*
X110460000Y-116370000D02*
X103920000Y-116370000D01*
X110460000Y-116040000D02*
X110460000Y-116370000D01*
X110460000Y-113960000D02*
X110460000Y-113630000D01*
X110460000Y-113630000D02*
X103920000Y-113630000D01*
X103920000Y-116370000D02*
X103920000Y-116040000D01*
X103920000Y-113630000D02*
X103920000Y-113960000D01*
X110460000Y-110370000D02*
X103920000Y-110370000D01*
X110460000Y-110040000D02*
X110460000Y-110370000D01*
X110460000Y-107960000D02*
X110460000Y-107630000D01*
X110460000Y-107630000D02*
X103920000Y-107630000D01*
X103920000Y-110370000D02*
X103920000Y-110040000D01*
X103920000Y-107630000D02*
X103920000Y-107960000D01*
X110460000Y-107370000D02*
X103920000Y-107370000D01*
X110460000Y-107040000D02*
X110460000Y-107370000D01*
X110460000Y-104960000D02*
X110460000Y-104630000D01*
X110460000Y-104630000D02*
X103920000Y-104630000D01*
X103920000Y-107370000D02*
X103920000Y-107040000D01*
X103920000Y-104630000D02*
X103920000Y-104960000D01*
X110460000Y-104370000D02*
X103920000Y-104370000D01*
X110460000Y-104040000D02*
X110460000Y-104370000D01*
X110460000Y-101960000D02*
X110460000Y-101630000D01*
X110460000Y-101630000D02*
X103920000Y-101630000D01*
X103920000Y-104370000D02*
X103920000Y-104040000D01*
X103920000Y-101630000D02*
X103920000Y-101960000D01*
X93970341Y-71890682D02*
X93970341Y-71905682D01*
X93970341Y-71890682D02*
X98510341Y-71890682D01*
X93970341Y-74015682D02*
X93970341Y-74030682D01*
X93970341Y-74030682D02*
X98510341Y-74030682D01*
X98510341Y-71890682D02*
X98510341Y-71905682D01*
X98510341Y-74015682D02*
X98510341Y-74030682D01*
X109270000Y-81578286D02*
X109270000Y-81563286D01*
X109270000Y-81578286D02*
X104730000Y-81578286D01*
X109270000Y-79453286D02*
X109270000Y-79438286D01*
X109270000Y-79438286D02*
X104730000Y-79438286D01*
X104730000Y-81578286D02*
X104730000Y-81563286D01*
X104730000Y-79453286D02*
X104730000Y-79438286D01*
X98146184Y-99256049D02*
X98146184Y-99241049D01*
X98146184Y-99256049D02*
X93606184Y-99256049D01*
X98146184Y-97131049D02*
X98146184Y-97116049D01*
X98146184Y-97116049D02*
X93606184Y-97116049D01*
X93606184Y-99256049D02*
X93606184Y-99241049D01*
X93606184Y-97131049D02*
X93606184Y-97116049D01*
D14*
G36*
X68303057Y-127196186D02*
G01*
X68378506Y-127257504D01*
X68423068Y-127341852D01*
X68420878Y-127389214D01*
X68413668Y-127495353D01*
X68490549Y-127565674D01*
X68655613Y-127602433D01*
X68820020Y-127609412D01*
X68993210Y-127612634D01*
X69089071Y-127626941D01*
X69129795Y-127659293D01*
X69137647Y-127709020D01*
X69130432Y-127755531D01*
X69096401Y-127784790D01*
X69016976Y-127800755D01*
X68873580Y-127807380D01*
X68669864Y-127808628D01*
X68202080Y-127808628D01*
X68197904Y-127512015D01*
X68201369Y-127350404D01*
X68214612Y-127233683D01*
X68230453Y-127192706D01*
X68303057Y-127196186D01*
G37*
G36*
X69718576Y-127432203D02*
G01*
X69793056Y-127504736D01*
X69840428Y-127624606D01*
X69844397Y-127650410D01*
X69858348Y-127721363D01*
X69895054Y-127762682D01*
X69977660Y-127784113D01*
X70129309Y-127795400D01*
X70195981Y-127798452D01*
X70374246Y-127808579D01*
X70474963Y-127825284D01*
X70520163Y-127857544D01*
X70531877Y-127914334D01*
X70532157Y-127935413D01*
X70528574Y-127992236D01*
X70505335Y-128027987D01*
X70443703Y-128047547D01*
X70324944Y-128055799D01*
X70130321Y-128057623D01*
X70063047Y-128057647D01*
X69593937Y-128057647D01*
X69592514Y-127760154D01*
X69599426Y-127596646D01*
X69618805Y-127476418D01*
X69640472Y-127432141D01*
X69718576Y-127432203D01*
G37*
G36*
X68417162Y-126514069D02*
G01*
X68436708Y-126534188D01*
X68471488Y-126623602D01*
X68442096Y-126709758D01*
X68415240Y-126844127D01*
X68470748Y-126953014D01*
X68591406Y-127008658D01*
X68628910Y-127011002D01*
X68788350Y-126989549D01*
X68866638Y-126919132D01*
X68875328Y-126787218D01*
X68869329Y-126750194D01*
X68863573Y-126602409D01*
X68901549Y-126513027D01*
X68969032Y-126495435D01*
X69051791Y-126563023D01*
X69058455Y-126572237D01*
X69127075Y-126743222D01*
X69123587Y-126928424D01*
X69049565Y-127086793D01*
X69038236Y-127099688D01*
X68890744Y-127198466D01*
X68705772Y-127241812D01*
X68514518Y-127231352D01*
X68348182Y-127168713D01*
X68239274Y-127058012D01*
X68197915Y-126926327D01*
X68195597Y-126782827D01*
X68224342Y-126648683D01*
X68276170Y-126545063D01*
X68343103Y-126493135D01*
X68417162Y-126514069D01*
G37*
G36*
X68809321Y-133545156D02*
G01*
X68973551Y-133606682D01*
X69029358Y-133651347D01*
X69117582Y-133807091D01*
X69131911Y-133983481D01*
X69071739Y-134143328D01*
X69038040Y-134183530D01*
X68916358Y-134250384D01*
X68741861Y-134284761D01*
X68661194Y-134285391D01*
X68551505Y-134286248D01*
X68382245Y-134254435D01*
X68273798Y-134192059D01*
X68206292Y-134052902D01*
X68197007Y-133911530D01*
X68416305Y-133911530D01*
X68443774Y-133998215D01*
X68531893Y-134059796D01*
X68661194Y-134082556D01*
X68809849Y-134053691D01*
X68877161Y-133983905D01*
X68878779Y-133878584D01*
X68828863Y-133795059D01*
X68712874Y-133740974D01*
X68572608Y-133752462D01*
X68468951Y-133813459D01*
X68416305Y-133911530D01*
X68197007Y-133911530D01*
X68194801Y-133877935D01*
X68237915Y-133712739D01*
X68290981Y-133635687D01*
X68428750Y-133558824D01*
X68614626Y-133528925D01*
X68809321Y-133545156D01*
G37*
G36*
X68809321Y-128863587D02*
G01*
X68973551Y-128925114D01*
X69029358Y-128969779D01*
X69118825Y-129131418D01*
X69128806Y-129317024D01*
X69058050Y-129488913D01*
X69047050Y-129503201D01*
X68929441Y-129580620D01*
X68756037Y-129621050D01*
X68659535Y-129622116D01*
X68564045Y-129623170D01*
X68390673Y-129585658D01*
X68294384Y-129529942D01*
X68212853Y-129396321D01*
X68192520Y-129243444D01*
X68410593Y-129243444D01*
X68445632Y-129333960D01*
X68529792Y-129378611D01*
X68659535Y-129400989D01*
X68786183Y-129396914D01*
X68855425Y-129369151D01*
X68889565Y-129275058D01*
X68856831Y-129167659D01*
X68790042Y-129104077D01*
X68660559Y-129070255D01*
X68538555Y-129092623D01*
X68447432Y-129155559D01*
X68410593Y-129243444D01*
X68192520Y-129243444D01*
X68189900Y-129223742D01*
X68225770Y-129053994D01*
X68290981Y-128954118D01*
X68428750Y-128877256D01*
X68614626Y-128847356D01*
X68809321Y-128863587D01*
G37*
G36*
X68949176Y-130948528D02*
G01*
X69063621Y-130958837D01*
X69119354Y-130982530D01*
X69136803Y-131024931D01*
X69137647Y-131045883D01*
X69126615Y-131101778D01*
X69078255Y-131131834D01*
X68969672Y-131143775D01*
X68842381Y-131145490D01*
X68621396Y-131164341D01*
X68476105Y-131218034D01*
X68414482Y-131302284D01*
X68422935Y-131371049D01*
X68468275Y-131412935D01*
X68575657Y-131436185D01*
X68762380Y-131444211D01*
X68794349Y-131444314D01*
X68974773Y-131446213D01*
X69077466Y-131457199D01*
X69124296Y-131485204D01*
X69137132Y-131538158D01*
X69137647Y-131568824D01*
X69134362Y-131626505D01*
X69112066Y-131662883D01*
X69052103Y-131682869D01*
X68935814Y-131691372D01*
X68744542Y-131693302D01*
X68664510Y-131693334D01*
X68191373Y-131693334D01*
X68191373Y-131402229D01*
X68202026Y-131204021D01*
X68244837Y-131072482D01*
X68336084Y-130994457D01*
X68492046Y-130956792D01*
X68729002Y-130946331D01*
X68755589Y-130946275D01*
X68949176Y-130948528D01*
G37*
G36*
X69130995Y-128250935D02*
G01*
X69119828Y-128441020D01*
X69088488Y-128587292D01*
X69064747Y-128636345D01*
X69008151Y-128685867D01*
X68911356Y-128717967D01*
X68752317Y-128737837D01*
X68594236Y-128747154D01*
X68191373Y-128765449D01*
X68191373Y-128637941D01*
X68197054Y-128570128D01*
X68228810Y-128530567D01*
X68308711Y-128509920D01*
X68458824Y-128498851D01*
X68527549Y-128495707D01*
X68705752Y-128485655D01*
X68806431Y-128469063D01*
X68851635Y-128436798D01*
X68863414Y-128379728D01*
X68863726Y-128356471D01*
X68857662Y-128290204D01*
X68824771Y-128251475D01*
X68743002Y-128231151D01*
X68590307Y-128220099D01*
X68527549Y-128217235D01*
X68349284Y-128207108D01*
X68248567Y-128190402D01*
X68203367Y-128158143D01*
X68191653Y-128101353D01*
X68191373Y-128080274D01*
X68194956Y-128023451D01*
X68218195Y-127987700D01*
X68279827Y-127968140D01*
X68398586Y-127959888D01*
X68593209Y-127958064D01*
X68660483Y-127958039D01*
X69129594Y-127958039D01*
X69130995Y-128250935D01*
G37*
G36*
X68739216Y-125989221D02*
G01*
X68744580Y-126147705D01*
X68764032Y-126224441D01*
X68802615Y-126236879D01*
X68810071Y-126234390D01*
X68897448Y-126155434D01*
X68911132Y-126032625D01*
X68883587Y-125956464D01*
X68857420Y-125857381D01*
X68911712Y-125773308D01*
X68979883Y-125720415D01*
X69031661Y-125745283D01*
X69065986Y-125788637D01*
X69132465Y-125954433D01*
X69123974Y-126141316D01*
X69044176Y-126309228D01*
X69015402Y-126341676D01*
X68907050Y-126423164D01*
X68771974Y-126458678D01*
X68651263Y-126463922D01*
X68458325Y-126436656D01*
X68424738Y-126431910D01*
X68272908Y-126337417D01*
X68198695Y-126182758D01*
X68191373Y-126099534D01*
X68196285Y-126071080D01*
X68405830Y-126071080D01*
X68407117Y-126136334D01*
X68458325Y-126209832D01*
X68507542Y-126195598D01*
X68537364Y-126104309D01*
X68540000Y-126054818D01*
X68535373Y-125950384D01*
X68511409Y-125930893D01*
X68458484Y-125976250D01*
X68405830Y-126071080D01*
X68196285Y-126071080D01*
X68225838Y-125899876D01*
X68328301Y-125772407D01*
X68497368Y-125718648D01*
X68542825Y-125716863D01*
X68739216Y-125716863D01*
X68739216Y-125989221D01*
G37*
G36*
X70183530Y-126947731D02*
G01*
X70185713Y-127105135D01*
X70196784Y-127179279D01*
X70223528Y-127186492D01*
X70267068Y-127148787D01*
X70322530Y-127060894D01*
X70300743Y-126955917D01*
X70297664Y-126949053D01*
X70272202Y-126830640D01*
X70316813Y-126735547D01*
X70374785Y-126667910D01*
X70417832Y-126680716D01*
X70460531Y-126734911D01*
X70516571Y-126870771D01*
X70531725Y-127042492D01*
X70507337Y-127207786D01*
X70444748Y-127324366D01*
X70441732Y-127327180D01*
X70292444Y-127409371D01*
X70105122Y-127441361D01*
X69922059Y-127426643D01*
X69911958Y-127425831D01*
X69745140Y-127365459D01*
X69636862Y-127262924D01*
X69635304Y-127260070D01*
X69587189Y-127079086D01*
X69590835Y-127061569D01*
X69859804Y-127061569D01*
X69883282Y-127160141D01*
X69922059Y-127198530D01*
X69969288Y-127172613D01*
X69984314Y-127061569D01*
X69967870Y-126947405D01*
X69922059Y-126924608D01*
X69873445Y-126984638D01*
X69859804Y-127061569D01*
X69590835Y-127061569D01*
X69623126Y-126906451D01*
X69728672Y-126765362D01*
X69889385Y-126679017D01*
X70006952Y-126663138D01*
X70183530Y-126663138D01*
X70183530Y-126947731D01*
G37*
G36*
X70532157Y-132103674D02*
G01*
X70524594Y-132300380D01*
X70497960Y-132424573D01*
X70446339Y-132502476D01*
X70441079Y-132507379D01*
X70298736Y-132586572D01*
X70250036Y-132583292D01*
X70164440Y-132577528D01*
X70056538Y-132491086D01*
X69993383Y-132338082D01*
X69984314Y-132237619D01*
X69979061Y-132187222D01*
X70183530Y-132187222D01*
X70200891Y-132307924D01*
X70250036Y-132339550D01*
X70301840Y-132305481D01*
X70326792Y-132223470D01*
X70305015Y-132120962D01*
X70249337Y-132055470D01*
X70245785Y-132054163D01*
X70198388Y-132080105D01*
X70183530Y-132187222D01*
X69979061Y-132187222D01*
X69969534Y-132095808D01*
X69923619Y-132042698D01*
X69914937Y-132041961D01*
X69838042Y-132082497D01*
X69807364Y-132178637D01*
X69833151Y-132287709D01*
X69848382Y-132396874D01*
X69808071Y-132470865D01*
X69749309Y-132535474D01*
X69704291Y-132521328D01*
X69660589Y-132468226D01*
X69602479Y-132327881D01*
X69589426Y-132148620D01*
X69621832Y-131980563D01*
X69656157Y-131915090D01*
X69711774Y-131864199D01*
X69803443Y-131831435D01*
X69953932Y-131811293D01*
X70129294Y-131800689D01*
X70532157Y-131782394D01*
X70532157Y-132103674D01*
G37*
G36*
X68973114Y-129743293D02*
G01*
X69083543Y-129857123D01*
X69135928Y-130023889D01*
X69122062Y-130224810D01*
X69088177Y-130331080D01*
X69012415Y-130451533D01*
X68924303Y-130478818D01*
X68856527Y-130437479D01*
X68814374Y-130376850D01*
X68824499Y-130304213D01*
X68873687Y-130209177D01*
X68929399Y-130101308D01*
X68932707Y-130036712D01*
X68884358Y-129974420D01*
X68878085Y-129968113D01*
X68824015Y-129922720D01*
X68792901Y-129938036D01*
X68769899Y-130029815D01*
X68759197Y-130094257D01*
X68698992Y-130300024D01*
X68601175Y-130417789D01*
X68470592Y-130444622D01*
X68312090Y-130377591D01*
X68302063Y-130370706D01*
X68225055Y-130287347D01*
X68194025Y-130159713D01*
X68191373Y-130081401D01*
X68207934Y-129924041D01*
X68249096Y-129795805D01*
X68263035Y-129772951D01*
X68323911Y-129707235D01*
X68378100Y-129721574D01*
X68417309Y-129757621D01*
X68471751Y-129839307D01*
X68449499Y-129932684D01*
X68441419Y-129948278D01*
X68409141Y-130052760D01*
X68416378Y-130141855D01*
X68456276Y-130183536D01*
X68489845Y-130174531D01*
X68528288Y-130105885D01*
X68540000Y-130018689D01*
X68570364Y-129837777D01*
X68663433Y-129733118D01*
X68812850Y-129701177D01*
X68973114Y-129743293D01*
G37*
G36*
X68678113Y-131798093D02*
G01*
X68720583Y-131829883D01*
X68736696Y-131912815D01*
X68739216Y-132066863D01*
X68750400Y-132243656D01*
X68782509Y-132329793D01*
X68833380Y-132322423D01*
X68881930Y-132254914D01*
X68900192Y-132128201D01*
X68880570Y-132076708D01*
X68852098Y-131959468D01*
X68888220Y-131870862D01*
X68960018Y-131842745D01*
X69051954Y-131885604D01*
X69110926Y-131995064D01*
X69133025Y-132142449D01*
X69114341Y-132299085D01*
X69050965Y-132436296D01*
X69042440Y-132447326D01*
X68966658Y-132518523D01*
X68866501Y-132553991D01*
X68707479Y-132564741D01*
X68674139Y-132564902D01*
X68511705Y-132548384D01*
X68441263Y-132541221D01*
X68288920Y-132465890D01*
X68208890Y-132332481D01*
X68191373Y-132187269D01*
X68193930Y-132176721D01*
X68396920Y-132176721D01*
X68413908Y-132233333D01*
X68454622Y-132276751D01*
X68511705Y-132325905D01*
X68535250Y-132306017D01*
X68539992Y-132202353D01*
X68540000Y-132191373D01*
X68536036Y-132081172D01*
X68514320Y-132055799D01*
X68460116Y-132100518D01*
X68454622Y-132105995D01*
X68396920Y-132176721D01*
X68193930Y-132176721D01*
X68235872Y-132003693D01*
X68355806Y-131867270D01*
X68530831Y-131797800D01*
X68596521Y-131792941D01*
X68678113Y-131798093D01*
G37*
G36*
X70525980Y-128521553D02*
G01*
X70519367Y-128707126D01*
X70496312Y-128843441D01*
X70471663Y-128895083D01*
X70369610Y-128941299D01*
X70250838Y-128949688D01*
X70226660Y-128951396D01*
X70094712Y-128925461D01*
X70044079Y-128894353D01*
X70006791Y-128809965D01*
X69985921Y-128671312D01*
X69984314Y-128620432D01*
X69983119Y-128605490D01*
X70183530Y-128605490D01*
X70201304Y-128723470D01*
X70250838Y-128753897D01*
X70299739Y-128721700D01*
X70333152Y-128640974D01*
X70326960Y-128540948D01*
X70288405Y-128467963D01*
X70258236Y-128456079D01*
X70198926Y-128500625D01*
X70183530Y-128605490D01*
X69983119Y-128605490D01*
X69972197Y-128468931D01*
X69933962Y-128411772D01*
X69866783Y-128446450D01*
X69831546Y-128485025D01*
X69791376Y-128565178D01*
X69824032Y-128656238D01*
X69829810Y-128665648D01*
X69866758Y-128756749D01*
X69827577Y-128831723D01*
X69811319Y-128848369D01*
X69743423Y-128900768D01*
X69691502Y-128875444D01*
X69657545Y-128832540D01*
X69596302Y-128677347D01*
X69596417Y-128492594D01*
X69657338Y-128326752D01*
X69663413Y-128317749D01*
X69713772Y-128261279D01*
X69783408Y-128227964D01*
X69897282Y-128211895D01*
X70080356Y-128207165D01*
X70131102Y-128207059D01*
X70521262Y-128207059D01*
X70525980Y-128521553D01*
G37*
G36*
X69796513Y-128989758D02*
G01*
X69987618Y-129045394D01*
X70113985Y-129084497D01*
X70317375Y-129151012D01*
X70442557Y-129202621D01*
X70507621Y-129249883D01*
X70530658Y-129303356D01*
X70532157Y-129328550D01*
X70516648Y-129400425D01*
X70454557Y-129449613D01*
X70322542Y-129492201D01*
X70279111Y-129502927D01*
X70131280Y-129545474D01*
X70077008Y-129584184D01*
X70117661Y-129625394D01*
X70254605Y-129675438D01*
X70320491Y-129694780D01*
X70462933Y-129748788D01*
X70525129Y-129812984D01*
X70532157Y-129854151D01*
X70504814Y-129946233D01*
X70469902Y-129976290D01*
X70322030Y-130028770D01*
X70142287Y-130089645D01*
X69956715Y-130150492D01*
X69791354Y-130202884D01*
X69672243Y-130238397D01*
X69626963Y-130249020D01*
X69595644Y-130206491D01*
X69585883Y-130129113D01*
X69600334Y-130053148D01*
X69659606Y-130001972D01*
X69787578Y-129957851D01*
X69832416Y-129946021D01*
X69967467Y-129904494D01*
X70047430Y-129866268D01*
X70057817Y-129848642D01*
X70001110Y-129816001D01*
X69881594Y-129772400D01*
X69811283Y-129751340D01*
X69646229Y-129686966D01*
X69579863Y-129615816D01*
X69611722Y-129540634D01*
X69741343Y-129464162D01*
X69867548Y-129418264D01*
X70149213Y-129329477D01*
X69879999Y-129251789D01*
X69715150Y-129195108D01*
X69627320Y-129137075D01*
X69594870Y-129064110D01*
X69591557Y-129002193D01*
X69613828Y-128968761D01*
X69677032Y-128964415D01*
X69796513Y-128989758D01*
G37*
G36*
X70532157Y-130589928D02*
G01*
X70516511Y-130807002D01*
X70458668Y-130944240D01*
X70342270Y-131017999D01*
X70150959Y-131044635D01*
X70107372Y-131045362D01*
X70076175Y-131045883D01*
X69802350Y-131045883D01*
X69825506Y-131207745D01*
X69852918Y-131327002D01*
X69907648Y-131397703D01*
X70011822Y-131432263D01*
X70187565Y-131443095D01*
X70245785Y-131443551D01*
X70408460Y-131447966D01*
X70494828Y-131465513D01*
X70528065Y-131504316D01*
X70532157Y-131543922D01*
X70524979Y-131590319D01*
X70491096Y-131619557D01*
X70411984Y-131635557D01*
X70269117Y-131642240D01*
X70061551Y-131643530D01*
X69590945Y-131643530D01*
X69611590Y-131332255D01*
X69623331Y-131148502D01*
X69628846Y-131023742D01*
X69628686Y-130917592D01*
X69623403Y-130789669D01*
X69619915Y-130722157D01*
X69615016Y-130680218D01*
X69844490Y-130680218D01*
X69855935Y-130763479D01*
X69936864Y-130810010D01*
X69978530Y-130820495D01*
X70107372Y-130825527D01*
X70232301Y-130796365D01*
X70316509Y-130744724D01*
X70332179Y-130707954D01*
X70307772Y-130638437D01*
X70289757Y-130606652D01*
X70207248Y-130562485D01*
X70053951Y-130556848D01*
X69920862Y-130579567D01*
X69859047Y-130629470D01*
X69844490Y-130680218D01*
X69615016Y-130680218D01*
X69606568Y-130607907D01*
X69562152Y-130559071D01*
X69455562Y-130547971D01*
X69424020Y-130547843D01*
X69300833Y-130539936D01*
X69248137Y-130503473D01*
X69237255Y-130423334D01*
X69237255Y-130298824D01*
X69884706Y-130298824D01*
X70532157Y-130298824D01*
X70532157Y-130589928D01*
G37*
G36*
X70384061Y-132641898D02*
G01*
X70480319Y-132654490D01*
X70522117Y-132685967D01*
X70532018Y-132744910D01*
X70532157Y-132761842D01*
X70525783Y-132826939D01*
X70491973Y-132865041D01*
X70408696Y-132885124D01*
X70253921Y-132896163D01*
X70195981Y-132898803D01*
X70017778Y-132908855D01*
X69917100Y-132925448D01*
X69871896Y-132957712D01*
X69860117Y-133014782D01*
X69859804Y-133038039D01*
X69865868Y-133104306D01*
X69898759Y-133143035D01*
X69980528Y-133163359D01*
X70133224Y-133174411D01*
X70195981Y-133177276D01*
X70374246Y-133187403D01*
X70474963Y-133204108D01*
X70520163Y-133236368D01*
X70531877Y-133293157D01*
X70532157Y-133314237D01*
X70532157Y-133436471D01*
X69366096Y-133436471D01*
X68660324Y-133436471D01*
X68200035Y-133436471D01*
X68197586Y-133117282D01*
X68200352Y-133045761D01*
X68407221Y-133045761D01*
X68440393Y-133112745D01*
X68528158Y-133161627D01*
X68660324Y-133186024D01*
X68788590Y-133181373D01*
X68857526Y-133152148D01*
X68880269Y-133079019D01*
X68878278Y-133015187D01*
X68840527Y-132940575D01*
X68738760Y-132904664D01*
X68685149Y-132898560D01*
X68532005Y-132909927D01*
X68433877Y-132963793D01*
X68407221Y-133045761D01*
X68200352Y-133045761D01*
X68205662Y-132908485D01*
X68244868Y-132777152D01*
X68331810Y-132702203D01*
X68483092Y-132662560D01*
X68564104Y-132652005D01*
X68804946Y-132655054D01*
X68987613Y-132718914D01*
X69101806Y-132835535D01*
X69137224Y-132996872D01*
X69123008Y-133088643D01*
X69117815Y-133145973D01*
X69155494Y-133175533D01*
X69257715Y-133186290D01*
X69361765Y-133187451D01*
X69514331Y-133183792D01*
X69589053Y-133166835D01*
X69607604Y-133127611D01*
X69600522Y-133088643D01*
X69595975Y-132913145D01*
X69668038Y-132767490D01*
X69761346Y-132697950D01*
X69879023Y-132666918D01*
X70054090Y-132645758D01*
X70210775Y-132639608D01*
X70384061Y-132641898D01*
G37*
G36*
X65406881Y-127044814D02*
G01*
X65446430Y-127238651D01*
X65494343Y-127400081D01*
X65541188Y-127498224D01*
X65547658Y-127505697D01*
X65637595Y-127565182D01*
X65785120Y-127634314D01*
X65901507Y-127678257D01*
X66176151Y-127771611D01*
X66505901Y-127541100D01*
X66664919Y-127433540D01*
X66794136Y-127352773D01*
X66871074Y-127312654D01*
X66879950Y-127310588D01*
X66933969Y-127344217D01*
X67034809Y-127431749D01*
X67162543Y-127553155D01*
X67297243Y-127688405D01*
X67418982Y-127817469D01*
X67507830Y-127920318D01*
X67543861Y-127976920D01*
X67543922Y-127977957D01*
X67516783Y-128035760D01*
X67444778Y-128151463D01*
X67342025Y-128302701D01*
X67313267Y-128343330D01*
X67082612Y-128666564D01*
X67164681Y-128838663D01*
X67212474Y-128957854D01*
X67227715Y-129036807D01*
X67225205Y-129045621D01*
X67173902Y-129075315D01*
X67046233Y-129134662D01*
X66858399Y-129216535D01*
X66626602Y-129313803D01*
X66471886Y-129377105D01*
X65740110Y-129673730D01*
X65589331Y-129485780D01*
X65361333Y-129269108D01*
X65103796Y-129143591D01*
X64827271Y-129111740D01*
X64542309Y-129176067D01*
X64454583Y-129215588D01*
X64221409Y-129382296D01*
X64062937Y-129597164D01*
X63979418Y-129842181D01*
X63971106Y-130099334D01*
X64038251Y-130350610D01*
X64181106Y-130577996D01*
X64399923Y-130763480D01*
X64432650Y-130782834D01*
X64697468Y-130879611D01*
X64971526Y-130884187D01*
X65237942Y-130800482D01*
X65479833Y-130632417D01*
X65589331Y-130514221D01*
X65740110Y-130326270D01*
X66471886Y-130622895D01*
X66722412Y-130726016D01*
X66938774Y-130818053D01*
X67104771Y-130891877D01*
X67204201Y-130940359D01*
X67225205Y-130954379D01*
X67219644Y-131017631D01*
X67178779Y-131130526D01*
X67164681Y-131161337D01*
X67082612Y-131333437D01*
X67313267Y-131656671D01*
X67421548Y-131813704D01*
X67502559Y-131941269D01*
X67542152Y-132016785D01*
X67543922Y-132024822D01*
X67510699Y-132077841D01*
X67421907Y-132181295D01*
X67293863Y-132316667D01*
X67231308Y-132379576D01*
X67087142Y-132518091D01*
X66967851Y-132624644D01*
X66891888Y-132683091D01*
X66877172Y-132689412D01*
X66819507Y-132662638D01*
X66703247Y-132591534D01*
X66550661Y-132489926D01*
X66505901Y-132458901D01*
X66176151Y-132228389D01*
X65901507Y-132321744D01*
X65736315Y-132386677D01*
X65602325Y-132454829D01*
X65547658Y-132494304D01*
X65501807Y-132580053D01*
X65453446Y-132733809D01*
X65412008Y-132924692D01*
X65406881Y-132955186D01*
X65345310Y-133336863D01*
X64857370Y-133336863D01*
X64369431Y-133336863D01*
X64311266Y-133025588D01*
X64275893Y-132837349D01*
X64244104Y-132669983D01*
X64226954Y-132581135D01*
X64154773Y-132451080D01*
X64066972Y-132399216D01*
X63928523Y-132345648D01*
X63769042Y-132279889D01*
X63753021Y-132273033D01*
X63572904Y-132195591D01*
X63222446Y-132442502D01*
X63058869Y-132554391D01*
X62924884Y-132639834D01*
X62841971Y-132685371D01*
X62828380Y-132689412D01*
X62774970Y-132655856D01*
X62674568Y-132568520D01*
X62547102Y-132447400D01*
X62412501Y-132312495D01*
X62290695Y-132183802D01*
X62201611Y-132081318D01*
X62165181Y-132025040D01*
X62165098Y-132023858D01*
X62191724Y-131967351D01*
X62262907Y-131850525D01*
X62365611Y-131694330D01*
X62416915Y-131619269D01*
X62668731Y-131255004D01*
X62547251Y-130966933D01*
X62481715Y-130821198D01*
X62417051Y-130722599D01*
X62331179Y-130657357D01*
X62202021Y-130611695D01*
X62007498Y-130571835D01*
X61878726Y-130549759D01*
X61517648Y-130489040D01*
X61517648Y-130000925D01*
X61517648Y-129512810D01*
X61951241Y-129432381D01*
X62148582Y-129392448D01*
X62306626Y-129354242D01*
X62401075Y-129323903D01*
X62416010Y-129314897D01*
X62450388Y-129251427D01*
X62506872Y-129125851D01*
X62555773Y-129008259D01*
X62664361Y-128738676D01*
X62414730Y-128377571D01*
X62302839Y-128211114D01*
X62216885Y-128074484D01*
X62169991Y-127988927D01*
X62165098Y-127973363D01*
X62198678Y-127919998D01*
X62286075Y-127819679D01*
X62407280Y-127692316D01*
X62542282Y-127557822D01*
X62671071Y-127436109D01*
X62773637Y-127347088D01*
X62829969Y-127310672D01*
X62831158Y-127310588D01*
X62887901Y-127337537D01*
X63004062Y-127409424D01*
X63158351Y-127512817D01*
X63222446Y-127557499D01*
X63572904Y-127804409D01*
X63753021Y-127726967D01*
X63910508Y-127661593D01*
X64054769Y-127605273D01*
X64066972Y-127600784D01*
X64189097Y-127509890D01*
X64226954Y-127418865D01*
X64250173Y-127298235D01*
X64283413Y-127122800D01*
X64311266Y-126974412D01*
X64369431Y-126663138D01*
X64857370Y-126663138D01*
X65345310Y-126663138D01*
X65406881Y-127044814D01*
G37*
D13*
X98035233Y-120150000D02*
X94435233Y-120150000D01*
X96235233Y-124600000D02*
G75*
G02*
X94396755Y-120161522I0J2600000D01*
G01*
X98073711Y-120161522D02*
G75*
G02*
X96235233Y-124600001I-1838478J-1838478D01*
G01*
X101730000Y-123730000D02*
X103000000Y-123730000D01*
X101730000Y-125000000D02*
X101730000Y-123730000D01*
X104042929Y-127160000D02*
X104440000Y-127160000D01*
X104042929Y-127920000D02*
X104440000Y-127920000D01*
X104110000Y-124620000D02*
X104440000Y-124620000D01*
X104110000Y-125380000D02*
X104440000Y-125380000D01*
X104440000Y-123670000D02*
X104440000Y-128870000D01*
X104440000Y-126270000D02*
X107100000Y-126270000D01*
X104440000Y-128870000D02*
X107100000Y-128870000D01*
X107100000Y-123670000D02*
X104440000Y-123670000D01*
X107100000Y-124620000D02*
X113100000Y-124620000D01*
X107100000Y-124680000D02*
X113100000Y-124680000D01*
X107100000Y-124800000D02*
X113100000Y-124800000D01*
X107100000Y-124920000D02*
X113100000Y-124920000D01*
X107100000Y-125040000D02*
X113100000Y-125040000D01*
X107100000Y-125160000D02*
X113100000Y-125160000D01*
X107100000Y-125280000D02*
X113100000Y-125280000D01*
X107100000Y-127160000D02*
X113100000Y-127160000D01*
X107100000Y-128870000D02*
X107100000Y-123670000D01*
X113100000Y-124620000D02*
X113100000Y-125380000D01*
X113100000Y-125380000D02*
X107100000Y-125380000D01*
X113100000Y-127160000D02*
X113100000Y-127920000D01*
X113100000Y-127920000D02*
X107100000Y-127920000D01*
X92160000Y-75670000D02*
X92160000Y-96110000D01*
X92160000Y-96110000D02*
X97460000Y-96110000D01*
X93810000Y-75670000D02*
X92160000Y-75670000D01*
X97460000Y-75670000D02*
X95810000Y-75670000D01*
X97460000Y-96110000D02*
X97460000Y-75670000D01*
X95810000Y-75670000D02*
G75*
G02*
X93810000Y-75670000I-1000000J0D01*
G01*
X78815031Y-74800000D02*
X78815031Y-75800000D01*
X78815031Y-75800000D02*
X79815031Y-75300000D01*
X79710000Y-70340000D02*
X88830000Y-70340000D01*
X79710000Y-93820000D02*
X81020000Y-93820000D01*
X79710000Y-121400000D02*
X79710000Y-70340000D01*
X79815031Y-75300000D02*
X78815031Y-74800000D01*
X81020000Y-71640000D02*
X87520000Y-71640000D01*
X81020000Y-93820000D02*
X81020000Y-71640000D01*
X81020000Y-97920000D02*
X79710000Y-97920000D01*
X81020000Y-97920000D02*
X81020000Y-97920000D01*
X81020000Y-120100000D02*
X81020000Y-97920000D01*
X87520000Y-71640000D02*
X87520000Y-120100000D01*
X87520000Y-120100000D02*
X81020000Y-120100000D01*
X88830000Y-70340000D02*
X88830000Y-121400000D01*
X88830000Y-121400000D02*
X79710000Y-121400000D01*
X103360000Y-82670000D02*
X103360000Y-100570000D01*
X103360000Y-100570000D02*
X108660000Y-100570000D01*
X105010000Y-82670000D02*
X103360000Y-82670000D01*
X108660000Y-82670000D02*
X107010000Y-82670000D01*
X108660000Y-100570000D02*
X108660000Y-82670000D01*
X107010000Y-82670000D02*
G75*
G02*
X105010000Y-82670000I-1000000J0D01*
G01*
X103658683Y-73189682D02*
X103658683Y-75849682D01*
X103658683Y-75849682D02*
X108858683Y-75849682D01*
X103718683Y-78559682D02*
X103718683Y-77289682D01*
X104608683Y-67189682D02*
X105368683Y-67189682D01*
X104608683Y-73189682D02*
X104608683Y-67189682D01*
X104608683Y-76179682D02*
X104608683Y-75849682D01*
X104668683Y-73189682D02*
X104668683Y-67189682D01*
X104788683Y-73189682D02*
X104788683Y-67189682D01*
X104908683Y-73189682D02*
X104908683Y-67189682D01*
X104988683Y-78559682D02*
X103718683Y-78559682D01*
X105028683Y-73189682D02*
X105028683Y-67189682D01*
X105148683Y-73189682D02*
X105148683Y-67189682D01*
X105268683Y-73189682D02*
X105268683Y-67189682D01*
X105368683Y-67189682D02*
X105368683Y-73189682D01*
X105368683Y-76179682D02*
X105368683Y-75849682D01*
X106258683Y-75849682D02*
X106258683Y-73189682D01*
X107148683Y-67189682D02*
X107908683Y-67189682D01*
X107148683Y-73189682D02*
X107148683Y-67189682D01*
X107148683Y-76246753D02*
X107148683Y-75849682D01*
X107908683Y-67189682D02*
X107908683Y-73189682D01*
X107908683Y-76246753D02*
X107908683Y-75849682D01*
X108858683Y-73189682D02*
X103658683Y-73189682D01*
X108858683Y-75849682D02*
X108858683Y-73189682D01*
X92360000Y-101045000D02*
X92360000Y-118945000D01*
X92360000Y-118945000D02*
X97660000Y-118945000D01*
X94010000Y-101045000D02*
X92360000Y-101045000D01*
X97660000Y-101045000D02*
X96010000Y-101045000D01*
X97660000Y-118945000D02*
X97660000Y-101045000D01*
X96010000Y-101045000D02*
G75*
G02*
X94010000Y-101045000I-1000000J0D01*
G01*
X101730000Y-131730000D02*
X103000000Y-131730000D01*
X101730000Y-133000000D02*
X101730000Y-131730000D01*
X104042929Y-135160000D02*
X104440000Y-135160000D01*
X104042929Y-135920000D02*
X104440000Y-135920000D01*
X104110000Y-132620000D02*
X104440000Y-132620000D01*
X104110000Y-133380000D02*
X104440000Y-133380000D01*
X104440000Y-131670000D02*
X104440000Y-136870000D01*
X104440000Y-134270000D02*
X107100000Y-134270000D01*
X104440000Y-136870000D02*
X107100000Y-136870000D01*
X107100000Y-131670000D02*
X104440000Y-131670000D01*
X107100000Y-132620000D02*
X113100000Y-132620000D01*
X107100000Y-132680000D02*
X113100000Y-132680000D01*
X107100000Y-132800000D02*
X113100000Y-132800000D01*
X107100000Y-132920000D02*
X113100000Y-132920000D01*
X107100000Y-133040000D02*
X113100000Y-133040000D01*
X107100000Y-133160000D02*
X113100000Y-133160000D01*
X107100000Y-133280000D02*
X113100000Y-133280000D01*
X107100000Y-135160000D02*
X113100000Y-135160000D01*
X107100000Y-136870000D02*
X107100000Y-131670000D01*
X113100000Y-132620000D02*
X113100000Y-133380000D01*
X113100000Y-133380000D02*
X107100000Y-133380000D01*
X113100000Y-135160000D02*
X113100000Y-135920000D01*
X113100000Y-135920000D02*
X107100000Y-135920000D01*
X62735000Y-75050000D02*
X62735000Y-76050000D01*
X62735000Y-76050000D02*
X63735000Y-75550000D01*
X63735000Y-75550000D02*
X62735000Y-75050000D01*
X64125000Y-70340000D02*
X73245000Y-70340000D01*
X64125000Y-93820000D02*
X65435000Y-93820000D01*
X64125000Y-121400000D02*
X64125000Y-70340000D01*
X65435000Y-71640000D02*
X71935000Y-71640000D01*
X65435000Y-93820000D02*
X65435000Y-71640000D01*
X65435000Y-97920000D02*
X64125000Y-97920000D01*
X65435000Y-97920000D02*
X65435000Y-97920000D01*
X65435000Y-120100000D02*
X65435000Y-97920000D01*
X71935000Y-71640000D02*
X71935000Y-120100000D01*
X71935000Y-120100000D02*
X65435000Y-120100000D01*
X73245000Y-70340000D02*
X73245000Y-121400000D01*
X73245000Y-121400000D02*
X64125000Y-121400000D01*
X78343106Y-126727615D02*
X79613106Y-126727615D01*
X78343106Y-127997615D02*
X78343106Y-126727615D01*
X80656035Y-130157615D02*
X81053106Y-130157615D01*
X80656035Y-130917615D02*
X81053106Y-130917615D01*
X80656035Y-132697615D02*
X81053106Y-132697615D01*
X80656035Y-133457615D02*
X81053106Y-133457615D01*
X80656035Y-135237615D02*
X81053106Y-135237615D01*
X80656035Y-135997615D02*
X81053106Y-135997615D01*
X80723106Y-127617615D02*
X81053106Y-127617615D01*
X80723106Y-128377615D02*
X81053106Y-128377615D01*
X81053106Y-126667615D02*
X81053106Y-136947615D01*
X81053106Y-129267615D02*
X83713106Y-129267615D01*
X81053106Y-131807615D02*
X83713106Y-131807615D01*
X81053106Y-134347615D02*
X83713106Y-134347615D01*
X81053106Y-136947615D02*
X83713106Y-136947615D01*
X83713106Y-126667615D02*
X81053106Y-126667615D01*
X83713106Y-127617615D02*
X89713106Y-127617615D01*
X83713106Y-127677615D02*
X89713106Y-127677615D01*
X83713106Y-127797615D02*
X89713106Y-127797615D01*
X83713106Y-127917615D02*
X89713106Y-127917615D01*
X83713106Y-128037615D02*
X89713106Y-128037615D01*
X83713106Y-128157615D02*
X89713106Y-128157615D01*
X83713106Y-128277615D02*
X89713106Y-128277615D01*
X83713106Y-130157615D02*
X89713106Y-130157615D01*
X83713106Y-132697615D02*
X89713106Y-132697615D01*
X83713106Y-135237615D02*
X89713106Y-135237615D01*
X83713106Y-136947615D02*
X83713106Y-126667615D01*
X89713106Y-127617615D02*
X89713106Y-128377615D01*
X89713106Y-128377615D02*
X83713106Y-128377615D01*
X89713106Y-130157615D02*
X89713106Y-130917615D01*
X89713106Y-130917615D02*
X83713106Y-130917615D01*
X89713106Y-132697615D02*
X89713106Y-133457615D01*
X89713106Y-133457615D02*
X83713106Y-133457615D01*
X89713106Y-135237615D02*
X89713106Y-135997615D01*
X89713106Y-135997615D02*
X83713106Y-135997615D01*
X110460000Y-113370000D02*
X103920000Y-113370000D01*
X110460000Y-113040000D02*
X110460000Y-113370000D01*
X110460000Y-110960000D02*
X110460000Y-110630000D01*
X110460000Y-110630000D02*
X103920000Y-110630000D01*
X103920000Y-113370000D02*
X103920000Y-113040000D01*
X103920000Y-110630000D02*
X103920000Y-110960000D01*
%LPC*%
D15*
X111000000Y-121000000D03*
D16*
X103380000Y-121000000D03*
D15*
X100000000Y-69000000D03*
D16*
X92380000Y-69000000D03*
D15*
X111000000Y-118000000D03*
D16*
X103380000Y-118000000D03*
D15*
X111000000Y-115000000D03*
D16*
X103380000Y-115000000D03*
D15*
X111000000Y-109000000D03*
D16*
X103380000Y-109000000D03*
D15*
X111000000Y-106000000D03*
D16*
X103380000Y-106000000D03*
D15*
X111000000Y-103000000D03*
D16*
X103380000Y-103000000D03*
D15*
X93740341Y-72960682D03*
X98740341Y-72960682D03*
X109500000Y-80508286D03*
X104500000Y-80508286D03*
X98376184Y-98186049D03*
X93376184Y-98186049D03*
D17*
X97505233Y-122000000D03*
D18*
X96235233Y-122000000D03*
X94965233Y-122000000D03*
D19*
X103000000Y-125000000D03*
D20*
X103000000Y-127540000D03*
D21*
X91000000Y-77000000D03*
D16*
X91000000Y-79540000D03*
X91000000Y-82080000D03*
X91000000Y-84620000D03*
X91000000Y-87160000D03*
X91000000Y-89700000D03*
X91000000Y-92240000D03*
X91000000Y-94780000D03*
X98620000Y-94780000D03*
X98620000Y-92240000D03*
X98620000Y-89700000D03*
X98620000Y-87160000D03*
X98620000Y-84620000D03*
X98620000Y-82080000D03*
X98620000Y-79540000D03*
X98620000Y-77000000D03*
D22*
X83000000Y-75550000D03*
D23*
X85540000Y-75550000D03*
X83000000Y-78090000D03*
X85540000Y-78090000D03*
X83000000Y-80630000D03*
X85540000Y-80630000D03*
X83000000Y-83170000D03*
X85540000Y-83170000D03*
X83000000Y-85710000D03*
X85540000Y-85710000D03*
X83000000Y-88250000D03*
X85540000Y-88250000D03*
X83000000Y-90790000D03*
X85540000Y-90790000D03*
X83000000Y-93330000D03*
X85540000Y-93330000D03*
X83000000Y-95870000D03*
X85540000Y-95870000D03*
X83000000Y-98410000D03*
X85540000Y-98410000D03*
X83000000Y-100950000D03*
X85540000Y-100950000D03*
X83000000Y-103490000D03*
X85540000Y-103490000D03*
X83000000Y-106030000D03*
X85540000Y-106030000D03*
X83000000Y-108570000D03*
X85540000Y-108570000D03*
X83000000Y-111110000D03*
X85540000Y-111110000D03*
X83000000Y-113650000D03*
X85540000Y-113650000D03*
X83000000Y-116190000D03*
X85540000Y-116190000D03*
D21*
X102200000Y-84000000D03*
D16*
X102200000Y-86540000D03*
X102200000Y-89080000D03*
X102200000Y-91620000D03*
X102200000Y-94160000D03*
X102200000Y-96700000D03*
X102200000Y-99240000D03*
X109820000Y-99240000D03*
X109820000Y-96700000D03*
X109820000Y-94160000D03*
X109820000Y-91620000D03*
X109820000Y-89080000D03*
X109820000Y-86540000D03*
X109820000Y-84000000D03*
D19*
X104988683Y-77289682D03*
D20*
X107528683Y-77289682D03*
D21*
X91200000Y-102375000D03*
D16*
X91200000Y-104915000D03*
X91200000Y-107455000D03*
X91200000Y-109995000D03*
X91200000Y-112535000D03*
X91200000Y-115075000D03*
X91200000Y-117615000D03*
X98820000Y-117615000D03*
X98820000Y-115075000D03*
X98820000Y-112535000D03*
X98820000Y-109995000D03*
X98820000Y-107455000D03*
X98820000Y-104915000D03*
X98820000Y-102375000D03*
D19*
X103000000Y-133000000D03*
D20*
X103000000Y-135540000D03*
D22*
X67415000Y-75550000D03*
D23*
X69955000Y-75550000D03*
X67415000Y-78090000D03*
X69955000Y-78090000D03*
X67415000Y-80630000D03*
X69955000Y-80630000D03*
X67415000Y-83170000D03*
X69955000Y-83170000D03*
X67415000Y-85710000D03*
X69955000Y-85710000D03*
X67415000Y-88250000D03*
X69955000Y-88250000D03*
X67415000Y-90790000D03*
X69955000Y-90790000D03*
X67415000Y-93330000D03*
X69955000Y-93330000D03*
X67415000Y-95870000D03*
X69955000Y-95870000D03*
X67415000Y-98410000D03*
X69955000Y-98410000D03*
X67415000Y-100950000D03*
X69955000Y-100950000D03*
X67415000Y-103490000D03*
X69955000Y-103490000D03*
X67415000Y-106030000D03*
X69955000Y-106030000D03*
X67415000Y-108570000D03*
X69955000Y-108570000D03*
X67415000Y-111110000D03*
X69955000Y-111110000D03*
X67415000Y-113650000D03*
X69955000Y-113650000D03*
X67415000Y-116190000D03*
X69955000Y-116190000D03*
D19*
X79613106Y-127997615D03*
D20*
X79613106Y-130537615D03*
X79613106Y-133077615D03*
X79613106Y-135617615D03*
D19*
X75000000Y-75380000D03*
D20*
X77540000Y-75380000D03*
X75000000Y-77920000D03*
X77540000Y-77920000D03*
X75000000Y-80460000D03*
X77540000Y-80460000D03*
X75000000Y-83000000D03*
X77540000Y-83000000D03*
X75000000Y-85540000D03*
X77540000Y-85540000D03*
X75000000Y-88080000D03*
X77540000Y-88080000D03*
X75000000Y-90620000D03*
X77540000Y-90620000D03*
X75000000Y-93160000D03*
X77540000Y-93160000D03*
X75000000Y-95700000D03*
X77540000Y-95700000D03*
X75000000Y-98240000D03*
X77540000Y-98240000D03*
X75000000Y-100780000D03*
X77540000Y-100780000D03*
X75000000Y-103320000D03*
X77540000Y-103320000D03*
X75000000Y-105860000D03*
X77540000Y-105860000D03*
X75000000Y-108400000D03*
X77540000Y-108400000D03*
X75000000Y-110940000D03*
X77540000Y-110940000D03*
X75000000Y-113480000D03*
X77540000Y-113480000D03*
X75000000Y-116020000D03*
X77540000Y-116020000D03*
D19*
X75750000Y-122770000D03*
D20*
X75750000Y-125310000D03*
X75750000Y-127850000D03*
X75750000Y-130390000D03*
D15*
X111000000Y-112000000D03*
D16*
X103380000Y-112000000D03*
%LPD*%
M02*
