G04 #@! TF.GenerationSoftware,KiCad,Pcbnew,8.0.4*
G04 #@! TF.CreationDate,2024-09-21T15:59:35+01:00*
G04 #@! TF.ProjectId,AmigaDualFloppyInterface,416d6967-6144-4756-916c-466c6f707079,1.0*
G04 #@! TF.SameCoordinates,Original*
G04 #@! TF.FileFunction,Copper,L2,Bot*
G04 #@! TF.FilePolarity,Positive*
%FSLAX46Y46*%
G04 Gerber Fmt 4.6, Leading zero omitted, Abs format (unit mm)*
G04 Created by KiCad (PCBNEW 8.0.4) date 2024-09-21 15:59:35*
%MOMM*%
%LPD*%
G01*
G04 APERTURE LIST*
G04 Aperture macros list*
%AMRoundRect*
0 Rectangle with rounded corners*
0 $1 Rounding radius*
0 $2 $3 $4 $5 $6 $7 $8 $9 X,Y pos of 4 corners*
0 Add a 4 corners polygon primitive as box body*
4,1,4,$2,$3,$4,$5,$6,$7,$8,$9,$2,$3,0*
0 Add four circle primitives for the rounded corners*
1,1,$1+$1,$2,$3*
1,1,$1+$1,$4,$5*
1,1,$1+$1,$6,$7*
1,1,$1+$1,$8,$9*
0 Add four rect primitives between the rounded corners*
20,1,$1+$1,$2,$3,$4,$5,0*
20,1,$1+$1,$4,$5,$6,$7,0*
20,1,$1+$1,$6,$7,$8,$9,0*
20,1,$1+$1,$8,$9,$2,$3,0*%
G04 Aperture macros list end*
G04 #@! TA.AperFunction,ComponentPad*
%ADD10C,1.600000*%
G04 #@! TD*
G04 #@! TA.AperFunction,ComponentPad*
%ADD11O,1.600000X1.600000*%
G04 #@! TD*
G04 #@! TA.AperFunction,ComponentPad*
%ADD12R,1.050000X1.500000*%
G04 #@! TD*
G04 #@! TA.AperFunction,ComponentPad*
%ADD13O,1.050000X1.500000*%
G04 #@! TD*
G04 #@! TA.AperFunction,ComponentPad*
%ADD14R,1.700000X1.700000*%
G04 #@! TD*
G04 #@! TA.AperFunction,ComponentPad*
%ADD15O,1.700000X1.700000*%
G04 #@! TD*
G04 #@! TA.AperFunction,ComponentPad*
%ADD16R,1.600000X1.600000*%
G04 #@! TD*
G04 #@! TA.AperFunction,ComponentPad*
%ADD17RoundRect,0.250000X-0.600000X-0.600000X0.600000X-0.600000X0.600000X0.600000X-0.600000X0.600000X0*%
G04 #@! TD*
G04 #@! TA.AperFunction,ComponentPad*
%ADD18C,1.700000*%
G04 #@! TD*
G04 #@! TA.AperFunction,ViaPad*
%ADD19C,0.600000*%
G04 #@! TD*
G04 #@! TA.AperFunction,Conductor*
%ADD20C,1.000000*%
G04 #@! TD*
G04 #@! TA.AperFunction,Conductor*
%ADD21C,0.200000*%
G04 #@! TD*
G04 APERTURE END LIST*
D10*
X111000000Y-121000000D03*
D11*
X103380000Y-121000000D03*
D10*
X100000000Y-69000000D03*
D11*
X92380000Y-69000000D03*
D10*
X111000000Y-118000000D03*
D11*
X103380000Y-118000000D03*
D10*
X111000000Y-115000000D03*
D11*
X103380000Y-115000000D03*
D10*
X111000000Y-109000000D03*
D11*
X103380000Y-109000000D03*
D10*
X111000000Y-106000000D03*
D11*
X103380000Y-106000000D03*
D10*
X111000000Y-103000000D03*
D11*
X103380000Y-103000000D03*
D10*
X93740341Y-72960682D03*
X98740341Y-72960682D03*
X109500000Y-80508286D03*
X104500000Y-80508286D03*
X98376184Y-98186049D03*
X93376184Y-98186049D03*
D12*
X97505233Y-122000000D03*
D13*
X96235233Y-122000000D03*
X94965233Y-122000000D03*
D14*
X103000000Y-125000000D03*
D15*
X103000000Y-127540000D03*
D16*
X91000000Y-77000000D03*
D11*
X91000000Y-79540000D03*
X91000000Y-82080000D03*
X91000000Y-84620000D03*
X91000000Y-87160000D03*
X91000000Y-89700000D03*
X91000000Y-92240000D03*
X91000000Y-94780000D03*
X98620000Y-94780000D03*
X98620000Y-92240000D03*
X98620000Y-89700000D03*
X98620000Y-87160000D03*
X98620000Y-84620000D03*
X98620000Y-82080000D03*
X98620000Y-79540000D03*
X98620000Y-77000000D03*
D17*
X83000000Y-75550000D03*
D18*
X85540000Y-75550000D03*
X83000000Y-78090000D03*
X85540000Y-78090000D03*
X83000000Y-80630000D03*
X85540000Y-80630000D03*
X83000000Y-83170000D03*
X85540000Y-83170000D03*
X83000000Y-85710000D03*
X85540000Y-85710000D03*
X83000000Y-88250000D03*
X85540000Y-88250000D03*
X83000000Y-90790000D03*
X85540000Y-90790000D03*
X83000000Y-93330000D03*
X85540000Y-93330000D03*
X83000000Y-95870000D03*
X85540000Y-95870000D03*
X83000000Y-98410000D03*
X85540000Y-98410000D03*
X83000000Y-100950000D03*
X85540000Y-100950000D03*
X83000000Y-103490000D03*
X85540000Y-103490000D03*
X83000000Y-106030000D03*
X85540000Y-106030000D03*
X83000000Y-108570000D03*
X85540000Y-108570000D03*
X83000000Y-111110000D03*
X85540000Y-111110000D03*
X83000000Y-113650000D03*
X85540000Y-113650000D03*
X83000000Y-116190000D03*
X85540000Y-116190000D03*
D16*
X102200000Y-84000000D03*
D11*
X102200000Y-86540000D03*
X102200000Y-89080000D03*
X102200000Y-91620000D03*
X102200000Y-94160000D03*
X102200000Y-96700000D03*
X102200000Y-99240000D03*
X109820000Y-99240000D03*
X109820000Y-96700000D03*
X109820000Y-94160000D03*
X109820000Y-91620000D03*
X109820000Y-89080000D03*
X109820000Y-86540000D03*
X109820000Y-84000000D03*
D14*
X104988683Y-77289682D03*
D15*
X107528683Y-77289682D03*
D16*
X91200000Y-102375000D03*
D11*
X91200000Y-104915000D03*
X91200000Y-107455000D03*
X91200000Y-109995000D03*
X91200000Y-112535000D03*
X91200000Y-115075000D03*
X91200000Y-117615000D03*
X98820000Y-117615000D03*
X98820000Y-115075000D03*
X98820000Y-112535000D03*
X98820000Y-109995000D03*
X98820000Y-107455000D03*
X98820000Y-104915000D03*
X98820000Y-102375000D03*
D14*
X103000000Y-133000000D03*
D15*
X103000000Y-135540000D03*
D17*
X67415000Y-75550000D03*
D18*
X69955000Y-75550000D03*
X67415000Y-78090000D03*
X69955000Y-78090000D03*
X67415000Y-80630000D03*
X69955000Y-80630000D03*
X67415000Y-83170000D03*
X69955000Y-83170000D03*
X67415000Y-85710000D03*
X69955000Y-85710000D03*
X67415000Y-88250000D03*
X69955000Y-88250000D03*
X67415000Y-90790000D03*
X69955000Y-90790000D03*
X67415000Y-93330000D03*
X69955000Y-93330000D03*
X67415000Y-95870000D03*
X69955000Y-95870000D03*
X67415000Y-98410000D03*
X69955000Y-98410000D03*
X67415000Y-100950000D03*
X69955000Y-100950000D03*
X67415000Y-103490000D03*
X69955000Y-103490000D03*
X67415000Y-106030000D03*
X69955000Y-106030000D03*
X67415000Y-108570000D03*
X69955000Y-108570000D03*
X67415000Y-111110000D03*
X69955000Y-111110000D03*
X67415000Y-113650000D03*
X69955000Y-113650000D03*
X67415000Y-116190000D03*
X69955000Y-116190000D03*
D14*
X79613106Y-127997615D03*
D15*
X79613106Y-130537615D03*
X79613106Y-133077615D03*
X79613106Y-135617615D03*
D14*
X75000000Y-75380000D03*
D15*
X77540000Y-75380000D03*
X75000000Y-77920000D03*
X77540000Y-77920000D03*
X75000000Y-80460000D03*
X77540000Y-80460000D03*
X75000000Y-83000000D03*
X77540000Y-83000000D03*
X75000000Y-85540000D03*
X77540000Y-85540000D03*
X75000000Y-88080000D03*
X77540000Y-88080000D03*
X75000000Y-90620000D03*
X77540000Y-90620000D03*
X75000000Y-93160000D03*
X77540000Y-93160000D03*
X75000000Y-95700000D03*
X77540000Y-95700000D03*
X75000000Y-98240000D03*
X77540000Y-98240000D03*
X75000000Y-100780000D03*
X77540000Y-100780000D03*
X75000000Y-103320000D03*
X77540000Y-103320000D03*
X75000000Y-105860000D03*
X77540000Y-105860000D03*
X75000000Y-108400000D03*
X77540000Y-108400000D03*
X75000000Y-110940000D03*
X77540000Y-110940000D03*
X75000000Y-113480000D03*
X77540000Y-113480000D03*
X75000000Y-116020000D03*
X77540000Y-116020000D03*
D14*
X75750000Y-122770000D03*
D15*
X75750000Y-125310000D03*
X75750000Y-127850000D03*
X75750000Y-130390000D03*
D10*
X111000000Y-112000000D03*
D11*
X103380000Y-112000000D03*
D19*
X95000000Y-117000000D03*
X95000000Y-115000000D03*
X107650667Y-104500000D03*
X105230000Y-104566131D03*
X107175735Y-98000000D03*
X105000000Y-98000000D03*
X100429100Y-104000000D03*
X100500000Y-106615000D03*
X95000000Y-82080000D03*
X88000000Y-117000000D03*
X106430000Y-106000000D03*
D20*
X79613106Y-135617615D02*
X79586454Y-135590963D01*
X75750000Y-133750000D02*
X75750000Y-130390000D01*
X79586454Y-135590963D02*
X77590963Y-135590963D01*
X77590963Y-135590963D02*
X75750000Y-133750000D01*
D21*
X107584536Y-104566131D02*
X105230000Y-104566131D01*
X107650667Y-104500000D02*
X107584536Y-104566131D01*
X107175735Y-98000000D02*
X105000000Y-98000000D01*
X95000000Y-82080000D02*
X91000000Y-82080000D01*
X106430000Y-106000000D02*
X103380000Y-106000000D01*
X95000000Y-115000000D02*
X95000000Y-117000000D01*
X100429100Y-106544100D02*
X100500000Y-106615000D01*
X100429100Y-104000000D02*
X100429100Y-106544100D01*
X85540000Y-78090000D02*
X86690000Y-79240000D01*
X86690000Y-79240000D02*
X86690000Y-92180000D01*
X86690000Y-92180000D02*
X85540000Y-93330000D01*
X89000000Y-77000000D02*
X88000000Y-78000000D01*
X88000000Y-78000000D02*
X88000000Y-117000000D01*
X91000000Y-77000000D02*
X89000000Y-77000000D01*
G04 #@! TA.AperFunction,Conductor*
G36*
X94085364Y-121019685D02*
G01*
X94131119Y-121072489D01*
X94141063Y-121141647D01*
X94121427Y-121192891D01*
X94056892Y-121289473D01*
X94056885Y-121289486D01*
X93979623Y-121476016D01*
X93979620Y-121476025D01*
X93940233Y-121674041D01*
X93940233Y-121750000D01*
X94684903Y-121750000D01*
X94665158Y-121769745D01*
X94615789Y-121855255D01*
X94590233Y-121950630D01*
X94590233Y-122049370D01*
X94615789Y-122144745D01*
X94665158Y-122230255D01*
X94684903Y-122250000D01*
X93940233Y-122250000D01*
X93940233Y-122325958D01*
X93979620Y-122523974D01*
X93979623Y-122523983D01*
X94056885Y-122710513D01*
X94056892Y-122710526D01*
X94169062Y-122878399D01*
X94169065Y-122878403D01*
X94311829Y-123021167D01*
X94311833Y-123021170D01*
X94479706Y-123133340D01*
X94479719Y-123133347D01*
X94666249Y-123210609D01*
X94666258Y-123210612D01*
X94715233Y-123220353D01*
X94715233Y-122280330D01*
X94734978Y-122300075D01*
X94820488Y-122349444D01*
X94915863Y-122375000D01*
X95014603Y-122375000D01*
X95109978Y-122349444D01*
X95195488Y-122300075D01*
X95209733Y-122285830D01*
X95209733Y-122326002D01*
X95212850Y-122341671D01*
X95215233Y-122365865D01*
X95215233Y-123220352D01*
X95264207Y-123210612D01*
X95264216Y-123210609D01*
X95450748Y-123133346D01*
X95450751Y-123133344D01*
X95530891Y-123079796D01*
X95597568Y-123058917D01*
X95664949Y-123077401D01*
X95668655Y-123079783D01*
X95749477Y-123133786D01*
X95936106Y-123211091D01*
X96102010Y-123244091D01*
X96134225Y-123250499D01*
X96134229Y-123250500D01*
X96134230Y-123250500D01*
X96336237Y-123250500D01*
X96336238Y-123250499D01*
X96534360Y-123211091D01*
X96535517Y-123210612D01*
X96578112Y-123192968D01*
X96615031Y-123177674D01*
X96684500Y-123170205D01*
X96729891Y-123189962D01*
X96730119Y-123189546D01*
X96734773Y-123192087D01*
X96736795Y-123192967D01*
X96737902Y-123193796D01*
X96737903Y-123193796D01*
X96737904Y-123193797D01*
X96872750Y-123244091D01*
X96872749Y-123244091D01*
X96889256Y-123245866D01*
X96953807Y-123272604D01*
X96993655Y-123329997D01*
X97000000Y-123369155D01*
X97000000Y-127000000D01*
X92000000Y-127000000D01*
X92000000Y-124000000D01*
X83000000Y-124000000D01*
X78000000Y-124000000D01*
X77170509Y-124000000D01*
X77103470Y-123980315D01*
X77057715Y-123927511D01*
X77047771Y-123858353D01*
X77054327Y-123832667D01*
X77093596Y-123727379D01*
X77093598Y-123727372D01*
X77099999Y-123667844D01*
X77100000Y-123667827D01*
X77100000Y-123020000D01*
X76183012Y-123020000D01*
X76215925Y-122962993D01*
X76250000Y-122835826D01*
X76250000Y-122704174D01*
X76215925Y-122577007D01*
X76183012Y-122520000D01*
X77100000Y-122520000D01*
X77100000Y-121872172D01*
X77099999Y-121872155D01*
X77093598Y-121812627D01*
X77093596Y-121812620D01*
X77043354Y-121677913D01*
X77043350Y-121677906D01*
X76957190Y-121562812D01*
X76957187Y-121562809D01*
X76842093Y-121476649D01*
X76842086Y-121476645D01*
X76707379Y-121426403D01*
X76707372Y-121426401D01*
X76647844Y-121420000D01*
X76000000Y-121420000D01*
X76000000Y-122336988D01*
X75942993Y-122304075D01*
X75815826Y-122270000D01*
X75684174Y-122270000D01*
X75557007Y-122304075D01*
X75500000Y-122336988D01*
X75500000Y-121420000D01*
X74852155Y-121420000D01*
X74792627Y-121426401D01*
X74792620Y-121426403D01*
X74657913Y-121476645D01*
X74657906Y-121476649D01*
X74542812Y-121562809D01*
X74542809Y-121562812D01*
X74456649Y-121677906D01*
X74456645Y-121677913D01*
X74406403Y-121812620D01*
X74406401Y-121812627D01*
X74400000Y-121872155D01*
X74400000Y-122520000D01*
X75316988Y-122520000D01*
X75284075Y-122577007D01*
X75250000Y-122704174D01*
X75250000Y-122835826D01*
X75284075Y-122962993D01*
X75316988Y-123020000D01*
X74400000Y-123020000D01*
X74400000Y-123667844D01*
X74406401Y-123727372D01*
X74406403Y-123727379D01*
X74445673Y-123832667D01*
X74450657Y-123902358D01*
X74417172Y-123963681D01*
X74355849Y-123997166D01*
X74329491Y-124000000D01*
X74124000Y-124000000D01*
X74056961Y-123980315D01*
X74011206Y-123927511D01*
X74000000Y-123876000D01*
X74000000Y-121124000D01*
X74019685Y-121056961D01*
X74072489Y-121011206D01*
X74124000Y-121000000D01*
X94018325Y-121000000D01*
X94085364Y-121019685D01*
G37*
G04 #@! TD.AperFunction*
G04 #@! TA.AperFunction,Conductor*
G36*
X99943039Y-96393302D02*
G01*
X99988794Y-96446106D01*
X100000000Y-96497617D01*
X100000000Y-100000000D01*
X96000000Y-100000000D01*
X96000000Y-98186046D01*
X97071218Y-98186046D01*
X97071218Y-98186051D01*
X97091042Y-98412648D01*
X97091044Y-98412659D01*
X97149914Y-98632366D01*
X97149919Y-98632380D01*
X97246047Y-98838527D01*
X97297158Y-98911521D01*
X97976184Y-98232495D01*
X97976184Y-98238710D01*
X98003443Y-98340443D01*
X98056104Y-98431655D01*
X98130578Y-98506129D01*
X98221790Y-98558790D01*
X98323523Y-98586049D01*
X98329737Y-98586049D01*
X97650710Y-99265074D01*
X97723697Y-99316181D01*
X97723705Y-99316185D01*
X97929852Y-99412313D01*
X97929866Y-99412318D01*
X98149573Y-99471188D01*
X98149584Y-99471190D01*
X98376182Y-99491015D01*
X98376186Y-99491015D01*
X98602783Y-99471190D01*
X98602794Y-99471188D01*
X98822501Y-99412318D01*
X98822515Y-99412313D01*
X99028662Y-99316185D01*
X99101655Y-99265073D01*
X98422631Y-98586049D01*
X98428845Y-98586049D01*
X98530578Y-98558790D01*
X98621790Y-98506129D01*
X98696264Y-98431655D01*
X98748925Y-98340443D01*
X98776184Y-98238710D01*
X98776184Y-98232496D01*
X99455208Y-98911520D01*
X99506320Y-98838527D01*
X99602448Y-98632380D01*
X99602453Y-98632366D01*
X99661323Y-98412659D01*
X99661325Y-98412648D01*
X99681150Y-98186051D01*
X99681150Y-98186046D01*
X99661325Y-97959449D01*
X99661323Y-97959438D01*
X99602453Y-97739731D01*
X99602448Y-97739717D01*
X99506320Y-97533570D01*
X99506316Y-97533562D01*
X99455209Y-97460575D01*
X98776184Y-98139600D01*
X98776184Y-98133388D01*
X98748925Y-98031655D01*
X98696264Y-97940443D01*
X98621790Y-97865969D01*
X98530578Y-97813308D01*
X98428845Y-97786049D01*
X98422632Y-97786049D01*
X99101656Y-97107023D01*
X99028662Y-97055912D01*
X98822515Y-96959784D01*
X98822501Y-96959779D01*
X98602794Y-96900909D01*
X98602783Y-96900907D01*
X98376186Y-96881083D01*
X98376182Y-96881083D01*
X98149584Y-96900907D01*
X98149573Y-96900909D01*
X97929866Y-96959779D01*
X97929857Y-96959783D01*
X97723700Y-97055915D01*
X97723696Y-97055917D01*
X97650710Y-97107022D01*
X97650710Y-97107023D01*
X98329737Y-97786049D01*
X98323523Y-97786049D01*
X98221790Y-97813308D01*
X98130578Y-97865969D01*
X98056104Y-97940443D01*
X98003443Y-98031655D01*
X97976184Y-98133388D01*
X97976184Y-98139601D01*
X97297158Y-97460575D01*
X97297157Y-97460575D01*
X97246052Y-97533561D01*
X97246050Y-97533565D01*
X97149918Y-97739722D01*
X97149914Y-97739731D01*
X97091044Y-97959438D01*
X97091042Y-97959449D01*
X97071218Y-98186046D01*
X96000000Y-98186046D01*
X96000000Y-96629500D01*
X96019685Y-96562461D01*
X96072489Y-96516706D01*
X96124000Y-96505500D01*
X96875990Y-96505500D01*
X96876000Y-96505500D01*
X96983456Y-96493947D01*
X97034967Y-96482741D01*
X97069197Y-96471347D01*
X97137497Y-96448616D01*
X97137501Y-96448613D01*
X97137504Y-96448613D01*
X97223569Y-96393302D01*
X97290609Y-96373617D01*
X99876000Y-96373617D01*
X99943039Y-96393302D01*
G37*
G04 #@! TD.AperFunction*
G04 #@! TA.AperFunction,Conductor*
G36*
X100000000Y-100660374D02*
G01*
X100207337Y-100660374D01*
X100274376Y-100680059D01*
X100301050Y-100703171D01*
X100304602Y-100707270D01*
X100413336Y-100801490D01*
X100413339Y-100801491D01*
X100413340Y-100801492D01*
X100508208Y-100844818D01*
X100544213Y-100861261D01*
X100611252Y-100880946D01*
X100611256Y-100880947D01*
X100753672Y-100901423D01*
X100753675Y-100901423D01*
X101218102Y-100901423D01*
X101236084Y-100901102D01*
X101236094Y-100901101D01*
X101236129Y-100901101D01*
X101244975Y-100900785D01*
X101262992Y-100899819D01*
X101403584Y-100869235D01*
X101469048Y-100844818D01*
X101595323Y-100775867D01*
X101674500Y-100696691D01*
X101735823Y-100663207D01*
X101762180Y-100660374D01*
X102635582Y-100660374D01*
X102702621Y-100680059D01*
X102729295Y-100703171D01*
X102732847Y-100707270D01*
X102841581Y-100801490D01*
X102841584Y-100801491D01*
X102841585Y-100801492D01*
X102936453Y-100844818D01*
X102972458Y-100861261D01*
X103039497Y-100880946D01*
X103039501Y-100880947D01*
X103181917Y-100901423D01*
X103181920Y-100901423D01*
X107876000Y-100901423D01*
X107943039Y-100921108D01*
X107988794Y-100973912D01*
X107992931Y-100992931D01*
X108000000Y-101000000D01*
X108000000Y-103774144D01*
X107829921Y-103714631D01*
X107829916Y-103714630D01*
X107650671Y-103694435D01*
X107650663Y-103694435D01*
X107471417Y-103714630D01*
X107471412Y-103714631D01*
X107301143Y-103774211D01*
X107148404Y-103870184D01*
X107089277Y-103929312D01*
X107027954Y-103962797D01*
X107001596Y-103965631D01*
X105812412Y-103965631D01*
X105745373Y-103945946D01*
X105735097Y-103938576D01*
X105732263Y-103936316D01*
X105732262Y-103936315D01*
X105670153Y-103897289D01*
X105579523Y-103840342D01*
X105409254Y-103780762D01*
X105409249Y-103780761D01*
X105230004Y-103760566D01*
X105229996Y-103760566D01*
X105050750Y-103780761D01*
X105050745Y-103780762D01*
X104880476Y-103840342D01*
X104727737Y-103936315D01*
X104600184Y-104063868D01*
X104504211Y-104216607D01*
X104444631Y-104386876D01*
X104444630Y-104386881D01*
X104424435Y-104566127D01*
X104424435Y-104566134D01*
X104444630Y-104745380D01*
X104444631Y-104745385D01*
X104504211Y-104915654D01*
X104543168Y-104977653D01*
X104562168Y-105044890D01*
X104541800Y-105111725D01*
X104488532Y-105156939D01*
X104419276Y-105166177D01*
X104356020Y-105136505D01*
X104350493Y-105131306D01*
X104219141Y-104999954D01*
X104032734Y-104869432D01*
X104032732Y-104869431D01*
X103826497Y-104773261D01*
X103826488Y-104773258D01*
X103606697Y-104714366D01*
X103606693Y-104714365D01*
X103606692Y-104714365D01*
X103606691Y-104714364D01*
X103606686Y-104714364D01*
X103380002Y-104694532D01*
X103379998Y-104694532D01*
X103153313Y-104714364D01*
X103153302Y-104714366D01*
X102933511Y-104773258D01*
X102933502Y-104773261D01*
X102727267Y-104869431D01*
X102727265Y-104869432D01*
X102540858Y-104999954D01*
X102379954Y-105160858D01*
X102249432Y-105347265D01*
X102249431Y-105347267D01*
X102153261Y-105553502D01*
X102153258Y-105553511D01*
X102094366Y-105773302D01*
X102094364Y-105773313D01*
X102074532Y-105999998D01*
X102074532Y-106000000D01*
X102086228Y-106133687D01*
X102072461Y-106202187D01*
X102023846Y-106252370D01*
X101962700Y-106268494D01*
X101296216Y-106268494D01*
X101229177Y-106248809D01*
X101191223Y-106210467D01*
X101129816Y-106112738D01*
X101065919Y-106048841D01*
X101032434Y-105987518D01*
X101029600Y-105961160D01*
X101029600Y-104582412D01*
X101049285Y-104515373D01*
X101056655Y-104505097D01*
X101058910Y-104502267D01*
X101058916Y-104502262D01*
X101154889Y-104349522D01*
X101214468Y-104179255D01*
X101217711Y-104150478D01*
X101234665Y-104000000D01*
X101234665Y-103999996D01*
X101214469Y-103820750D01*
X101214468Y-103820745D01*
X101201913Y-103784865D01*
X101154889Y-103650478D01*
X101058916Y-103497738D01*
X100931362Y-103370184D01*
X100778623Y-103274211D01*
X100608354Y-103214631D01*
X100608349Y-103214630D01*
X100429104Y-103194435D01*
X100429096Y-103194435D01*
X100249850Y-103214630D01*
X100249845Y-103214631D01*
X100079574Y-103274212D01*
X100059329Y-103286933D01*
X99992092Y-103305933D01*
X99925257Y-103285565D01*
X99880044Y-103232296D01*
X99870807Y-103163040D01*
X99891784Y-103110815D01*
X99950129Y-103027489D01*
X99950133Y-103027483D01*
X99962949Y-102999998D01*
X102074532Y-102999998D01*
X102074532Y-103000001D01*
X102094364Y-103226686D01*
X102094366Y-103226697D01*
X102153258Y-103446488D01*
X102153261Y-103446497D01*
X102249431Y-103652732D01*
X102249432Y-103652734D01*
X102379954Y-103839141D01*
X102540858Y-104000045D01*
X102540861Y-104000047D01*
X102727266Y-104130568D01*
X102933504Y-104226739D01*
X103153308Y-104285635D01*
X103315230Y-104299801D01*
X103379998Y-104305468D01*
X103380000Y-104305468D01*
X103380002Y-104305468D01*
X103436673Y-104300509D01*
X103606692Y-104285635D01*
X103826496Y-104226739D01*
X104032734Y-104130568D01*
X104219139Y-104000047D01*
X104380047Y-103839139D01*
X104510568Y-103652734D01*
X104606739Y-103446496D01*
X104665635Y-103226692D01*
X104685468Y-103000000D01*
X104665635Y-102773308D01*
X104606739Y-102553504D01*
X104510568Y-102347266D01*
X104380047Y-102160861D01*
X104380045Y-102160858D01*
X104219141Y-101999954D01*
X104032734Y-101869432D01*
X104032732Y-101869431D01*
X103826497Y-101773261D01*
X103826488Y-101773258D01*
X103606697Y-101714366D01*
X103606693Y-101714365D01*
X103606692Y-101714365D01*
X103606691Y-101714364D01*
X103606686Y-101714364D01*
X103380002Y-101694532D01*
X103379998Y-101694532D01*
X103153313Y-101714364D01*
X103153302Y-101714366D01*
X102933511Y-101773258D01*
X102933502Y-101773261D01*
X102727267Y-101869431D01*
X102727265Y-101869432D01*
X102540858Y-101999954D01*
X102379954Y-102160858D01*
X102249432Y-102347265D01*
X102249431Y-102347267D01*
X102153261Y-102553502D01*
X102153258Y-102553511D01*
X102094366Y-102773302D01*
X102094364Y-102773313D01*
X102074532Y-102999998D01*
X99962949Y-102999998D01*
X100046265Y-102821326D01*
X100046269Y-102821317D01*
X100098872Y-102625000D01*
X99135686Y-102625000D01*
X99140080Y-102620606D01*
X99192741Y-102529394D01*
X99220000Y-102427661D01*
X99220000Y-102322339D01*
X99192741Y-102220606D01*
X99140080Y-102129394D01*
X99135686Y-102125000D01*
X100098872Y-102125000D01*
X100098872Y-102124999D01*
X100046269Y-101928682D01*
X100046265Y-101928673D01*
X99950134Y-101722517D01*
X99819657Y-101536179D01*
X99658820Y-101375342D01*
X99472482Y-101244865D01*
X99266328Y-101148734D01*
X99070000Y-101096127D01*
X99070000Y-102059314D01*
X99065606Y-102054920D01*
X98974394Y-102002259D01*
X98872661Y-101975000D01*
X98767339Y-101975000D01*
X98665606Y-102002259D01*
X98574394Y-102054920D01*
X98570000Y-102059314D01*
X98570000Y-101096127D01*
X98373671Y-101148734D01*
X98167517Y-101244865D01*
X97981179Y-101375342D01*
X97820342Y-101536179D01*
X97689865Y-101722517D01*
X97593734Y-101928673D01*
X97593730Y-101928682D01*
X97541127Y-102124999D01*
X97541128Y-102125000D01*
X98504314Y-102125000D01*
X98499920Y-102129394D01*
X98447259Y-102220606D01*
X98420000Y-102322339D01*
X98420000Y-102427661D01*
X98447259Y-102529394D01*
X98499920Y-102620606D01*
X98504314Y-102625000D01*
X97541128Y-102625000D01*
X97593730Y-102821317D01*
X97593734Y-102821326D01*
X97689865Y-103027482D01*
X97820342Y-103213820D01*
X97981179Y-103374657D01*
X98167517Y-103505134D01*
X98226457Y-103532618D01*
X98278896Y-103578790D01*
X98298048Y-103645984D01*
X98277832Y-103712865D01*
X98226457Y-103757382D01*
X98167517Y-103784865D01*
X97981179Y-103915342D01*
X97820342Y-104076179D01*
X97689865Y-104262517D01*
X97593734Y-104468673D01*
X97593730Y-104468682D01*
X97541127Y-104664999D01*
X97541128Y-104665000D01*
X98504314Y-104665000D01*
X98499920Y-104669394D01*
X98447259Y-104760606D01*
X98420000Y-104862339D01*
X98420000Y-104967661D01*
X98447259Y-105069394D01*
X98499920Y-105160606D01*
X98504314Y-105165000D01*
X97541128Y-105165000D01*
X97593730Y-105361317D01*
X97593734Y-105361326D01*
X97689865Y-105567482D01*
X97820342Y-105753820D01*
X97981179Y-105914657D01*
X98164354Y-106042919D01*
X98207979Y-106097497D01*
X98215171Y-106166995D01*
X98183649Y-106229350D01*
X98123419Y-106264763D01*
X98093230Y-106268494D01*
X97124000Y-106268494D01*
X97056961Y-106248809D01*
X97011206Y-106196005D01*
X97000000Y-106144494D01*
X97000000Y-104000000D01*
X92175548Y-104000000D01*
X92108509Y-103980315D01*
X92087866Y-103963680D01*
X92039142Y-103914956D01*
X92039139Y-103914953D01*
X92013912Y-103897289D01*
X91970287Y-103842712D01*
X91963095Y-103773213D01*
X91994617Y-103710859D01*
X92054847Y-103675445D01*
X92071781Y-103672424D01*
X92107380Y-103668596D01*
X92242086Y-103618354D01*
X92242093Y-103618350D01*
X92357187Y-103532190D01*
X92357190Y-103532187D01*
X92443350Y-103417093D01*
X92443354Y-103417086D01*
X92493596Y-103282379D01*
X92493598Y-103282372D01*
X92499999Y-103222844D01*
X92500000Y-103222827D01*
X92500000Y-102625000D01*
X91515686Y-102625000D01*
X91520080Y-102620606D01*
X91572741Y-102529394D01*
X91600000Y-102427661D01*
X91600000Y-102322339D01*
X91572741Y-102220606D01*
X91520080Y-102129394D01*
X91515686Y-102125000D01*
X92500000Y-102125000D01*
X92500000Y-101527172D01*
X92499999Y-101527155D01*
X92493598Y-101467627D01*
X92493596Y-101467620D01*
X92443354Y-101332913D01*
X92443350Y-101332906D01*
X92357190Y-101217812D01*
X92357187Y-101217809D01*
X92242093Y-101131649D01*
X92242086Y-101131645D01*
X92107379Y-101081403D01*
X92107372Y-101081401D01*
X92047844Y-101075000D01*
X91450000Y-101075000D01*
X91450000Y-102059314D01*
X91445606Y-102054920D01*
X91354394Y-102002259D01*
X91252661Y-101975000D01*
X91147339Y-101975000D01*
X91045606Y-102002259D01*
X90954394Y-102054920D01*
X90950000Y-102059314D01*
X90950000Y-101075000D01*
X90352155Y-101075000D01*
X90292627Y-101081401D01*
X90292619Y-101081403D01*
X90167333Y-101128132D01*
X90097641Y-101133116D01*
X90036318Y-101099631D01*
X90002834Y-101038307D01*
X90000000Y-101011950D01*
X90000000Y-100629500D01*
X90019685Y-100562461D01*
X90072489Y-100516706D01*
X90124000Y-100505500D01*
X94875990Y-100505500D01*
X94876000Y-100505500D01*
X94983456Y-100493947D01*
X95034967Y-100482741D01*
X95069197Y-100471347D01*
X95137497Y-100448616D01*
X95137501Y-100448613D01*
X95137504Y-100448613D01*
X95258543Y-100370825D01*
X95311347Y-100325070D01*
X95405567Y-100216336D01*
X95465338Y-100085459D01*
X95465339Y-100085457D01*
X95466884Y-100081315D01*
X95468803Y-100082030D01*
X95502040Y-100030298D01*
X95565592Y-100001265D01*
X95583256Y-100000000D01*
X96000000Y-100000000D01*
X100000000Y-100000000D01*
X100000000Y-100660374D01*
G37*
G04 #@! TD.AperFunction*
G04 #@! TA.AperFunction,Conductor*
G36*
X107237245Y-105185638D02*
G01*
X107301142Y-105225788D01*
X107471412Y-105285368D01*
X107471417Y-105285369D01*
X107650663Y-105305565D01*
X107650667Y-105305565D01*
X107650671Y-105305565D01*
X107829916Y-105285369D01*
X107829919Y-105285368D01*
X107829922Y-105285368D01*
X108000000Y-105225855D01*
X108000000Y-106000000D01*
X107346378Y-106000000D01*
X107279339Y-105980315D01*
X107233584Y-105927511D01*
X107223158Y-105889883D01*
X107215369Y-105820749D01*
X107215368Y-105820745D01*
X107198767Y-105773302D01*
X107155789Y-105650478D01*
X107059816Y-105497738D01*
X106940390Y-105378312D01*
X106906905Y-105316989D01*
X106911889Y-105247297D01*
X106953761Y-105191364D01*
X107019225Y-105166947D01*
X107028071Y-105166631D01*
X107171272Y-105166631D01*
X107237245Y-105185638D01*
G37*
G04 #@! TD.AperFunction*
G04 #@! TA.AperFunction,Conductor*
G36*
X99070000Y-104599314D02*
G01*
X99065606Y-104594920D01*
X98974394Y-104542259D01*
X98872661Y-104515000D01*
X98767339Y-104515000D01*
X98665606Y-104542259D01*
X98574394Y-104594920D01*
X98570000Y-104599314D01*
X98570000Y-102690686D01*
X98574394Y-102695080D01*
X98665606Y-102747741D01*
X98767339Y-102775000D01*
X98872661Y-102775000D01*
X98974394Y-102747741D01*
X99065606Y-102695080D01*
X99070000Y-102690686D01*
X99070000Y-104599314D01*
G37*
G04 #@! TD.AperFunction*
G04 #@! TA.AperFunction,Conductor*
G36*
X83000000Y-128877263D02*
G01*
X82980315Y-128944302D01*
X82927511Y-128990057D01*
X82876000Y-129001263D01*
X81087106Y-129001263D01*
X81020067Y-128981578D01*
X80974312Y-128928774D01*
X80963106Y-128877263D01*
X80963106Y-128247615D01*
X80046118Y-128247615D01*
X80079031Y-128190608D01*
X80113106Y-128063441D01*
X80113106Y-127931789D01*
X80079031Y-127804622D01*
X80046118Y-127747615D01*
X80963106Y-127747615D01*
X80963106Y-127099787D01*
X80963105Y-127099770D01*
X80956704Y-127040242D01*
X80956702Y-127040235D01*
X80906460Y-126905528D01*
X80906456Y-126905521D01*
X80820296Y-126790427D01*
X80820293Y-126790424D01*
X80705199Y-126704264D01*
X80705192Y-126704260D01*
X80570485Y-126654018D01*
X80570478Y-126654016D01*
X80510950Y-126647615D01*
X79863106Y-126647615D01*
X79863106Y-127564603D01*
X79806099Y-127531690D01*
X79678932Y-127497615D01*
X79547280Y-127497615D01*
X79420113Y-127531690D01*
X79363106Y-127564603D01*
X79363106Y-126647615D01*
X78715261Y-126647615D01*
X78655733Y-126654016D01*
X78655726Y-126654018D01*
X78521019Y-126704260D01*
X78521012Y-126704264D01*
X78405918Y-126790424D01*
X78405915Y-126790427D01*
X78319755Y-126905521D01*
X78319751Y-126905528D01*
X78269509Y-127040235D01*
X78269507Y-127040242D01*
X78263106Y-127099770D01*
X78263106Y-127747615D01*
X79180094Y-127747615D01*
X79147181Y-127804622D01*
X79113106Y-127931789D01*
X79113106Y-128063441D01*
X79147181Y-128190608D01*
X79180094Y-128247615D01*
X78263106Y-128247615D01*
X78263106Y-128877263D01*
X78243421Y-128944302D01*
X78190617Y-128990057D01*
X78139106Y-129001263D01*
X78124000Y-129001263D01*
X78056961Y-128981578D01*
X78011206Y-128928774D01*
X78000000Y-128877263D01*
X78000000Y-124000000D01*
X83000000Y-124000000D01*
X83000000Y-128877263D01*
G37*
G04 #@! TD.AperFunction*
G04 #@! TA.AperFunction,Conductor*
G36*
X77629171Y-129259800D02*
G01*
X77629179Y-129259811D01*
X77674923Y-129312603D01*
X77674926Y-129312606D01*
X77674930Y-129312610D01*
X77783664Y-129406830D01*
X77783667Y-129406831D01*
X77783668Y-129406832D01*
X77877925Y-129449879D01*
X77914541Y-129466601D01*
X77981580Y-129486286D01*
X77981584Y-129486287D01*
X78124000Y-129506763D01*
X78124003Y-129506763D01*
X78139096Y-129506763D01*
X78139106Y-129506763D01*
X78246562Y-129495210D01*
X78298073Y-129484004D01*
X78332303Y-129472610D01*
X78400603Y-129449879D01*
X78400607Y-129449876D01*
X78400610Y-129449876D01*
X78521649Y-129372088D01*
X78521649Y-129372087D01*
X78524666Y-129370149D01*
X78591705Y-129350464D01*
X78658745Y-129370148D01*
X78704500Y-129422952D01*
X78714444Y-129492110D01*
X78685419Y-129555666D01*
X78679388Y-129562145D01*
X78574992Y-129666541D01*
X78439506Y-129860035D01*
X78439505Y-129860037D01*
X78339676Y-130074122D01*
X78339673Y-130074128D01*
X78282470Y-130287614D01*
X78282470Y-130287615D01*
X79180094Y-130287615D01*
X79147181Y-130344622D01*
X79113106Y-130471789D01*
X79113106Y-130603441D01*
X79147181Y-130730608D01*
X79180094Y-130787615D01*
X78282470Y-130787615D01*
X78339673Y-131001101D01*
X78339676Y-131001107D01*
X78439505Y-131215193D01*
X78575000Y-131408697D01*
X78742023Y-131575720D01*
X78928137Y-131706040D01*
X78971762Y-131760618D01*
X78978954Y-131830116D01*
X78947432Y-131892471D01*
X78928137Y-131909190D01*
X78742028Y-132039505D01*
X78742026Y-132039506D01*
X78574997Y-132206535D01*
X78574992Y-132206541D01*
X78439506Y-132400035D01*
X78439505Y-132400037D01*
X78339676Y-132614122D01*
X78339673Y-132614128D01*
X78282470Y-132827614D01*
X78282470Y-132827615D01*
X79180094Y-132827615D01*
X79147181Y-132884622D01*
X79113106Y-133011789D01*
X79113106Y-133143441D01*
X79147181Y-133270608D01*
X79180094Y-133327615D01*
X78282470Y-133327615D01*
X78339673Y-133541101D01*
X78339676Y-133541107D01*
X78439505Y-133755193D01*
X78575000Y-133948697D01*
X78742023Y-134115720D01*
X78848233Y-134190090D01*
X78891858Y-134244668D01*
X78899050Y-134314166D01*
X78867528Y-134376521D01*
X78807298Y-134411934D01*
X78777109Y-134415665D01*
X77881947Y-134415665D01*
X77814908Y-134395980D01*
X77794266Y-134379346D01*
X77036319Y-133621399D01*
X77002834Y-133560076D01*
X77000000Y-133533718D01*
X77000000Y-132000000D01*
X77000000Y-130904923D01*
X77023903Y-130853663D01*
X77085063Y-130625408D01*
X77105659Y-130390000D01*
X77085063Y-130154592D01*
X77023903Y-129926337D01*
X77000000Y-129875077D01*
X77000000Y-129211379D01*
X77598052Y-129211379D01*
X77629171Y-129259800D01*
G37*
G04 #@! TD.AperFunction*
G04 #@! TA.AperFunction,Conductor*
G36*
X80687658Y-129359358D02*
G01*
X80709431Y-129374475D01*
X80746770Y-129406830D01*
X80746773Y-129406831D01*
X80746774Y-129406832D01*
X80841031Y-129449879D01*
X80877647Y-129466601D01*
X80944686Y-129486286D01*
X80944690Y-129486287D01*
X81087106Y-129506763D01*
X81087109Y-129506763D01*
X82876000Y-129506763D01*
X82943039Y-129526448D01*
X82988794Y-129579252D01*
X83000000Y-129630763D01*
X83000000Y-134395529D01*
X82986546Y-134395529D01*
X82954860Y-134412831D01*
X82928502Y-134415665D01*
X80449103Y-134415665D01*
X80382064Y-134395980D01*
X80336309Y-134343176D01*
X80326365Y-134274018D01*
X80355390Y-134210462D01*
X80377979Y-134190090D01*
X80484188Y-134115720D01*
X80651211Y-133948697D01*
X80786706Y-133755193D01*
X80886535Y-133541107D01*
X80886538Y-133541101D01*
X80943742Y-133327615D01*
X80046118Y-133327615D01*
X80079031Y-133270608D01*
X80113106Y-133143441D01*
X80113106Y-133011789D01*
X80079031Y-132884622D01*
X80046118Y-132827615D01*
X80943742Y-132827615D01*
X80943741Y-132827614D01*
X80886538Y-132614128D01*
X80886535Y-132614122D01*
X80786706Y-132400037D01*
X80786705Y-132400035D01*
X80651219Y-132206541D01*
X80651214Y-132206535D01*
X80484188Y-132039509D01*
X80298074Y-131909190D01*
X80254450Y-131854613D01*
X80247257Y-131785114D01*
X80278779Y-131722760D01*
X80298074Y-131706040D01*
X80484188Y-131575720D01*
X80651211Y-131408697D01*
X80786706Y-131215193D01*
X80886535Y-131001107D01*
X80886538Y-131001101D01*
X80943742Y-130787615D01*
X80046118Y-130787615D01*
X80079031Y-130730608D01*
X80113106Y-130603441D01*
X80113106Y-130471789D01*
X80079031Y-130344622D01*
X80046118Y-130287615D01*
X80943742Y-130287615D01*
X80943741Y-130287614D01*
X80886538Y-130074128D01*
X80886535Y-130074122D01*
X80786706Y-129860037D01*
X80786705Y-129860035D01*
X80651219Y-129666541D01*
X80651214Y-129666535D01*
X80540550Y-129555871D01*
X80507065Y-129494548D01*
X80512049Y-129424856D01*
X80553921Y-129368923D01*
X80619385Y-129344506D01*
X80687658Y-129359358D01*
G37*
G04 #@! TD.AperFunction*
G04 #@! TA.AperFunction,Conductor*
G36*
X79863106Y-132644603D02*
G01*
X79806099Y-132611690D01*
X79678932Y-132577615D01*
X79547280Y-132577615D01*
X79420113Y-132611690D01*
X79363106Y-132644603D01*
X79363106Y-130970627D01*
X79420113Y-131003540D01*
X79547280Y-131037615D01*
X79678932Y-131037615D01*
X79806099Y-131003540D01*
X79863106Y-130970627D01*
X79863106Y-132644603D01*
G37*
G04 #@! TD.AperFunction*
G04 #@! TA.AperFunction,Conductor*
G36*
X96960476Y-78434953D02*
G01*
X97000000Y-78434953D01*
X97000000Y-85000000D01*
X97000000Y-95876000D01*
X96980315Y-95943039D01*
X96927511Y-95988794D01*
X96876000Y-96000000D01*
X95000000Y-96000000D01*
X95000000Y-93000000D01*
X94000000Y-93000000D01*
X94000000Y-82804500D01*
X94019685Y-82737461D01*
X94072489Y-82691706D01*
X94124000Y-82680500D01*
X94417588Y-82680500D01*
X94484627Y-82700185D01*
X94494903Y-82707555D01*
X94497736Y-82709814D01*
X94497738Y-82709816D01*
X94541735Y-82737461D01*
X94648426Y-82804500D01*
X94650478Y-82805789D01*
X94820745Y-82865368D01*
X94820750Y-82865369D01*
X94999996Y-82885565D01*
X95000000Y-82885565D01*
X95000004Y-82885565D01*
X95179249Y-82865369D01*
X95179252Y-82865368D01*
X95179255Y-82865368D01*
X95349522Y-82805789D01*
X95502262Y-82709816D01*
X95629816Y-82582262D01*
X95725789Y-82429522D01*
X95785368Y-82259255D01*
X95785369Y-82259249D01*
X95805565Y-82080003D01*
X95805565Y-82079996D01*
X95785369Y-81900750D01*
X95785368Y-81900745D01*
X95725788Y-81730476D01*
X95629815Y-81577737D01*
X95502262Y-81450184D01*
X95349523Y-81354211D01*
X95179254Y-81294631D01*
X95179249Y-81294630D01*
X95000004Y-81274435D01*
X94999996Y-81274435D01*
X94820750Y-81294630D01*
X94820745Y-81294631D01*
X94650476Y-81354211D01*
X94497736Y-81450185D01*
X94494903Y-81452445D01*
X94492724Y-81453334D01*
X94491842Y-81453889D01*
X94491744Y-81453734D01*
X94430217Y-81478855D01*
X94417588Y-81479500D01*
X94124000Y-81479500D01*
X94056961Y-81459815D01*
X94011206Y-81407011D01*
X94000000Y-81355500D01*
X94000000Y-78554032D01*
X94019685Y-78486993D01*
X94072489Y-78441238D01*
X94124000Y-78430032D01*
X96943717Y-78430032D01*
X96960476Y-78434953D01*
G37*
G04 #@! TD.AperFunction*
G04 #@! TA.AperFunction,Conductor*
G36*
X107350584Y-78629759D02*
G01*
X107528682Y-78645341D01*
X107528683Y-78645341D01*
X107528684Y-78645341D01*
X107706782Y-78629759D01*
X107717590Y-78629287D01*
X110000000Y-78629287D01*
X113000000Y-78629287D01*
X113000000Y-102000000D01*
X111646446Y-102000000D01*
X111725472Y-101920974D01*
X111652478Y-101869863D01*
X111446331Y-101773735D01*
X111446317Y-101773730D01*
X111226610Y-101714860D01*
X111226599Y-101714858D01*
X111000002Y-101695034D01*
X110999998Y-101695034D01*
X110773400Y-101714858D01*
X110773389Y-101714860D01*
X110553682Y-101773730D01*
X110553673Y-101773734D01*
X110347516Y-101869866D01*
X110347512Y-101869868D01*
X110274526Y-101920973D01*
X110274526Y-101920974D01*
X110353552Y-102000000D01*
X110000000Y-102000000D01*
X110000000Y-100633294D01*
X110019685Y-100566255D01*
X110072489Y-100520500D01*
X110091898Y-100513521D01*
X110266496Y-100466739D01*
X110472734Y-100370568D01*
X110659139Y-100240047D01*
X110820047Y-100079139D01*
X110950568Y-99892734D01*
X111046739Y-99686496D01*
X111105635Y-99466692D01*
X111125468Y-99240000D01*
X111105635Y-99013308D01*
X111046739Y-98793504D01*
X110950568Y-98587266D01*
X110820047Y-98400861D01*
X110820045Y-98400858D01*
X110659141Y-98239954D01*
X110472734Y-98109432D01*
X110472728Y-98109429D01*
X110414725Y-98082382D01*
X110362285Y-98036210D01*
X110343133Y-97969017D01*
X110363348Y-97902135D01*
X110414725Y-97857618D01*
X110472734Y-97830568D01*
X110659139Y-97700047D01*
X110820047Y-97539139D01*
X110950568Y-97352734D01*
X111046739Y-97146496D01*
X111105635Y-96926692D01*
X111125468Y-96700000D01*
X111105635Y-96473308D01*
X111046739Y-96253504D01*
X110950568Y-96047266D01*
X110820047Y-95860861D01*
X110820045Y-95860858D01*
X110659143Y-95699956D01*
X110558376Y-95629398D01*
X110514752Y-95574821D01*
X110505500Y-95527823D01*
X110505500Y-95332175D01*
X110525185Y-95265136D01*
X110558375Y-95230601D01*
X110659139Y-95160047D01*
X110820047Y-94999139D01*
X110950568Y-94812734D01*
X111046739Y-94606496D01*
X111105635Y-94386692D01*
X111125468Y-94160000D01*
X111105635Y-93933308D01*
X111046739Y-93713504D01*
X110950568Y-93507266D01*
X110820047Y-93320861D01*
X110820045Y-93320858D01*
X110659141Y-93159954D01*
X110472734Y-93029432D01*
X110472728Y-93029429D01*
X110414725Y-93002382D01*
X110362285Y-92956210D01*
X110343133Y-92889017D01*
X110363348Y-92822135D01*
X110414725Y-92777618D01*
X110472734Y-92750568D01*
X110659139Y-92620047D01*
X110820047Y-92459139D01*
X110950568Y-92272734D01*
X111046739Y-92066496D01*
X111105635Y-91846692D01*
X111125468Y-91620000D01*
X111105635Y-91393308D01*
X111046739Y-91173504D01*
X110950568Y-90967266D01*
X110820047Y-90780861D01*
X110820045Y-90780858D01*
X110659141Y-90619954D01*
X110472734Y-90489432D01*
X110472728Y-90489429D01*
X110414725Y-90462382D01*
X110362285Y-90416210D01*
X110343133Y-90349017D01*
X110363348Y-90282135D01*
X110414725Y-90237618D01*
X110472734Y-90210568D01*
X110659139Y-90080047D01*
X110820047Y-89919139D01*
X110950568Y-89732734D01*
X111046739Y-89526496D01*
X111105635Y-89306692D01*
X111125468Y-89080000D01*
X111105635Y-88853308D01*
X111046739Y-88633504D01*
X110950568Y-88427266D01*
X110820047Y-88240861D01*
X110820045Y-88240858D01*
X110659143Y-88079956D01*
X110558376Y-88009398D01*
X110514752Y-87954821D01*
X110505500Y-87907823D01*
X110505500Y-87712175D01*
X110525185Y-87645136D01*
X110558375Y-87610601D01*
X110659139Y-87540047D01*
X110820047Y-87379139D01*
X110950568Y-87192734D01*
X111046739Y-86986496D01*
X111105635Y-86766692D01*
X111125468Y-86540000D01*
X111105635Y-86313308D01*
X111046739Y-86093504D01*
X110950568Y-85887266D01*
X110820047Y-85700861D01*
X110820045Y-85700858D01*
X110659141Y-85539954D01*
X110472734Y-85409432D01*
X110472732Y-85409431D01*
X110461275Y-85404088D01*
X110414132Y-85382105D01*
X110361694Y-85335934D01*
X110342542Y-85268740D01*
X110362758Y-85201859D01*
X110414134Y-85157341D01*
X110472484Y-85130132D01*
X110658820Y-84999657D01*
X110819657Y-84838820D01*
X110950134Y-84652482D01*
X111046265Y-84446326D01*
X111046269Y-84446317D01*
X111098872Y-84250000D01*
X110135686Y-84250000D01*
X110140080Y-84245606D01*
X110192741Y-84154394D01*
X110220000Y-84052661D01*
X110220000Y-83947339D01*
X110192741Y-83845606D01*
X110140080Y-83754394D01*
X110135686Y-83750000D01*
X111098872Y-83750000D01*
X111098872Y-83749999D01*
X111046269Y-83553682D01*
X111046265Y-83553673D01*
X110950134Y-83347517D01*
X110819657Y-83161179D01*
X110658820Y-83000342D01*
X110472482Y-82869865D01*
X110266328Y-82773734D01*
X110070000Y-82721127D01*
X110070000Y-83684314D01*
X110065606Y-83679920D01*
X109974394Y-83627259D01*
X109872661Y-83600000D01*
X109767339Y-83600000D01*
X109665606Y-83627259D01*
X109574394Y-83679920D01*
X109570000Y-83684314D01*
X109570000Y-82721127D01*
X109373671Y-82773734D01*
X109167517Y-82869865D01*
X108981179Y-83000342D01*
X108820342Y-83161179D01*
X108689865Y-83347517D01*
X108593734Y-83553673D01*
X108593730Y-83553682D01*
X108541127Y-83749999D01*
X108541128Y-83750000D01*
X109504314Y-83750000D01*
X109499920Y-83754394D01*
X109447259Y-83845606D01*
X109420000Y-83947339D01*
X109420000Y-84052661D01*
X109447259Y-84154394D01*
X109499920Y-84245606D01*
X109504314Y-84250000D01*
X108541128Y-84250000D01*
X108564816Y-84338407D01*
X108563153Y-84408257D01*
X108523990Y-84466119D01*
X108459762Y-84493623D01*
X108445041Y-84494500D01*
X106629500Y-84494500D01*
X106562461Y-84474815D01*
X106516706Y-84422011D01*
X106505500Y-84370500D01*
X106505500Y-80874928D01*
X106505500Y-80874900D01*
X106505464Y-80868905D01*
X106505429Y-80865954D01*
X106505322Y-80859915D01*
X106481461Y-80718027D01*
X106460186Y-80651475D01*
X106417669Y-80563953D01*
X106408308Y-80508283D01*
X108195034Y-80508283D01*
X108195034Y-80508288D01*
X108214858Y-80734885D01*
X108214860Y-80734896D01*
X108273730Y-80954603D01*
X108273735Y-80954617D01*
X108369863Y-81160764D01*
X108420974Y-81233758D01*
X109100000Y-80554732D01*
X109100000Y-80560947D01*
X109127259Y-80662680D01*
X109179920Y-80753892D01*
X109254394Y-80828366D01*
X109345606Y-80881027D01*
X109447339Y-80908286D01*
X109453553Y-80908286D01*
X108774526Y-81587311D01*
X108847513Y-81638418D01*
X108847521Y-81638422D01*
X109053668Y-81734550D01*
X109053682Y-81734555D01*
X109273389Y-81793425D01*
X109273400Y-81793427D01*
X109499998Y-81813252D01*
X109500002Y-81813252D01*
X109726599Y-81793427D01*
X109726610Y-81793425D01*
X109946317Y-81734555D01*
X109946331Y-81734550D01*
X110152478Y-81638422D01*
X110225471Y-81587310D01*
X109546447Y-80908286D01*
X109552661Y-80908286D01*
X109654394Y-80881027D01*
X109745606Y-80828366D01*
X109820080Y-80753892D01*
X109872741Y-80662680D01*
X109900000Y-80560947D01*
X109900000Y-80554733D01*
X110579024Y-81233757D01*
X110630136Y-81160764D01*
X110726264Y-80954617D01*
X110726269Y-80954603D01*
X110785139Y-80734896D01*
X110785141Y-80734885D01*
X110804966Y-80508288D01*
X110804966Y-80508283D01*
X110785141Y-80281686D01*
X110785139Y-80281673D01*
X110726269Y-80061968D01*
X110726264Y-80061954D01*
X110630136Y-79855807D01*
X110630132Y-79855799D01*
X110579025Y-79782812D01*
X109900000Y-80461837D01*
X109900000Y-80455625D01*
X109872741Y-80353892D01*
X109820080Y-80262680D01*
X109745606Y-80188206D01*
X109654394Y-80135545D01*
X109552661Y-80108286D01*
X109546448Y-80108286D01*
X110225472Y-79429260D01*
X110152478Y-79378149D01*
X109946331Y-79282021D01*
X109946317Y-79282016D01*
X109726610Y-79223146D01*
X109726599Y-79223144D01*
X109500002Y-79203320D01*
X109499998Y-79203320D01*
X109273400Y-79223144D01*
X109273389Y-79223146D01*
X109053682Y-79282016D01*
X109053673Y-79282020D01*
X108847516Y-79378152D01*
X108847512Y-79378154D01*
X108774526Y-79429259D01*
X108774526Y-79429260D01*
X109453553Y-80108286D01*
X109447339Y-80108286D01*
X109345606Y-80135545D01*
X109254394Y-80188206D01*
X109179920Y-80262680D01*
X109127259Y-80353892D01*
X109100000Y-80455625D01*
X109100000Y-80461838D01*
X108420974Y-79782812D01*
X108420973Y-79782812D01*
X108369868Y-79855798D01*
X108369866Y-79855802D01*
X108273734Y-80061959D01*
X108273730Y-80061968D01*
X108214861Y-80281673D01*
X108214858Y-80281686D01*
X108195034Y-80508283D01*
X106408308Y-80508283D01*
X106406083Y-80495052D01*
X106416411Y-80458262D01*
X106465338Y-80351130D01*
X106485023Y-80284091D01*
X106485024Y-80284087D01*
X106505500Y-80141671D01*
X106505500Y-78773785D01*
X106504721Y-78766542D01*
X106517125Y-78697786D01*
X106564734Y-78646647D01*
X106628010Y-78629287D01*
X107339776Y-78629287D01*
X107350584Y-78629759D01*
G37*
G04 #@! TD.AperFunction*
G04 #@! TA.AperFunction,Conductor*
G36*
X112943039Y-67019685D02*
G01*
X112988794Y-67072489D01*
X113000000Y-67124000D01*
X113000000Y-78629287D01*
X110000000Y-78629287D01*
X110000000Y-71011514D01*
X103585828Y-71006404D01*
X103518804Y-70986666D01*
X103473092Y-70933826D01*
X103468276Y-70921573D01*
X103448613Y-70862496D01*
X103370825Y-70741457D01*
X103370820Y-70741451D01*
X103325076Y-70688659D01*
X103325072Y-70688656D01*
X103325070Y-70688653D01*
X103216336Y-70594433D01*
X103216333Y-70594431D01*
X103216331Y-70594430D01*
X103085465Y-70534664D01*
X103085460Y-70534662D01*
X103085459Y-70534662D01*
X103018420Y-70514977D01*
X103018422Y-70514977D01*
X103018417Y-70514976D01*
X102956347Y-70506052D01*
X102876000Y-70494500D01*
X100387140Y-70494500D01*
X100320101Y-70474815D01*
X100274346Y-70422011D01*
X100264402Y-70352853D01*
X100293427Y-70289297D01*
X100352205Y-70251523D01*
X100355047Y-70250725D01*
X100446317Y-70226269D01*
X100446331Y-70226264D01*
X100652478Y-70130136D01*
X100725471Y-70079024D01*
X100046447Y-69400000D01*
X100052661Y-69400000D01*
X100154394Y-69372741D01*
X100245606Y-69320080D01*
X100320080Y-69245606D01*
X100372741Y-69154394D01*
X100400000Y-69052661D01*
X100400000Y-69046447D01*
X101079024Y-69725471D01*
X101130136Y-69652478D01*
X101226264Y-69446331D01*
X101226269Y-69446317D01*
X101285139Y-69226610D01*
X101285141Y-69226599D01*
X101304966Y-69000002D01*
X101304966Y-68999997D01*
X101285141Y-68773400D01*
X101285139Y-68773389D01*
X101226269Y-68553682D01*
X101226264Y-68553668D01*
X101130136Y-68347521D01*
X101130132Y-68347513D01*
X101079025Y-68274526D01*
X100400000Y-68953551D01*
X100400000Y-68947339D01*
X100372741Y-68845606D01*
X100320080Y-68754394D01*
X100245606Y-68679920D01*
X100154394Y-68627259D01*
X100052661Y-68600000D01*
X100046448Y-68600000D01*
X100725472Y-67920974D01*
X100652478Y-67869863D01*
X100446331Y-67773735D01*
X100446317Y-67773730D01*
X100226610Y-67714860D01*
X100226599Y-67714858D01*
X100000002Y-67695034D01*
X99999998Y-67695034D01*
X99773400Y-67714858D01*
X99773389Y-67714860D01*
X99553682Y-67773730D01*
X99553673Y-67773734D01*
X99347516Y-67869866D01*
X99347512Y-67869868D01*
X99274526Y-67920973D01*
X99274526Y-67920974D01*
X99953553Y-68600000D01*
X99947339Y-68600000D01*
X99845606Y-68627259D01*
X99754394Y-68679920D01*
X99679920Y-68754394D01*
X99627259Y-68845606D01*
X99600000Y-68947339D01*
X99600000Y-68953552D01*
X98920974Y-68274526D01*
X98920973Y-68274526D01*
X98869868Y-68347512D01*
X98869866Y-68347516D01*
X98773734Y-68553673D01*
X98773730Y-68553682D01*
X98714860Y-68773389D01*
X98714858Y-68773400D01*
X98695034Y-68999997D01*
X98695034Y-69000002D01*
X98714858Y-69226599D01*
X98714860Y-69226610D01*
X98773730Y-69446317D01*
X98773735Y-69446331D01*
X98869863Y-69652478D01*
X98920974Y-69725472D01*
X99600000Y-69046446D01*
X99600000Y-69052661D01*
X99627259Y-69154394D01*
X99679920Y-69245606D01*
X99754394Y-69320080D01*
X99845606Y-69372741D01*
X99947339Y-69400000D01*
X99953553Y-69400000D01*
X99274526Y-70079025D01*
X99347513Y-70130132D01*
X99347521Y-70130136D01*
X99553668Y-70226264D01*
X99553682Y-70226269D01*
X99644953Y-70250725D01*
X99704614Y-70287090D01*
X99735143Y-70349937D01*
X99726848Y-70419312D01*
X99682363Y-70473190D01*
X99615811Y-70494465D01*
X99612860Y-70494500D01*
X96124000Y-70494500D01*
X96123991Y-70494500D01*
X96123990Y-70494501D01*
X96016549Y-70506052D01*
X96016537Y-70506054D01*
X95965027Y-70517260D01*
X95862502Y-70551383D01*
X95862496Y-70551386D01*
X95741462Y-70629171D01*
X95741451Y-70629179D01*
X95688659Y-70674923D01*
X95594433Y-70783664D01*
X95594430Y-70783668D01*
X95534664Y-70914534D01*
X95514976Y-70981582D01*
X95501325Y-71076528D01*
X95494500Y-71124000D01*
X95494500Y-74298642D01*
X95494501Y-74298651D01*
X95506052Y-74406092D01*
X95506054Y-74406104D01*
X95517259Y-74457611D01*
X95536173Y-74514435D01*
X95542519Y-74553595D01*
X95542519Y-75000000D01*
X100370500Y-75000000D01*
X100437539Y-75019685D01*
X100483294Y-75072489D01*
X100494500Y-75124000D01*
X100494500Y-77805453D01*
X100474815Y-77872492D01*
X100422011Y-77918247D01*
X100370500Y-77929453D01*
X99794399Y-77929453D01*
X99727360Y-77909768D01*
X99681605Y-77856964D01*
X99671661Y-77787806D01*
X99692824Y-77734329D01*
X99750134Y-77652482D01*
X99846265Y-77446326D01*
X99846269Y-77446317D01*
X99898872Y-77250000D01*
X98935686Y-77250000D01*
X98940080Y-77245606D01*
X98992741Y-77154394D01*
X99020000Y-77052661D01*
X99020000Y-76947339D01*
X98992741Y-76845606D01*
X98940080Y-76754394D01*
X98935686Y-76750000D01*
X99898872Y-76750000D01*
X99898872Y-76749999D01*
X99846269Y-76553682D01*
X99846265Y-76553673D01*
X99750134Y-76347517D01*
X99619657Y-76161179D01*
X99458820Y-76000342D01*
X99272482Y-75869865D01*
X99066328Y-75773734D01*
X98870000Y-75721127D01*
X98870000Y-76684314D01*
X98865606Y-76679920D01*
X98774394Y-76627259D01*
X98672661Y-76600000D01*
X98567339Y-76600000D01*
X98465606Y-76627259D01*
X98374394Y-76679920D01*
X98370000Y-76684314D01*
X98370000Y-75721127D01*
X98173671Y-75773734D01*
X97967517Y-75869865D01*
X97781179Y-76000342D01*
X97620342Y-76161179D01*
X97489865Y-76347517D01*
X97393734Y-76553673D01*
X97393730Y-76553682D01*
X97341127Y-76749999D01*
X97341128Y-76750000D01*
X98304314Y-76750000D01*
X98299920Y-76754394D01*
X98247259Y-76845606D01*
X98220000Y-76947339D01*
X98220000Y-77052661D01*
X98247259Y-77154394D01*
X98299920Y-77245606D01*
X98304314Y-77250000D01*
X97341128Y-77250000D01*
X97393730Y-77446317D01*
X97393734Y-77446326D01*
X97489865Y-77652482D01*
X97547176Y-77734329D01*
X97569503Y-77800535D01*
X97552493Y-77868303D01*
X97501545Y-77916116D01*
X97445601Y-77929453D01*
X96986813Y-77929453D01*
X96969167Y-77928191D01*
X96943718Y-77924532D01*
X96943717Y-77924532D01*
X94124000Y-77924532D01*
X94123991Y-77924532D01*
X94123990Y-77924533D01*
X94016549Y-77936084D01*
X94016537Y-77936086D01*
X93965033Y-77947290D01*
X93954009Y-77950960D01*
X93950277Y-77952202D01*
X93911118Y-77958548D01*
X92424500Y-77958548D01*
X92357461Y-77938863D01*
X92311706Y-77886059D01*
X92300500Y-77834548D01*
X92300499Y-76152129D01*
X92300498Y-76152123D01*
X92294091Y-76092516D01*
X92243797Y-75957671D01*
X92243793Y-75957664D01*
X92157547Y-75842455D01*
X92157544Y-75842452D01*
X92042335Y-75756206D01*
X92042328Y-75756202D01*
X91907482Y-75705908D01*
X91899938Y-75704126D01*
X91900431Y-75702038D01*
X91846028Y-75679500D01*
X91806183Y-75622105D01*
X91799874Y-75580066D01*
X91860970Y-72960679D01*
X92435375Y-72960679D01*
X92435375Y-72960684D01*
X92455199Y-73187281D01*
X92455201Y-73187292D01*
X92514071Y-73406999D01*
X92514076Y-73407013D01*
X92610204Y-73613160D01*
X92661315Y-73686154D01*
X93340341Y-73007128D01*
X93340341Y-73013343D01*
X93367600Y-73115076D01*
X93420261Y-73206288D01*
X93494735Y-73280762D01*
X93585947Y-73333423D01*
X93687680Y-73360682D01*
X93693894Y-73360682D01*
X93014867Y-74039707D01*
X93087854Y-74090814D01*
X93087862Y-74090818D01*
X93294009Y-74186946D01*
X93294023Y-74186951D01*
X93513730Y-74245821D01*
X93513741Y-74245823D01*
X93740339Y-74265648D01*
X93740343Y-74265648D01*
X93966940Y-74245823D01*
X93966951Y-74245821D01*
X94186658Y-74186951D01*
X94186672Y-74186946D01*
X94392819Y-74090818D01*
X94465812Y-74039706D01*
X93786788Y-73360682D01*
X93793002Y-73360682D01*
X93894735Y-73333423D01*
X93985947Y-73280762D01*
X94060421Y-73206288D01*
X94113082Y-73115076D01*
X94140341Y-73013343D01*
X94140341Y-73007129D01*
X94819365Y-73686153D01*
X94870477Y-73613160D01*
X94966605Y-73407013D01*
X94966610Y-73406999D01*
X95025480Y-73187292D01*
X95025482Y-73187281D01*
X95045307Y-72960684D01*
X95045307Y-72960679D01*
X95025482Y-72734082D01*
X95025480Y-72734071D01*
X94966610Y-72514364D01*
X94966605Y-72514350D01*
X94870477Y-72308203D01*
X94870473Y-72308195D01*
X94819366Y-72235208D01*
X94140341Y-72914233D01*
X94140341Y-72908021D01*
X94113082Y-72806288D01*
X94060421Y-72715076D01*
X93985947Y-72640602D01*
X93894735Y-72587941D01*
X93793002Y-72560682D01*
X93786789Y-72560682D01*
X94465813Y-71881656D01*
X94392819Y-71830545D01*
X94186672Y-71734417D01*
X94186658Y-71734412D01*
X93966951Y-71675542D01*
X93966940Y-71675540D01*
X93740343Y-71655716D01*
X93740339Y-71655716D01*
X93513741Y-71675540D01*
X93513730Y-71675542D01*
X93294023Y-71734412D01*
X93294014Y-71734416D01*
X93087857Y-71830548D01*
X93087853Y-71830550D01*
X93014867Y-71881655D01*
X93014867Y-71881656D01*
X93693894Y-72560682D01*
X93687680Y-72560682D01*
X93585947Y-72587941D01*
X93494735Y-72640602D01*
X93420261Y-72715076D01*
X93367600Y-72806288D01*
X93340341Y-72908021D01*
X93340341Y-72914234D01*
X92661315Y-72235208D01*
X92661314Y-72235208D01*
X92610209Y-72308194D01*
X92610207Y-72308198D01*
X92514075Y-72514355D01*
X92514071Y-72514364D01*
X92455201Y-72734071D01*
X92455199Y-72734082D01*
X92435375Y-72960679D01*
X91860970Y-72960679D01*
X91921114Y-70382114D01*
X91942355Y-70315555D01*
X91996212Y-70271044D01*
X92065583Y-70262716D01*
X92077157Y-70265230D01*
X92153308Y-70285635D01*
X92315230Y-70299801D01*
X92379998Y-70305468D01*
X92380000Y-70305468D01*
X92380002Y-70305468D01*
X92436673Y-70300509D01*
X92606692Y-70285635D01*
X92826496Y-70226739D01*
X93032734Y-70130568D01*
X93219139Y-70000047D01*
X93380047Y-69839139D01*
X93510568Y-69652734D01*
X93606739Y-69446496D01*
X93665635Y-69226692D01*
X93685468Y-69000000D01*
X93665635Y-68773308D01*
X93606739Y-68553504D01*
X93510568Y-68347266D01*
X93380047Y-68160861D01*
X93380045Y-68160858D01*
X93219141Y-67999954D01*
X93032734Y-67869432D01*
X93032732Y-67869431D01*
X92826497Y-67773261D01*
X92826488Y-67773258D01*
X92606697Y-67714366D01*
X92606693Y-67714365D01*
X92606692Y-67714365D01*
X92606691Y-67714364D01*
X92606686Y-67714364D01*
X92380002Y-67694532D01*
X92379998Y-67694532D01*
X92153313Y-67714364D01*
X92153303Y-67714366D01*
X92142181Y-67717346D01*
X92072331Y-67715679D01*
X92014471Y-67676513D01*
X91986970Y-67612283D01*
X91986129Y-67594697D01*
X91997175Y-67121107D01*
X92018417Y-67054546D01*
X92072274Y-67010035D01*
X92121141Y-67000000D01*
X112876000Y-67000000D01*
X112943039Y-67019685D01*
G37*
G04 #@! TD.AperFunction*
G04 #@! TA.AperFunction,Conductor*
G36*
X89947028Y-93019685D02*
G01*
X89981564Y-93052877D01*
X89999954Y-93079141D01*
X90160858Y-93240045D01*
X90160861Y-93240047D01*
X90347266Y-93370568D01*
X90405865Y-93397893D01*
X90458305Y-93444065D01*
X90477457Y-93511258D01*
X90457242Y-93578139D01*
X90405867Y-93622657D01*
X90347515Y-93649867D01*
X90161179Y-93780342D01*
X90000342Y-93941179D01*
X89869865Y-94127517D01*
X89773734Y-94333673D01*
X89773730Y-94333682D01*
X89721127Y-94529999D01*
X89721128Y-94530000D01*
X90684314Y-94530000D01*
X90679920Y-94534394D01*
X90627259Y-94625606D01*
X90600000Y-94727339D01*
X90600000Y-94832661D01*
X90627259Y-94934394D01*
X90679920Y-95025606D01*
X90684314Y-95030000D01*
X89721128Y-95030000D01*
X89773730Y-95226317D01*
X89773734Y-95226326D01*
X89869865Y-95432482D01*
X90000342Y-95618820D01*
X90161179Y-95779657D01*
X90347517Y-95910134D01*
X90553673Y-96006265D01*
X90553682Y-96006269D01*
X90749999Y-96058872D01*
X90750000Y-96058871D01*
X90750000Y-95095686D01*
X90754394Y-95100080D01*
X90845606Y-95152741D01*
X90947339Y-95180000D01*
X91052661Y-95180000D01*
X91154394Y-95152741D01*
X91245606Y-95100080D01*
X91250000Y-95095686D01*
X91250000Y-96058872D01*
X91446317Y-96006269D01*
X91446326Y-96006265D01*
X91652482Y-95910134D01*
X91838820Y-95779657D01*
X91999657Y-95618820D01*
X92130134Y-95432482D01*
X92226265Y-95226326D01*
X92226269Y-95226317D01*
X92278872Y-95030000D01*
X91315686Y-95030000D01*
X91320080Y-95025606D01*
X91372741Y-94934394D01*
X91400000Y-94832661D01*
X91400000Y-94727339D01*
X91372741Y-94625606D01*
X91320080Y-94534394D01*
X91315686Y-94530000D01*
X92278872Y-94530000D01*
X92278872Y-94529999D01*
X92226269Y-94333682D01*
X92226265Y-94333673D01*
X92130134Y-94127517D01*
X91999657Y-93941179D01*
X91838820Y-93780342D01*
X91652482Y-93649865D01*
X91594133Y-93622657D01*
X91541694Y-93576484D01*
X91522542Y-93509291D01*
X91542758Y-93442410D01*
X91594129Y-93397895D01*
X91652734Y-93370568D01*
X91839139Y-93240047D01*
X92000047Y-93079139D01*
X92018436Y-93052877D01*
X92073012Y-93009252D01*
X92120011Y-93000000D01*
X94000000Y-93000000D01*
X95000000Y-93000000D01*
X95000000Y-96000000D01*
X95000000Y-99876000D01*
X94980315Y-99943039D01*
X94927511Y-99988794D01*
X94876000Y-100000000D01*
X88600500Y-100000000D01*
X88600500Y-98186046D01*
X92071218Y-98186046D01*
X92071218Y-98186051D01*
X92091042Y-98412648D01*
X92091044Y-98412659D01*
X92149914Y-98632366D01*
X92149919Y-98632380D01*
X92246047Y-98838527D01*
X92297158Y-98911521D01*
X92976184Y-98232495D01*
X92976184Y-98238710D01*
X93003443Y-98340443D01*
X93056104Y-98431655D01*
X93130578Y-98506129D01*
X93221790Y-98558790D01*
X93323523Y-98586049D01*
X93329737Y-98586049D01*
X92650710Y-99265074D01*
X92723697Y-99316181D01*
X92723705Y-99316185D01*
X92929852Y-99412313D01*
X92929866Y-99412318D01*
X93149573Y-99471188D01*
X93149584Y-99471190D01*
X93376182Y-99491015D01*
X93376186Y-99491015D01*
X93602783Y-99471190D01*
X93602794Y-99471188D01*
X93822501Y-99412318D01*
X93822515Y-99412313D01*
X94028662Y-99316185D01*
X94101655Y-99265073D01*
X93422631Y-98586049D01*
X93428845Y-98586049D01*
X93530578Y-98558790D01*
X93621790Y-98506129D01*
X93696264Y-98431655D01*
X93748925Y-98340443D01*
X93776184Y-98238710D01*
X93776184Y-98232496D01*
X94455208Y-98911520D01*
X94506320Y-98838527D01*
X94602448Y-98632380D01*
X94602453Y-98632366D01*
X94661323Y-98412659D01*
X94661325Y-98412648D01*
X94681150Y-98186051D01*
X94681150Y-98186046D01*
X94661325Y-97959449D01*
X94661323Y-97959438D01*
X94602453Y-97739731D01*
X94602448Y-97739717D01*
X94506320Y-97533570D01*
X94506316Y-97533562D01*
X94455209Y-97460575D01*
X93776184Y-98139600D01*
X93776184Y-98133388D01*
X93748925Y-98031655D01*
X93696264Y-97940443D01*
X93621790Y-97865969D01*
X93530578Y-97813308D01*
X93428845Y-97786049D01*
X93422632Y-97786049D01*
X94101656Y-97107023D01*
X94028662Y-97055912D01*
X93822515Y-96959784D01*
X93822501Y-96959779D01*
X93602794Y-96900909D01*
X93602783Y-96900907D01*
X93376186Y-96881083D01*
X93376182Y-96881083D01*
X93149584Y-96900907D01*
X93149573Y-96900909D01*
X92929866Y-96959779D01*
X92929857Y-96959783D01*
X92723700Y-97055915D01*
X92723696Y-97055917D01*
X92650710Y-97107022D01*
X92650710Y-97107023D01*
X93329737Y-97786049D01*
X93323523Y-97786049D01*
X93221790Y-97813308D01*
X93130578Y-97865969D01*
X93056104Y-97940443D01*
X93003443Y-98031655D01*
X92976184Y-98133388D01*
X92976184Y-98139601D01*
X92297158Y-97460575D01*
X92297157Y-97460575D01*
X92246052Y-97533561D01*
X92246050Y-97533565D01*
X92149918Y-97739722D01*
X92149914Y-97739731D01*
X92091044Y-97959438D01*
X92091042Y-97959449D01*
X92071218Y-98186046D01*
X88600500Y-98186046D01*
X88600500Y-93124000D01*
X88620185Y-93056961D01*
X88672989Y-93011206D01*
X88724500Y-93000000D01*
X89879989Y-93000000D01*
X89947028Y-93019685D01*
G37*
G04 #@! TD.AperFunction*
G04 #@! TA.AperFunction,Conductor*
G36*
X97124000Y-106773994D02*
G01*
X97124003Y-106773994D01*
X97508526Y-106773994D01*
X97575565Y-106793679D01*
X97621320Y-106846483D01*
X97631264Y-106915641D01*
X97620908Y-106950399D01*
X97593733Y-107008673D01*
X97593730Y-107008682D01*
X97541127Y-107204999D01*
X97541128Y-107205000D01*
X98504314Y-107205000D01*
X98499920Y-107209394D01*
X98447259Y-107300606D01*
X98420000Y-107402339D01*
X98420000Y-107507661D01*
X98447259Y-107609394D01*
X98499920Y-107700606D01*
X98504314Y-107705000D01*
X97541128Y-107705000D01*
X97593730Y-107901317D01*
X97593734Y-107901326D01*
X97689865Y-108107482D01*
X97820342Y-108293820D01*
X97981179Y-108454657D01*
X98167517Y-108585134D01*
X98226457Y-108612618D01*
X98278896Y-108658790D01*
X98298048Y-108725984D01*
X98277832Y-108792865D01*
X98226457Y-108837382D01*
X98167517Y-108864865D01*
X97981179Y-108995342D01*
X97820342Y-109156179D01*
X97689865Y-109342517D01*
X97593734Y-109548673D01*
X97593730Y-109548682D01*
X97541127Y-109744999D01*
X97541128Y-109745000D01*
X98504314Y-109745000D01*
X98499920Y-109749394D01*
X98447259Y-109840606D01*
X98420000Y-109942339D01*
X98420000Y-110047661D01*
X98447259Y-110149394D01*
X98499920Y-110240606D01*
X98504314Y-110245000D01*
X97541128Y-110245000D01*
X97593730Y-110441317D01*
X97593734Y-110441326D01*
X97689865Y-110647482D01*
X97820342Y-110833820D01*
X97981179Y-110994657D01*
X98167517Y-111125134D01*
X98226457Y-111152618D01*
X98278896Y-111198790D01*
X98298048Y-111265984D01*
X98277832Y-111332865D01*
X98226457Y-111377382D01*
X98167517Y-111404865D01*
X97981179Y-111535342D01*
X97820342Y-111696179D01*
X97689865Y-111882517D01*
X97593734Y-112088673D01*
X97593730Y-112088682D01*
X97541127Y-112284999D01*
X97541128Y-112285000D01*
X98504314Y-112285000D01*
X98499920Y-112289394D01*
X98447259Y-112380606D01*
X98420000Y-112482339D01*
X98420000Y-112587661D01*
X98447259Y-112689394D01*
X98499920Y-112780606D01*
X98504314Y-112785000D01*
X97541128Y-112785000D01*
X97593730Y-112981317D01*
X97593734Y-112981326D01*
X97689865Y-113187482D01*
X97820342Y-113373820D01*
X97981179Y-113534657D01*
X98167518Y-113665134D01*
X98167520Y-113665135D01*
X98225865Y-113692342D01*
X98278305Y-113738514D01*
X98297457Y-113805707D01*
X98277242Y-113872589D01*
X98225867Y-113917105D01*
X98167268Y-113944431D01*
X98167264Y-113944433D01*
X97980858Y-114074954D01*
X97819954Y-114235858D01*
X97689432Y-114422265D01*
X97689431Y-114422267D01*
X97593261Y-114628502D01*
X97593258Y-114628511D01*
X97534366Y-114848302D01*
X97534364Y-114848313D01*
X97514532Y-115074998D01*
X97514532Y-115075001D01*
X97534364Y-115301686D01*
X97534366Y-115301697D01*
X97593258Y-115521488D01*
X97593261Y-115521497D01*
X97689431Y-115727732D01*
X97689432Y-115727734D01*
X97819954Y-115914141D01*
X97980858Y-116075045D01*
X97980861Y-116075047D01*
X98167266Y-116205568D01*
X98225275Y-116232618D01*
X98277714Y-116278791D01*
X98296866Y-116345984D01*
X98276650Y-116412865D01*
X98225275Y-116457382D01*
X98167267Y-116484431D01*
X98167265Y-116484432D01*
X97980858Y-116614954D01*
X97819954Y-116775858D01*
X97689432Y-116962265D01*
X97689431Y-116962267D01*
X97593261Y-117168502D01*
X97593258Y-117168511D01*
X97534366Y-117388302D01*
X97534364Y-117388313D01*
X97514532Y-117614998D01*
X97514532Y-117615001D01*
X97534364Y-117841686D01*
X97534366Y-117841697D01*
X97593258Y-118061488D01*
X97593261Y-118061497D01*
X97689431Y-118267732D01*
X97689432Y-118267734D01*
X97819954Y-118454141D01*
X97980858Y-118615045D01*
X97980861Y-118615047D01*
X98167266Y-118745568D01*
X98373504Y-118841739D01*
X98593308Y-118900635D01*
X98755230Y-118914801D01*
X98819998Y-118920468D01*
X98820000Y-118920468D01*
X98820002Y-118920468D01*
X98876673Y-118915509D01*
X99046692Y-118900635D01*
X99266496Y-118841739D01*
X99472734Y-118745568D01*
X99659139Y-118615047D01*
X99820047Y-118454139D01*
X99950568Y-118267734D01*
X100046739Y-118061496D01*
X100105635Y-117841692D01*
X100125468Y-117615000D01*
X100105635Y-117388308D01*
X100049620Y-117179255D01*
X100046741Y-117168511D01*
X100046738Y-117168502D01*
X100043175Y-117160861D01*
X99950568Y-116962266D01*
X99820047Y-116775861D01*
X99820045Y-116775858D01*
X99659141Y-116614954D01*
X99472734Y-116484432D01*
X99472728Y-116484429D01*
X99414725Y-116457382D01*
X99362285Y-116411210D01*
X99343133Y-116344017D01*
X99363348Y-116277135D01*
X99414725Y-116232618D01*
X99472734Y-116205568D01*
X99659139Y-116075047D01*
X99820047Y-115914139D01*
X99950568Y-115727734D01*
X100046739Y-115521496D01*
X100105635Y-115301692D01*
X100125468Y-115075000D01*
X100105635Y-114848308D01*
X100046739Y-114628504D01*
X99950568Y-114422266D01*
X99820047Y-114235861D01*
X99820045Y-114235858D01*
X99659141Y-114074954D01*
X99472734Y-113944432D01*
X99472732Y-113944431D01*
X99461275Y-113939088D01*
X99414132Y-113917105D01*
X99361694Y-113870934D01*
X99342542Y-113803740D01*
X99362758Y-113736859D01*
X99414134Y-113692341D01*
X99472484Y-113665132D01*
X99658820Y-113534657D01*
X99819657Y-113373820D01*
X99950134Y-113187482D01*
X100046265Y-112981326D01*
X100046269Y-112981317D01*
X100098872Y-112785000D01*
X99135686Y-112785000D01*
X99140080Y-112780606D01*
X99192741Y-112689394D01*
X99220000Y-112587661D01*
X99220000Y-112482339D01*
X99192741Y-112380606D01*
X99140080Y-112289394D01*
X99135686Y-112285000D01*
X100098872Y-112285000D01*
X100098872Y-112284999D01*
X100046269Y-112088682D01*
X100046265Y-112088673D01*
X99950134Y-111882517D01*
X99819657Y-111696179D01*
X99658820Y-111535342D01*
X99472481Y-111404865D01*
X99472479Y-111404864D01*
X99413543Y-111377382D01*
X99361103Y-111331210D01*
X99341951Y-111264017D01*
X99362166Y-111197136D01*
X99413543Y-111152618D01*
X99472479Y-111125135D01*
X99472481Y-111125134D01*
X99658820Y-110994657D01*
X99819657Y-110833820D01*
X99950134Y-110647482D01*
X100046265Y-110441326D01*
X100046269Y-110441317D01*
X100098872Y-110245000D01*
X99135686Y-110245000D01*
X99140080Y-110240606D01*
X99192741Y-110149394D01*
X99220000Y-110047661D01*
X99220000Y-109942339D01*
X99192741Y-109840606D01*
X99140080Y-109749394D01*
X99135686Y-109745000D01*
X100098872Y-109745000D01*
X100098872Y-109744999D01*
X100046269Y-109548682D01*
X100046265Y-109548673D01*
X99950134Y-109342517D01*
X99819657Y-109156179D01*
X99658820Y-108995342D01*
X99472481Y-108864865D01*
X99472479Y-108864864D01*
X99413543Y-108837382D01*
X99361103Y-108791210D01*
X99341951Y-108724017D01*
X99362166Y-108657136D01*
X99413543Y-108612618D01*
X99472479Y-108585135D01*
X99472481Y-108585134D01*
X99658820Y-108454657D01*
X99819657Y-108293820D01*
X99950134Y-108107482D01*
X100046265Y-107901326D01*
X100046269Y-107901317D01*
X100098872Y-107705000D01*
X99135686Y-107705000D01*
X99140080Y-107700606D01*
X99192741Y-107609394D01*
X99220000Y-107507661D01*
X99220000Y-107402339D01*
X99192741Y-107300606D01*
X99140080Y-107209394D01*
X99135686Y-107205000D01*
X99906560Y-107205000D01*
X99973599Y-107224685D01*
X99994241Y-107241319D01*
X99997738Y-107244816D01*
X100150478Y-107340789D01*
X100320745Y-107400368D01*
X100365282Y-107405386D01*
X100429694Y-107432451D01*
X100469250Y-107490046D01*
X100475398Y-107528606D01*
X100475398Y-123000000D01*
X104876000Y-123000000D01*
X104943039Y-123019685D01*
X104988794Y-123072489D01*
X105000000Y-123124000D01*
X105000000Y-126370500D01*
X104980315Y-126437539D01*
X104927511Y-126483294D01*
X104876000Y-126494500D01*
X104415047Y-126494500D01*
X104384998Y-126495394D01*
X104370243Y-126496273D01*
X104340316Y-126498951D01*
X104201342Y-126536189D01*
X104201331Y-126536193D01*
X104137119Y-126563690D01*
X104137108Y-126563695D01*
X104093928Y-126590015D01*
X104026438Y-126608098D01*
X103959887Y-126586823D01*
X103941710Y-126571814D01*
X103916181Y-126546285D01*
X103882696Y-126484962D01*
X103887680Y-126415270D01*
X103929552Y-126359337D01*
X103960529Y-126342422D01*
X104092086Y-126293354D01*
X104092093Y-126293350D01*
X104207187Y-126207190D01*
X104207190Y-126207187D01*
X104293350Y-126092093D01*
X104293354Y-126092086D01*
X104343596Y-125957379D01*
X104343598Y-125957372D01*
X104349999Y-125897844D01*
X104350000Y-125897827D01*
X104350000Y-125250000D01*
X103433012Y-125250000D01*
X103465925Y-125192993D01*
X103500000Y-125065826D01*
X103500000Y-124934174D01*
X103465925Y-124807007D01*
X103433012Y-124750000D01*
X104350000Y-124750000D01*
X104350000Y-124102172D01*
X104349999Y-124102155D01*
X104343598Y-124042627D01*
X104343596Y-124042620D01*
X104293354Y-123907913D01*
X104293350Y-123907906D01*
X104207190Y-123792812D01*
X104207187Y-123792809D01*
X104092093Y-123706649D01*
X104092086Y-123706645D01*
X103957379Y-123656403D01*
X103957372Y-123656401D01*
X103897844Y-123650000D01*
X103250000Y-123650000D01*
X103250000Y-124566988D01*
X103192993Y-124534075D01*
X103065826Y-124500000D01*
X102934174Y-124500000D01*
X102807007Y-124534075D01*
X102750000Y-124566988D01*
X102750000Y-123650000D01*
X102102155Y-123650000D01*
X102042627Y-123656401D01*
X102042620Y-123656403D01*
X101907913Y-123706645D01*
X101907906Y-123706649D01*
X101792812Y-123792809D01*
X101792809Y-123792812D01*
X101706649Y-123907906D01*
X101706645Y-123907913D01*
X101656403Y-124042620D01*
X101656401Y-124042627D01*
X101650000Y-124102155D01*
X101650000Y-124750000D01*
X102566988Y-124750000D01*
X102534075Y-124807007D01*
X102500000Y-124934174D01*
X102500000Y-125065826D01*
X102534075Y-125192993D01*
X102566988Y-125250000D01*
X101650000Y-125250000D01*
X101650000Y-125897844D01*
X101656401Y-125957372D01*
X101656403Y-125957379D01*
X101706645Y-126092086D01*
X101706649Y-126092093D01*
X101792809Y-126207187D01*
X101792812Y-126207190D01*
X101907906Y-126293350D01*
X101907913Y-126293354D01*
X102039469Y-126342421D01*
X102095403Y-126384292D01*
X102119820Y-126449756D01*
X102104969Y-126518029D01*
X102083819Y-126546282D01*
X102061944Y-126568158D01*
X102000622Y-126601645D01*
X101930930Y-126596662D01*
X101922748Y-126593273D01*
X101794414Y-126534663D01*
X101727369Y-126514976D01*
X101679896Y-126508150D01*
X101584952Y-126494500D01*
X101584950Y-126494500D01*
X97629500Y-126494500D01*
X97562461Y-126474815D01*
X97516706Y-126422011D01*
X97505500Y-126370500D01*
X97505500Y-123374499D01*
X97525185Y-123307460D01*
X97577989Y-123261705D01*
X97629500Y-123250499D01*
X98078104Y-123250499D01*
X98078105Y-123250499D01*
X98137716Y-123244091D01*
X98272564Y-123193796D01*
X98387779Y-123107546D01*
X98474029Y-122992331D01*
X98524324Y-122857483D01*
X98530733Y-122797873D01*
X98530732Y-121202128D01*
X98524324Y-121142517D01*
X98522853Y-121138574D01*
X98474030Y-121007671D01*
X98474026Y-121007664D01*
X98387780Y-120892455D01*
X98387777Y-120892452D01*
X98272568Y-120806206D01*
X98272561Y-120806202D01*
X98137715Y-120755908D01*
X98137716Y-120755908D01*
X98078116Y-120749501D01*
X98078114Y-120749500D01*
X98078106Y-120749500D01*
X98078097Y-120749500D01*
X96932362Y-120749500D01*
X96932356Y-120749501D01*
X96872749Y-120755908D01*
X96737905Y-120806202D01*
X96737898Y-120806206D01*
X96736789Y-120807037D01*
X96735491Y-120807520D01*
X96730120Y-120810454D01*
X96729698Y-120809681D01*
X96671323Y-120831449D01*
X96615033Y-120822325D01*
X96534360Y-120788909D01*
X96534352Y-120788907D01*
X96336240Y-120749500D01*
X96336236Y-120749500D01*
X96134230Y-120749500D01*
X96134225Y-120749500D01*
X95936113Y-120788907D01*
X95936105Y-120788909D01*
X95749477Y-120866213D01*
X95669124Y-120919904D01*
X95602446Y-120940782D01*
X95535066Y-120922297D01*
X95531342Y-120919904D01*
X95450988Y-120866213D01*
X95264360Y-120788909D01*
X95264352Y-120788907D01*
X95066240Y-120749500D01*
X95066236Y-120749500D01*
X94864230Y-120749500D01*
X94864225Y-120749500D01*
X94666113Y-120788906D01*
X94666103Y-120788909D01*
X94665116Y-120789319D01*
X94664558Y-120789378D01*
X94660283Y-120790676D01*
X94660036Y-120789864D01*
X94595646Y-120796778D01*
X94533171Y-120765494D01*
X94515952Y-120744886D01*
X94515802Y-120745000D01*
X94513689Y-120742178D01*
X94513359Y-120741783D01*
X94513150Y-120741457D01*
X94513144Y-120741450D01*
X94467401Y-120688659D01*
X94467397Y-120688656D01*
X94467395Y-120688653D01*
X94358661Y-120594433D01*
X94358658Y-120594431D01*
X94358656Y-120594430D01*
X94227790Y-120534664D01*
X94227785Y-120534662D01*
X94227784Y-120534662D01*
X94160745Y-120514977D01*
X94160747Y-120514977D01*
X94160742Y-120514976D01*
X94098679Y-120506053D01*
X94018325Y-120494500D01*
X83313640Y-120494500D01*
X83313640Y-119000000D01*
X89000000Y-119000000D01*
X89000000Y-117000000D01*
X90052387Y-117000000D01*
X89973734Y-117168673D01*
X89973730Y-117168682D01*
X89921127Y-117364999D01*
X89921128Y-117365000D01*
X90884314Y-117365000D01*
X90879920Y-117369394D01*
X90827259Y-117460606D01*
X90800000Y-117562339D01*
X90800000Y-117667661D01*
X90827259Y-117769394D01*
X90879920Y-117860606D01*
X90884314Y-117865000D01*
X89921128Y-117865000D01*
X89973730Y-118061317D01*
X89973734Y-118061326D01*
X90069865Y-118267482D01*
X90200342Y-118453820D01*
X90361179Y-118614657D01*
X90547517Y-118745134D01*
X90753673Y-118841265D01*
X90753682Y-118841269D01*
X90949999Y-118893872D01*
X90950000Y-118893871D01*
X90950000Y-117930686D01*
X90954394Y-117935080D01*
X91045606Y-117987741D01*
X91147339Y-118015000D01*
X91252661Y-118015000D01*
X91354394Y-117987741D01*
X91445606Y-117935080D01*
X91450000Y-117930686D01*
X91450000Y-118893872D01*
X91646317Y-118841269D01*
X91646326Y-118841265D01*
X91852482Y-118745134D01*
X92038820Y-118614657D01*
X92199657Y-118453820D01*
X92330134Y-118267482D01*
X92426265Y-118061326D01*
X92426269Y-118061317D01*
X92478872Y-117865000D01*
X91515686Y-117865000D01*
X91520080Y-117860606D01*
X91572741Y-117769394D01*
X91600000Y-117667661D01*
X91600000Y-117562339D01*
X91572741Y-117460606D01*
X91520080Y-117369394D01*
X91515686Y-117365000D01*
X92478872Y-117365000D01*
X92478872Y-117364999D01*
X92426269Y-117168682D01*
X92426265Y-117168673D01*
X92347612Y-117000000D01*
X94194435Y-117000000D01*
X94214630Y-117179249D01*
X94214631Y-117179254D01*
X94274211Y-117349523D01*
X94298585Y-117388313D01*
X94370184Y-117502262D01*
X94497738Y-117629816D01*
X94650478Y-117725789D01*
X94775094Y-117769394D01*
X94820745Y-117785368D01*
X94820750Y-117785369D01*
X94999996Y-117805565D01*
X95000000Y-117805565D01*
X95000004Y-117805565D01*
X95179249Y-117785369D01*
X95179252Y-117785368D01*
X95179255Y-117785368D01*
X95349522Y-117725789D01*
X95502262Y-117629816D01*
X95629816Y-117502262D01*
X95725789Y-117349522D01*
X95785368Y-117179255D01*
X95786560Y-117168682D01*
X95805565Y-117000000D01*
X97000000Y-117000000D01*
X97000000Y-106756165D01*
X97124000Y-106773994D01*
G37*
G04 #@! TD.AperFunction*
G04 #@! TA.AperFunction,Conductor*
G36*
X99070000Y-112219314D02*
G01*
X99065606Y-112214920D01*
X98974394Y-112162259D01*
X98872661Y-112135000D01*
X98767339Y-112135000D01*
X98665606Y-112162259D01*
X98574394Y-112214920D01*
X98570000Y-112219314D01*
X98570000Y-110310686D01*
X98574394Y-110315080D01*
X98665606Y-110367741D01*
X98767339Y-110395000D01*
X98872661Y-110395000D01*
X98974394Y-110367741D01*
X99065606Y-110315080D01*
X99070000Y-110310686D01*
X99070000Y-112219314D01*
G37*
G04 #@! TD.AperFunction*
G04 #@! TA.AperFunction,Conductor*
G36*
X99070000Y-109679314D02*
G01*
X99065606Y-109674920D01*
X98974394Y-109622259D01*
X98872661Y-109595000D01*
X98767339Y-109595000D01*
X98665606Y-109622259D01*
X98574394Y-109674920D01*
X98570000Y-109679314D01*
X98570000Y-107770686D01*
X98574394Y-107775080D01*
X98665606Y-107827741D01*
X98767339Y-107855000D01*
X98872661Y-107855000D01*
X98974394Y-107827741D01*
X99065606Y-107775080D01*
X99070000Y-107770686D01*
X99070000Y-109679314D01*
G37*
G04 #@! TD.AperFunction*
G04 #@! TA.AperFunction,Conductor*
G36*
X100956202Y-85042328D02*
G01*
X100956206Y-85042335D01*
X101042452Y-85157544D01*
X101042455Y-85157547D01*
X101157664Y-85243793D01*
X101157671Y-85243797D01*
X101202618Y-85260561D01*
X101292517Y-85294091D01*
X101327596Y-85297862D01*
X101392144Y-85324599D01*
X101431993Y-85381991D01*
X101434488Y-85451816D01*
X101398836Y-85511905D01*
X101385464Y-85522725D01*
X101360858Y-85539954D01*
X101199954Y-85700858D01*
X101069432Y-85887265D01*
X101069431Y-85887267D01*
X100973261Y-86093502D01*
X100973258Y-86093511D01*
X100914366Y-86313302D01*
X100914364Y-86313313D01*
X100894532Y-86539998D01*
X100894532Y-86540001D01*
X100914364Y-86766686D01*
X100914366Y-86766697D01*
X100973258Y-86986488D01*
X100973261Y-86986497D01*
X101069431Y-87192732D01*
X101069432Y-87192734D01*
X101199954Y-87379141D01*
X101360858Y-87540045D01*
X101360861Y-87540047D01*
X101547266Y-87670568D01*
X101605275Y-87697618D01*
X101657714Y-87743791D01*
X101676866Y-87810984D01*
X101656650Y-87877865D01*
X101605275Y-87922382D01*
X101547267Y-87949431D01*
X101547265Y-87949432D01*
X101360858Y-88079954D01*
X101199954Y-88240858D01*
X101069432Y-88427265D01*
X101069431Y-88427267D01*
X100973261Y-88633502D01*
X100973258Y-88633511D01*
X100914366Y-88853302D01*
X100914364Y-88853313D01*
X100894532Y-89079998D01*
X100894532Y-89080001D01*
X100914364Y-89306686D01*
X100914366Y-89306697D01*
X100973258Y-89526488D01*
X100973261Y-89526497D01*
X101069431Y-89732732D01*
X101069432Y-89732734D01*
X101199954Y-89919141D01*
X101360858Y-90080045D01*
X101360861Y-90080047D01*
X101547266Y-90210568D01*
X101604683Y-90237342D01*
X101605275Y-90237618D01*
X101657714Y-90283791D01*
X101676866Y-90350984D01*
X101656650Y-90417865D01*
X101605275Y-90462382D01*
X101547267Y-90489431D01*
X101547265Y-90489432D01*
X101360858Y-90619954D01*
X101199954Y-90780858D01*
X101069432Y-90967265D01*
X101069431Y-90967267D01*
X100973261Y-91173502D01*
X100973258Y-91173511D01*
X100914366Y-91393302D01*
X100914364Y-91393313D01*
X100894532Y-91619998D01*
X100894532Y-91620001D01*
X100914364Y-91846686D01*
X100914366Y-91846697D01*
X100973258Y-92066488D01*
X100973261Y-92066497D01*
X101069431Y-92272732D01*
X101069432Y-92272734D01*
X101199954Y-92459141D01*
X101360858Y-92620045D01*
X101360861Y-92620047D01*
X101547266Y-92750568D01*
X101605275Y-92777618D01*
X101657714Y-92823791D01*
X101676866Y-92890984D01*
X101656650Y-92957865D01*
X101605275Y-93002382D01*
X101547267Y-93029431D01*
X101547265Y-93029432D01*
X101360858Y-93159954D01*
X101199954Y-93320858D01*
X101069432Y-93507265D01*
X101069431Y-93507267D01*
X100973261Y-93713502D01*
X100973258Y-93713511D01*
X100914366Y-93933302D01*
X100914364Y-93933313D01*
X100894532Y-94159998D01*
X100894532Y-94160001D01*
X100914364Y-94386686D01*
X100914366Y-94386697D01*
X100973258Y-94606488D01*
X100973261Y-94606497D01*
X101069431Y-94812732D01*
X101069432Y-94812734D01*
X101199954Y-94999141D01*
X101360858Y-95160045D01*
X101360861Y-95160047D01*
X101547266Y-95290568D01*
X101605275Y-95317618D01*
X101657714Y-95363791D01*
X101676866Y-95430984D01*
X101656650Y-95497865D01*
X101605275Y-95542382D01*
X101547267Y-95569431D01*
X101547265Y-95569432D01*
X101360858Y-95699954D01*
X101199954Y-95860858D01*
X101069432Y-96047265D01*
X101069431Y-96047267D01*
X100973261Y-96253502D01*
X100973258Y-96253511D01*
X100914366Y-96473302D01*
X100914364Y-96473313D01*
X100894532Y-96699998D01*
X100894532Y-96700001D01*
X100914364Y-96926686D01*
X100914366Y-96926697D01*
X100973258Y-97146488D01*
X100973261Y-97146497D01*
X101069431Y-97352732D01*
X101069432Y-97352734D01*
X101199954Y-97539141D01*
X101360858Y-97700045D01*
X101360861Y-97700047D01*
X101547266Y-97830568D01*
X101605865Y-97857893D01*
X101658305Y-97904065D01*
X101677457Y-97971258D01*
X101657242Y-98038139D01*
X101605867Y-98082657D01*
X101547515Y-98109867D01*
X101361179Y-98240342D01*
X101200342Y-98401179D01*
X101069865Y-98587517D01*
X100973734Y-98793673D01*
X100973730Y-98793682D01*
X100921127Y-98989999D01*
X100921128Y-98990000D01*
X101884314Y-98990000D01*
X101879920Y-98994394D01*
X101827259Y-99085606D01*
X101800000Y-99187339D01*
X101800000Y-99292661D01*
X101827259Y-99394394D01*
X101879920Y-99485606D01*
X101884314Y-99490000D01*
X100921128Y-99490000D01*
X100973730Y-99686317D01*
X100973734Y-99686326D01*
X101069865Y-99892482D01*
X101200342Y-100078820D01*
X101305764Y-100184242D01*
X101339249Y-100245565D01*
X101334265Y-100315257D01*
X101292393Y-100371190D01*
X101226929Y-100395607D01*
X101218083Y-100395923D01*
X100753672Y-100395923D01*
X100686633Y-100376238D01*
X100640878Y-100323434D01*
X100629672Y-100271923D01*
X100629672Y-85000000D01*
X100940415Y-85000000D01*
X100956202Y-85042328D01*
G37*
G04 #@! TD.AperFunction*
G04 #@! TA.AperFunction,Conductor*
G36*
X109008736Y-85019685D02*
G01*
X109012820Y-85022425D01*
X109167266Y-85130568D01*
X109225865Y-85157893D01*
X109278305Y-85204065D01*
X109297457Y-85271258D01*
X109277242Y-85338139D01*
X109225867Y-85382657D01*
X109167515Y-85409867D01*
X108981179Y-85540342D01*
X108820342Y-85701179D01*
X108689865Y-85887517D01*
X108593734Y-86093673D01*
X108593730Y-86093682D01*
X108541127Y-86289999D01*
X108541128Y-86290000D01*
X109504314Y-86290000D01*
X109499920Y-86294394D01*
X109447259Y-86385606D01*
X109420000Y-86487339D01*
X109420000Y-86592661D01*
X109447259Y-86694394D01*
X109499920Y-86785606D01*
X109504314Y-86790000D01*
X108541128Y-86790000D01*
X108593730Y-86986317D01*
X108593734Y-86986326D01*
X108689865Y-87192482D01*
X108820342Y-87378820D01*
X108981179Y-87539657D01*
X109167517Y-87670134D01*
X109226457Y-87697618D01*
X109278896Y-87743790D01*
X109298048Y-87810984D01*
X109277832Y-87877865D01*
X109226457Y-87922382D01*
X109167517Y-87949865D01*
X108981179Y-88080342D01*
X108820342Y-88241179D01*
X108689865Y-88427517D01*
X108593734Y-88633673D01*
X108593730Y-88633682D01*
X108541127Y-88829999D01*
X108541128Y-88830000D01*
X109504314Y-88830000D01*
X109499920Y-88834394D01*
X109447259Y-88925606D01*
X109420000Y-89027339D01*
X109420000Y-89132661D01*
X109447259Y-89234394D01*
X109499920Y-89325606D01*
X109504314Y-89330000D01*
X108541128Y-89330000D01*
X108593730Y-89526317D01*
X108593734Y-89526326D01*
X108689865Y-89732482D01*
X108820342Y-89918820D01*
X108981179Y-90079657D01*
X109167518Y-90210134D01*
X109167520Y-90210135D01*
X109225865Y-90237342D01*
X109278305Y-90283514D01*
X109297457Y-90350707D01*
X109277242Y-90417589D01*
X109225867Y-90462105D01*
X109167268Y-90489431D01*
X109167264Y-90489433D01*
X108980858Y-90619954D01*
X108819954Y-90780858D01*
X108689432Y-90967265D01*
X108689431Y-90967267D01*
X108593261Y-91173502D01*
X108593258Y-91173511D01*
X108534366Y-91393302D01*
X108534364Y-91393313D01*
X108514532Y-91619998D01*
X108514532Y-91620001D01*
X108534364Y-91846686D01*
X108534366Y-91846697D01*
X108593258Y-92066488D01*
X108593261Y-92066497D01*
X108689431Y-92272732D01*
X108689432Y-92272734D01*
X108819954Y-92459141D01*
X108980858Y-92620045D01*
X108980861Y-92620047D01*
X109167266Y-92750568D01*
X109225865Y-92777893D01*
X109278305Y-92824065D01*
X109297457Y-92891258D01*
X109277242Y-92958139D01*
X109225867Y-93002657D01*
X109167515Y-93029867D01*
X108981179Y-93160342D01*
X108820342Y-93321179D01*
X108689865Y-93507517D01*
X108593734Y-93713673D01*
X108593730Y-93713682D01*
X108541127Y-93909999D01*
X108541128Y-93910000D01*
X109504314Y-93910000D01*
X109499920Y-93914394D01*
X109447259Y-94005606D01*
X109420000Y-94107339D01*
X109420000Y-94212661D01*
X109447259Y-94314394D01*
X109499920Y-94405606D01*
X109504314Y-94410000D01*
X108541128Y-94410000D01*
X108593730Y-94606317D01*
X108593734Y-94606326D01*
X108689865Y-94812482D01*
X108820342Y-94998820D01*
X108981179Y-95159657D01*
X109167517Y-95290134D01*
X109226457Y-95317618D01*
X109278896Y-95363790D01*
X109298048Y-95430984D01*
X109277832Y-95497865D01*
X109226457Y-95542382D01*
X109167517Y-95569865D01*
X108981179Y-95700342D01*
X108820342Y-95861179D01*
X108689865Y-96047517D01*
X108593734Y-96253673D01*
X108593730Y-96253682D01*
X108541127Y-96449999D01*
X108541128Y-96450000D01*
X109504314Y-96450000D01*
X109499920Y-96454394D01*
X109447259Y-96545606D01*
X109420000Y-96647339D01*
X109420000Y-96752661D01*
X109447259Y-96854394D01*
X109499920Y-96945606D01*
X109504314Y-96950000D01*
X108541128Y-96950000D01*
X108593730Y-97146317D01*
X108593734Y-97146326D01*
X108689865Y-97352482D01*
X108820342Y-97538820D01*
X108981179Y-97699657D01*
X109167518Y-97830134D01*
X109167520Y-97830135D01*
X109225865Y-97857342D01*
X109278305Y-97903514D01*
X109297457Y-97970707D01*
X109277242Y-98037589D01*
X109225867Y-98082105D01*
X109224685Y-98082657D01*
X109167264Y-98109433D01*
X108980858Y-98239954D01*
X108819954Y-98400858D01*
X108689432Y-98587265D01*
X108689431Y-98587267D01*
X108593261Y-98793502D01*
X108593258Y-98793511D01*
X108534366Y-99013302D01*
X108534364Y-99013313D01*
X108514532Y-99239998D01*
X108514532Y-99240001D01*
X108534364Y-99466686D01*
X108534366Y-99466697D01*
X108593258Y-99686488D01*
X108593261Y-99686497D01*
X108689431Y-99892732D01*
X108689432Y-99892734D01*
X108819954Y-100079141D01*
X108925055Y-100184242D01*
X108958540Y-100245565D01*
X108953556Y-100315257D01*
X108911684Y-100371190D01*
X108846220Y-100395607D01*
X108837374Y-100395923D01*
X103181917Y-100395923D01*
X103114878Y-100376238D01*
X103069123Y-100323434D01*
X103059179Y-100254276D01*
X103088204Y-100190720D01*
X103094236Y-100184242D01*
X103199657Y-100078820D01*
X103330134Y-99892482D01*
X103426265Y-99686326D01*
X103426269Y-99686317D01*
X103478872Y-99490000D01*
X102515686Y-99490000D01*
X102520080Y-99485606D01*
X102572741Y-99394394D01*
X102600000Y-99292661D01*
X102600000Y-99187339D01*
X102572741Y-99085606D01*
X102520080Y-98994394D01*
X102515686Y-98990000D01*
X103478872Y-98990000D01*
X103478872Y-98989999D01*
X103426269Y-98793682D01*
X103426265Y-98793673D01*
X103330134Y-98587517D01*
X103199657Y-98401179D01*
X103038820Y-98240342D01*
X102852482Y-98109865D01*
X102794133Y-98082657D01*
X102741694Y-98036484D01*
X102731294Y-97999996D01*
X104194435Y-97999996D01*
X104194435Y-98000003D01*
X104214630Y-98179249D01*
X104214631Y-98179254D01*
X104274211Y-98349523D01*
X104306469Y-98400861D01*
X104370184Y-98502262D01*
X104497738Y-98629816D01*
X104650478Y-98725789D01*
X104820745Y-98785368D01*
X104820750Y-98785369D01*
X104999996Y-98805565D01*
X105000000Y-98805565D01*
X105000004Y-98805565D01*
X105179249Y-98785369D01*
X105179252Y-98785368D01*
X105179255Y-98785368D01*
X105349522Y-98725789D01*
X105502262Y-98629816D01*
X105502267Y-98629810D01*
X105505097Y-98627555D01*
X105507275Y-98626665D01*
X105508158Y-98626111D01*
X105508255Y-98626265D01*
X105569783Y-98601145D01*
X105582412Y-98600500D01*
X106593323Y-98600500D01*
X106660362Y-98620185D01*
X106670638Y-98627555D01*
X106673471Y-98629814D01*
X106673473Y-98629816D01*
X106826213Y-98725789D01*
X106996480Y-98785368D01*
X106996485Y-98785369D01*
X107175731Y-98805565D01*
X107175735Y-98805565D01*
X107175739Y-98805565D01*
X107354984Y-98785369D01*
X107354987Y-98785368D01*
X107354990Y-98785368D01*
X107525257Y-98725789D01*
X107677997Y-98629816D01*
X107805551Y-98502262D01*
X107901524Y-98349522D01*
X107961103Y-98179255D01*
X107968921Y-98109867D01*
X107981300Y-98000003D01*
X107981300Y-97999996D01*
X107961104Y-97820750D01*
X107961103Y-97820745D01*
X107901523Y-97650476D01*
X107831565Y-97539139D01*
X107805551Y-97497738D01*
X107677997Y-97370184D01*
X107650226Y-97352734D01*
X107525258Y-97274211D01*
X107354989Y-97214631D01*
X107354984Y-97214630D01*
X107175739Y-97194435D01*
X107175731Y-97194435D01*
X106996485Y-97214630D01*
X106996480Y-97214631D01*
X106826211Y-97274211D01*
X106673471Y-97370185D01*
X106670638Y-97372445D01*
X106668459Y-97373334D01*
X106667577Y-97373889D01*
X106667479Y-97373734D01*
X106605952Y-97398855D01*
X106593323Y-97399500D01*
X105582412Y-97399500D01*
X105515373Y-97379815D01*
X105505097Y-97372445D01*
X105502263Y-97370185D01*
X105502262Y-97370184D01*
X105445496Y-97334515D01*
X105349523Y-97274211D01*
X105179254Y-97214631D01*
X105179249Y-97214630D01*
X105000004Y-97194435D01*
X104999996Y-97194435D01*
X104820750Y-97214630D01*
X104820745Y-97214631D01*
X104650476Y-97274211D01*
X104497737Y-97370184D01*
X104370184Y-97497737D01*
X104274211Y-97650476D01*
X104214631Y-97820745D01*
X104214630Y-97820750D01*
X104194435Y-97999996D01*
X102731294Y-97999996D01*
X102722542Y-97969291D01*
X102742758Y-97902410D01*
X102794129Y-97857895D01*
X102852734Y-97830568D01*
X103039139Y-97700047D01*
X103200047Y-97539139D01*
X103330568Y-97352734D01*
X103426739Y-97146496D01*
X103485635Y-96926692D01*
X103505468Y-96700000D01*
X103485635Y-96473308D01*
X103426739Y-96253504D01*
X103330568Y-96047266D01*
X103200047Y-95860861D01*
X103200045Y-95860858D01*
X103039141Y-95699954D01*
X102852734Y-95569432D01*
X102852728Y-95569429D01*
X102794725Y-95542382D01*
X102742285Y-95496210D01*
X102723133Y-95429017D01*
X102743348Y-95362135D01*
X102794725Y-95317618D01*
X102852734Y-95290568D01*
X103039139Y-95160047D01*
X103200047Y-94999139D01*
X103330568Y-94812734D01*
X103426739Y-94606496D01*
X103485635Y-94386692D01*
X103505468Y-94160000D01*
X103485635Y-93933308D01*
X103426739Y-93713504D01*
X103330568Y-93507266D01*
X103200047Y-93320861D01*
X103200045Y-93320858D01*
X103039141Y-93159954D01*
X102852734Y-93029432D01*
X102852728Y-93029429D01*
X102794725Y-93002382D01*
X102742285Y-92956210D01*
X102723133Y-92889017D01*
X102743348Y-92822135D01*
X102794725Y-92777618D01*
X102852734Y-92750568D01*
X103039139Y-92620047D01*
X103200047Y-92459139D01*
X103330568Y-92272734D01*
X103426739Y-92066496D01*
X103485635Y-91846692D01*
X103505468Y-91620000D01*
X103485635Y-91393308D01*
X103426739Y-91173504D01*
X103330568Y-90967266D01*
X103200047Y-90780861D01*
X103200045Y-90780858D01*
X103039141Y-90619954D01*
X102852734Y-90489432D01*
X102852728Y-90489429D01*
X102794725Y-90462382D01*
X102742285Y-90416210D01*
X102723133Y-90349017D01*
X102743348Y-90282135D01*
X102794725Y-90237618D01*
X102795317Y-90237342D01*
X102852734Y-90210568D01*
X103039139Y-90080047D01*
X103200047Y-89919139D01*
X103330568Y-89732734D01*
X103426739Y-89526496D01*
X103485635Y-89306692D01*
X103505468Y-89080000D01*
X103485635Y-88853308D01*
X103426739Y-88633504D01*
X103330568Y-88427266D01*
X103200047Y-88240861D01*
X103200045Y-88240858D01*
X103039141Y-88079954D01*
X102852734Y-87949432D01*
X102852728Y-87949429D01*
X102794725Y-87922382D01*
X102742285Y-87876210D01*
X102723133Y-87809017D01*
X102743348Y-87742135D01*
X102794725Y-87697618D01*
X102852734Y-87670568D01*
X103039139Y-87540047D01*
X103200047Y-87379139D01*
X103330568Y-87192734D01*
X103426739Y-86986496D01*
X103485635Y-86766692D01*
X103505468Y-86540000D01*
X103485635Y-86313308D01*
X103426739Y-86093504D01*
X103330568Y-85887266D01*
X103200047Y-85700861D01*
X103200045Y-85700858D01*
X103039143Y-85539956D01*
X103014536Y-85522726D01*
X102970912Y-85468149D01*
X102963719Y-85398650D01*
X102995241Y-85336296D01*
X103055471Y-85300882D01*
X103072404Y-85297861D01*
X103107483Y-85294091D01*
X103242331Y-85243796D01*
X103357546Y-85157546D01*
X103443796Y-85042331D01*
X103459584Y-85000000D01*
X106000000Y-85000000D01*
X108941697Y-85000000D01*
X109008736Y-85019685D01*
G37*
G04 #@! TD.AperFunction*
G04 #@! TA.AperFunction,Conductor*
G36*
X109574394Y-94480080D02*
G01*
X109665606Y-94532741D01*
X109767339Y-94560000D01*
X109872661Y-94560000D01*
X109974394Y-94532741D01*
X110000000Y-94517957D01*
X110000000Y-96342042D01*
X109974394Y-96327259D01*
X109872661Y-96300000D01*
X109767339Y-96300000D01*
X109665606Y-96327259D01*
X109574394Y-96379920D01*
X109570000Y-96384314D01*
X109570000Y-94475686D01*
X109574394Y-94480080D01*
G37*
G04 #@! TD.AperFunction*
G04 #@! TA.AperFunction,Conductor*
G36*
X109574394Y-86860080D02*
G01*
X109665606Y-86912741D01*
X109767339Y-86940000D01*
X109872661Y-86940000D01*
X109974394Y-86912741D01*
X110000000Y-86897957D01*
X110000000Y-88722042D01*
X109974394Y-88707259D01*
X109872661Y-88680000D01*
X109767339Y-88680000D01*
X109665606Y-88707259D01*
X109574394Y-88759920D01*
X109570000Y-88764314D01*
X109570000Y-86855686D01*
X109574394Y-86860080D01*
G37*
G04 #@! TD.AperFunction*
G04 #@! TA.AperFunction,Conductor*
G36*
X97654246Y-78454638D02*
G01*
X97700001Y-78507442D01*
X97709945Y-78576600D01*
X97680920Y-78640156D01*
X97674888Y-78646634D01*
X97620342Y-78701179D01*
X97489865Y-78887517D01*
X97393734Y-79093673D01*
X97393730Y-79093682D01*
X97341127Y-79289999D01*
X97341128Y-79290000D01*
X98304314Y-79290000D01*
X98299920Y-79294394D01*
X98247259Y-79385606D01*
X98220000Y-79487339D01*
X98220000Y-79592661D01*
X98247259Y-79694394D01*
X98299920Y-79785606D01*
X98304314Y-79790000D01*
X97341128Y-79790000D01*
X97393730Y-79986317D01*
X97393734Y-79986326D01*
X97489865Y-80192482D01*
X97620342Y-80378820D01*
X97781179Y-80539657D01*
X97967518Y-80670134D01*
X97967520Y-80670135D01*
X98025865Y-80697342D01*
X98078305Y-80743514D01*
X98097457Y-80810707D01*
X98077242Y-80877589D01*
X98025867Y-80922105D01*
X97967268Y-80949431D01*
X97967264Y-80949433D01*
X97780858Y-81079954D01*
X97619954Y-81240858D01*
X97489432Y-81427265D01*
X97489431Y-81427267D01*
X97393261Y-81633502D01*
X97393258Y-81633511D01*
X97334366Y-81853302D01*
X97334364Y-81853313D01*
X97314532Y-82079998D01*
X97314532Y-82080001D01*
X97334364Y-82306686D01*
X97334366Y-82306697D01*
X97393258Y-82526488D01*
X97393261Y-82526497D01*
X97489431Y-82732732D01*
X97489432Y-82732734D01*
X97619954Y-82919141D01*
X97780858Y-83080045D01*
X97780861Y-83080047D01*
X97967266Y-83210568D01*
X98025275Y-83237618D01*
X98077714Y-83283791D01*
X98096866Y-83350984D01*
X98076650Y-83417865D01*
X98025275Y-83462382D01*
X97967267Y-83489431D01*
X97967265Y-83489432D01*
X97780858Y-83619954D01*
X97619954Y-83780858D01*
X97489432Y-83967265D01*
X97489431Y-83967267D01*
X97393261Y-84173502D01*
X97393258Y-84173511D01*
X97334366Y-84393302D01*
X97334364Y-84393313D01*
X97314532Y-84619998D01*
X97314532Y-84620001D01*
X97334364Y-84846686D01*
X97335306Y-84852026D01*
X97333416Y-84852359D01*
X97331958Y-84913750D01*
X97292798Y-84971615D01*
X97228571Y-84999122D01*
X97213844Y-85000000D01*
X97000000Y-85000000D01*
X97000000Y-78434953D01*
X97587207Y-78434953D01*
X97654246Y-78454638D01*
G37*
G04 #@! TD.AperFunction*
G04 #@! TA.AperFunction,Conductor*
G36*
X102943039Y-71019685D02*
G01*
X102988794Y-71072489D01*
X103000000Y-71124000D01*
X103000000Y-78649785D01*
X105876000Y-78649785D01*
X105943039Y-78669470D01*
X105988794Y-78722274D01*
X106000000Y-78773785D01*
X106000000Y-80141671D01*
X105980315Y-80208710D01*
X105927511Y-80254465D01*
X105858353Y-80264409D01*
X105794797Y-80235384D01*
X105757023Y-80176606D01*
X105756225Y-80173765D01*
X105726268Y-80061965D01*
X105726264Y-80061954D01*
X105630136Y-79855807D01*
X105630132Y-79855799D01*
X105579025Y-79782812D01*
X104900000Y-80461837D01*
X104900000Y-80455625D01*
X104872741Y-80353892D01*
X104820080Y-80262680D01*
X104745606Y-80188206D01*
X104654394Y-80135545D01*
X104552661Y-80108286D01*
X104546448Y-80108286D01*
X105225472Y-79429260D01*
X105152478Y-79378149D01*
X104946331Y-79282021D01*
X104946317Y-79282016D01*
X104726610Y-79223146D01*
X104726599Y-79223144D01*
X104500002Y-79203320D01*
X104499998Y-79203320D01*
X104273400Y-79223144D01*
X104273389Y-79223146D01*
X104053682Y-79282016D01*
X104053673Y-79282020D01*
X103847516Y-79378152D01*
X103847512Y-79378154D01*
X103774526Y-79429259D01*
X103774526Y-79429260D01*
X104453553Y-80108286D01*
X104447339Y-80108286D01*
X104345606Y-80135545D01*
X104254394Y-80188206D01*
X104179920Y-80262680D01*
X104127259Y-80353892D01*
X104100000Y-80455625D01*
X104100000Y-80461838D01*
X103420974Y-79782812D01*
X103420973Y-79782812D01*
X103369868Y-79855798D01*
X103369866Y-79855802D01*
X103273734Y-80061959D01*
X103273730Y-80061968D01*
X103214860Y-80281675D01*
X103214858Y-80281686D01*
X103195034Y-80508283D01*
X103195034Y-80508288D01*
X103214858Y-80734885D01*
X103214860Y-80734896D01*
X103273730Y-80954603D01*
X103273735Y-80954617D01*
X103369863Y-81160764D01*
X103420974Y-81233758D01*
X104100000Y-80554732D01*
X104100000Y-80560947D01*
X104127259Y-80662680D01*
X104179920Y-80753892D01*
X104254394Y-80828366D01*
X104345606Y-80881027D01*
X104447339Y-80908286D01*
X104453553Y-80908286D01*
X103774526Y-81587311D01*
X103847513Y-81638418D01*
X103847521Y-81638422D01*
X104053668Y-81734550D01*
X104053682Y-81734555D01*
X104273389Y-81793425D01*
X104273400Y-81793427D01*
X104499998Y-81813252D01*
X104500002Y-81813252D01*
X104726599Y-81793427D01*
X104726610Y-81793425D01*
X104946317Y-81734555D01*
X104946331Y-81734550D01*
X105152478Y-81638422D01*
X105225471Y-81587310D01*
X104546447Y-80908286D01*
X104552661Y-80908286D01*
X104654394Y-80881027D01*
X104745606Y-80828366D01*
X104820080Y-80753892D01*
X104872741Y-80662680D01*
X104900000Y-80560947D01*
X104900000Y-80554733D01*
X105579024Y-81233757D01*
X105630136Y-81160764D01*
X105726264Y-80954617D01*
X105726269Y-80954603D01*
X105756225Y-80842807D01*
X105792590Y-80783146D01*
X105855437Y-80752617D01*
X105924812Y-80760912D01*
X105978690Y-80805397D01*
X105999965Y-80871949D01*
X106000000Y-80874900D01*
X106000000Y-85000000D01*
X103459584Y-85000000D01*
X103494091Y-84907483D01*
X103500500Y-84847873D01*
X103500499Y-83152128D01*
X103494091Y-83092517D01*
X103489439Y-83080045D01*
X103443797Y-82957671D01*
X103443793Y-82957664D01*
X103357547Y-82842455D01*
X103357544Y-82842452D01*
X103242335Y-82756206D01*
X103242328Y-82756202D01*
X103107482Y-82705908D01*
X103107483Y-82705908D01*
X103047883Y-82699501D01*
X103047881Y-82699500D01*
X103047873Y-82699500D01*
X103047864Y-82699500D01*
X101352129Y-82699500D01*
X101352123Y-82699501D01*
X101292516Y-82705908D01*
X101157671Y-82756202D01*
X101157664Y-82756206D01*
X101042455Y-82842452D01*
X101042452Y-82842455D01*
X100956206Y-82957664D01*
X100956202Y-82957671D01*
X100905908Y-83092517D01*
X100899501Y-83152116D01*
X100899501Y-83152123D01*
X100899500Y-83152135D01*
X100899500Y-84847870D01*
X100899501Y-84847876D01*
X100905908Y-84907483D01*
X100940415Y-85000000D01*
X100026156Y-85000000D01*
X99959117Y-84980315D01*
X99913362Y-84927511D01*
X99903418Y-84858353D01*
X99904715Y-84852029D01*
X99904694Y-84852026D01*
X99905631Y-84846703D01*
X99905635Y-84846692D01*
X99925468Y-84620000D01*
X99905635Y-84393308D01*
X99846739Y-84173504D01*
X99750568Y-83967266D01*
X99620047Y-83780861D01*
X99620045Y-83780858D01*
X99459141Y-83619954D01*
X99272734Y-83489432D01*
X99272728Y-83489429D01*
X99214725Y-83462382D01*
X99162285Y-83416210D01*
X99143133Y-83349017D01*
X99163348Y-83282135D01*
X99214725Y-83237618D01*
X99272734Y-83210568D01*
X99459139Y-83080047D01*
X99620047Y-82919139D01*
X99750568Y-82732734D01*
X99846739Y-82526496D01*
X99905635Y-82306692D01*
X99925468Y-82080000D01*
X99905635Y-81853308D01*
X99846739Y-81633504D01*
X99750568Y-81427266D01*
X99620047Y-81240861D01*
X99620045Y-81240858D01*
X99459141Y-81079954D01*
X99272734Y-80949432D01*
X99272732Y-80949431D01*
X99261275Y-80944088D01*
X99214132Y-80922105D01*
X99161694Y-80875934D01*
X99142542Y-80808740D01*
X99162758Y-80741859D01*
X99214134Y-80697341D01*
X99272484Y-80670132D01*
X99458820Y-80539657D01*
X99619657Y-80378820D01*
X99750134Y-80192482D01*
X99846265Y-79986326D01*
X99846269Y-79986317D01*
X99898872Y-79790000D01*
X98935686Y-79790000D01*
X98940080Y-79785606D01*
X98992741Y-79694394D01*
X99020000Y-79592661D01*
X99020000Y-79487339D01*
X98992741Y-79385606D01*
X98940080Y-79294394D01*
X98935686Y-79290000D01*
X99898872Y-79290000D01*
X99898872Y-79289999D01*
X99846269Y-79093682D01*
X99846265Y-79093673D01*
X99750134Y-78887517D01*
X99619657Y-78701179D01*
X99565112Y-78646634D01*
X99531627Y-78585311D01*
X99536611Y-78515619D01*
X99578483Y-78459686D01*
X99643947Y-78435269D01*
X99652793Y-78434953D01*
X101000000Y-78434953D01*
X101000000Y-74422642D01*
X99240548Y-74422642D01*
X99173509Y-74402957D01*
X99127754Y-74350153D01*
X99117810Y-74280995D01*
X99146835Y-74217439D01*
X99188144Y-74186260D01*
X99392819Y-74090818D01*
X99465812Y-74039706D01*
X98786788Y-73360682D01*
X98793002Y-73360682D01*
X98894735Y-73333423D01*
X98985947Y-73280762D01*
X99060421Y-73206288D01*
X99113082Y-73115076D01*
X99140341Y-73013343D01*
X99140341Y-73007129D01*
X99819365Y-73686153D01*
X99870477Y-73613160D01*
X99966605Y-73407013D01*
X99966610Y-73406999D01*
X100025480Y-73187292D01*
X100025482Y-73187281D01*
X100045307Y-72960684D01*
X100045307Y-72960679D01*
X100025482Y-72734082D01*
X100025480Y-72734071D01*
X99966610Y-72514364D01*
X99966605Y-72514350D01*
X99870477Y-72308203D01*
X99870473Y-72308195D01*
X99819366Y-72235208D01*
X99140341Y-72914233D01*
X99140341Y-72908021D01*
X99113082Y-72806288D01*
X99060421Y-72715076D01*
X98985947Y-72640602D01*
X98894735Y-72587941D01*
X98793002Y-72560682D01*
X98786789Y-72560682D01*
X99465813Y-71881656D01*
X99392819Y-71830545D01*
X99186672Y-71734417D01*
X99186658Y-71734412D01*
X98966951Y-71675542D01*
X98966940Y-71675540D01*
X98740343Y-71655716D01*
X98740339Y-71655716D01*
X98513741Y-71675540D01*
X98513730Y-71675542D01*
X98294023Y-71734412D01*
X98294014Y-71734416D01*
X98087857Y-71830548D01*
X98087853Y-71830550D01*
X98014867Y-71881655D01*
X98014867Y-71881656D01*
X98693894Y-72560682D01*
X98687680Y-72560682D01*
X98585947Y-72587941D01*
X98494735Y-72640602D01*
X98420261Y-72715076D01*
X98367600Y-72806288D01*
X98340341Y-72908021D01*
X98340341Y-72914234D01*
X97661315Y-72235208D01*
X97661314Y-72235208D01*
X97610209Y-72308194D01*
X97610207Y-72308198D01*
X97514075Y-72514355D01*
X97514071Y-72514364D01*
X97455201Y-72734071D01*
X97455199Y-72734082D01*
X97435375Y-72960679D01*
X97435375Y-72960684D01*
X97455199Y-73187281D01*
X97455201Y-73187292D01*
X97514071Y-73406999D01*
X97514076Y-73407013D01*
X97610204Y-73613160D01*
X97661315Y-73686154D01*
X98340341Y-73007128D01*
X98340341Y-73013343D01*
X98367600Y-73115076D01*
X98420261Y-73206288D01*
X98494735Y-73280762D01*
X98585947Y-73333423D01*
X98687680Y-73360682D01*
X98693894Y-73360682D01*
X98014867Y-74039707D01*
X98087854Y-74090814D01*
X98087862Y-74090818D01*
X98292538Y-74186260D01*
X98344978Y-74232432D01*
X98364130Y-74299625D01*
X98343914Y-74366507D01*
X98290749Y-74411841D01*
X98240134Y-74422642D01*
X96124000Y-74422642D01*
X96056961Y-74402957D01*
X96011206Y-74350153D01*
X96000000Y-74298642D01*
X96000000Y-71124000D01*
X96019685Y-71056961D01*
X96072489Y-71011206D01*
X96124000Y-71000000D01*
X102876000Y-71000000D01*
X102943039Y-71019685D01*
G37*
G04 #@! TD.AperFunction*
G04 #@! TA.AperFunction,Conductor*
G36*
X73494500Y-121124000D02*
G01*
X73494500Y-122014500D01*
X73494500Y-123876000D01*
X73494501Y-123876009D01*
X73506052Y-123983450D01*
X73506054Y-123983462D01*
X73517260Y-124034972D01*
X73551383Y-124137497D01*
X73551386Y-124137503D01*
X73629171Y-124258537D01*
X73629179Y-124258548D01*
X73674923Y-124311340D01*
X73674926Y-124311343D01*
X73674930Y-124311347D01*
X73783664Y-124405567D01*
X73783667Y-124405568D01*
X73783668Y-124405569D01*
X73860881Y-124440832D01*
X73914541Y-124465338D01*
X73981580Y-124485023D01*
X73981584Y-124485024D01*
X74124000Y-124505500D01*
X74124003Y-124505500D01*
X74329493Y-124505500D01*
X74339639Y-124504955D01*
X74383531Y-124502603D01*
X74383539Y-124502602D01*
X74383541Y-124502602D01*
X74383542Y-124502602D01*
X74390535Y-124501849D01*
X74409889Y-124499769D01*
X74425716Y-124497204D01*
X74495040Y-124505908D01*
X74548655Y-124550710D01*
X74569536Y-124617387D01*
X74557938Y-124672010D01*
X74476571Y-124846502D01*
X74476567Y-124846513D01*
X74419364Y-125059999D01*
X74419364Y-125060000D01*
X75316988Y-125060000D01*
X75284075Y-125117007D01*
X75250000Y-125244174D01*
X75250000Y-125375826D01*
X75284075Y-125502993D01*
X75316988Y-125560000D01*
X74419364Y-125560000D01*
X74476567Y-125773486D01*
X74476570Y-125773492D01*
X74576399Y-125987578D01*
X74711894Y-126181082D01*
X74878917Y-126348105D01*
X75065031Y-126478425D01*
X75108656Y-126533003D01*
X75115848Y-126602501D01*
X75084326Y-126664856D01*
X75065031Y-126681575D01*
X74878922Y-126811890D01*
X74878920Y-126811891D01*
X74711891Y-126978920D01*
X74711886Y-126978926D01*
X74576400Y-127172420D01*
X74576399Y-127172422D01*
X74476570Y-127386507D01*
X74476567Y-127386513D01*
X74419364Y-127599999D01*
X74419364Y-127600000D01*
X75316988Y-127600000D01*
X75284075Y-127657007D01*
X75250000Y-127784174D01*
X75250000Y-127915826D01*
X75284075Y-128042993D01*
X75316988Y-128100000D01*
X74419364Y-128100000D01*
X74476567Y-128313486D01*
X74476570Y-128313492D01*
X74576399Y-128527578D01*
X74711894Y-128721082D01*
X74878917Y-128888105D01*
X75064595Y-129018119D01*
X75108219Y-129072696D01*
X75115412Y-129142195D01*
X75083890Y-129204549D01*
X75064595Y-129221269D01*
X74878594Y-129351508D01*
X74711505Y-129518597D01*
X74575965Y-129712169D01*
X74575964Y-129712171D01*
X74476098Y-129926335D01*
X74476094Y-129926344D01*
X74414938Y-130154586D01*
X74414936Y-130154596D01*
X74394341Y-130389999D01*
X74394341Y-130390000D01*
X74414936Y-130625403D01*
X74414938Y-130625413D01*
X74476094Y-130853655D01*
X74476096Y-130853659D01*
X74476097Y-130853663D01*
X74575965Y-131067830D01*
X74575967Y-131067834D01*
X74711501Y-131261395D01*
X74711506Y-131261402D01*
X74713181Y-131263077D01*
X74713682Y-131263995D01*
X74714982Y-131265544D01*
X74714670Y-131265805D01*
X74746666Y-131324400D01*
X74749500Y-131350758D01*
X74749500Y-131876000D01*
X74729815Y-131943039D01*
X74677011Y-131988794D01*
X74625500Y-132000000D01*
X65124000Y-132000000D01*
X65056961Y-131980315D01*
X65011206Y-131927511D01*
X65000000Y-131876000D01*
X65000000Y-121000000D01*
X73512328Y-121000000D01*
X73494500Y-121124000D01*
G37*
G04 #@! TD.AperFunction*
G04 #@! TA.AperFunction,Conductor*
G36*
X77000000Y-132000000D02*
G01*
X76874500Y-132000000D01*
X76807461Y-131980315D01*
X76761706Y-131927511D01*
X76750500Y-131876000D01*
X76750500Y-131350758D01*
X76770185Y-131283719D01*
X76786819Y-131263077D01*
X76788495Y-131261401D01*
X76924035Y-131067830D01*
X77000000Y-130904923D01*
X77000000Y-132000000D01*
G37*
G04 #@! TD.AperFunction*
G04 #@! TA.AperFunction,Conductor*
G36*
X77170509Y-124505500D02*
G01*
X77370500Y-124505500D01*
X77437539Y-124525185D01*
X77483294Y-124577989D01*
X77494500Y-124629500D01*
X77494500Y-127242115D01*
X77494500Y-128877263D01*
X77494501Y-128877272D01*
X77506052Y-128984713D01*
X77506054Y-128984725D01*
X77517260Y-129036235D01*
X77551383Y-129138760D01*
X77551386Y-129138766D01*
X77598052Y-129211379D01*
X77000000Y-129211379D01*
X77000000Y-129875077D01*
X76924035Y-129712171D01*
X76788495Y-129518599D01*
X76788494Y-129518597D01*
X76621402Y-129351506D01*
X76621401Y-129351505D01*
X76435405Y-129221269D01*
X76391781Y-129166692D01*
X76384588Y-129097193D01*
X76416110Y-129034839D01*
X76435405Y-129018119D01*
X76621082Y-128888105D01*
X76788105Y-128721082D01*
X76923600Y-128527578D01*
X77023429Y-128313492D01*
X77023432Y-128313486D01*
X77080636Y-128100000D01*
X76183012Y-128100000D01*
X76215925Y-128042993D01*
X76250000Y-127915826D01*
X76250000Y-127784174D01*
X76215925Y-127657007D01*
X76183012Y-127600000D01*
X77080636Y-127600000D01*
X77080635Y-127599999D01*
X77023432Y-127386513D01*
X77023429Y-127386507D01*
X76923600Y-127172422D01*
X76923599Y-127172420D01*
X76788113Y-126978926D01*
X76788108Y-126978920D01*
X76621082Y-126811894D01*
X76434968Y-126681575D01*
X76391344Y-126626998D01*
X76384151Y-126557499D01*
X76415673Y-126495145D01*
X76434968Y-126478425D01*
X76621082Y-126348105D01*
X76788105Y-126181082D01*
X76923600Y-125987578D01*
X77023429Y-125773492D01*
X77023432Y-125773486D01*
X77080636Y-125560000D01*
X76183012Y-125560000D01*
X76215925Y-125502993D01*
X76250000Y-125375826D01*
X76250000Y-125244174D01*
X76215925Y-125117007D01*
X76183012Y-125060000D01*
X77080636Y-125060000D01*
X77080635Y-125059999D01*
X77023432Y-124846513D01*
X77023429Y-124846507D01*
X76939302Y-124666095D01*
X76928810Y-124597017D01*
X76957330Y-124533233D01*
X77015806Y-124494994D01*
X77069326Y-124490952D01*
X77170509Y-124505500D01*
G37*
G04 #@! TD.AperFunction*
G04 #@! TA.AperFunction,Conductor*
G36*
X76000000Y-127416988D02*
G01*
X75942993Y-127384075D01*
X75815826Y-127350000D01*
X75684174Y-127350000D01*
X75557007Y-127384075D01*
X75500000Y-127416988D01*
X75500000Y-125743012D01*
X75557007Y-125775925D01*
X75684174Y-125810000D01*
X75815826Y-125810000D01*
X75942993Y-125775925D01*
X76000000Y-125743012D01*
X76000000Y-127416988D01*
G37*
G04 #@! TD.AperFunction*
G04 #@! TA.AperFunction,Conductor*
G36*
X68000000Y-74076000D02*
G01*
X67980315Y-74143039D01*
X67927511Y-74188794D01*
X67876000Y-74200000D01*
X67665000Y-74200000D01*
X67665000Y-75116988D01*
X67607993Y-75084075D01*
X67480826Y-75050000D01*
X67349174Y-75050000D01*
X67222007Y-75084075D01*
X67165000Y-75116988D01*
X67165000Y-74200000D01*
X66765028Y-74200000D01*
X66765012Y-74200001D01*
X66662302Y-74210494D01*
X66495880Y-74265641D01*
X66495875Y-74265643D01*
X66346654Y-74357684D01*
X66222684Y-74481654D01*
X66130643Y-74630875D01*
X66130641Y-74630880D01*
X66075494Y-74797302D01*
X66075493Y-74797309D01*
X66065000Y-74900013D01*
X66065000Y-75300000D01*
X66981988Y-75300000D01*
X66949075Y-75357007D01*
X66915000Y-75484174D01*
X66915000Y-75615826D01*
X66949075Y-75742993D01*
X66981988Y-75800000D01*
X66065001Y-75800000D01*
X66065001Y-76199986D01*
X66075494Y-76302697D01*
X66130641Y-76469119D01*
X66130643Y-76469124D01*
X66222684Y-76618345D01*
X66346654Y-76742315D01*
X66495875Y-76834356D01*
X66495882Y-76834359D01*
X66504712Y-76837285D01*
X66562157Y-76877057D01*
X66588981Y-76941572D01*
X66576667Y-77010348D01*
X66547318Y-77047567D01*
X66547427Y-77047676D01*
X66546511Y-77048591D01*
X66545419Y-77049977D01*
X66543597Y-77051505D01*
X66376505Y-77218597D01*
X66240965Y-77412169D01*
X66240964Y-77412171D01*
X66141098Y-77626335D01*
X66141094Y-77626344D01*
X66079938Y-77854586D01*
X66079936Y-77854596D01*
X66059341Y-78089999D01*
X66059341Y-78090000D01*
X66079936Y-78325403D01*
X66079938Y-78325413D01*
X66141094Y-78553655D01*
X66141096Y-78553659D01*
X66141097Y-78553663D01*
X66221179Y-78725399D01*
X66240965Y-78767830D01*
X66240967Y-78767834D01*
X66275499Y-78817150D01*
X66376505Y-78961401D01*
X66543599Y-79128495D01*
X66729594Y-79258730D01*
X66773218Y-79313307D01*
X66780411Y-79382806D01*
X66748889Y-79445160D01*
X66729593Y-79461880D01*
X66653626Y-79515072D01*
X66653625Y-79515072D01*
X67285590Y-80147037D01*
X67222007Y-80164075D01*
X67107993Y-80229901D01*
X67014901Y-80322993D01*
X66949075Y-80437007D01*
X66932037Y-80500590D01*
X66300072Y-79868625D01*
X66241401Y-79952419D01*
X66141570Y-80166507D01*
X66141566Y-80166516D01*
X66080432Y-80394673D01*
X66080430Y-80394684D01*
X66059843Y-80629998D01*
X66059843Y-80630001D01*
X66080430Y-80865315D01*
X66080432Y-80865326D01*
X66141566Y-81093483D01*
X66141570Y-81093492D01*
X66241400Y-81307579D01*
X66241402Y-81307583D01*
X66300072Y-81391373D01*
X66300073Y-81391373D01*
X66932037Y-80759409D01*
X66949075Y-80822993D01*
X67014901Y-80937007D01*
X67107993Y-81030099D01*
X67222007Y-81095925D01*
X67285588Y-81112961D01*
X66653625Y-81744925D01*
X66730031Y-81798425D01*
X66773655Y-81853002D01*
X66780848Y-81922501D01*
X66749326Y-81984855D01*
X66730029Y-82001576D01*
X66653625Y-82055072D01*
X67285590Y-82687037D01*
X67222007Y-82704075D01*
X67107993Y-82769901D01*
X67014901Y-82862993D01*
X66949075Y-82977007D01*
X66932037Y-83040590D01*
X66300072Y-82408625D01*
X66241401Y-82492419D01*
X66141570Y-82706507D01*
X66141566Y-82706516D01*
X66080432Y-82934673D01*
X66080430Y-82934684D01*
X66059843Y-83169998D01*
X66059843Y-83170001D01*
X66080430Y-83405315D01*
X66080432Y-83405326D01*
X66141566Y-83633483D01*
X66141570Y-83633492D01*
X66241400Y-83847579D01*
X66241402Y-83847583D01*
X66300072Y-83931373D01*
X66300073Y-83931373D01*
X66932037Y-83299409D01*
X66949075Y-83362993D01*
X67014901Y-83477007D01*
X67107993Y-83570099D01*
X67222007Y-83635925D01*
X67285588Y-83652961D01*
X66653625Y-84284925D01*
X66730031Y-84338425D01*
X66773655Y-84393002D01*
X66780848Y-84462501D01*
X66749326Y-84524855D01*
X66730029Y-84541576D01*
X66653625Y-84595072D01*
X67285590Y-85227037D01*
X67222007Y-85244075D01*
X67107993Y-85309901D01*
X67014901Y-85402993D01*
X66949075Y-85517007D01*
X66932037Y-85580590D01*
X66300072Y-84948625D01*
X66241401Y-85032419D01*
X66141570Y-85246507D01*
X66141566Y-85246516D01*
X66080432Y-85474673D01*
X66080430Y-85474684D01*
X66059843Y-85709998D01*
X66059843Y-85710001D01*
X66080430Y-85945315D01*
X66080432Y-85945326D01*
X66141566Y-86173483D01*
X66141570Y-86173492D01*
X66241400Y-86387579D01*
X66241402Y-86387583D01*
X66300072Y-86471373D01*
X66300073Y-86471373D01*
X66932037Y-85839409D01*
X66949075Y-85902993D01*
X67014901Y-86017007D01*
X67107993Y-86110099D01*
X67222007Y-86175925D01*
X67285588Y-86192961D01*
X66653625Y-86824925D01*
X66730031Y-86878425D01*
X66773655Y-86933002D01*
X66780848Y-87002501D01*
X66749326Y-87064855D01*
X66730029Y-87081576D01*
X66653625Y-87135072D01*
X67285590Y-87767037D01*
X67222007Y-87784075D01*
X67107993Y-87849901D01*
X67014901Y-87942993D01*
X66949075Y-88057007D01*
X66932037Y-88120590D01*
X66300072Y-87488625D01*
X66241401Y-87572419D01*
X66141570Y-87786507D01*
X66141566Y-87786516D01*
X66080432Y-88014673D01*
X66080430Y-88014684D01*
X66059843Y-88249998D01*
X66059843Y-88250001D01*
X66080430Y-88485315D01*
X66080432Y-88485326D01*
X66141566Y-88713483D01*
X66141570Y-88713492D01*
X66241400Y-88927579D01*
X66241402Y-88927583D01*
X66300072Y-89011373D01*
X66300073Y-89011373D01*
X66932037Y-88379409D01*
X66949075Y-88442993D01*
X67014901Y-88557007D01*
X67107993Y-88650099D01*
X67222007Y-88715925D01*
X67285588Y-88732961D01*
X66653625Y-89364925D01*
X66730031Y-89418425D01*
X66773655Y-89473002D01*
X66780848Y-89542501D01*
X66749326Y-89604855D01*
X66730029Y-89621576D01*
X66653625Y-89675072D01*
X67285590Y-90307037D01*
X67222007Y-90324075D01*
X67107993Y-90389901D01*
X67014901Y-90482993D01*
X66949075Y-90597007D01*
X66932037Y-90660590D01*
X66300072Y-90028625D01*
X66241401Y-90112419D01*
X66141570Y-90326507D01*
X66141566Y-90326516D01*
X66080432Y-90554673D01*
X66080430Y-90554684D01*
X66059843Y-90789998D01*
X66059843Y-90790001D01*
X66080430Y-91025315D01*
X66080432Y-91025326D01*
X66141566Y-91253483D01*
X66141570Y-91253492D01*
X66241400Y-91467579D01*
X66241402Y-91467583D01*
X66300072Y-91551373D01*
X66300073Y-91551373D01*
X66932037Y-90919409D01*
X66949075Y-90982993D01*
X67014901Y-91097007D01*
X67107993Y-91190099D01*
X67222007Y-91255925D01*
X67285588Y-91272961D01*
X66653625Y-91904925D01*
X66730031Y-91958425D01*
X66773655Y-92013002D01*
X66780848Y-92082501D01*
X66749326Y-92144855D01*
X66730029Y-92161576D01*
X66653625Y-92215072D01*
X67285590Y-92847037D01*
X67222007Y-92864075D01*
X67107993Y-92929901D01*
X67014901Y-93022993D01*
X66949075Y-93137007D01*
X66932037Y-93200590D01*
X66300072Y-92568625D01*
X66241401Y-92652419D01*
X66141570Y-92866507D01*
X66141566Y-92866516D01*
X66080432Y-93094673D01*
X66080430Y-93094684D01*
X66059843Y-93329998D01*
X66059843Y-93330001D01*
X66080430Y-93565315D01*
X66080432Y-93565326D01*
X66141566Y-93793483D01*
X66141570Y-93793492D01*
X66241400Y-94007579D01*
X66241402Y-94007583D01*
X66300072Y-94091373D01*
X66300073Y-94091373D01*
X66932037Y-93459409D01*
X66949075Y-93522993D01*
X67014901Y-93637007D01*
X67107993Y-93730099D01*
X67222007Y-93795925D01*
X67285588Y-93812961D01*
X66653625Y-94444925D01*
X66730031Y-94498425D01*
X66773655Y-94553002D01*
X66780848Y-94622501D01*
X66749326Y-94684855D01*
X66730029Y-94701576D01*
X66653625Y-94755072D01*
X67285590Y-95387037D01*
X67222007Y-95404075D01*
X67107993Y-95469901D01*
X67014901Y-95562993D01*
X66949075Y-95677007D01*
X66932037Y-95740590D01*
X66300072Y-95108625D01*
X66241401Y-95192419D01*
X66141570Y-95406507D01*
X66141566Y-95406516D01*
X66080432Y-95634673D01*
X66080430Y-95634684D01*
X66059843Y-95869998D01*
X66059843Y-95870001D01*
X66080430Y-96105315D01*
X66080432Y-96105326D01*
X66141566Y-96333483D01*
X66141570Y-96333492D01*
X66241400Y-96547579D01*
X66241402Y-96547583D01*
X66300072Y-96631373D01*
X66300073Y-96631373D01*
X66932037Y-95999409D01*
X66949075Y-96062993D01*
X67014901Y-96177007D01*
X67107993Y-96270099D01*
X67222007Y-96335925D01*
X67285588Y-96352961D01*
X66653625Y-96984925D01*
X66730031Y-97038425D01*
X66773655Y-97093002D01*
X66780848Y-97162501D01*
X66749326Y-97224855D01*
X66730029Y-97241576D01*
X66653625Y-97295072D01*
X67285590Y-97927037D01*
X67222007Y-97944075D01*
X67107993Y-98009901D01*
X67014901Y-98102993D01*
X66949075Y-98217007D01*
X66932037Y-98280590D01*
X66300072Y-97648625D01*
X66241401Y-97732419D01*
X66141570Y-97946507D01*
X66141566Y-97946516D01*
X66080432Y-98174673D01*
X66080430Y-98174684D01*
X66059843Y-98409998D01*
X66059843Y-98410001D01*
X66080430Y-98645315D01*
X66080432Y-98645326D01*
X66141566Y-98873483D01*
X66141570Y-98873492D01*
X66241400Y-99087579D01*
X66241402Y-99087583D01*
X66300072Y-99171373D01*
X66300073Y-99171373D01*
X66932037Y-98539409D01*
X66949075Y-98602993D01*
X67014901Y-98717007D01*
X67107993Y-98810099D01*
X67222007Y-98875925D01*
X67285588Y-98892961D01*
X66653625Y-99524925D01*
X66730031Y-99578425D01*
X66773655Y-99633002D01*
X66780848Y-99702501D01*
X66749326Y-99764855D01*
X66730029Y-99781576D01*
X66653625Y-99835072D01*
X67285590Y-100467037D01*
X67222007Y-100484075D01*
X67107993Y-100549901D01*
X67014901Y-100642993D01*
X66949075Y-100757007D01*
X66932037Y-100820590D01*
X66300072Y-100188625D01*
X66241401Y-100272419D01*
X66141570Y-100486507D01*
X66141566Y-100486516D01*
X66080432Y-100714673D01*
X66080430Y-100714684D01*
X66059843Y-100949998D01*
X66059843Y-100950001D01*
X66080430Y-101185315D01*
X66080432Y-101185326D01*
X66141566Y-101413483D01*
X66141570Y-101413492D01*
X66241400Y-101627579D01*
X66241402Y-101627583D01*
X66300072Y-101711373D01*
X66300073Y-101711373D01*
X66932037Y-101079409D01*
X66949075Y-101142993D01*
X67014901Y-101257007D01*
X67107993Y-101350099D01*
X67222007Y-101415925D01*
X67285588Y-101432961D01*
X66653625Y-102064925D01*
X66730031Y-102118425D01*
X66773655Y-102173002D01*
X66780848Y-102242501D01*
X66749326Y-102304855D01*
X66730029Y-102321576D01*
X66653625Y-102375072D01*
X67285590Y-103007037D01*
X67222007Y-103024075D01*
X67107993Y-103089901D01*
X67014901Y-103182993D01*
X66949075Y-103297007D01*
X66932037Y-103360590D01*
X66300072Y-102728625D01*
X66241401Y-102812419D01*
X66141570Y-103026507D01*
X66141566Y-103026516D01*
X66080432Y-103254673D01*
X66080430Y-103254684D01*
X66059843Y-103489998D01*
X66059843Y-103490001D01*
X66080430Y-103725315D01*
X66080432Y-103725326D01*
X66141566Y-103953483D01*
X66141570Y-103953492D01*
X66241400Y-104167579D01*
X66241402Y-104167583D01*
X66300072Y-104251373D01*
X66300073Y-104251373D01*
X66932037Y-103619409D01*
X66949075Y-103682993D01*
X67014901Y-103797007D01*
X67107993Y-103890099D01*
X67222007Y-103955925D01*
X67285588Y-103972961D01*
X66653625Y-104604925D01*
X66730031Y-104658425D01*
X66773655Y-104713002D01*
X66780848Y-104782501D01*
X66749326Y-104844855D01*
X66730029Y-104861576D01*
X66653625Y-104915072D01*
X67285590Y-105547037D01*
X67222007Y-105564075D01*
X67107993Y-105629901D01*
X67014901Y-105722993D01*
X66949075Y-105837007D01*
X66932037Y-105900590D01*
X66300072Y-105268625D01*
X66241401Y-105352419D01*
X66141570Y-105566507D01*
X66141566Y-105566516D01*
X66080432Y-105794673D01*
X66080430Y-105794684D01*
X66059843Y-106029998D01*
X66059843Y-106030001D01*
X66080430Y-106265315D01*
X66080432Y-106265326D01*
X66141566Y-106493483D01*
X66141570Y-106493492D01*
X66241400Y-106707579D01*
X66241402Y-106707583D01*
X66300072Y-106791373D01*
X66300073Y-106791373D01*
X66932037Y-106159409D01*
X66949075Y-106222993D01*
X67014901Y-106337007D01*
X67107993Y-106430099D01*
X67222007Y-106495925D01*
X67285588Y-106512961D01*
X66653625Y-107144925D01*
X66730031Y-107198425D01*
X66773655Y-107253002D01*
X66780848Y-107322501D01*
X66749326Y-107384855D01*
X66730029Y-107401576D01*
X66653625Y-107455072D01*
X67285590Y-108087037D01*
X67222007Y-108104075D01*
X67107993Y-108169901D01*
X67014901Y-108262993D01*
X66949075Y-108377007D01*
X66932037Y-108440590D01*
X66300072Y-107808625D01*
X66241401Y-107892419D01*
X66141570Y-108106507D01*
X66141566Y-108106516D01*
X66080432Y-108334673D01*
X66080430Y-108334684D01*
X66059843Y-108569998D01*
X66059843Y-108570001D01*
X66080430Y-108805315D01*
X66080432Y-108805326D01*
X66141566Y-109033483D01*
X66141570Y-109033492D01*
X66241400Y-109247579D01*
X66241402Y-109247583D01*
X66300072Y-109331373D01*
X66300073Y-109331373D01*
X66932037Y-108699409D01*
X66949075Y-108762993D01*
X67014901Y-108877007D01*
X67107993Y-108970099D01*
X67222007Y-109035925D01*
X67285588Y-109052961D01*
X66653625Y-109684925D01*
X66730031Y-109738425D01*
X66773655Y-109793002D01*
X66780848Y-109862501D01*
X66749326Y-109924855D01*
X66730029Y-109941576D01*
X66653625Y-109995072D01*
X67285590Y-110627037D01*
X67222007Y-110644075D01*
X67107993Y-110709901D01*
X67014901Y-110802993D01*
X66949075Y-110917007D01*
X66932037Y-110980590D01*
X66300072Y-110348625D01*
X66241401Y-110432419D01*
X66141570Y-110646507D01*
X66141566Y-110646516D01*
X66080432Y-110874673D01*
X66080430Y-110874684D01*
X66059843Y-111109998D01*
X66059843Y-111110001D01*
X66080430Y-111345315D01*
X66080432Y-111345326D01*
X66141566Y-111573483D01*
X66141570Y-111573492D01*
X66241400Y-111787579D01*
X66241402Y-111787583D01*
X66300072Y-111871373D01*
X66300073Y-111871373D01*
X66932037Y-111239409D01*
X66949075Y-111302993D01*
X67014901Y-111417007D01*
X67107993Y-111510099D01*
X67222007Y-111575925D01*
X67285588Y-111592961D01*
X66653625Y-112224925D01*
X66730031Y-112278425D01*
X66773655Y-112333002D01*
X66780848Y-112402501D01*
X66749326Y-112464855D01*
X66730029Y-112481576D01*
X66653625Y-112535072D01*
X67285590Y-113167037D01*
X67222007Y-113184075D01*
X67107993Y-113249901D01*
X67014901Y-113342993D01*
X66949075Y-113457007D01*
X66932037Y-113520590D01*
X66300072Y-112888625D01*
X66241401Y-112972419D01*
X66141570Y-113186507D01*
X66141566Y-113186516D01*
X66080432Y-113414673D01*
X66080430Y-113414684D01*
X66059843Y-113649998D01*
X66059843Y-113650001D01*
X66080430Y-113885315D01*
X66080432Y-113885326D01*
X66141566Y-114113483D01*
X66141570Y-114113492D01*
X66241400Y-114327579D01*
X66241402Y-114327583D01*
X66300072Y-114411373D01*
X66300073Y-114411373D01*
X66932037Y-113779409D01*
X66949075Y-113842993D01*
X67014901Y-113957007D01*
X67107993Y-114050099D01*
X67222007Y-114115925D01*
X67285588Y-114132961D01*
X66653625Y-114764925D01*
X66730031Y-114818425D01*
X66773655Y-114873002D01*
X66780848Y-114942501D01*
X66749326Y-115004855D01*
X66730029Y-115021576D01*
X66653625Y-115075072D01*
X67285590Y-115707037D01*
X67222007Y-115724075D01*
X67107993Y-115789901D01*
X67014901Y-115882993D01*
X66949075Y-115997007D01*
X66932037Y-116060590D01*
X66300072Y-115428625D01*
X66241401Y-115512419D01*
X66141570Y-115726507D01*
X66141566Y-115726516D01*
X66080432Y-115954673D01*
X66080430Y-115954684D01*
X66059843Y-116189998D01*
X66059843Y-116190001D01*
X66080430Y-116425315D01*
X66080432Y-116425326D01*
X66141566Y-116653483D01*
X66141570Y-116653492D01*
X66241400Y-116867579D01*
X66241402Y-116867583D01*
X66300072Y-116951373D01*
X66300073Y-116951373D01*
X66932037Y-116319409D01*
X66949075Y-116382993D01*
X67014901Y-116497007D01*
X67107993Y-116590099D01*
X67222007Y-116655925D01*
X67285588Y-116672961D01*
X66653625Y-117304925D01*
X66737421Y-117363599D01*
X66951507Y-117463429D01*
X66951516Y-117463433D01*
X67179673Y-117524567D01*
X67179684Y-117524569D01*
X67414998Y-117545157D01*
X67415002Y-117545157D01*
X67650315Y-117524569D01*
X67650326Y-117524567D01*
X67843907Y-117472698D01*
X67913757Y-117474361D01*
X67971619Y-117513524D01*
X67999123Y-117577752D01*
X68000000Y-117592473D01*
X68000000Y-119000000D01*
X73000000Y-119000000D01*
X73000000Y-73000000D01*
X76274089Y-73000000D01*
X76274089Y-73977035D01*
X76254404Y-74044074D01*
X76201600Y-74089829D01*
X76132442Y-74099773D01*
X76100610Y-74089179D01*
X76100399Y-74089746D01*
X75957379Y-74036403D01*
X75957372Y-74036401D01*
X75897844Y-74030000D01*
X75250000Y-74030000D01*
X75250000Y-74946988D01*
X75192993Y-74914075D01*
X75065826Y-74880000D01*
X74934174Y-74880000D01*
X74807007Y-74914075D01*
X74750000Y-74946988D01*
X74750000Y-74030000D01*
X74102155Y-74030000D01*
X74042627Y-74036401D01*
X74042620Y-74036403D01*
X73907913Y-74086645D01*
X73907906Y-74086649D01*
X73792812Y-74172809D01*
X73792809Y-74172812D01*
X73706649Y-74287906D01*
X73706645Y-74287913D01*
X73656403Y-74422620D01*
X73656401Y-74422627D01*
X73650000Y-74482155D01*
X73650000Y-75130000D01*
X74566988Y-75130000D01*
X74534075Y-75187007D01*
X74500000Y-75314174D01*
X74500000Y-75445826D01*
X74534075Y-75572993D01*
X74566988Y-75630000D01*
X73650000Y-75630000D01*
X73650000Y-76277844D01*
X73656401Y-76337372D01*
X73656403Y-76337379D01*
X73706645Y-76472086D01*
X73706649Y-76472093D01*
X73792809Y-76587187D01*
X73792812Y-76587190D01*
X73907906Y-76673350D01*
X73907913Y-76673354D01*
X74039986Y-76722614D01*
X74095920Y-76764485D01*
X74120337Y-76829949D01*
X74105486Y-76898222D01*
X74084335Y-76926477D01*
X73961886Y-77048926D01*
X73826400Y-77242420D01*
X73826399Y-77242422D01*
X73726570Y-77456507D01*
X73726567Y-77456513D01*
X73669364Y-77669999D01*
X73669364Y-77670000D01*
X74566988Y-77670000D01*
X74534075Y-77727007D01*
X74500000Y-77854174D01*
X74500000Y-77985826D01*
X74534075Y-78112993D01*
X74566988Y-78170000D01*
X73669364Y-78170000D01*
X73726567Y-78383486D01*
X73726570Y-78383492D01*
X73826399Y-78597578D01*
X73961894Y-78791082D01*
X74128917Y-78958105D01*
X74315031Y-79088425D01*
X74358656Y-79143003D01*
X74365848Y-79212501D01*
X74334326Y-79274856D01*
X74315031Y-79291575D01*
X74128922Y-79421890D01*
X74128920Y-79421891D01*
X73961891Y-79588920D01*
X73961886Y-79588926D01*
X73826400Y-79782420D01*
X73826399Y-79782422D01*
X73726570Y-79996507D01*
X73726567Y-79996513D01*
X73669364Y-80209999D01*
X73669364Y-80210000D01*
X74566988Y-80210000D01*
X74534075Y-80267007D01*
X74500000Y-80394174D01*
X74500000Y-80525826D01*
X74534075Y-80652993D01*
X74566988Y-80710000D01*
X73669364Y-80710000D01*
X73726567Y-80923486D01*
X73726570Y-80923492D01*
X73826399Y-81137578D01*
X73961894Y-81331082D01*
X74128917Y-81498105D01*
X74315031Y-81628425D01*
X74358656Y-81683003D01*
X74365848Y-81752501D01*
X74334326Y-81814856D01*
X74315031Y-81831575D01*
X74128922Y-81961890D01*
X74128920Y-81961891D01*
X73961891Y-82128920D01*
X73961886Y-82128926D01*
X73826400Y-82322420D01*
X73826399Y-82322422D01*
X73726570Y-82536507D01*
X73726567Y-82536513D01*
X73669364Y-82749999D01*
X73669364Y-82750000D01*
X74566988Y-82750000D01*
X74534075Y-82807007D01*
X74500000Y-82934174D01*
X74500000Y-83065826D01*
X74534075Y-83192993D01*
X74566988Y-83250000D01*
X73669364Y-83250000D01*
X73726567Y-83463486D01*
X73726570Y-83463492D01*
X73826399Y-83677578D01*
X73961894Y-83871082D01*
X74128917Y-84038105D01*
X74315031Y-84168425D01*
X74358656Y-84223003D01*
X74365848Y-84292501D01*
X74334326Y-84354856D01*
X74315031Y-84371575D01*
X74128922Y-84501890D01*
X74128920Y-84501891D01*
X73961891Y-84668920D01*
X73961886Y-84668926D01*
X73826400Y-84862420D01*
X73826399Y-84862422D01*
X73726570Y-85076507D01*
X73726567Y-85076513D01*
X73669364Y-85289999D01*
X73669364Y-85290000D01*
X74566988Y-85290000D01*
X74534075Y-85347007D01*
X74500000Y-85474174D01*
X74500000Y-85605826D01*
X74534075Y-85732993D01*
X74566988Y-85790000D01*
X73669364Y-85790000D01*
X73726567Y-86003486D01*
X73726570Y-86003492D01*
X73826399Y-86217578D01*
X73961894Y-86411082D01*
X74128917Y-86578105D01*
X74315031Y-86708425D01*
X74358656Y-86763003D01*
X74365848Y-86832501D01*
X74334326Y-86894856D01*
X74315031Y-86911575D01*
X74128922Y-87041890D01*
X74128920Y-87041891D01*
X73961891Y-87208920D01*
X73961886Y-87208926D01*
X73826400Y-87402420D01*
X73826399Y-87402422D01*
X73726570Y-87616507D01*
X73726567Y-87616513D01*
X73669364Y-87829999D01*
X73669364Y-87830000D01*
X74566988Y-87830000D01*
X74534075Y-87887007D01*
X74500000Y-88014174D01*
X74500000Y-88145826D01*
X74534075Y-88272993D01*
X74566988Y-88330000D01*
X73669364Y-88330000D01*
X73726567Y-88543486D01*
X73726570Y-88543492D01*
X73826399Y-88757578D01*
X73961894Y-88951082D01*
X74128917Y-89118105D01*
X74315031Y-89248425D01*
X74358656Y-89303003D01*
X74365848Y-89372501D01*
X74334326Y-89434856D01*
X74315031Y-89451575D01*
X74128922Y-89581890D01*
X74128920Y-89581891D01*
X73961891Y-89748920D01*
X73961886Y-89748926D01*
X73826400Y-89942420D01*
X73826399Y-89942422D01*
X73726570Y-90156507D01*
X73726567Y-90156513D01*
X73669364Y-90369999D01*
X73669364Y-90370000D01*
X74566988Y-90370000D01*
X74534075Y-90427007D01*
X74500000Y-90554174D01*
X74500000Y-90685826D01*
X74534075Y-90812993D01*
X74566988Y-90870000D01*
X73669364Y-90870000D01*
X73726567Y-91083486D01*
X73726570Y-91083492D01*
X73826399Y-91297578D01*
X73961894Y-91491082D01*
X74128917Y-91658105D01*
X74315031Y-91788425D01*
X74358656Y-91843003D01*
X74365848Y-91912501D01*
X74334326Y-91974856D01*
X74315031Y-91991575D01*
X74128922Y-92121890D01*
X74128920Y-92121891D01*
X73961891Y-92288920D01*
X73961886Y-92288926D01*
X73826400Y-92482420D01*
X73826399Y-92482422D01*
X73726570Y-92696507D01*
X73726567Y-92696513D01*
X73669364Y-92909999D01*
X73669364Y-92910000D01*
X74566988Y-92910000D01*
X74534075Y-92967007D01*
X74500000Y-93094174D01*
X74500000Y-93225826D01*
X74534075Y-93352993D01*
X74566988Y-93410000D01*
X73669364Y-93410000D01*
X73726567Y-93623486D01*
X73726570Y-93623492D01*
X73826399Y-93837578D01*
X73961894Y-94031082D01*
X74128917Y-94198105D01*
X74315031Y-94328425D01*
X74358656Y-94383003D01*
X74365848Y-94452501D01*
X74334326Y-94514856D01*
X74315031Y-94531575D01*
X74128922Y-94661890D01*
X74128920Y-94661891D01*
X73961891Y-94828920D01*
X73961886Y-94828926D01*
X73826400Y-95022420D01*
X73826399Y-95022422D01*
X73726570Y-95236507D01*
X73726567Y-95236513D01*
X73669364Y-95449999D01*
X73669364Y-95450000D01*
X74566988Y-95450000D01*
X74534075Y-95507007D01*
X74500000Y-95634174D01*
X74500000Y-95765826D01*
X74534075Y-95892993D01*
X74566988Y-95950000D01*
X73669364Y-95950000D01*
X73726567Y-96163486D01*
X73726570Y-96163492D01*
X73826399Y-96377578D01*
X73961894Y-96571082D01*
X74128917Y-96738105D01*
X74315031Y-96868425D01*
X74358656Y-96923003D01*
X74365848Y-96992501D01*
X74334326Y-97054856D01*
X74315031Y-97071575D01*
X74128922Y-97201890D01*
X74128920Y-97201891D01*
X73961891Y-97368920D01*
X73961886Y-97368926D01*
X73826400Y-97562420D01*
X73826399Y-97562422D01*
X73726570Y-97776507D01*
X73726567Y-97776513D01*
X73669364Y-97989999D01*
X73669364Y-97990000D01*
X74566988Y-97990000D01*
X74534075Y-98047007D01*
X74500000Y-98174174D01*
X74500000Y-98305826D01*
X74534075Y-98432993D01*
X74566988Y-98490000D01*
X73669364Y-98490000D01*
X73726567Y-98703486D01*
X73726570Y-98703492D01*
X73826399Y-98917578D01*
X73961894Y-99111082D01*
X74128917Y-99278105D01*
X74315031Y-99408425D01*
X74358656Y-99463003D01*
X74365848Y-99532501D01*
X74334326Y-99594856D01*
X74315031Y-99611575D01*
X74128922Y-99741890D01*
X74128920Y-99741891D01*
X73961891Y-99908920D01*
X73961886Y-99908926D01*
X73826400Y-100102420D01*
X73826399Y-100102422D01*
X73726570Y-100316507D01*
X73726567Y-100316513D01*
X73669364Y-100529999D01*
X73669364Y-100530000D01*
X74566988Y-100530000D01*
X74534075Y-100587007D01*
X74500000Y-100714174D01*
X74500000Y-100845826D01*
X74534075Y-100972993D01*
X74566988Y-101030000D01*
X73669364Y-101030000D01*
X73726567Y-101243486D01*
X73726570Y-101243492D01*
X73826399Y-101457578D01*
X73961894Y-101651082D01*
X74128917Y-101818105D01*
X74315031Y-101948425D01*
X74358656Y-102003003D01*
X74365848Y-102072501D01*
X74334326Y-102134856D01*
X74315031Y-102151575D01*
X74128922Y-102281890D01*
X74128920Y-102281891D01*
X73961891Y-102448920D01*
X73961886Y-102448926D01*
X73826400Y-102642420D01*
X73826399Y-102642422D01*
X73726570Y-102856507D01*
X73726567Y-102856513D01*
X73669364Y-103069999D01*
X73669364Y-103070000D01*
X74566988Y-103070000D01*
X74534075Y-103127007D01*
X74500000Y-103254174D01*
X74500000Y-103385826D01*
X74534075Y-103512993D01*
X74566988Y-103570000D01*
X73669364Y-103570000D01*
X73726567Y-103783486D01*
X73726570Y-103783492D01*
X73826399Y-103997578D01*
X73961894Y-104191082D01*
X74128917Y-104358105D01*
X74315031Y-104488425D01*
X74358656Y-104543003D01*
X74365848Y-104612501D01*
X74334326Y-104674856D01*
X74315031Y-104691575D01*
X74128922Y-104821890D01*
X74128920Y-104821891D01*
X73961891Y-104988920D01*
X73961886Y-104988926D01*
X73826400Y-105182420D01*
X73826399Y-105182422D01*
X73726570Y-105396507D01*
X73726567Y-105396513D01*
X73669364Y-105609999D01*
X73669364Y-105610000D01*
X74566988Y-105610000D01*
X74534075Y-105667007D01*
X74500000Y-105794174D01*
X74500000Y-105925826D01*
X74534075Y-106052993D01*
X74566988Y-106110000D01*
X73669364Y-106110000D01*
X73726567Y-106323486D01*
X73726570Y-106323492D01*
X73826399Y-106537578D01*
X73961894Y-106731082D01*
X74128917Y-106898105D01*
X74315031Y-107028425D01*
X74358656Y-107083003D01*
X74365848Y-107152501D01*
X74334326Y-107214856D01*
X74315031Y-107231575D01*
X74128922Y-107361890D01*
X74128920Y-107361891D01*
X73961891Y-107528920D01*
X73961886Y-107528926D01*
X73826400Y-107722420D01*
X73826399Y-107722422D01*
X73726570Y-107936507D01*
X73726567Y-107936513D01*
X73669364Y-108149999D01*
X73669364Y-108150000D01*
X74566988Y-108150000D01*
X74534075Y-108207007D01*
X74500000Y-108334174D01*
X74500000Y-108465826D01*
X74534075Y-108592993D01*
X74566988Y-108650000D01*
X73669364Y-108650000D01*
X73726567Y-108863486D01*
X73726570Y-108863492D01*
X73826399Y-109077578D01*
X73961894Y-109271082D01*
X74128917Y-109438105D01*
X74315031Y-109568425D01*
X74358656Y-109623003D01*
X74365848Y-109692501D01*
X74334326Y-109754856D01*
X74315031Y-109771575D01*
X74128922Y-109901890D01*
X74128920Y-109901891D01*
X73961891Y-110068920D01*
X73961886Y-110068926D01*
X73826400Y-110262420D01*
X73826399Y-110262422D01*
X73726570Y-110476507D01*
X73726567Y-110476513D01*
X73669364Y-110689999D01*
X73669364Y-110690000D01*
X74566988Y-110690000D01*
X74534075Y-110747007D01*
X74500000Y-110874174D01*
X74500000Y-111005826D01*
X74534075Y-111132993D01*
X74566988Y-111190000D01*
X73669364Y-111190000D01*
X73726567Y-111403486D01*
X73726570Y-111403492D01*
X73826399Y-111617578D01*
X73961894Y-111811082D01*
X74128917Y-111978105D01*
X74315031Y-112108425D01*
X74358656Y-112163003D01*
X74365848Y-112232501D01*
X74334326Y-112294856D01*
X74315031Y-112311575D01*
X74128922Y-112441890D01*
X74128920Y-112441891D01*
X73961891Y-112608920D01*
X73961886Y-112608926D01*
X73826400Y-112802420D01*
X73826399Y-112802422D01*
X73726570Y-113016507D01*
X73726567Y-113016513D01*
X73669364Y-113229999D01*
X73669364Y-113230000D01*
X74566988Y-113230000D01*
X74534075Y-113287007D01*
X74500000Y-113414174D01*
X74500000Y-113545826D01*
X74534075Y-113672993D01*
X74566988Y-113730000D01*
X73669364Y-113730000D01*
X73726567Y-113943486D01*
X73726570Y-113943492D01*
X73826399Y-114157578D01*
X73961894Y-114351082D01*
X74128917Y-114518105D01*
X74315031Y-114648425D01*
X74358656Y-114703003D01*
X74365848Y-114772501D01*
X74334326Y-114834856D01*
X74315031Y-114851575D01*
X74128922Y-114981890D01*
X74128920Y-114981891D01*
X73961891Y-115148920D01*
X73961886Y-115148926D01*
X73826400Y-115342420D01*
X73826399Y-115342422D01*
X73726570Y-115556507D01*
X73726567Y-115556513D01*
X73669364Y-115769999D01*
X73669364Y-115770000D01*
X74566988Y-115770000D01*
X74534075Y-115827007D01*
X74500000Y-115954174D01*
X74500000Y-116085826D01*
X74534075Y-116212993D01*
X74566988Y-116270000D01*
X73669364Y-116270000D01*
X73726567Y-116483486D01*
X73726570Y-116483492D01*
X73826399Y-116697578D01*
X73961894Y-116891082D01*
X74128917Y-117058105D01*
X74322421Y-117193600D01*
X74536507Y-117293429D01*
X74536516Y-117293433D01*
X74750000Y-117350634D01*
X74750000Y-116453012D01*
X74807007Y-116485925D01*
X74934174Y-116520000D01*
X75065826Y-116520000D01*
X75192993Y-116485925D01*
X75250000Y-116453012D01*
X75250000Y-117350633D01*
X75463483Y-117293433D01*
X75463492Y-117293429D01*
X75677578Y-117193600D01*
X75871082Y-117058105D01*
X76038106Y-116891081D01*
X76048513Y-116876219D01*
X76103089Y-116832593D01*
X76172587Y-116825399D01*
X76234943Y-116856920D01*
X76270357Y-116917150D01*
X76274089Y-116947341D01*
X76274089Y-119000000D01*
X81000000Y-119000000D01*
X81000000Y-73000000D01*
X83313640Y-73000000D01*
X83313640Y-74084998D01*
X83293955Y-74152037D01*
X83277321Y-74172679D01*
X83250000Y-74200000D01*
X83250000Y-75116988D01*
X83192993Y-75084075D01*
X83065826Y-75050000D01*
X82934174Y-75050000D01*
X82807007Y-75084075D01*
X82750000Y-75116988D01*
X82750000Y-74200000D01*
X82350028Y-74200000D01*
X82350012Y-74200001D01*
X82247302Y-74210494D01*
X82080880Y-74265641D01*
X82080875Y-74265643D01*
X81931654Y-74357684D01*
X81807684Y-74481654D01*
X81715643Y-74630875D01*
X81715641Y-74630880D01*
X81660494Y-74797302D01*
X81660493Y-74797309D01*
X81650000Y-74900013D01*
X81650000Y-75300000D01*
X82566988Y-75300000D01*
X82534075Y-75357007D01*
X82500000Y-75484174D01*
X82500000Y-75615826D01*
X82534075Y-75742993D01*
X82566988Y-75800000D01*
X81650001Y-75800000D01*
X81650001Y-76199986D01*
X81660494Y-76302697D01*
X81715641Y-76469119D01*
X81715643Y-76469124D01*
X81807684Y-76618345D01*
X81931654Y-76742315D01*
X82080875Y-76834356D01*
X82080882Y-76834359D01*
X82089712Y-76837285D01*
X82147157Y-76877057D01*
X82173981Y-76941572D01*
X82161667Y-77010348D01*
X82132318Y-77047567D01*
X82132427Y-77047676D01*
X82131511Y-77048591D01*
X82130419Y-77049977D01*
X82128597Y-77051505D01*
X81961505Y-77218597D01*
X81825965Y-77412169D01*
X81825964Y-77412171D01*
X81726098Y-77626335D01*
X81726094Y-77626344D01*
X81664938Y-77854586D01*
X81664936Y-77854596D01*
X81644341Y-78089999D01*
X81644341Y-78090000D01*
X81664936Y-78325403D01*
X81664938Y-78325413D01*
X81726094Y-78553655D01*
X81726096Y-78553659D01*
X81726097Y-78553663D01*
X81806179Y-78725399D01*
X81825965Y-78767830D01*
X81825967Y-78767834D01*
X81860499Y-78817150D01*
X81961505Y-78961401D01*
X82128599Y-79128495D01*
X82314594Y-79258730D01*
X82358218Y-79313307D01*
X82365411Y-79382806D01*
X82333889Y-79445160D01*
X82314593Y-79461880D01*
X82238626Y-79515072D01*
X82238625Y-79515072D01*
X82870590Y-80147037D01*
X82807007Y-80164075D01*
X82692993Y-80229901D01*
X82599901Y-80322993D01*
X82534075Y-80437007D01*
X82517037Y-80500590D01*
X81885072Y-79868625D01*
X81826401Y-79952419D01*
X81726570Y-80166507D01*
X81726566Y-80166516D01*
X81665432Y-80394673D01*
X81665430Y-80394684D01*
X81644843Y-80629998D01*
X81644843Y-80630001D01*
X81665430Y-80865315D01*
X81665432Y-80865326D01*
X81726566Y-81093483D01*
X81726570Y-81093492D01*
X81826400Y-81307579D01*
X81826402Y-81307583D01*
X81885072Y-81391373D01*
X81885073Y-81391373D01*
X82517037Y-80759409D01*
X82534075Y-80822993D01*
X82599901Y-80937007D01*
X82692993Y-81030099D01*
X82807007Y-81095925D01*
X82870588Y-81112961D01*
X82238625Y-81744925D01*
X82315031Y-81798425D01*
X82358655Y-81853002D01*
X82365848Y-81922501D01*
X82334326Y-81984855D01*
X82315029Y-82001576D01*
X82238625Y-82055072D01*
X82870590Y-82687037D01*
X82807007Y-82704075D01*
X82692993Y-82769901D01*
X82599901Y-82862993D01*
X82534075Y-82977007D01*
X82517037Y-83040590D01*
X81885072Y-82408625D01*
X81826401Y-82492419D01*
X81726570Y-82706507D01*
X81726566Y-82706516D01*
X81665432Y-82934673D01*
X81665430Y-82934684D01*
X81644843Y-83169998D01*
X81644843Y-83170001D01*
X81665430Y-83405315D01*
X81665432Y-83405326D01*
X81726566Y-83633483D01*
X81726570Y-83633492D01*
X81826400Y-83847579D01*
X81826402Y-83847583D01*
X81885072Y-83931373D01*
X81885073Y-83931373D01*
X82517037Y-83299409D01*
X82534075Y-83362993D01*
X82599901Y-83477007D01*
X82692993Y-83570099D01*
X82807007Y-83635925D01*
X82870588Y-83652961D01*
X82238625Y-84284925D01*
X82315031Y-84338425D01*
X82358655Y-84393002D01*
X82365848Y-84462501D01*
X82334326Y-84524855D01*
X82315029Y-84541576D01*
X82238625Y-84595072D01*
X82870590Y-85227037D01*
X82807007Y-85244075D01*
X82692993Y-85309901D01*
X82599901Y-85402993D01*
X82534075Y-85517007D01*
X82517037Y-85580590D01*
X81885072Y-84948625D01*
X81826401Y-85032419D01*
X81726570Y-85246507D01*
X81726566Y-85246516D01*
X81665432Y-85474673D01*
X81665430Y-85474684D01*
X81644843Y-85709998D01*
X81644843Y-85710001D01*
X81665430Y-85945315D01*
X81665432Y-85945326D01*
X81726566Y-86173483D01*
X81726570Y-86173492D01*
X81826400Y-86387579D01*
X81826402Y-86387583D01*
X81885072Y-86471373D01*
X81885073Y-86471373D01*
X82517037Y-85839409D01*
X82534075Y-85902993D01*
X82599901Y-86017007D01*
X82692993Y-86110099D01*
X82807007Y-86175925D01*
X82870588Y-86192961D01*
X82238625Y-86824925D01*
X82315031Y-86878425D01*
X82358655Y-86933002D01*
X82365848Y-87002501D01*
X82334326Y-87064855D01*
X82315029Y-87081576D01*
X82238625Y-87135072D01*
X82870590Y-87767037D01*
X82807007Y-87784075D01*
X82692993Y-87849901D01*
X82599901Y-87942993D01*
X82534075Y-88057007D01*
X82517037Y-88120590D01*
X81885072Y-87488625D01*
X81826401Y-87572419D01*
X81726570Y-87786507D01*
X81726566Y-87786516D01*
X81665432Y-88014673D01*
X81665430Y-88014684D01*
X81644843Y-88249998D01*
X81644843Y-88250001D01*
X81665430Y-88485315D01*
X81665432Y-88485326D01*
X81726566Y-88713483D01*
X81726570Y-88713492D01*
X81826400Y-88927579D01*
X81826402Y-88927583D01*
X81885072Y-89011373D01*
X81885073Y-89011373D01*
X82517037Y-88379409D01*
X82534075Y-88442993D01*
X82599901Y-88557007D01*
X82692993Y-88650099D01*
X82807007Y-88715925D01*
X82870588Y-88732961D01*
X82238625Y-89364925D01*
X82315031Y-89418425D01*
X82358655Y-89473002D01*
X82365848Y-89542501D01*
X82334326Y-89604855D01*
X82315029Y-89621576D01*
X82238625Y-89675072D01*
X82870590Y-90307037D01*
X82807007Y-90324075D01*
X82692993Y-90389901D01*
X82599901Y-90482993D01*
X82534075Y-90597007D01*
X82517037Y-90660590D01*
X81885072Y-90028625D01*
X81826401Y-90112419D01*
X81726570Y-90326507D01*
X81726566Y-90326516D01*
X81665432Y-90554673D01*
X81665430Y-90554684D01*
X81644843Y-90789998D01*
X81644843Y-90790001D01*
X81665430Y-91025315D01*
X81665432Y-91025326D01*
X81726566Y-91253483D01*
X81726570Y-91253492D01*
X81826400Y-91467579D01*
X81826402Y-91467583D01*
X81885072Y-91551373D01*
X81885073Y-91551373D01*
X82517037Y-90919409D01*
X82534075Y-90982993D01*
X82599901Y-91097007D01*
X82692993Y-91190099D01*
X82807007Y-91255925D01*
X82870588Y-91272961D01*
X82238625Y-91904925D01*
X82315031Y-91958425D01*
X82358655Y-92013002D01*
X82365848Y-92082501D01*
X82334326Y-92144855D01*
X82315029Y-92161576D01*
X82238625Y-92215072D01*
X82870590Y-92847037D01*
X82807007Y-92864075D01*
X82692993Y-92929901D01*
X82599901Y-93022993D01*
X82534075Y-93137007D01*
X82517037Y-93200590D01*
X81885072Y-92568625D01*
X81826401Y-92652419D01*
X81726570Y-92866507D01*
X81726566Y-92866516D01*
X81665432Y-93094673D01*
X81665430Y-93094684D01*
X81644843Y-93329998D01*
X81644843Y-93330001D01*
X81665430Y-93565315D01*
X81665432Y-93565326D01*
X81726566Y-93793483D01*
X81726570Y-93793492D01*
X81826400Y-94007579D01*
X81826402Y-94007583D01*
X81885072Y-94091373D01*
X81885073Y-94091373D01*
X82517037Y-93459409D01*
X82534075Y-93522993D01*
X82599901Y-93637007D01*
X82692993Y-93730099D01*
X82807007Y-93795925D01*
X82870588Y-93812961D01*
X82238625Y-94444925D01*
X82315031Y-94498425D01*
X82358655Y-94553002D01*
X82365848Y-94622501D01*
X82334326Y-94684855D01*
X82315029Y-94701576D01*
X82238625Y-94755072D01*
X82870590Y-95387037D01*
X82807007Y-95404075D01*
X82692993Y-95469901D01*
X82599901Y-95562993D01*
X82534075Y-95677007D01*
X82517037Y-95740590D01*
X81885072Y-95108625D01*
X81826401Y-95192419D01*
X81726570Y-95406507D01*
X81726566Y-95406516D01*
X81665432Y-95634673D01*
X81665430Y-95634684D01*
X81644843Y-95869998D01*
X81644843Y-95870001D01*
X81665430Y-96105315D01*
X81665432Y-96105326D01*
X81726566Y-96333483D01*
X81726570Y-96333492D01*
X81826400Y-96547579D01*
X81826402Y-96547583D01*
X81885072Y-96631373D01*
X81885073Y-96631373D01*
X82517037Y-95999409D01*
X82534075Y-96062993D01*
X82599901Y-96177007D01*
X82692993Y-96270099D01*
X82807007Y-96335925D01*
X82870588Y-96352961D01*
X82238625Y-96984925D01*
X82315031Y-97038425D01*
X82358655Y-97093002D01*
X82365848Y-97162501D01*
X82334326Y-97224855D01*
X82315029Y-97241576D01*
X82238625Y-97295072D01*
X82870590Y-97927037D01*
X82807007Y-97944075D01*
X82692993Y-98009901D01*
X82599901Y-98102993D01*
X82534075Y-98217007D01*
X82517037Y-98280590D01*
X81885072Y-97648625D01*
X81826401Y-97732419D01*
X81726570Y-97946507D01*
X81726566Y-97946516D01*
X81665432Y-98174673D01*
X81665430Y-98174684D01*
X81644843Y-98409998D01*
X81644843Y-98410001D01*
X81665430Y-98645315D01*
X81665432Y-98645326D01*
X81726566Y-98873483D01*
X81726570Y-98873492D01*
X81826400Y-99087579D01*
X81826402Y-99087583D01*
X81885072Y-99171373D01*
X81885073Y-99171373D01*
X82517037Y-98539409D01*
X82534075Y-98602993D01*
X82599901Y-98717007D01*
X82692993Y-98810099D01*
X82807007Y-98875925D01*
X82870588Y-98892961D01*
X82238625Y-99524925D01*
X82315031Y-99578425D01*
X82358655Y-99633002D01*
X82365848Y-99702501D01*
X82334326Y-99764855D01*
X82315029Y-99781576D01*
X82238625Y-99835072D01*
X82870590Y-100467037D01*
X82807007Y-100484075D01*
X82692993Y-100549901D01*
X82599901Y-100642993D01*
X82534075Y-100757007D01*
X82517037Y-100820590D01*
X81885072Y-100188625D01*
X81826401Y-100272419D01*
X81726570Y-100486507D01*
X81726566Y-100486516D01*
X81665432Y-100714673D01*
X81665430Y-100714684D01*
X81644843Y-100949998D01*
X81644843Y-100950001D01*
X81665430Y-101185315D01*
X81665432Y-101185326D01*
X81726566Y-101413483D01*
X81726570Y-101413492D01*
X81826400Y-101627579D01*
X81826402Y-101627583D01*
X81885072Y-101711373D01*
X81885073Y-101711373D01*
X82517037Y-101079409D01*
X82534075Y-101142993D01*
X82599901Y-101257007D01*
X82692993Y-101350099D01*
X82807007Y-101415925D01*
X82870588Y-101432961D01*
X82238625Y-102064925D01*
X82315031Y-102118425D01*
X82358655Y-102173002D01*
X82365848Y-102242501D01*
X82334326Y-102304855D01*
X82315029Y-102321576D01*
X82238625Y-102375072D01*
X82870590Y-103007037D01*
X82807007Y-103024075D01*
X82692993Y-103089901D01*
X82599901Y-103182993D01*
X82534075Y-103297007D01*
X82517037Y-103360590D01*
X81885072Y-102728625D01*
X81826401Y-102812419D01*
X81726570Y-103026507D01*
X81726566Y-103026516D01*
X81665432Y-103254673D01*
X81665430Y-103254684D01*
X81644843Y-103489998D01*
X81644843Y-103490001D01*
X81665430Y-103725315D01*
X81665432Y-103725326D01*
X81726566Y-103953483D01*
X81726570Y-103953492D01*
X81826400Y-104167579D01*
X81826402Y-104167583D01*
X81885072Y-104251373D01*
X81885073Y-104251373D01*
X82517037Y-103619409D01*
X82534075Y-103682993D01*
X82599901Y-103797007D01*
X82692993Y-103890099D01*
X82807007Y-103955925D01*
X82870588Y-103972961D01*
X82238625Y-104604925D01*
X82315031Y-104658425D01*
X82358655Y-104713002D01*
X82365848Y-104782501D01*
X82334326Y-104844855D01*
X82315029Y-104861576D01*
X82238625Y-104915072D01*
X82870590Y-105547037D01*
X82807007Y-105564075D01*
X82692993Y-105629901D01*
X82599901Y-105722993D01*
X82534075Y-105837007D01*
X82517037Y-105900590D01*
X81885072Y-105268625D01*
X81826401Y-105352419D01*
X81726570Y-105566507D01*
X81726566Y-105566516D01*
X81665432Y-105794673D01*
X81665430Y-105794684D01*
X81644843Y-106029998D01*
X81644843Y-106030001D01*
X81665430Y-106265315D01*
X81665432Y-106265326D01*
X81726566Y-106493483D01*
X81726570Y-106493492D01*
X81826400Y-106707579D01*
X81826402Y-106707583D01*
X81885072Y-106791373D01*
X81885073Y-106791373D01*
X82517037Y-106159409D01*
X82534075Y-106222993D01*
X82599901Y-106337007D01*
X82692993Y-106430099D01*
X82807007Y-106495925D01*
X82870588Y-106512961D01*
X82238625Y-107144925D01*
X82315031Y-107198425D01*
X82358655Y-107253002D01*
X82365848Y-107322501D01*
X82334326Y-107384855D01*
X82315029Y-107401576D01*
X82238625Y-107455072D01*
X82870590Y-108087037D01*
X82807007Y-108104075D01*
X82692993Y-108169901D01*
X82599901Y-108262993D01*
X82534075Y-108377007D01*
X82517037Y-108440590D01*
X81885072Y-107808625D01*
X81826401Y-107892419D01*
X81726570Y-108106507D01*
X81726566Y-108106516D01*
X81665432Y-108334673D01*
X81665430Y-108334684D01*
X81644843Y-108569998D01*
X81644843Y-108570001D01*
X81665430Y-108805315D01*
X81665432Y-108805326D01*
X81726566Y-109033483D01*
X81726570Y-109033492D01*
X81826400Y-109247579D01*
X81826402Y-109247583D01*
X81885072Y-109331373D01*
X81885073Y-109331373D01*
X82517037Y-108699409D01*
X82534075Y-108762993D01*
X82599901Y-108877007D01*
X82692993Y-108970099D01*
X82807007Y-109035925D01*
X82870588Y-109052961D01*
X82238625Y-109684925D01*
X82315031Y-109738425D01*
X82358655Y-109793002D01*
X82365848Y-109862501D01*
X82334326Y-109924855D01*
X82315029Y-109941576D01*
X82238625Y-109995072D01*
X82870590Y-110627037D01*
X82807007Y-110644075D01*
X82692993Y-110709901D01*
X82599901Y-110802993D01*
X82534075Y-110917007D01*
X82517037Y-110980590D01*
X81885072Y-110348625D01*
X81826401Y-110432419D01*
X81726570Y-110646507D01*
X81726566Y-110646516D01*
X81665432Y-110874673D01*
X81665430Y-110874684D01*
X81644843Y-111109998D01*
X81644843Y-111110001D01*
X81665430Y-111345315D01*
X81665432Y-111345326D01*
X81726566Y-111573483D01*
X81726570Y-111573492D01*
X81826400Y-111787579D01*
X81826402Y-111787583D01*
X81885072Y-111871373D01*
X81885073Y-111871373D01*
X82517037Y-111239409D01*
X82534075Y-111302993D01*
X82599901Y-111417007D01*
X82692993Y-111510099D01*
X82807007Y-111575925D01*
X82870588Y-111592961D01*
X82238625Y-112224925D01*
X82315031Y-112278425D01*
X82358655Y-112333002D01*
X82365848Y-112402501D01*
X82334326Y-112464855D01*
X82315029Y-112481576D01*
X82238625Y-112535072D01*
X82870590Y-113167037D01*
X82807007Y-113184075D01*
X82692993Y-113249901D01*
X82599901Y-113342993D01*
X82534075Y-113457007D01*
X82517037Y-113520590D01*
X81885072Y-112888625D01*
X81826401Y-112972419D01*
X81726570Y-113186507D01*
X81726566Y-113186516D01*
X81665432Y-113414673D01*
X81665430Y-113414684D01*
X81644843Y-113649998D01*
X81644843Y-113650001D01*
X81665430Y-113885315D01*
X81665432Y-113885326D01*
X81726566Y-114113483D01*
X81726570Y-114113492D01*
X81826400Y-114327579D01*
X81826402Y-114327583D01*
X81885072Y-114411373D01*
X81885073Y-114411373D01*
X82517037Y-113779409D01*
X82534075Y-113842993D01*
X82599901Y-113957007D01*
X82692993Y-114050099D01*
X82807007Y-114115925D01*
X82870588Y-114132961D01*
X82238625Y-114764925D01*
X82315031Y-114818425D01*
X82358655Y-114873002D01*
X82365848Y-114942501D01*
X82334326Y-115004855D01*
X82315029Y-115021576D01*
X82238625Y-115075072D01*
X82870590Y-115707037D01*
X82807007Y-115724075D01*
X82692993Y-115789901D01*
X82599901Y-115882993D01*
X82534075Y-115997007D01*
X82517037Y-116060590D01*
X81885072Y-115428625D01*
X81826401Y-115512419D01*
X81726570Y-115726507D01*
X81726566Y-115726516D01*
X81665432Y-115954673D01*
X81665430Y-115954684D01*
X81644843Y-116189998D01*
X81644843Y-116190001D01*
X81665430Y-116425315D01*
X81665432Y-116425326D01*
X81726566Y-116653483D01*
X81726570Y-116653492D01*
X81826400Y-116867579D01*
X81826402Y-116867583D01*
X81885072Y-116951373D01*
X81885073Y-116951373D01*
X82517037Y-116319409D01*
X82534075Y-116382993D01*
X82599901Y-116497007D01*
X82692993Y-116590099D01*
X82807007Y-116655925D01*
X82870588Y-116672961D01*
X82238625Y-117304925D01*
X82322421Y-117363599D01*
X82536507Y-117463429D01*
X82536516Y-117463433D01*
X82764673Y-117524567D01*
X82764684Y-117524569D01*
X82999998Y-117545157D01*
X83000001Y-117545157D01*
X83178832Y-117529511D01*
X83247332Y-117543278D01*
X83297516Y-117591893D01*
X83313640Y-117653039D01*
X83313640Y-120494500D01*
X74124000Y-120494500D01*
X74123991Y-120494500D01*
X74123990Y-120494501D01*
X74016549Y-120506052D01*
X74016537Y-120506054D01*
X73965027Y-120517260D01*
X73862502Y-120551383D01*
X73862496Y-120551386D01*
X73741462Y-120629171D01*
X73741451Y-120629179D01*
X73688659Y-120674923D01*
X73594433Y-120783664D01*
X73594430Y-120783668D01*
X73534664Y-120914534D01*
X73514976Y-120981582D01*
X73512328Y-121000000D01*
X65000000Y-121000000D01*
X65000000Y-73000000D01*
X68000000Y-73000000D01*
X68000000Y-74076000D01*
G37*
G04 #@! TD.AperFunction*
G04 #@! TA.AperFunction,Conductor*
G36*
X75250000Y-115586988D02*
G01*
X75192993Y-115554075D01*
X75065826Y-115520000D01*
X74934174Y-115520000D01*
X74807007Y-115554075D01*
X74750000Y-115586988D01*
X74750000Y-113913012D01*
X74807007Y-113945925D01*
X74934174Y-113980000D01*
X75065826Y-113980000D01*
X75192993Y-113945925D01*
X75250000Y-113913012D01*
X75250000Y-115586988D01*
G37*
G04 #@! TD.AperFunction*
G04 #@! TA.AperFunction,Conductor*
G36*
X75250000Y-113046988D02*
G01*
X75192993Y-113014075D01*
X75065826Y-112980000D01*
X74934174Y-112980000D01*
X74807007Y-113014075D01*
X74750000Y-113046988D01*
X74750000Y-111373012D01*
X74807007Y-111405925D01*
X74934174Y-111440000D01*
X75065826Y-111440000D01*
X75192993Y-111405925D01*
X75250000Y-111373012D01*
X75250000Y-113046988D01*
G37*
G04 #@! TD.AperFunction*
G04 #@! TA.AperFunction,Conductor*
G36*
X75250000Y-110506988D02*
G01*
X75192993Y-110474075D01*
X75065826Y-110440000D01*
X74934174Y-110440000D01*
X74807007Y-110474075D01*
X74750000Y-110506988D01*
X74750000Y-108833012D01*
X74807007Y-108865925D01*
X74934174Y-108900000D01*
X75065826Y-108900000D01*
X75192993Y-108865925D01*
X75250000Y-108833012D01*
X75250000Y-110506988D01*
G37*
G04 #@! TD.AperFunction*
G04 #@! TA.AperFunction,Conductor*
G36*
X75250000Y-107966988D02*
G01*
X75192993Y-107934075D01*
X75065826Y-107900000D01*
X74934174Y-107900000D01*
X74807007Y-107934075D01*
X74750000Y-107966988D01*
X74750000Y-106293012D01*
X74807007Y-106325925D01*
X74934174Y-106360000D01*
X75065826Y-106360000D01*
X75192993Y-106325925D01*
X75250000Y-106293012D01*
X75250000Y-107966988D01*
G37*
G04 #@! TD.AperFunction*
G04 #@! TA.AperFunction,Conductor*
G36*
X75250000Y-105426988D02*
G01*
X75192993Y-105394075D01*
X75065826Y-105360000D01*
X74934174Y-105360000D01*
X74807007Y-105394075D01*
X74750000Y-105426988D01*
X74750000Y-103753012D01*
X74807007Y-103785925D01*
X74934174Y-103820000D01*
X75065826Y-103820000D01*
X75192993Y-103785925D01*
X75250000Y-103753012D01*
X75250000Y-105426988D01*
G37*
G04 #@! TD.AperFunction*
G04 #@! TA.AperFunction,Conductor*
G36*
X75250000Y-102886988D02*
G01*
X75192993Y-102854075D01*
X75065826Y-102820000D01*
X74934174Y-102820000D01*
X74807007Y-102854075D01*
X74750000Y-102886988D01*
X74750000Y-101213012D01*
X74807007Y-101245925D01*
X74934174Y-101280000D01*
X75065826Y-101280000D01*
X75192993Y-101245925D01*
X75250000Y-101213012D01*
X75250000Y-102886988D01*
G37*
G04 #@! TD.AperFunction*
G04 #@! TA.AperFunction,Conductor*
G36*
X75250000Y-100346988D02*
G01*
X75192993Y-100314075D01*
X75065826Y-100280000D01*
X74934174Y-100280000D01*
X74807007Y-100314075D01*
X74750000Y-100346988D01*
X74750000Y-98673012D01*
X74807007Y-98705925D01*
X74934174Y-98740000D01*
X75065826Y-98740000D01*
X75192993Y-98705925D01*
X75250000Y-98673012D01*
X75250000Y-100346988D01*
G37*
G04 #@! TD.AperFunction*
G04 #@! TA.AperFunction,Conductor*
G36*
X75250000Y-97806988D02*
G01*
X75192993Y-97774075D01*
X75065826Y-97740000D01*
X74934174Y-97740000D01*
X74807007Y-97774075D01*
X74750000Y-97806988D01*
X74750000Y-96133012D01*
X74807007Y-96165925D01*
X74934174Y-96200000D01*
X75065826Y-96200000D01*
X75192993Y-96165925D01*
X75250000Y-96133012D01*
X75250000Y-97806988D01*
G37*
G04 #@! TD.AperFunction*
G04 #@! TA.AperFunction,Conductor*
G36*
X75250000Y-95266988D02*
G01*
X75192993Y-95234075D01*
X75065826Y-95200000D01*
X74934174Y-95200000D01*
X74807007Y-95234075D01*
X74750000Y-95266988D01*
X74750000Y-93593012D01*
X74807007Y-93625925D01*
X74934174Y-93660000D01*
X75065826Y-93660000D01*
X75192993Y-93625925D01*
X75250000Y-93593012D01*
X75250000Y-95266988D01*
G37*
G04 #@! TD.AperFunction*
G04 #@! TA.AperFunction,Conductor*
G36*
X75250000Y-92726988D02*
G01*
X75192993Y-92694075D01*
X75065826Y-92660000D01*
X74934174Y-92660000D01*
X74807007Y-92694075D01*
X74750000Y-92726988D01*
X74750000Y-91053012D01*
X74807007Y-91085925D01*
X74934174Y-91120000D01*
X75065826Y-91120000D01*
X75192993Y-91085925D01*
X75250000Y-91053012D01*
X75250000Y-92726988D01*
G37*
G04 #@! TD.AperFunction*
G04 #@! TA.AperFunction,Conductor*
G36*
X75250000Y-90186988D02*
G01*
X75192993Y-90154075D01*
X75065826Y-90120000D01*
X74934174Y-90120000D01*
X74807007Y-90154075D01*
X74750000Y-90186988D01*
X74750000Y-88513012D01*
X74807007Y-88545925D01*
X74934174Y-88580000D01*
X75065826Y-88580000D01*
X75192993Y-88545925D01*
X75250000Y-88513012D01*
X75250000Y-90186988D01*
G37*
G04 #@! TD.AperFunction*
G04 #@! TA.AperFunction,Conductor*
G36*
X75250000Y-87646988D02*
G01*
X75192993Y-87614075D01*
X75065826Y-87580000D01*
X74934174Y-87580000D01*
X74807007Y-87614075D01*
X74750000Y-87646988D01*
X74750000Y-85973012D01*
X74807007Y-86005925D01*
X74934174Y-86040000D01*
X75065826Y-86040000D01*
X75192993Y-86005925D01*
X75250000Y-85973012D01*
X75250000Y-87646988D01*
G37*
G04 #@! TD.AperFunction*
G04 #@! TA.AperFunction,Conductor*
G36*
X75250000Y-85106988D02*
G01*
X75192993Y-85074075D01*
X75065826Y-85040000D01*
X74934174Y-85040000D01*
X74807007Y-85074075D01*
X74750000Y-85106988D01*
X74750000Y-83433012D01*
X74807007Y-83465925D01*
X74934174Y-83500000D01*
X75065826Y-83500000D01*
X75192993Y-83465925D01*
X75250000Y-83433012D01*
X75250000Y-85106988D01*
G37*
G04 #@! TD.AperFunction*
G04 #@! TA.AperFunction,Conductor*
G36*
X75250000Y-82566988D02*
G01*
X75192993Y-82534075D01*
X75065826Y-82500000D01*
X74934174Y-82500000D01*
X74807007Y-82534075D01*
X74750000Y-82566988D01*
X74750000Y-80893012D01*
X74807007Y-80925925D01*
X74934174Y-80960000D01*
X75065826Y-80960000D01*
X75192993Y-80925925D01*
X75250000Y-80893012D01*
X75250000Y-82566988D01*
G37*
G04 #@! TD.AperFunction*
G04 #@! TA.AperFunction,Conductor*
G36*
X75250000Y-80026988D02*
G01*
X75192993Y-79994075D01*
X75065826Y-79960000D01*
X74934174Y-79960000D01*
X74807007Y-79994075D01*
X74750000Y-80026988D01*
X74750000Y-78353012D01*
X74807007Y-78385925D01*
X74934174Y-78420000D01*
X75065826Y-78420000D01*
X75192993Y-78385925D01*
X75250000Y-78353012D01*
X75250000Y-80026988D01*
G37*
G04 #@! TD.AperFunction*
G04 #@! TA.AperFunction,Conductor*
G36*
X75250000Y-77486988D02*
G01*
X75192993Y-77454075D01*
X75065826Y-77420000D01*
X74934174Y-77420000D01*
X74807007Y-77454075D01*
X74750000Y-77486988D01*
X74750000Y-75813012D01*
X74807007Y-75845925D01*
X74934174Y-75880000D01*
X75065826Y-75880000D01*
X75192993Y-75845925D01*
X75250000Y-75813012D01*
X75250000Y-77486988D01*
G37*
G04 #@! TD.AperFunction*
G04 #@! TA.AperFunction,Conductor*
G36*
X104943039Y-130855281D02*
G01*
X104988794Y-130908085D01*
X105000000Y-130959596D01*
X105000000Y-134271529D01*
X104980315Y-134338568D01*
X104927511Y-134384323D01*
X104876000Y-134395529D01*
X104313920Y-134395529D01*
X104246881Y-134375844D01*
X104201126Y-134323040D01*
X104191182Y-134253882D01*
X104214653Y-134197218D01*
X104293353Y-134092088D01*
X104293354Y-134092086D01*
X104343596Y-133957379D01*
X104343598Y-133957372D01*
X104349999Y-133897844D01*
X104350000Y-133897827D01*
X104350000Y-133250000D01*
X103433012Y-133250000D01*
X103465925Y-133192993D01*
X103500000Y-133065826D01*
X103500000Y-132934174D01*
X103465925Y-132807007D01*
X103433012Y-132750000D01*
X104350000Y-132750000D01*
X104350000Y-132102172D01*
X104349999Y-132102155D01*
X104343598Y-132042627D01*
X104343596Y-132042620D01*
X104293354Y-131907913D01*
X104293350Y-131907906D01*
X104207190Y-131792812D01*
X104207187Y-131792809D01*
X104092093Y-131706649D01*
X104092086Y-131706645D01*
X103957379Y-131656403D01*
X103957372Y-131656401D01*
X103897844Y-131650000D01*
X103250000Y-131650000D01*
X103250000Y-132566988D01*
X103192993Y-132534075D01*
X103065826Y-132500000D01*
X102934174Y-132500000D01*
X102807007Y-132534075D01*
X102750000Y-132566988D01*
X102750000Y-131650000D01*
X102102155Y-131650000D01*
X102042627Y-131656401D01*
X102042620Y-131656403D01*
X101907913Y-131706645D01*
X101907906Y-131706649D01*
X101792812Y-131792809D01*
X101792809Y-131792812D01*
X101706649Y-131907906D01*
X101706645Y-131907913D01*
X101656403Y-132042620D01*
X101656401Y-132042627D01*
X101650000Y-132102155D01*
X101650000Y-132750000D01*
X102566988Y-132750000D01*
X102534075Y-132807007D01*
X102500000Y-132934174D01*
X102500000Y-133065826D01*
X102534075Y-133192993D01*
X102566988Y-133250000D01*
X101650000Y-133250000D01*
X101650000Y-133897844D01*
X101656401Y-133957372D01*
X101656403Y-133957379D01*
X101706645Y-134092086D01*
X101706646Y-134092088D01*
X101785347Y-134197218D01*
X101809764Y-134262682D01*
X101794913Y-134330955D01*
X101745508Y-134380361D01*
X101686080Y-134395529D01*
X83000000Y-134395529D01*
X83000000Y-133000000D01*
X83000000Y-130835596D01*
X104876000Y-130835596D01*
X104943039Y-130855281D01*
G37*
G04 #@! TD.AperFunction*
G04 #@! TA.AperFunction,Conductor*
G36*
X89955530Y-100025921D02*
G01*
X89862500Y-100056884D01*
X89862496Y-100056886D01*
X89741462Y-100134671D01*
X89741451Y-100134679D01*
X89688659Y-100180423D01*
X89594433Y-100289164D01*
X89594430Y-100289168D01*
X89534664Y-100420034D01*
X89514976Y-100487082D01*
X89494500Y-100629501D01*
X89494500Y-101011952D01*
X89497396Y-101065975D01*
X89497400Y-101066029D01*
X89500230Y-101092348D01*
X89508883Y-101145746D01*
X89508884Y-101145752D01*
X89559161Y-101280555D01*
X89559162Y-101280558D01*
X89559163Y-101280559D01*
X89591585Y-101339939D01*
X89592356Y-101341413D01*
X89592652Y-101341892D01*
X89678874Y-101457072D01*
X89794054Y-101543295D01*
X89794061Y-101543300D01*
X89834927Y-101565614D01*
X89884332Y-101615019D01*
X89899500Y-101674446D01*
X89899500Y-103222870D01*
X89899501Y-103222876D01*
X89905908Y-103282483D01*
X89956203Y-103417329D01*
X89975266Y-103442794D01*
X89999684Y-103508258D01*
X90000000Y-103517106D01*
X90000000Y-104383672D01*
X89988382Y-104436076D01*
X89973263Y-104468497D01*
X89973258Y-104468511D01*
X89914366Y-104688302D01*
X89914364Y-104688313D01*
X89894532Y-104914998D01*
X89894532Y-104915001D01*
X89914364Y-105141686D01*
X89914366Y-105141697D01*
X89973258Y-105361488D01*
X89973261Y-105361496D01*
X89985933Y-105388672D01*
X89988382Y-105393922D01*
X90000000Y-105446327D01*
X90000000Y-106000000D01*
X90443091Y-106000000D01*
X90510130Y-106019685D01*
X90514192Y-106022410D01*
X90547266Y-106045568D01*
X90547267Y-106045568D01*
X90547268Y-106045569D01*
X90605274Y-106072618D01*
X90657713Y-106118791D01*
X90676865Y-106185984D01*
X90656649Y-106252865D01*
X90605275Y-106297381D01*
X90575327Y-106311347D01*
X90547264Y-106324433D01*
X90360858Y-106454954D01*
X90199954Y-106615858D01*
X90069432Y-106802265D01*
X90069431Y-106802267D01*
X89973261Y-107008502D01*
X89973258Y-107008511D01*
X89914366Y-107228302D01*
X89914364Y-107228313D01*
X89894532Y-107454998D01*
X89894532Y-107455001D01*
X89914364Y-107681686D01*
X89914366Y-107681697D01*
X89973258Y-107901488D01*
X89973261Y-107901497D01*
X90069431Y-108107732D01*
X90069432Y-108107734D01*
X90199954Y-108294141D01*
X90360858Y-108455045D01*
X90360861Y-108455047D01*
X90547266Y-108585568D01*
X90605275Y-108612618D01*
X90657714Y-108658791D01*
X90676866Y-108725984D01*
X90656650Y-108792865D01*
X90605275Y-108837382D01*
X90547267Y-108864431D01*
X90547265Y-108864432D01*
X90360858Y-108994954D01*
X90199954Y-109155858D01*
X90069432Y-109342265D01*
X90069431Y-109342267D01*
X89973261Y-109548502D01*
X89973258Y-109548511D01*
X89914366Y-109768302D01*
X89914364Y-109768313D01*
X89894532Y-109994998D01*
X89894532Y-109995001D01*
X89914364Y-110221686D01*
X89914366Y-110221697D01*
X89973258Y-110441488D01*
X89973261Y-110441497D01*
X90069431Y-110647732D01*
X90069432Y-110647734D01*
X90199954Y-110834141D01*
X90360858Y-110995045D01*
X90360861Y-110995047D01*
X90547266Y-111125568D01*
X90605275Y-111152618D01*
X90657714Y-111198791D01*
X90676866Y-111265984D01*
X90656650Y-111332865D01*
X90605275Y-111377382D01*
X90547267Y-111404431D01*
X90547265Y-111404432D01*
X90360858Y-111534954D01*
X90199954Y-111695858D01*
X90069432Y-111882265D01*
X90069431Y-111882267D01*
X89973261Y-112088502D01*
X89973258Y-112088511D01*
X89914366Y-112308302D01*
X89914364Y-112308313D01*
X89894532Y-112534998D01*
X89894532Y-112535001D01*
X89914364Y-112761686D01*
X89914366Y-112761697D01*
X89973258Y-112981488D01*
X89973261Y-112981497D01*
X90069431Y-113187732D01*
X90069432Y-113187734D01*
X90199954Y-113374141D01*
X90360858Y-113535045D01*
X90360861Y-113535047D01*
X90547266Y-113665568D01*
X90605275Y-113692618D01*
X90657714Y-113738791D01*
X90676866Y-113805984D01*
X90656650Y-113872865D01*
X90605275Y-113917382D01*
X90547267Y-113944431D01*
X90547265Y-113944432D01*
X90360858Y-114074954D01*
X90199954Y-114235858D01*
X90069432Y-114422265D01*
X90069431Y-114422267D01*
X89973261Y-114628502D01*
X89973258Y-114628511D01*
X89914366Y-114848302D01*
X89914364Y-114848313D01*
X89894532Y-115074998D01*
X89894532Y-115075001D01*
X89914364Y-115301686D01*
X89914366Y-115301697D01*
X89973258Y-115521488D01*
X89973261Y-115521497D01*
X90069431Y-115727732D01*
X90069432Y-115727734D01*
X90199954Y-115914141D01*
X90360858Y-116075045D01*
X90360861Y-116075047D01*
X90547266Y-116205568D01*
X90605865Y-116232893D01*
X90658305Y-116279065D01*
X90677457Y-116346258D01*
X90657242Y-116413139D01*
X90605867Y-116457657D01*
X90547515Y-116484867D01*
X90361179Y-116615342D01*
X90200342Y-116776179D01*
X90069865Y-116962517D01*
X90052387Y-117000000D01*
X88916378Y-117000000D01*
X88849339Y-116980315D01*
X88803584Y-116927511D01*
X88793158Y-116889883D01*
X88785369Y-116820749D01*
X88785368Y-116820745D01*
X88725788Y-116650476D01*
X88629813Y-116497734D01*
X88627550Y-116494896D01*
X88626659Y-116492715D01*
X88626111Y-116491842D01*
X88626264Y-116491745D01*
X88601144Y-116430209D01*
X88600500Y-116417587D01*
X88600500Y-100000000D01*
X89997493Y-100000000D01*
X89955530Y-100025921D01*
G37*
G04 #@! TD.AperFunction*
G04 #@! TA.AperFunction,Conductor*
G36*
X96437539Y-106019685D02*
G01*
X96483294Y-106072489D01*
X96494500Y-106124000D01*
X96494500Y-106144494D01*
X96494501Y-106144503D01*
X96506052Y-106251944D01*
X96506054Y-106251956D01*
X96517260Y-106303466D01*
X96551383Y-106405991D01*
X96551386Y-106405997D01*
X96629171Y-106527031D01*
X96629179Y-106527042D01*
X96674923Y-106579834D01*
X96674926Y-106579837D01*
X96674930Y-106579841D01*
X96783664Y-106674061D01*
X96783667Y-106674062D01*
X96783668Y-106674063D01*
X96823241Y-106692136D01*
X96914541Y-106733832D01*
X96981580Y-106753517D01*
X96981584Y-106753518D01*
X97000000Y-106756165D01*
X97000000Y-117000000D01*
X95805565Y-117000000D01*
X95805565Y-116999996D01*
X95785369Y-116820750D01*
X95785368Y-116820745D01*
X95725788Y-116650476D01*
X95629813Y-116497734D01*
X95627550Y-116494896D01*
X95626659Y-116492715D01*
X95626111Y-116491842D01*
X95626264Y-116491745D01*
X95601144Y-116430209D01*
X95600500Y-116417587D01*
X95600500Y-115582412D01*
X95620185Y-115515373D01*
X95627555Y-115505097D01*
X95629810Y-115502267D01*
X95629816Y-115502262D01*
X95725789Y-115349522D01*
X95785368Y-115179255D01*
X95785369Y-115179249D01*
X95805565Y-115000003D01*
X95805565Y-114999996D01*
X95785369Y-114820750D01*
X95785368Y-114820745D01*
X95725788Y-114650476D01*
X95629815Y-114497737D01*
X95502262Y-114370184D01*
X95349523Y-114274211D01*
X95179254Y-114214631D01*
X95179249Y-114214630D01*
X95000004Y-114194435D01*
X94999996Y-114194435D01*
X94820750Y-114214630D01*
X94820745Y-114214631D01*
X94650476Y-114274211D01*
X94497737Y-114370184D01*
X94370184Y-114497737D01*
X94274211Y-114650476D01*
X94214631Y-114820745D01*
X94214630Y-114820750D01*
X94194435Y-114999996D01*
X94194435Y-115000003D01*
X94214630Y-115179249D01*
X94214631Y-115179254D01*
X94274211Y-115349523D01*
X94370185Y-115502263D01*
X94372445Y-115505097D01*
X94373334Y-115507275D01*
X94373889Y-115508158D01*
X94373734Y-115508255D01*
X94398855Y-115569783D01*
X94399500Y-115582412D01*
X94399500Y-116417587D01*
X94379815Y-116484626D01*
X94372450Y-116494896D01*
X94370186Y-116497734D01*
X94274211Y-116650476D01*
X94214631Y-116820745D01*
X94214630Y-116820750D01*
X94194435Y-116999996D01*
X94194435Y-117000000D01*
X92347612Y-117000000D01*
X92330134Y-116962517D01*
X92199657Y-116776179D01*
X92038820Y-116615342D01*
X91852482Y-116484865D01*
X91794133Y-116457657D01*
X91741694Y-116411484D01*
X91722542Y-116344291D01*
X91742758Y-116277410D01*
X91794129Y-116232895D01*
X91852734Y-116205568D01*
X92039139Y-116075047D01*
X92200047Y-115914139D01*
X92330568Y-115727734D01*
X92426739Y-115521496D01*
X92485635Y-115301692D01*
X92505468Y-115075000D01*
X92485635Y-114848308D01*
X92426739Y-114628504D01*
X92330568Y-114422266D01*
X92200047Y-114235861D01*
X92200045Y-114235858D01*
X92039141Y-114074954D01*
X91852734Y-113944432D01*
X91852728Y-113944429D01*
X91794725Y-113917382D01*
X91742285Y-113871210D01*
X91723133Y-113804017D01*
X91743348Y-113737135D01*
X91794725Y-113692618D01*
X91852734Y-113665568D01*
X92039139Y-113535047D01*
X92200047Y-113374139D01*
X92330568Y-113187734D01*
X92426739Y-112981496D01*
X92485635Y-112761692D01*
X92505468Y-112535000D01*
X92485635Y-112308308D01*
X92426739Y-112088504D01*
X92330568Y-111882266D01*
X92200047Y-111695861D01*
X92200045Y-111695858D01*
X92039141Y-111534954D01*
X91852734Y-111404432D01*
X91852728Y-111404429D01*
X91794725Y-111377382D01*
X91742285Y-111331210D01*
X91723133Y-111264017D01*
X91743348Y-111197135D01*
X91794725Y-111152618D01*
X91852734Y-111125568D01*
X92039139Y-110995047D01*
X92200047Y-110834139D01*
X92330568Y-110647734D01*
X92426739Y-110441496D01*
X92485635Y-110221692D01*
X92505468Y-109995000D01*
X92485635Y-109768308D01*
X92426739Y-109548504D01*
X92330568Y-109342266D01*
X92200047Y-109155861D01*
X92200045Y-109155858D01*
X92039141Y-108994954D01*
X91852734Y-108864432D01*
X91852728Y-108864429D01*
X91794725Y-108837382D01*
X91742285Y-108791210D01*
X91723133Y-108724017D01*
X91743348Y-108657135D01*
X91794725Y-108612618D01*
X91852734Y-108585568D01*
X92039139Y-108455047D01*
X92200047Y-108294139D01*
X92330568Y-108107734D01*
X92426739Y-107901496D01*
X92485635Y-107681692D01*
X92505468Y-107455000D01*
X92485635Y-107228308D01*
X92426739Y-107008504D01*
X92330568Y-106802266D01*
X92200047Y-106615861D01*
X92200045Y-106615858D01*
X92039141Y-106454954D01*
X91852734Y-106324432D01*
X91852732Y-106324431D01*
X91824673Y-106311347D01*
X91794724Y-106297381D01*
X91742286Y-106251209D01*
X91723134Y-106184016D01*
X91743350Y-106117135D01*
X91794726Y-106072618D01*
X91819374Y-106061123D01*
X91852734Y-106045568D01*
X91885786Y-106022424D01*
X91951992Y-106000098D01*
X91956909Y-106000000D01*
X96370500Y-106000000D01*
X96437539Y-106019685D01*
G37*
G04 #@! TD.AperFunction*
G04 #@! TA.AperFunction,Conductor*
G36*
X83264191Y-71019685D02*
G01*
X83309946Y-71072489D01*
X83321152Y-71124000D01*
X83321152Y-72941126D01*
X83313640Y-72966708D01*
X83313640Y-73000000D01*
X65000000Y-73000000D01*
X65000000Y-71124000D01*
X65019685Y-71056961D01*
X65072489Y-71011206D01*
X65124000Y-71000000D01*
X83197152Y-71000000D01*
X83264191Y-71019685D01*
G37*
G04 #@! TD.AperFunction*
G04 #@! TA.AperFunction,Conductor*
G36*
X110000000Y-102000000D02*
G01*
X110353552Y-102000000D01*
X110953553Y-102600000D01*
X110947339Y-102600000D01*
X110845606Y-102627259D01*
X110754394Y-102679920D01*
X110679920Y-102754394D01*
X110627259Y-102845606D01*
X110600000Y-102947339D01*
X110600000Y-102953552D01*
X109920974Y-102274526D01*
X109920973Y-102274526D01*
X109869868Y-102347512D01*
X109869866Y-102347516D01*
X109773734Y-102553673D01*
X109773730Y-102553682D01*
X109714860Y-102773389D01*
X109714858Y-102773400D01*
X109695034Y-102999997D01*
X109695034Y-103000002D01*
X109714858Y-103226599D01*
X109714860Y-103226610D01*
X109773730Y-103446317D01*
X109773735Y-103446331D01*
X109869863Y-103652478D01*
X109920974Y-103725472D01*
X110600000Y-103046446D01*
X110600000Y-103052661D01*
X110627259Y-103154394D01*
X110679920Y-103245606D01*
X110754394Y-103320080D01*
X110845606Y-103372741D01*
X110947339Y-103400000D01*
X110953553Y-103400000D01*
X110274526Y-104079025D01*
X110347513Y-104130132D01*
X110347521Y-104130136D01*
X110553668Y-104226264D01*
X110553682Y-104226269D01*
X110773389Y-104285139D01*
X110773400Y-104285141D01*
X110999998Y-104304966D01*
X111000002Y-104304966D01*
X111226599Y-104285141D01*
X111226610Y-104285139D01*
X111446317Y-104226269D01*
X111446331Y-104226264D01*
X111652478Y-104130136D01*
X111725471Y-104079024D01*
X111046447Y-103400000D01*
X111052661Y-103400000D01*
X111154394Y-103372741D01*
X111245606Y-103320080D01*
X111320080Y-103245606D01*
X111372741Y-103154394D01*
X111400000Y-103052661D01*
X111400000Y-103046447D01*
X112079024Y-103725471D01*
X112130136Y-103652478D01*
X112226264Y-103446331D01*
X112226269Y-103446317D01*
X112285139Y-103226610D01*
X112285141Y-103226599D01*
X112304966Y-103000002D01*
X112304966Y-102999997D01*
X112285141Y-102773400D01*
X112285139Y-102773389D01*
X112226269Y-102553682D01*
X112226264Y-102553668D01*
X112130136Y-102347521D01*
X112130132Y-102347513D01*
X112079025Y-102274526D01*
X111400000Y-102953551D01*
X111400000Y-102947339D01*
X111372741Y-102845606D01*
X111320080Y-102754394D01*
X111245606Y-102679920D01*
X111154394Y-102627259D01*
X111052661Y-102600000D01*
X111046448Y-102600000D01*
X111646446Y-102000000D01*
X113000000Y-102000000D01*
X113000000Y-130243719D01*
X112980315Y-130310758D01*
X112927511Y-130356513D01*
X112876000Y-130367719D01*
X105094642Y-130367719D01*
X105059706Y-130362696D01*
X105018419Y-130350572D01*
X104932966Y-130338286D01*
X104876000Y-130330096D01*
X92124000Y-130330096D01*
X92056961Y-130310411D01*
X92011206Y-130257607D01*
X92000000Y-130206096D01*
X92000000Y-127000000D01*
X97000000Y-127000000D01*
X101584952Y-127000000D01*
X101651991Y-127019685D01*
X101697746Y-127072489D01*
X101707690Y-127141647D01*
X101704727Y-127156093D01*
X101664938Y-127304586D01*
X101664936Y-127304596D01*
X101644341Y-127539999D01*
X101644341Y-127540000D01*
X101664936Y-127775403D01*
X101664938Y-127775413D01*
X101726094Y-128003655D01*
X101726096Y-128003659D01*
X101726097Y-128003663D01*
X101825965Y-128217830D01*
X101825967Y-128217834D01*
X101934281Y-128372521D01*
X101961505Y-128411401D01*
X102128599Y-128578495D01*
X102225384Y-128646265D01*
X102322165Y-128714032D01*
X102322167Y-128714033D01*
X102322170Y-128714035D01*
X102536337Y-128813903D01*
X102764592Y-128875063D01*
X102952918Y-128891539D01*
X102999999Y-128895659D01*
X103000000Y-128895659D01*
X103000001Y-128895659D01*
X103039234Y-128892226D01*
X103235408Y-128875063D01*
X103463663Y-128813903D01*
X103677830Y-128714035D01*
X103871401Y-128578495D01*
X104038495Y-128411401D01*
X104174035Y-128217830D01*
X104273903Y-128003663D01*
X104335063Y-127775408D01*
X104355659Y-127540000D01*
X104335063Y-127304592D01*
X104295273Y-127156091D01*
X104296936Y-127086243D01*
X104336099Y-127028381D01*
X104400327Y-127000877D01*
X104415048Y-127000000D01*
X108000000Y-127000000D01*
X108000000Y-120999998D01*
X109694532Y-120999998D01*
X109694532Y-121000001D01*
X109714364Y-121226686D01*
X109714366Y-121226697D01*
X109773258Y-121446488D01*
X109773261Y-121446497D01*
X109869431Y-121652732D01*
X109869432Y-121652734D01*
X109999954Y-121839141D01*
X110160858Y-122000045D01*
X110160861Y-122000047D01*
X110347266Y-122130568D01*
X110553504Y-122226739D01*
X110773308Y-122285635D01*
X110935230Y-122299801D01*
X110999998Y-122305468D01*
X111000000Y-122305468D01*
X111000002Y-122305468D01*
X111056673Y-122300509D01*
X111226692Y-122285635D01*
X111446496Y-122226739D01*
X111652734Y-122130568D01*
X111839139Y-122000047D01*
X112000047Y-121839139D01*
X112130568Y-121652734D01*
X112226739Y-121446496D01*
X112285635Y-121226692D01*
X112305468Y-121000000D01*
X112285635Y-120773308D01*
X112226739Y-120553504D01*
X112130568Y-120347266D01*
X112000047Y-120160861D01*
X112000045Y-120160858D01*
X111839141Y-119999954D01*
X111652734Y-119869432D01*
X111652732Y-119869431D01*
X111446497Y-119773261D01*
X111446488Y-119773258D01*
X111226697Y-119714366D01*
X111226693Y-119714365D01*
X111226692Y-119714365D01*
X111226691Y-119714364D01*
X111226686Y-119714364D01*
X111000002Y-119694532D01*
X110999998Y-119694532D01*
X110773313Y-119714364D01*
X110773302Y-119714366D01*
X110553511Y-119773258D01*
X110553502Y-119773261D01*
X110347267Y-119869431D01*
X110347265Y-119869432D01*
X110160858Y-119999954D01*
X109999954Y-120160858D01*
X109869432Y-120347265D01*
X109869431Y-120347267D01*
X109773261Y-120553502D01*
X109773258Y-120553511D01*
X109714366Y-120773302D01*
X109714364Y-120773313D01*
X109694532Y-120999998D01*
X108000000Y-120999998D01*
X108000000Y-117999997D01*
X109695034Y-117999997D01*
X109695034Y-118000002D01*
X109714858Y-118226599D01*
X109714860Y-118226610D01*
X109773730Y-118446317D01*
X109773735Y-118446331D01*
X109869863Y-118652478D01*
X109920974Y-118725472D01*
X110600000Y-118046446D01*
X110600000Y-118052661D01*
X110627259Y-118154394D01*
X110679920Y-118245606D01*
X110754394Y-118320080D01*
X110845606Y-118372741D01*
X110947339Y-118400000D01*
X110953553Y-118400000D01*
X110274526Y-119079025D01*
X110347513Y-119130132D01*
X110347521Y-119130136D01*
X110553668Y-119226264D01*
X110553682Y-119226269D01*
X110773389Y-119285139D01*
X110773400Y-119285141D01*
X110999998Y-119304966D01*
X111000002Y-119304966D01*
X111226599Y-119285141D01*
X111226610Y-119285139D01*
X111446317Y-119226269D01*
X111446331Y-119226264D01*
X111652478Y-119130136D01*
X111725471Y-119079024D01*
X111046447Y-118400000D01*
X111052661Y-118400000D01*
X111154394Y-118372741D01*
X111245606Y-118320080D01*
X111320080Y-118245606D01*
X111372741Y-118154394D01*
X111400000Y-118052661D01*
X111400000Y-118046447D01*
X112079024Y-118725471D01*
X112130136Y-118652478D01*
X112226264Y-118446331D01*
X112226269Y-118446317D01*
X112285139Y-118226610D01*
X112285141Y-118226599D01*
X112304966Y-118000002D01*
X112304966Y-117999997D01*
X112285141Y-117773400D01*
X112285139Y-117773389D01*
X112226269Y-117553682D01*
X112226264Y-117553668D01*
X112130136Y-117347521D01*
X112130132Y-117347513D01*
X112079025Y-117274526D01*
X111400000Y-117953551D01*
X111400000Y-117947339D01*
X111372741Y-117845606D01*
X111320080Y-117754394D01*
X111245606Y-117679920D01*
X111154394Y-117627259D01*
X111052661Y-117600000D01*
X111046448Y-117600000D01*
X111725472Y-116920974D01*
X111652478Y-116869863D01*
X111446331Y-116773735D01*
X111446317Y-116773730D01*
X111226610Y-116714860D01*
X111226599Y-116714858D01*
X111000002Y-116695034D01*
X110999998Y-116695034D01*
X110773400Y-116714858D01*
X110773389Y-116714860D01*
X110553682Y-116773730D01*
X110553673Y-116773734D01*
X110347516Y-116869866D01*
X110347512Y-116869868D01*
X110274526Y-116920973D01*
X110274526Y-116920974D01*
X110953553Y-117600000D01*
X110947339Y-117600000D01*
X110845606Y-117627259D01*
X110754394Y-117679920D01*
X110679920Y-117754394D01*
X110627259Y-117845606D01*
X110600000Y-117947339D01*
X110600000Y-117953552D01*
X109920974Y-117274526D01*
X109920973Y-117274526D01*
X109869868Y-117347512D01*
X109869866Y-117347516D01*
X109773734Y-117553673D01*
X109773730Y-117553682D01*
X109714860Y-117773389D01*
X109714858Y-117773400D01*
X109695034Y-117999997D01*
X108000000Y-117999997D01*
X108000000Y-114999997D01*
X109695034Y-114999997D01*
X109695034Y-115000002D01*
X109714858Y-115226599D01*
X109714860Y-115226610D01*
X109773730Y-115446317D01*
X109773735Y-115446331D01*
X109869863Y-115652478D01*
X109920974Y-115725472D01*
X110600000Y-115046446D01*
X110600000Y-115052661D01*
X110627259Y-115154394D01*
X110679920Y-115245606D01*
X110754394Y-115320080D01*
X110845606Y-115372741D01*
X110947339Y-115400000D01*
X110953553Y-115400000D01*
X110274526Y-116079025D01*
X110347513Y-116130132D01*
X110347521Y-116130136D01*
X110553668Y-116226264D01*
X110553682Y-116226269D01*
X110773389Y-116285139D01*
X110773400Y-116285141D01*
X110999998Y-116304966D01*
X111000002Y-116304966D01*
X111226599Y-116285141D01*
X111226610Y-116285139D01*
X111446317Y-116226269D01*
X111446331Y-116226264D01*
X111652478Y-116130136D01*
X111725471Y-116079024D01*
X111046447Y-115400000D01*
X111052661Y-115400000D01*
X111154394Y-115372741D01*
X111245606Y-115320080D01*
X111320080Y-115245606D01*
X111372741Y-115154394D01*
X111400000Y-115052661D01*
X111400000Y-115046447D01*
X112079024Y-115725471D01*
X112130136Y-115652478D01*
X112226264Y-115446331D01*
X112226269Y-115446317D01*
X112285139Y-115226610D01*
X112285141Y-115226599D01*
X112304966Y-115000002D01*
X112304966Y-114999997D01*
X112285141Y-114773400D01*
X112285139Y-114773389D01*
X112226269Y-114553682D01*
X112226264Y-114553668D01*
X112130136Y-114347521D01*
X112130132Y-114347513D01*
X112079025Y-114274526D01*
X111400000Y-114953551D01*
X111400000Y-114947339D01*
X111372741Y-114845606D01*
X111320080Y-114754394D01*
X111245606Y-114679920D01*
X111154394Y-114627259D01*
X111052661Y-114600000D01*
X111046448Y-114600000D01*
X111725472Y-113920974D01*
X111652478Y-113869863D01*
X111446331Y-113773735D01*
X111446317Y-113773730D01*
X111226610Y-113714860D01*
X111226599Y-113714858D01*
X111000002Y-113695034D01*
X110999998Y-113695034D01*
X110773400Y-113714858D01*
X110773389Y-113714860D01*
X110553682Y-113773730D01*
X110553673Y-113773734D01*
X110347516Y-113869866D01*
X110347512Y-113869868D01*
X110274526Y-113920973D01*
X110274526Y-113920974D01*
X110953553Y-114600000D01*
X110947339Y-114600000D01*
X110845606Y-114627259D01*
X110754394Y-114679920D01*
X110679920Y-114754394D01*
X110627259Y-114845606D01*
X110600000Y-114947339D01*
X110600000Y-114953552D01*
X109920974Y-114274526D01*
X109920973Y-114274526D01*
X109869868Y-114347512D01*
X109869866Y-114347516D01*
X109773734Y-114553673D01*
X109773730Y-114553682D01*
X109714860Y-114773389D01*
X109714858Y-114773400D01*
X109695034Y-114999997D01*
X108000000Y-114999997D01*
X108000000Y-111999997D01*
X109695034Y-111999997D01*
X109695034Y-112000002D01*
X109714858Y-112226599D01*
X109714860Y-112226610D01*
X109773730Y-112446317D01*
X109773735Y-112446331D01*
X109869863Y-112652478D01*
X109920974Y-112725472D01*
X110600000Y-112046446D01*
X110600000Y-112052661D01*
X110627259Y-112154394D01*
X110679920Y-112245606D01*
X110754394Y-112320080D01*
X110845606Y-112372741D01*
X110947339Y-112400000D01*
X110953553Y-112400000D01*
X110274526Y-113079025D01*
X110347513Y-113130132D01*
X110347521Y-113130136D01*
X110553668Y-113226264D01*
X110553682Y-113226269D01*
X110773389Y-113285139D01*
X110773400Y-113285141D01*
X110999998Y-113304966D01*
X111000002Y-113304966D01*
X111226599Y-113285141D01*
X111226610Y-113285139D01*
X111446317Y-113226269D01*
X111446331Y-113226264D01*
X111652478Y-113130136D01*
X111725471Y-113079024D01*
X111046447Y-112400000D01*
X111052661Y-112400000D01*
X111154394Y-112372741D01*
X111245606Y-112320080D01*
X111320080Y-112245606D01*
X111372741Y-112154394D01*
X111400000Y-112052661D01*
X111400000Y-112046447D01*
X112079024Y-112725471D01*
X112130136Y-112652478D01*
X112226264Y-112446331D01*
X112226269Y-112446317D01*
X112285139Y-112226610D01*
X112285141Y-112226599D01*
X112304966Y-112000002D01*
X112304966Y-111999997D01*
X112285141Y-111773400D01*
X112285139Y-111773389D01*
X112226269Y-111553682D01*
X112226264Y-111553668D01*
X112130136Y-111347521D01*
X112130132Y-111347513D01*
X112079025Y-111274526D01*
X111400000Y-111953551D01*
X111400000Y-111947339D01*
X111372741Y-111845606D01*
X111320080Y-111754394D01*
X111245606Y-111679920D01*
X111154394Y-111627259D01*
X111052661Y-111600000D01*
X111046448Y-111600000D01*
X111725472Y-110920974D01*
X111652478Y-110869863D01*
X111446331Y-110773735D01*
X111446317Y-110773730D01*
X111226610Y-110714860D01*
X111226599Y-110714858D01*
X111000002Y-110695034D01*
X110999998Y-110695034D01*
X110773400Y-110714858D01*
X110773389Y-110714860D01*
X110553682Y-110773730D01*
X110553673Y-110773734D01*
X110347516Y-110869866D01*
X110347512Y-110869868D01*
X110274526Y-110920973D01*
X110274526Y-110920974D01*
X110953553Y-111600000D01*
X110947339Y-111600000D01*
X110845606Y-111627259D01*
X110754394Y-111679920D01*
X110679920Y-111754394D01*
X110627259Y-111845606D01*
X110600000Y-111947339D01*
X110600000Y-111953552D01*
X109920974Y-111274526D01*
X109920973Y-111274526D01*
X109869868Y-111347512D01*
X109869866Y-111347516D01*
X109773734Y-111553673D01*
X109773730Y-111553682D01*
X109714860Y-111773389D01*
X109714858Y-111773400D01*
X109695034Y-111999997D01*
X108000000Y-111999997D01*
X108000000Y-108999997D01*
X109695034Y-108999997D01*
X109695034Y-109000002D01*
X109714858Y-109226599D01*
X109714860Y-109226610D01*
X109773730Y-109446317D01*
X109773735Y-109446331D01*
X109869863Y-109652478D01*
X109920974Y-109725472D01*
X110600000Y-109046446D01*
X110600000Y-109052661D01*
X110627259Y-109154394D01*
X110679920Y-109245606D01*
X110754394Y-109320080D01*
X110845606Y-109372741D01*
X110947339Y-109400000D01*
X110953553Y-109400000D01*
X110274526Y-110079025D01*
X110347513Y-110130132D01*
X110347521Y-110130136D01*
X110553668Y-110226264D01*
X110553682Y-110226269D01*
X110773389Y-110285139D01*
X110773400Y-110285141D01*
X110999998Y-110304966D01*
X111000002Y-110304966D01*
X111226599Y-110285141D01*
X111226610Y-110285139D01*
X111446317Y-110226269D01*
X111446331Y-110226264D01*
X111652478Y-110130136D01*
X111725471Y-110079024D01*
X111046447Y-109400000D01*
X111052661Y-109400000D01*
X111154394Y-109372741D01*
X111245606Y-109320080D01*
X111320080Y-109245606D01*
X111372741Y-109154394D01*
X111400000Y-109052661D01*
X111400000Y-109046447D01*
X112079024Y-109725471D01*
X112130136Y-109652478D01*
X112226264Y-109446331D01*
X112226269Y-109446317D01*
X112285139Y-109226610D01*
X112285141Y-109226599D01*
X112304966Y-109000002D01*
X112304966Y-108999997D01*
X112285141Y-108773400D01*
X112285139Y-108773389D01*
X112226269Y-108553682D01*
X112226264Y-108553668D01*
X112130136Y-108347521D01*
X112130132Y-108347513D01*
X112079025Y-108274526D01*
X111400000Y-108953551D01*
X111400000Y-108947339D01*
X111372741Y-108845606D01*
X111320080Y-108754394D01*
X111245606Y-108679920D01*
X111154394Y-108627259D01*
X111052661Y-108600000D01*
X111046448Y-108600000D01*
X111725472Y-107920974D01*
X111652478Y-107869863D01*
X111446331Y-107773735D01*
X111446317Y-107773730D01*
X111226610Y-107714860D01*
X111226599Y-107714858D01*
X111000002Y-107695034D01*
X110999998Y-107695034D01*
X110773400Y-107714858D01*
X110773389Y-107714860D01*
X110553682Y-107773730D01*
X110553673Y-107773734D01*
X110347516Y-107869866D01*
X110347512Y-107869868D01*
X110274526Y-107920973D01*
X110274526Y-107920974D01*
X110953553Y-108600000D01*
X110947339Y-108600000D01*
X110845606Y-108627259D01*
X110754394Y-108679920D01*
X110679920Y-108754394D01*
X110627259Y-108845606D01*
X110600000Y-108947339D01*
X110600000Y-108953552D01*
X109920974Y-108274526D01*
X109920973Y-108274526D01*
X109869868Y-108347512D01*
X109869866Y-108347516D01*
X109773734Y-108553673D01*
X109773730Y-108553682D01*
X109714860Y-108773389D01*
X109714858Y-108773400D01*
X109695034Y-108999997D01*
X108000000Y-108999997D01*
X108000000Y-106000000D01*
X108000000Y-105999997D01*
X109695034Y-105999997D01*
X109695034Y-106000000D01*
X109714858Y-106226599D01*
X109714860Y-106226610D01*
X109773730Y-106446317D01*
X109773735Y-106446331D01*
X109869863Y-106652478D01*
X109920974Y-106725472D01*
X110600000Y-106046446D01*
X110600000Y-106052661D01*
X110627259Y-106154394D01*
X110679920Y-106245606D01*
X110754394Y-106320080D01*
X110845606Y-106372741D01*
X110947339Y-106400000D01*
X110953553Y-106400000D01*
X110274526Y-107079025D01*
X110347513Y-107130132D01*
X110347521Y-107130136D01*
X110553668Y-107226264D01*
X110553682Y-107226269D01*
X110773389Y-107285139D01*
X110773400Y-107285141D01*
X110999998Y-107304966D01*
X111000002Y-107304966D01*
X111226599Y-107285141D01*
X111226610Y-107285139D01*
X111446317Y-107226269D01*
X111446331Y-107226264D01*
X111652478Y-107130136D01*
X111725471Y-107079024D01*
X111046447Y-106400000D01*
X111052661Y-106400000D01*
X111154394Y-106372741D01*
X111245606Y-106320080D01*
X111320080Y-106245606D01*
X111372741Y-106154394D01*
X111400000Y-106052661D01*
X111400000Y-106046447D01*
X112079024Y-106725471D01*
X112130136Y-106652478D01*
X112226264Y-106446331D01*
X112226269Y-106446317D01*
X112285139Y-106226610D01*
X112285141Y-106226599D01*
X112304966Y-106000000D01*
X112304966Y-105999997D01*
X112285141Y-105773400D01*
X112285139Y-105773389D01*
X112226269Y-105553682D01*
X112226264Y-105553668D01*
X112130136Y-105347521D01*
X112130132Y-105347513D01*
X112079025Y-105274526D01*
X111400000Y-105953551D01*
X111400000Y-105947339D01*
X111372741Y-105845606D01*
X111320080Y-105754394D01*
X111245606Y-105679920D01*
X111154394Y-105627259D01*
X111052661Y-105600000D01*
X111046448Y-105600000D01*
X111725472Y-104920974D01*
X111652478Y-104869863D01*
X111446331Y-104773735D01*
X111446317Y-104773730D01*
X111226610Y-104714860D01*
X111226599Y-104714858D01*
X111000002Y-104695034D01*
X110999998Y-104695034D01*
X110773400Y-104714858D01*
X110773389Y-104714860D01*
X110553682Y-104773730D01*
X110553673Y-104773734D01*
X110347516Y-104869866D01*
X110347512Y-104869868D01*
X110274526Y-104920973D01*
X110274526Y-104920974D01*
X110953553Y-105600000D01*
X110947339Y-105600000D01*
X110845606Y-105627259D01*
X110754394Y-105679920D01*
X110679920Y-105754394D01*
X110627259Y-105845606D01*
X110600000Y-105947339D01*
X110600000Y-105953552D01*
X109920974Y-105274526D01*
X109920973Y-105274526D01*
X109869868Y-105347512D01*
X109869866Y-105347516D01*
X109773734Y-105553673D01*
X109773730Y-105553682D01*
X109714860Y-105773389D01*
X109714858Y-105773400D01*
X109695034Y-105999997D01*
X108000000Y-105999997D01*
X108000000Y-105225855D01*
X108000189Y-105225789D01*
X108152929Y-105129816D01*
X108280483Y-105002262D01*
X108376456Y-104849522D01*
X108436035Y-104679255D01*
X108456232Y-104500000D01*
X108452683Y-104468504D01*
X108436036Y-104320750D01*
X108436035Y-104320745D01*
X108399596Y-104216609D01*
X108376456Y-104150478D01*
X108280483Y-103997738D01*
X108152929Y-103870184D01*
X108016456Y-103784432D01*
X108000186Y-103774209D01*
X108000000Y-103774143D01*
X108000000Y-101000000D01*
X110000000Y-101000000D01*
X110000000Y-102000000D01*
G37*
G04 #@! TD.AperFunction*
M02*
