G04 #@! TF.GenerationSoftware,KiCad,Pcbnew,8.0.4*
G04 #@! TF.CreationDate,2024-09-21T15:59:35+01:00*
G04 #@! TF.ProjectId,AmigaDualFloppyInterface,416d6967-6144-4756-916c-466c6f707079,1.0*
G04 #@! TF.SameCoordinates,Original*
G04 #@! TF.FileFunction,Legend,Bot*
G04 #@! TF.FilePolarity,Positive*
%FSLAX46Y46*%
G04 Gerber Fmt 4.6, Leading zero omitted, Abs format (unit mm)*
G04 Created by KiCad (PCBNEW 8.0.4) date 2024-09-21 15:59:35*
%MOMM*%
%LPD*%
G01*
G04 APERTURE LIST*
G04 Aperture macros list*
%AMRoundRect*
0 Rectangle with rounded corners*
0 $1 Rounding radius*
0 $2 $3 $4 $5 $6 $7 $8 $9 X,Y pos of 4 corners*
0 Add a 4 corners polygon primitive as box body*
4,1,4,$2,$3,$4,$5,$6,$7,$8,$9,$2,$3,0*
0 Add four circle primitives for the rounded corners*
1,1,$1+$1,$2,$3*
1,1,$1+$1,$4,$5*
1,1,$1+$1,$6,$7*
1,1,$1+$1,$8,$9*
0 Add four rect primitives between the rounded corners*
20,1,$1+$1,$2,$3,$4,$5,0*
20,1,$1+$1,$4,$5,$6,$7,0*
20,1,$1+$1,$6,$7,$8,$9,0*
20,1,$1+$1,$8,$9,$2,$3,0*%
G04 Aperture macros list end*
%ADD10C,0.150000*%
%ADD11C,0.120000*%
%ADD12C,1.600000*%
%ADD13O,1.600000X1.600000*%
%ADD14R,1.050000X1.500000*%
%ADD15O,1.050000X1.500000*%
%ADD16R,1.700000X1.700000*%
%ADD17O,1.700000X1.700000*%
%ADD18R,1.600000X1.600000*%
%ADD19RoundRect,0.250000X-0.600000X-0.600000X0.600000X-0.600000X0.600000X0.600000X-0.600000X0.600000X0*%
%ADD20C,1.700000*%
G04 APERTURE END LIST*
D10*
X76603333Y-72064819D02*
X76603333Y-72779104D01*
X76603333Y-72779104D02*
X76650952Y-72921961D01*
X76650952Y-72921961D02*
X76746190Y-73017200D01*
X76746190Y-73017200D02*
X76889047Y-73064819D01*
X76889047Y-73064819D02*
X76984285Y-73064819D01*
X76222380Y-72064819D02*
X75603333Y-72064819D01*
X75603333Y-72064819D02*
X75936666Y-72445771D01*
X75936666Y-72445771D02*
X75793809Y-72445771D01*
X75793809Y-72445771D02*
X75698571Y-72493390D01*
X75698571Y-72493390D02*
X75650952Y-72541009D01*
X75650952Y-72541009D02*
X75603333Y-72636247D01*
X75603333Y-72636247D02*
X75603333Y-72874342D01*
X75603333Y-72874342D02*
X75650952Y-72969580D01*
X75650952Y-72969580D02*
X75698571Y-73017200D01*
X75698571Y-73017200D02*
X75793809Y-73064819D01*
X75793809Y-73064819D02*
X76079523Y-73064819D01*
X76079523Y-73064819D02*
X76174761Y-73017200D01*
X76174761Y-73017200D02*
X76222380Y-72969580D01*
X76033333Y-119074819D02*
X76033333Y-119789104D01*
X76033333Y-119789104D02*
X76080952Y-119931961D01*
X76080952Y-119931961D02*
X76176190Y-120027200D01*
X76176190Y-120027200D02*
X76319047Y-120074819D01*
X76319047Y-120074819D02*
X76414285Y-120074819D01*
X75033333Y-120074819D02*
X75604761Y-120074819D01*
X75319047Y-120074819D02*
X75319047Y-119074819D01*
X75319047Y-119074819D02*
X75414285Y-119217676D01*
X75414285Y-119217676D02*
X75509523Y-119312914D01*
X75509523Y-119312914D02*
X75604761Y-119360533D01*
D11*
X73670000Y-74050000D02*
X75000000Y-74050000D01*
X73670000Y-75380000D02*
X73670000Y-74050000D01*
X73670000Y-76650000D02*
X76270000Y-76650000D01*
X73670000Y-117350000D02*
X73670000Y-76650000D01*
X73670000Y-117350000D02*
X78870000Y-117350000D01*
X76270000Y-74050000D02*
X78870000Y-74050000D01*
X76270000Y-76650000D02*
X76270000Y-74050000D01*
X78870000Y-117350000D02*
X78870000Y-74050000D01*
X74420000Y-121440000D02*
X75750000Y-121440000D01*
X74420000Y-122770000D02*
X74420000Y-121440000D01*
X74420000Y-124040000D02*
X77080000Y-124040000D01*
X74420000Y-131720000D02*
X74420000Y-124040000D01*
X74420000Y-131720000D02*
X77080000Y-131720000D01*
X77080000Y-131720000D02*
X77080000Y-124040000D01*
%LPC*%
D12*
X111000000Y-121000000D03*
D13*
X103380000Y-121000000D03*
D12*
X100000000Y-69000000D03*
D13*
X92380000Y-69000000D03*
D12*
X111000000Y-118000000D03*
D13*
X103380000Y-118000000D03*
D12*
X111000000Y-115000000D03*
D13*
X103380000Y-115000000D03*
D12*
X111000000Y-109000000D03*
D13*
X103380000Y-109000000D03*
D12*
X111000000Y-106000000D03*
D13*
X103380000Y-106000000D03*
D12*
X111000000Y-103000000D03*
D13*
X103380000Y-103000000D03*
D12*
X93740341Y-72960682D03*
X98740341Y-72960682D03*
X109500000Y-80508286D03*
X104500000Y-80508286D03*
X98376184Y-98186049D03*
X93376184Y-98186049D03*
D14*
X97505233Y-122000000D03*
D15*
X96235233Y-122000000D03*
X94965233Y-122000000D03*
D16*
X103000000Y-125000000D03*
D17*
X103000000Y-127540000D03*
D18*
X91000000Y-77000000D03*
D13*
X91000000Y-79540000D03*
X91000000Y-82080000D03*
X91000000Y-84620000D03*
X91000000Y-87160000D03*
X91000000Y-89700000D03*
X91000000Y-92240000D03*
X91000000Y-94780000D03*
X98620000Y-94780000D03*
X98620000Y-92240000D03*
X98620000Y-89700000D03*
X98620000Y-87160000D03*
X98620000Y-84620000D03*
X98620000Y-82080000D03*
X98620000Y-79540000D03*
X98620000Y-77000000D03*
D19*
X83000000Y-75550000D03*
D20*
X85540000Y-75550000D03*
X83000000Y-78090000D03*
X85540000Y-78090000D03*
X83000000Y-80630000D03*
X85540000Y-80630000D03*
X83000000Y-83170000D03*
X85540000Y-83170000D03*
X83000000Y-85710000D03*
X85540000Y-85710000D03*
X83000000Y-88250000D03*
X85540000Y-88250000D03*
X83000000Y-90790000D03*
X85540000Y-90790000D03*
X83000000Y-93330000D03*
X85540000Y-93330000D03*
X83000000Y-95870000D03*
X85540000Y-95870000D03*
X83000000Y-98410000D03*
X85540000Y-98410000D03*
X83000000Y-100950000D03*
X85540000Y-100950000D03*
X83000000Y-103490000D03*
X85540000Y-103490000D03*
X83000000Y-106030000D03*
X85540000Y-106030000D03*
X83000000Y-108570000D03*
X85540000Y-108570000D03*
X83000000Y-111110000D03*
X85540000Y-111110000D03*
X83000000Y-113650000D03*
X85540000Y-113650000D03*
X83000000Y-116190000D03*
X85540000Y-116190000D03*
D18*
X102200000Y-84000000D03*
D13*
X102200000Y-86540000D03*
X102200000Y-89080000D03*
X102200000Y-91620000D03*
X102200000Y-94160000D03*
X102200000Y-96700000D03*
X102200000Y-99240000D03*
X109820000Y-99240000D03*
X109820000Y-96700000D03*
X109820000Y-94160000D03*
X109820000Y-91620000D03*
X109820000Y-89080000D03*
X109820000Y-86540000D03*
X109820000Y-84000000D03*
D16*
X104988683Y-77289682D03*
D17*
X107528683Y-77289682D03*
D18*
X91200000Y-102375000D03*
D13*
X91200000Y-104915000D03*
X91200000Y-107455000D03*
X91200000Y-109995000D03*
X91200000Y-112535000D03*
X91200000Y-115075000D03*
X91200000Y-117615000D03*
X98820000Y-117615000D03*
X98820000Y-115075000D03*
X98820000Y-112535000D03*
X98820000Y-109995000D03*
X98820000Y-107455000D03*
X98820000Y-104915000D03*
X98820000Y-102375000D03*
D16*
X103000000Y-133000000D03*
D17*
X103000000Y-135540000D03*
D19*
X67415000Y-75550000D03*
D20*
X69955000Y-75550000D03*
X67415000Y-78090000D03*
X69955000Y-78090000D03*
X67415000Y-80630000D03*
X69955000Y-80630000D03*
X67415000Y-83170000D03*
X69955000Y-83170000D03*
X67415000Y-85710000D03*
X69955000Y-85710000D03*
X67415000Y-88250000D03*
X69955000Y-88250000D03*
X67415000Y-90790000D03*
X69955000Y-90790000D03*
X67415000Y-93330000D03*
X69955000Y-93330000D03*
X67415000Y-95870000D03*
X69955000Y-95870000D03*
X67415000Y-98410000D03*
X69955000Y-98410000D03*
X67415000Y-100950000D03*
X69955000Y-100950000D03*
X67415000Y-103490000D03*
X69955000Y-103490000D03*
X67415000Y-106030000D03*
X69955000Y-106030000D03*
X67415000Y-108570000D03*
X69955000Y-108570000D03*
X67415000Y-111110000D03*
X69955000Y-111110000D03*
X67415000Y-113650000D03*
X69955000Y-113650000D03*
X67415000Y-116190000D03*
X69955000Y-116190000D03*
D16*
X79613106Y-127997615D03*
D17*
X79613106Y-130537615D03*
X79613106Y-133077615D03*
X79613106Y-135617615D03*
D16*
X75000000Y-75380000D03*
D17*
X77540000Y-75380000D03*
X75000000Y-77920000D03*
X77540000Y-77920000D03*
X75000000Y-80460000D03*
X77540000Y-80460000D03*
X75000000Y-83000000D03*
X77540000Y-83000000D03*
X75000000Y-85540000D03*
X77540000Y-85540000D03*
X75000000Y-88080000D03*
X77540000Y-88080000D03*
X75000000Y-90620000D03*
X77540000Y-90620000D03*
X75000000Y-93160000D03*
X77540000Y-93160000D03*
X75000000Y-95700000D03*
X77540000Y-95700000D03*
X75000000Y-98240000D03*
X77540000Y-98240000D03*
X75000000Y-100780000D03*
X77540000Y-100780000D03*
X75000000Y-103320000D03*
X77540000Y-103320000D03*
X75000000Y-105860000D03*
X77540000Y-105860000D03*
X75000000Y-108400000D03*
X77540000Y-108400000D03*
X75000000Y-110940000D03*
X77540000Y-110940000D03*
X75000000Y-113480000D03*
X77540000Y-113480000D03*
X75000000Y-116020000D03*
X77540000Y-116020000D03*
D16*
X75750000Y-122770000D03*
D17*
X75750000Y-125310000D03*
X75750000Y-127850000D03*
X75750000Y-130390000D03*
D12*
X111000000Y-112000000D03*
D13*
X103380000Y-112000000D03*
%LPD*%
M02*
